%TF.GenerationSoftware,KiCad,Pcbnew,9.0.7*%
%TF.CreationDate,2026-02-15T18:11:32-05:00*%
%TF.ProjectId,satellite-board,73617465-6c6c-4697-9465-2d626f617264,rev?*%
%TF.SameCoordinates,PX43ce660PY5296940*%
%TF.FileFunction,Profile,NP*%
%FSLAX46Y46*%
G04 Gerber Fmt 4.6, Leading zero omitted, Abs format (unit mm)*
G04 Created by KiCad (PCBNEW 9.0.7) date 2026-02-15 18:11:32*
%MOMM*%
%LPD*%
G01*
G04 APERTURE LIST*
%TA.AperFunction,Profile*%
%ADD10C,0.050000*%
%TD*%
%TA.AperFunction,Profile*%
%ADD11C,0.000000*%
%TD*%
G04 APERTURE END LIST*
D10*
X0Y56000000D02*
X0Y0D01*
X65000000Y56000000D02*
X0Y56000000D01*
X0Y0D02*
X65000000Y0D01*
X65000000Y0D02*
X65000000Y56000000D01*
D11*
%TA.AperFunction,Profile*%
%TO.C,USB1*%
G36*
X31778189Y50113358D02*
G01*
X31857317Y50067674D01*
X31921924Y50003067D01*
X31967608Y49923939D01*
X31991256Y49835684D01*
X31991256Y49744316D01*
X31967608Y49656061D01*
X31921924Y49576933D01*
X31857317Y49512326D01*
X31778189Y49466642D01*
X31689934Y49442994D01*
X31598566Y49442994D01*
X31510311Y49466642D01*
X31431183Y49512326D01*
X31366576Y49576933D01*
X31320892Y49656061D01*
X31297244Y49744316D01*
X31297244Y49835684D01*
X31320892Y49923939D01*
X31366576Y50003067D01*
X31431183Y50067674D01*
X31510311Y50113358D01*
X31598566Y50137006D01*
X31689934Y50137006D01*
X31778189Y50113358D01*
G37*
%TD.AperFunction*%
%TA.AperFunction,Profile*%
G36*
X31778189Y44333358D02*
G01*
X31857317Y44287674D01*
X31921924Y44223067D01*
X31967608Y44143939D01*
X31991256Y44055684D01*
X31991256Y43964316D01*
X31967608Y43876061D01*
X31921924Y43796933D01*
X31857317Y43732326D01*
X31778189Y43686642D01*
X31689934Y43662994D01*
X31598566Y43662994D01*
X31510311Y43686642D01*
X31431183Y43732326D01*
X31366576Y43796933D01*
X31320892Y43876061D01*
X31297244Y43964316D01*
X31297244Y44055684D01*
X31320892Y44143939D01*
X31366576Y44223067D01*
X31431183Y44287674D01*
X31510311Y44333358D01*
X31598566Y44357006D01*
X31689934Y44357006D01*
X31778189Y44333358D01*
G37*
%TD.AperFunction*%
%TD*%
M02*
