%TF.GenerationSoftware,KiCad,Pcbnew,9.0.7*%
%TF.CreationDate,2026-02-14T09:58:14-05:00*%
%TF.ProjectId,satellite-board,73617465-6c6c-4697-9465-2d626f617264,rev?*%
%TF.SameCoordinates,Original*%
%TF.FileFunction,Legend,Top*%
%TF.FilePolarity,Positive*%
%FSLAX46Y46*%
G04 Gerber Fmt 4.6, Leading zero omitted, Abs format (unit mm)*
G04 Created by KiCad (PCBNEW 9.0.7) date 2026-02-14 09:58:14*
%MOMM*%
%LPD*%
G01*
G04 APERTURE LIST*
%ADD10C,0.100000*%
%ADD11C,0.125000*%
%ADD12C,0.150000*%
%ADD13C,0.120000*%
%ADD14C,0.254000*%
%ADD15C,0.127000*%
%ADD16C,0.200000*%
%ADD17C,0.300000*%
G04 APERTURE END LIST*
D10*
X176256265Y-75696895D02*
X176256265Y-74896895D01*
X176256265Y-74896895D02*
X176446741Y-74896895D01*
X176446741Y-74896895D02*
X176561027Y-74934990D01*
X176561027Y-74934990D02*
X176637217Y-75011180D01*
X176637217Y-75011180D02*
X176675312Y-75087371D01*
X176675312Y-75087371D02*
X176713408Y-75239752D01*
X176713408Y-75239752D02*
X176713408Y-75354038D01*
X176713408Y-75354038D02*
X176675312Y-75506419D01*
X176675312Y-75506419D02*
X176637217Y-75582609D01*
X176637217Y-75582609D02*
X176561027Y-75658800D01*
X176561027Y-75658800D02*
X176446741Y-75696895D01*
X176446741Y-75696895D02*
X176256265Y-75696895D01*
X177361027Y-75658800D02*
X177284836Y-75696895D01*
X177284836Y-75696895D02*
X177132455Y-75696895D01*
X177132455Y-75696895D02*
X177056265Y-75658800D01*
X177056265Y-75658800D02*
X177018169Y-75582609D01*
X177018169Y-75582609D02*
X177018169Y-75277847D01*
X177018169Y-75277847D02*
X177056265Y-75201657D01*
X177056265Y-75201657D02*
X177132455Y-75163561D01*
X177132455Y-75163561D02*
X177284836Y-75163561D01*
X177284836Y-75163561D02*
X177361027Y-75201657D01*
X177361027Y-75201657D02*
X177399122Y-75277847D01*
X177399122Y-75277847D02*
X177399122Y-75354038D01*
X177399122Y-75354038D02*
X177018169Y-75430228D01*
X177703883Y-75658800D02*
X177780074Y-75696895D01*
X177780074Y-75696895D02*
X177932455Y-75696895D01*
X177932455Y-75696895D02*
X178008645Y-75658800D01*
X178008645Y-75658800D02*
X178046741Y-75582609D01*
X178046741Y-75582609D02*
X178046741Y-75544514D01*
X178046741Y-75544514D02*
X178008645Y-75468323D01*
X178008645Y-75468323D02*
X177932455Y-75430228D01*
X177932455Y-75430228D02*
X177818169Y-75430228D01*
X177818169Y-75430228D02*
X177741979Y-75392133D01*
X177741979Y-75392133D02*
X177703883Y-75315942D01*
X177703883Y-75315942D02*
X177703883Y-75277847D01*
X177703883Y-75277847D02*
X177741979Y-75201657D01*
X177741979Y-75201657D02*
X177818169Y-75163561D01*
X177818169Y-75163561D02*
X177932455Y-75163561D01*
X177932455Y-75163561D02*
X178008645Y-75201657D01*
X178389598Y-75696895D02*
X178389598Y-75163561D01*
X178389598Y-74896895D02*
X178351502Y-74934990D01*
X178351502Y-74934990D02*
X178389598Y-74973085D01*
X178389598Y-74973085D02*
X178427693Y-74934990D01*
X178427693Y-74934990D02*
X178389598Y-74896895D01*
X178389598Y-74896895D02*
X178389598Y-74973085D01*
X179113407Y-75163561D02*
X179113407Y-75811180D01*
X179113407Y-75811180D02*
X179075312Y-75887371D01*
X179075312Y-75887371D02*
X179037216Y-75925466D01*
X179037216Y-75925466D02*
X178961026Y-75963561D01*
X178961026Y-75963561D02*
X178846740Y-75963561D01*
X178846740Y-75963561D02*
X178770550Y-75925466D01*
X179113407Y-75658800D02*
X179037216Y-75696895D01*
X179037216Y-75696895D02*
X178884835Y-75696895D01*
X178884835Y-75696895D02*
X178808645Y-75658800D01*
X178808645Y-75658800D02*
X178770550Y-75620704D01*
X178770550Y-75620704D02*
X178732454Y-75544514D01*
X178732454Y-75544514D02*
X178732454Y-75315942D01*
X178732454Y-75315942D02*
X178770550Y-75239752D01*
X178770550Y-75239752D02*
X178808645Y-75201657D01*
X178808645Y-75201657D02*
X178884835Y-75163561D01*
X178884835Y-75163561D02*
X179037216Y-75163561D01*
X179037216Y-75163561D02*
X179113407Y-75201657D01*
X179494360Y-75163561D02*
X179494360Y-75696895D01*
X179494360Y-75239752D02*
X179532455Y-75201657D01*
X179532455Y-75201657D02*
X179608645Y-75163561D01*
X179608645Y-75163561D02*
X179722931Y-75163561D01*
X179722931Y-75163561D02*
X179799122Y-75201657D01*
X179799122Y-75201657D02*
X179837217Y-75277847D01*
X179837217Y-75277847D02*
X179837217Y-75696895D01*
X180522932Y-75658800D02*
X180446741Y-75696895D01*
X180446741Y-75696895D02*
X180294360Y-75696895D01*
X180294360Y-75696895D02*
X180218170Y-75658800D01*
X180218170Y-75658800D02*
X180180074Y-75582609D01*
X180180074Y-75582609D02*
X180180074Y-75277847D01*
X180180074Y-75277847D02*
X180218170Y-75201657D01*
X180218170Y-75201657D02*
X180294360Y-75163561D01*
X180294360Y-75163561D02*
X180446741Y-75163561D01*
X180446741Y-75163561D02*
X180522932Y-75201657D01*
X180522932Y-75201657D02*
X180561027Y-75277847D01*
X180561027Y-75277847D02*
X180561027Y-75354038D01*
X180561027Y-75354038D02*
X180180074Y-75430228D01*
X181246741Y-75696895D02*
X181246741Y-74896895D01*
X181246741Y-75658800D02*
X181170550Y-75696895D01*
X181170550Y-75696895D02*
X181018169Y-75696895D01*
X181018169Y-75696895D02*
X180941979Y-75658800D01*
X180941979Y-75658800D02*
X180903884Y-75620704D01*
X180903884Y-75620704D02*
X180865788Y-75544514D01*
X180865788Y-75544514D02*
X180865788Y-75315942D01*
X180865788Y-75315942D02*
X180903884Y-75239752D01*
X180903884Y-75239752D02*
X180941979Y-75201657D01*
X180941979Y-75201657D02*
X181018169Y-75163561D01*
X181018169Y-75163561D02*
X181170550Y-75163561D01*
X181170550Y-75163561D02*
X181246741Y-75201657D01*
X182237218Y-75696895D02*
X182237218Y-74896895D01*
X182237218Y-75201657D02*
X182313408Y-75163561D01*
X182313408Y-75163561D02*
X182465789Y-75163561D01*
X182465789Y-75163561D02*
X182541980Y-75201657D01*
X182541980Y-75201657D02*
X182580075Y-75239752D01*
X182580075Y-75239752D02*
X182618170Y-75315942D01*
X182618170Y-75315942D02*
X182618170Y-75544514D01*
X182618170Y-75544514D02*
X182580075Y-75620704D01*
X182580075Y-75620704D02*
X182541980Y-75658800D01*
X182541980Y-75658800D02*
X182465789Y-75696895D01*
X182465789Y-75696895D02*
X182313408Y-75696895D01*
X182313408Y-75696895D02*
X182237218Y-75658800D01*
X182884837Y-75163561D02*
X183075313Y-75696895D01*
X183265790Y-75163561D02*
X183075313Y-75696895D01*
X183075313Y-75696895D02*
X182999123Y-75887371D01*
X182999123Y-75887371D02*
X182961028Y-75925466D01*
X182961028Y-75925466D02*
X182884837Y-75963561D01*
X184180076Y-75696895D02*
X184180076Y-74896895D01*
X184180076Y-74896895D02*
X184446742Y-75468323D01*
X184446742Y-75468323D02*
X184713409Y-74896895D01*
X184713409Y-74896895D02*
X184713409Y-75696895D01*
X185094362Y-75696895D02*
X185094362Y-75163561D01*
X185094362Y-74896895D02*
X185056266Y-74934990D01*
X185056266Y-74934990D02*
X185094362Y-74973085D01*
X185094362Y-74973085D02*
X185132457Y-74934990D01*
X185132457Y-74934990D02*
X185094362Y-74896895D01*
X185094362Y-74896895D02*
X185094362Y-74973085D01*
X185818171Y-75658800D02*
X185741980Y-75696895D01*
X185741980Y-75696895D02*
X185589599Y-75696895D01*
X185589599Y-75696895D02*
X185513409Y-75658800D01*
X185513409Y-75658800D02*
X185475314Y-75620704D01*
X185475314Y-75620704D02*
X185437218Y-75544514D01*
X185437218Y-75544514D02*
X185437218Y-75315942D01*
X185437218Y-75315942D02*
X185475314Y-75239752D01*
X185475314Y-75239752D02*
X185513409Y-75201657D01*
X185513409Y-75201657D02*
X185589599Y-75163561D01*
X185589599Y-75163561D02*
X185741980Y-75163561D01*
X185741980Y-75163561D02*
X185818171Y-75201657D01*
X186161028Y-75696895D02*
X186161028Y-74896895D01*
X186503885Y-75696895D02*
X186503885Y-75277847D01*
X186503885Y-75277847D02*
X186465790Y-75201657D01*
X186465790Y-75201657D02*
X186389599Y-75163561D01*
X186389599Y-75163561D02*
X186275313Y-75163561D01*
X186275313Y-75163561D02*
X186199123Y-75201657D01*
X186199123Y-75201657D02*
X186161028Y-75239752D01*
X187227695Y-75696895D02*
X187227695Y-75277847D01*
X187227695Y-75277847D02*
X187189600Y-75201657D01*
X187189600Y-75201657D02*
X187113409Y-75163561D01*
X187113409Y-75163561D02*
X186961028Y-75163561D01*
X186961028Y-75163561D02*
X186884838Y-75201657D01*
X187227695Y-75658800D02*
X187151504Y-75696895D01*
X187151504Y-75696895D02*
X186961028Y-75696895D01*
X186961028Y-75696895D02*
X186884838Y-75658800D01*
X186884838Y-75658800D02*
X186846742Y-75582609D01*
X186846742Y-75582609D02*
X186846742Y-75506419D01*
X186846742Y-75506419D02*
X186884838Y-75430228D01*
X186884838Y-75430228D02*
X186961028Y-75392133D01*
X186961028Y-75392133D02*
X187151504Y-75392133D01*
X187151504Y-75392133D02*
X187227695Y-75354038D01*
X187913410Y-75658800D02*
X187837219Y-75696895D01*
X187837219Y-75696895D02*
X187684838Y-75696895D01*
X187684838Y-75696895D02*
X187608648Y-75658800D01*
X187608648Y-75658800D02*
X187570552Y-75582609D01*
X187570552Y-75582609D02*
X187570552Y-75277847D01*
X187570552Y-75277847D02*
X187608648Y-75201657D01*
X187608648Y-75201657D02*
X187684838Y-75163561D01*
X187684838Y-75163561D02*
X187837219Y-75163561D01*
X187837219Y-75163561D02*
X187913410Y-75201657D01*
X187913410Y-75201657D02*
X187951505Y-75277847D01*
X187951505Y-75277847D02*
X187951505Y-75354038D01*
X187951505Y-75354038D02*
X187570552Y-75430228D01*
X188408647Y-75696895D02*
X188332457Y-75658800D01*
X188332457Y-75658800D02*
X188294362Y-75582609D01*
X188294362Y-75582609D02*
X188294362Y-74896895D01*
X189322934Y-75696895D02*
X189322934Y-74896895D01*
X189322934Y-74896895D02*
X189513410Y-74896895D01*
X189513410Y-74896895D02*
X189627696Y-74934990D01*
X189627696Y-74934990D02*
X189703886Y-75011180D01*
X189703886Y-75011180D02*
X189741981Y-75087371D01*
X189741981Y-75087371D02*
X189780077Y-75239752D01*
X189780077Y-75239752D02*
X189780077Y-75354038D01*
X189780077Y-75354038D02*
X189741981Y-75506419D01*
X189741981Y-75506419D02*
X189703886Y-75582609D01*
X189703886Y-75582609D02*
X189627696Y-75658800D01*
X189627696Y-75658800D02*
X189513410Y-75696895D01*
X189513410Y-75696895D02*
X189322934Y-75696895D01*
X190465791Y-75696895D02*
X190465791Y-75277847D01*
X190465791Y-75277847D02*
X190427696Y-75201657D01*
X190427696Y-75201657D02*
X190351505Y-75163561D01*
X190351505Y-75163561D02*
X190199124Y-75163561D01*
X190199124Y-75163561D02*
X190122934Y-75201657D01*
X190465791Y-75658800D02*
X190389600Y-75696895D01*
X190389600Y-75696895D02*
X190199124Y-75696895D01*
X190199124Y-75696895D02*
X190122934Y-75658800D01*
X190122934Y-75658800D02*
X190084838Y-75582609D01*
X190084838Y-75582609D02*
X190084838Y-75506419D01*
X190084838Y-75506419D02*
X190122934Y-75430228D01*
X190122934Y-75430228D02*
X190199124Y-75392133D01*
X190199124Y-75392133D02*
X190389600Y-75392133D01*
X190389600Y-75392133D02*
X190465791Y-75354038D01*
X190846744Y-75163561D02*
X190846744Y-75696895D01*
X190846744Y-75239752D02*
X190884839Y-75201657D01*
X190884839Y-75201657D02*
X190961029Y-75163561D01*
X190961029Y-75163561D02*
X191075315Y-75163561D01*
X191075315Y-75163561D02*
X191151506Y-75201657D01*
X191151506Y-75201657D02*
X191189601Y-75277847D01*
X191189601Y-75277847D02*
X191189601Y-75696895D01*
X191684839Y-75696895D02*
X191608649Y-75658800D01*
X191608649Y-75658800D02*
X191570554Y-75582609D01*
X191570554Y-75582609D02*
X191570554Y-74896895D01*
X192294364Y-75658800D02*
X192218173Y-75696895D01*
X192218173Y-75696895D02*
X192065792Y-75696895D01*
X192065792Y-75696895D02*
X191989602Y-75658800D01*
X191989602Y-75658800D02*
X191951506Y-75582609D01*
X191951506Y-75582609D02*
X191951506Y-75277847D01*
X191951506Y-75277847D02*
X191989602Y-75201657D01*
X191989602Y-75201657D02*
X192065792Y-75163561D01*
X192065792Y-75163561D02*
X192218173Y-75163561D01*
X192218173Y-75163561D02*
X192294364Y-75201657D01*
X192294364Y-75201657D02*
X192332459Y-75277847D01*
X192332459Y-75277847D02*
X192332459Y-75354038D01*
X192332459Y-75354038D02*
X191951506Y-75430228D01*
X192599125Y-75163561D02*
X192789601Y-75696895D01*
X192980078Y-75163561D02*
X192789601Y-75696895D01*
X192789601Y-75696895D02*
X192713411Y-75887371D01*
X192713411Y-75887371D02*
X192675316Y-75925466D01*
X192675316Y-75925466D02*
X192599125Y-75963561D01*
D11*
X176248318Y-72530977D02*
X176248318Y-71280977D01*
X176248318Y-71280977D02*
X176724508Y-71280977D01*
X176724508Y-71280977D02*
X176843556Y-71340501D01*
X176843556Y-71340501D02*
X176903079Y-71400025D01*
X176903079Y-71400025D02*
X176962603Y-71519073D01*
X176962603Y-71519073D02*
X176962603Y-71697644D01*
X176962603Y-71697644D02*
X176903079Y-71816692D01*
X176903079Y-71816692D02*
X176843556Y-71876215D01*
X176843556Y-71876215D02*
X176724508Y-71935739D01*
X176724508Y-71935739D02*
X176248318Y-71935739D01*
X177498318Y-72530977D02*
X177498318Y-71697644D01*
X177498318Y-71935739D02*
X177557841Y-71816692D01*
X177557841Y-71816692D02*
X177617365Y-71757168D01*
X177617365Y-71757168D02*
X177736413Y-71697644D01*
X177736413Y-71697644D02*
X177855460Y-71697644D01*
X178450699Y-72530977D02*
X178331651Y-72471454D01*
X178331651Y-72471454D02*
X178272128Y-72411930D01*
X178272128Y-72411930D02*
X178212604Y-72292882D01*
X178212604Y-72292882D02*
X178212604Y-71935739D01*
X178212604Y-71935739D02*
X178272128Y-71816692D01*
X178272128Y-71816692D02*
X178331651Y-71757168D01*
X178331651Y-71757168D02*
X178450699Y-71697644D01*
X178450699Y-71697644D02*
X178629270Y-71697644D01*
X178629270Y-71697644D02*
X178748318Y-71757168D01*
X178748318Y-71757168D02*
X178807842Y-71816692D01*
X178807842Y-71816692D02*
X178867366Y-71935739D01*
X178867366Y-71935739D02*
X178867366Y-72292882D01*
X178867366Y-72292882D02*
X178807842Y-72411930D01*
X178807842Y-72411930D02*
X178748318Y-72471454D01*
X178748318Y-72471454D02*
X178629270Y-72530977D01*
X178629270Y-72530977D02*
X178450699Y-72530977D01*
X179403080Y-71697644D02*
X179403080Y-72769073D01*
X179403080Y-72769073D02*
X179343556Y-72888120D01*
X179343556Y-72888120D02*
X179224508Y-72947644D01*
X179224508Y-72947644D02*
X179164984Y-72947644D01*
X179403080Y-71280977D02*
X179343556Y-71340501D01*
X179343556Y-71340501D02*
X179403080Y-71400025D01*
X179403080Y-71400025D02*
X179462603Y-71340501D01*
X179462603Y-71340501D02*
X179403080Y-71280977D01*
X179403080Y-71280977D02*
X179403080Y-71400025D01*
X180474508Y-72471454D02*
X180355460Y-72530977D01*
X180355460Y-72530977D02*
X180117365Y-72530977D01*
X180117365Y-72530977D02*
X179998318Y-72471454D01*
X179998318Y-72471454D02*
X179938794Y-72352406D01*
X179938794Y-72352406D02*
X179938794Y-71876215D01*
X179938794Y-71876215D02*
X179998318Y-71757168D01*
X179998318Y-71757168D02*
X180117365Y-71697644D01*
X180117365Y-71697644D02*
X180355460Y-71697644D01*
X180355460Y-71697644D02*
X180474508Y-71757168D01*
X180474508Y-71757168D02*
X180534032Y-71876215D01*
X180534032Y-71876215D02*
X180534032Y-71995263D01*
X180534032Y-71995263D02*
X179938794Y-72114311D01*
X181605461Y-72471454D02*
X181486413Y-72530977D01*
X181486413Y-72530977D02*
X181248318Y-72530977D01*
X181248318Y-72530977D02*
X181129270Y-72471454D01*
X181129270Y-72471454D02*
X181069747Y-72411930D01*
X181069747Y-72411930D02*
X181010223Y-72292882D01*
X181010223Y-72292882D02*
X181010223Y-71935739D01*
X181010223Y-71935739D02*
X181069747Y-71816692D01*
X181069747Y-71816692D02*
X181129270Y-71757168D01*
X181129270Y-71757168D02*
X181248318Y-71697644D01*
X181248318Y-71697644D02*
X181486413Y-71697644D01*
X181486413Y-71697644D02*
X181605461Y-71757168D01*
X181962604Y-71697644D02*
X182438795Y-71697644D01*
X182141176Y-71280977D02*
X182141176Y-72352406D01*
X182141176Y-72352406D02*
X182200699Y-72471454D01*
X182200699Y-72471454D02*
X182319747Y-72530977D01*
X182319747Y-72530977D02*
X182438795Y-72530977D01*
X184045938Y-71280977D02*
X184284033Y-71280977D01*
X184284033Y-71280977D02*
X184403081Y-71340501D01*
X184403081Y-71340501D02*
X184522128Y-71459549D01*
X184522128Y-71459549D02*
X184581652Y-71697644D01*
X184581652Y-71697644D02*
X184581652Y-72114311D01*
X184581652Y-72114311D02*
X184522128Y-72352406D01*
X184522128Y-72352406D02*
X184403081Y-72471454D01*
X184403081Y-72471454D02*
X184284033Y-72530977D01*
X184284033Y-72530977D02*
X184045938Y-72530977D01*
X184045938Y-72530977D02*
X183926890Y-72471454D01*
X183926890Y-72471454D02*
X183807843Y-72352406D01*
X183807843Y-72352406D02*
X183748319Y-72114311D01*
X183748319Y-72114311D02*
X183748319Y-71697644D01*
X183748319Y-71697644D02*
X183807843Y-71459549D01*
X183807843Y-71459549D02*
X183926890Y-71340501D01*
X183926890Y-71340501D02*
X184045938Y-71280977D01*
X185831652Y-72530977D02*
X185414986Y-71935739D01*
X185117367Y-72530977D02*
X185117367Y-71280977D01*
X185117367Y-71280977D02*
X185593557Y-71280977D01*
X185593557Y-71280977D02*
X185712605Y-71340501D01*
X185712605Y-71340501D02*
X185772128Y-71400025D01*
X185772128Y-71400025D02*
X185831652Y-71519073D01*
X185831652Y-71519073D02*
X185831652Y-71697644D01*
X185831652Y-71697644D02*
X185772128Y-71816692D01*
X185772128Y-71816692D02*
X185712605Y-71876215D01*
X185712605Y-71876215D02*
X185593557Y-71935739D01*
X185593557Y-71935739D02*
X185117367Y-71935739D01*
X187081652Y-72411930D02*
X187022128Y-72471454D01*
X187022128Y-72471454D02*
X186843557Y-72530977D01*
X186843557Y-72530977D02*
X186724509Y-72530977D01*
X186724509Y-72530977D02*
X186545938Y-72471454D01*
X186545938Y-72471454D02*
X186426890Y-72352406D01*
X186426890Y-72352406D02*
X186367367Y-72233358D01*
X186367367Y-72233358D02*
X186307843Y-71995263D01*
X186307843Y-71995263D02*
X186307843Y-71816692D01*
X186307843Y-71816692D02*
X186367367Y-71578596D01*
X186367367Y-71578596D02*
X186426890Y-71459549D01*
X186426890Y-71459549D02*
X186545938Y-71340501D01*
X186545938Y-71340501D02*
X186724509Y-71280977D01*
X186724509Y-71280977D02*
X186843557Y-71280977D01*
X186843557Y-71280977D02*
X187022128Y-71340501D01*
X187022128Y-71340501D02*
X187081652Y-71400025D01*
X187557843Y-72173834D02*
X188153081Y-72173834D01*
X187438795Y-72530977D02*
X187855462Y-71280977D01*
X187855462Y-71280977D02*
X188272128Y-72530977D01*
X189641177Y-72054787D02*
X190593558Y-72054787D01*
X192081653Y-72471454D02*
X192260224Y-72530977D01*
X192260224Y-72530977D02*
X192557843Y-72530977D01*
X192557843Y-72530977D02*
X192676891Y-72471454D01*
X192676891Y-72471454D02*
X192736415Y-72411930D01*
X192736415Y-72411930D02*
X192795938Y-72292882D01*
X192795938Y-72292882D02*
X192795938Y-72173834D01*
X192795938Y-72173834D02*
X192736415Y-72054787D01*
X192736415Y-72054787D02*
X192676891Y-71995263D01*
X192676891Y-71995263D02*
X192557843Y-71935739D01*
X192557843Y-71935739D02*
X192319748Y-71876215D01*
X192319748Y-71876215D02*
X192200700Y-71816692D01*
X192200700Y-71816692D02*
X192141177Y-71757168D01*
X192141177Y-71757168D02*
X192081653Y-71638120D01*
X192081653Y-71638120D02*
X192081653Y-71519073D01*
X192081653Y-71519073D02*
X192141177Y-71400025D01*
X192141177Y-71400025D02*
X192200700Y-71340501D01*
X192200700Y-71340501D02*
X192319748Y-71280977D01*
X192319748Y-71280977D02*
X192617367Y-71280977D01*
X192617367Y-71280977D02*
X192795938Y-71340501D01*
X193272129Y-72173834D02*
X193867367Y-72173834D01*
X193153081Y-72530977D02*
X193569748Y-71280977D01*
X193569748Y-71280977D02*
X193986414Y-72530977D01*
X194224510Y-71280977D02*
X194938796Y-71280977D01*
X194581653Y-72530977D02*
X194581653Y-71280977D01*
X195355463Y-71876215D02*
X195772129Y-71876215D01*
X195950701Y-72530977D02*
X195355463Y-72530977D01*
X195355463Y-72530977D02*
X195355463Y-71280977D01*
X195355463Y-71280977D02*
X195950701Y-71280977D01*
X197081653Y-72530977D02*
X196486415Y-72530977D01*
X196486415Y-72530977D02*
X196486415Y-71280977D01*
X198093558Y-72530977D02*
X197498320Y-72530977D01*
X197498320Y-72530977D02*
X197498320Y-71280977D01*
X198510225Y-72530977D02*
X198510225Y-71280977D01*
X198926891Y-71280977D02*
X199641177Y-71280977D01*
X199284034Y-72530977D02*
X199284034Y-71280977D01*
X200057844Y-71876215D02*
X200474510Y-71876215D01*
X200653082Y-72530977D02*
X200057844Y-72530977D01*
X200057844Y-72530977D02*
X200057844Y-71280977D01*
X200057844Y-71280977D02*
X200653082Y-71280977D01*
D10*
X176206669Y-74257213D02*
X176349526Y-74304832D01*
X176349526Y-74304832D02*
X176587621Y-74304832D01*
X176587621Y-74304832D02*
X176682859Y-74257213D01*
X176682859Y-74257213D02*
X176730478Y-74209593D01*
X176730478Y-74209593D02*
X176778097Y-74114355D01*
X176778097Y-74114355D02*
X176778097Y-74019117D01*
X176778097Y-74019117D02*
X176730478Y-73923879D01*
X176730478Y-73923879D02*
X176682859Y-73876260D01*
X176682859Y-73876260D02*
X176587621Y-73828641D01*
X176587621Y-73828641D02*
X176397145Y-73781022D01*
X176397145Y-73781022D02*
X176301907Y-73733403D01*
X176301907Y-73733403D02*
X176254288Y-73685784D01*
X176254288Y-73685784D02*
X176206669Y-73590546D01*
X176206669Y-73590546D02*
X176206669Y-73495308D01*
X176206669Y-73495308D02*
X176254288Y-73400070D01*
X176254288Y-73400070D02*
X176301907Y-73352451D01*
X176301907Y-73352451D02*
X176397145Y-73304832D01*
X176397145Y-73304832D02*
X176635240Y-73304832D01*
X176635240Y-73304832D02*
X176778097Y-73352451D01*
X177587621Y-74257213D02*
X177492383Y-74304832D01*
X177492383Y-74304832D02*
X177301907Y-74304832D01*
X177301907Y-74304832D02*
X177206669Y-74257213D01*
X177206669Y-74257213D02*
X177159050Y-74161974D01*
X177159050Y-74161974D02*
X177159050Y-73781022D01*
X177159050Y-73781022D02*
X177206669Y-73685784D01*
X177206669Y-73685784D02*
X177301907Y-73638165D01*
X177301907Y-73638165D02*
X177492383Y-73638165D01*
X177492383Y-73638165D02*
X177587621Y-73685784D01*
X177587621Y-73685784D02*
X177635240Y-73781022D01*
X177635240Y-73781022D02*
X177635240Y-73876260D01*
X177635240Y-73876260D02*
X177159050Y-73971498D01*
X178063812Y-73638165D02*
X178063812Y-74304832D01*
X178063812Y-73733403D02*
X178111431Y-73685784D01*
X178111431Y-73685784D02*
X178206669Y-73638165D01*
X178206669Y-73638165D02*
X178349526Y-73638165D01*
X178349526Y-73638165D02*
X178444764Y-73685784D01*
X178444764Y-73685784D02*
X178492383Y-73781022D01*
X178492383Y-73781022D02*
X178492383Y-74304832D01*
X178920955Y-74257213D02*
X179016193Y-74304832D01*
X179016193Y-74304832D02*
X179206669Y-74304832D01*
X179206669Y-74304832D02*
X179301907Y-74257213D01*
X179301907Y-74257213D02*
X179349526Y-74161974D01*
X179349526Y-74161974D02*
X179349526Y-74114355D01*
X179349526Y-74114355D02*
X179301907Y-74019117D01*
X179301907Y-74019117D02*
X179206669Y-73971498D01*
X179206669Y-73971498D02*
X179063812Y-73971498D01*
X179063812Y-73971498D02*
X178968574Y-73923879D01*
X178968574Y-73923879D02*
X178920955Y-73828641D01*
X178920955Y-73828641D02*
X178920955Y-73781022D01*
X178920955Y-73781022D02*
X178968574Y-73685784D01*
X178968574Y-73685784D02*
X179063812Y-73638165D01*
X179063812Y-73638165D02*
X179206669Y-73638165D01*
X179206669Y-73638165D02*
X179301907Y-73685784D01*
X179920955Y-74304832D02*
X179825717Y-74257213D01*
X179825717Y-74257213D02*
X179778098Y-74209593D01*
X179778098Y-74209593D02*
X179730479Y-74114355D01*
X179730479Y-74114355D02*
X179730479Y-73828641D01*
X179730479Y-73828641D02*
X179778098Y-73733403D01*
X179778098Y-73733403D02*
X179825717Y-73685784D01*
X179825717Y-73685784D02*
X179920955Y-73638165D01*
X179920955Y-73638165D02*
X180063812Y-73638165D01*
X180063812Y-73638165D02*
X180159050Y-73685784D01*
X180159050Y-73685784D02*
X180206669Y-73733403D01*
X180206669Y-73733403D02*
X180254288Y-73828641D01*
X180254288Y-73828641D02*
X180254288Y-74114355D01*
X180254288Y-74114355D02*
X180206669Y-74209593D01*
X180206669Y-74209593D02*
X180159050Y-74257213D01*
X180159050Y-74257213D02*
X180063812Y-74304832D01*
X180063812Y-74304832D02*
X179920955Y-74304832D01*
X180682860Y-74304832D02*
X180682860Y-73638165D01*
X180682860Y-73828641D02*
X180730479Y-73733403D01*
X180730479Y-73733403D02*
X180778098Y-73685784D01*
X180778098Y-73685784D02*
X180873336Y-73638165D01*
X180873336Y-73638165D02*
X180968574Y-73638165D01*
X182063813Y-74304832D02*
X182063813Y-73304832D01*
X182063813Y-73304832D02*
X182301908Y-73304832D01*
X182301908Y-73304832D02*
X182444765Y-73352451D01*
X182444765Y-73352451D02*
X182540003Y-73447689D01*
X182540003Y-73447689D02*
X182587622Y-73542927D01*
X182587622Y-73542927D02*
X182635241Y-73733403D01*
X182635241Y-73733403D02*
X182635241Y-73876260D01*
X182635241Y-73876260D02*
X182587622Y-74066736D01*
X182587622Y-74066736D02*
X182540003Y-74161974D01*
X182540003Y-74161974D02*
X182444765Y-74257213D01*
X182444765Y-74257213D02*
X182301908Y-74304832D01*
X182301908Y-74304832D02*
X182063813Y-74304832D01*
X183492384Y-74304832D02*
X183492384Y-73781022D01*
X183492384Y-73781022D02*
X183444765Y-73685784D01*
X183444765Y-73685784D02*
X183349527Y-73638165D01*
X183349527Y-73638165D02*
X183159051Y-73638165D01*
X183159051Y-73638165D02*
X183063813Y-73685784D01*
X183492384Y-74257213D02*
X183397146Y-74304832D01*
X183397146Y-74304832D02*
X183159051Y-74304832D01*
X183159051Y-74304832D02*
X183063813Y-74257213D01*
X183063813Y-74257213D02*
X183016194Y-74161974D01*
X183016194Y-74161974D02*
X183016194Y-74066736D01*
X183016194Y-74066736D02*
X183063813Y-73971498D01*
X183063813Y-73971498D02*
X183159051Y-73923879D01*
X183159051Y-73923879D02*
X183397146Y-73923879D01*
X183397146Y-73923879D02*
X183492384Y-73876260D01*
X183825718Y-73638165D02*
X184206670Y-73638165D01*
X183968575Y-73304832D02*
X183968575Y-74161974D01*
X183968575Y-74161974D02*
X184016194Y-74257213D01*
X184016194Y-74257213D02*
X184111432Y-74304832D01*
X184111432Y-74304832D02*
X184206670Y-74304832D01*
X184968575Y-74304832D02*
X184968575Y-73781022D01*
X184968575Y-73781022D02*
X184920956Y-73685784D01*
X184920956Y-73685784D02*
X184825718Y-73638165D01*
X184825718Y-73638165D02*
X184635242Y-73638165D01*
X184635242Y-73638165D02*
X184540004Y-73685784D01*
X184968575Y-74257213D02*
X184873337Y-74304832D01*
X184873337Y-74304832D02*
X184635242Y-74304832D01*
X184635242Y-74304832D02*
X184540004Y-74257213D01*
X184540004Y-74257213D02*
X184492385Y-74161974D01*
X184492385Y-74161974D02*
X184492385Y-74066736D01*
X184492385Y-74066736D02*
X184540004Y-73971498D01*
X184540004Y-73971498D02*
X184635242Y-73923879D01*
X184635242Y-73923879D02*
X184873337Y-73923879D01*
X184873337Y-73923879D02*
X184968575Y-73876260D01*
X186063814Y-73304832D02*
X186635242Y-73304832D01*
X186349528Y-74304832D02*
X186349528Y-73304832D01*
X186968576Y-74304832D02*
X186968576Y-73638165D01*
X186968576Y-73828641D02*
X187016195Y-73733403D01*
X187016195Y-73733403D02*
X187063814Y-73685784D01*
X187063814Y-73685784D02*
X187159052Y-73638165D01*
X187159052Y-73638165D02*
X187254290Y-73638165D01*
X188016195Y-74304832D02*
X188016195Y-73781022D01*
X188016195Y-73781022D02*
X187968576Y-73685784D01*
X187968576Y-73685784D02*
X187873338Y-73638165D01*
X187873338Y-73638165D02*
X187682862Y-73638165D01*
X187682862Y-73638165D02*
X187587624Y-73685784D01*
X188016195Y-74257213D02*
X187920957Y-74304832D01*
X187920957Y-74304832D02*
X187682862Y-74304832D01*
X187682862Y-74304832D02*
X187587624Y-74257213D01*
X187587624Y-74257213D02*
X187540005Y-74161974D01*
X187540005Y-74161974D02*
X187540005Y-74066736D01*
X187540005Y-74066736D02*
X187587624Y-73971498D01*
X187587624Y-73971498D02*
X187682862Y-73923879D01*
X187682862Y-73923879D02*
X187920957Y-73923879D01*
X187920957Y-73923879D02*
X188016195Y-73876260D01*
X188492386Y-73638165D02*
X188492386Y-74304832D01*
X188492386Y-73733403D02*
X188540005Y-73685784D01*
X188540005Y-73685784D02*
X188635243Y-73638165D01*
X188635243Y-73638165D02*
X188778100Y-73638165D01*
X188778100Y-73638165D02*
X188873338Y-73685784D01*
X188873338Y-73685784D02*
X188920957Y-73781022D01*
X188920957Y-73781022D02*
X188920957Y-74304832D01*
X189349529Y-74257213D02*
X189444767Y-74304832D01*
X189444767Y-74304832D02*
X189635243Y-74304832D01*
X189635243Y-74304832D02*
X189730481Y-74257213D01*
X189730481Y-74257213D02*
X189778100Y-74161974D01*
X189778100Y-74161974D02*
X189778100Y-74114355D01*
X189778100Y-74114355D02*
X189730481Y-74019117D01*
X189730481Y-74019117D02*
X189635243Y-73971498D01*
X189635243Y-73971498D02*
X189492386Y-73971498D01*
X189492386Y-73971498D02*
X189397148Y-73923879D01*
X189397148Y-73923879D02*
X189349529Y-73828641D01*
X189349529Y-73828641D02*
X189349529Y-73781022D01*
X189349529Y-73781022D02*
X189397148Y-73685784D01*
X189397148Y-73685784D02*
X189492386Y-73638165D01*
X189492386Y-73638165D02*
X189635243Y-73638165D01*
X189635243Y-73638165D02*
X189730481Y-73685784D01*
X190206672Y-74304832D02*
X190206672Y-73638165D01*
X190206672Y-73733403D02*
X190254291Y-73685784D01*
X190254291Y-73685784D02*
X190349529Y-73638165D01*
X190349529Y-73638165D02*
X190492386Y-73638165D01*
X190492386Y-73638165D02*
X190587624Y-73685784D01*
X190587624Y-73685784D02*
X190635243Y-73781022D01*
X190635243Y-73781022D02*
X190635243Y-74304832D01*
X190635243Y-73781022D02*
X190682862Y-73685784D01*
X190682862Y-73685784D02*
X190778100Y-73638165D01*
X190778100Y-73638165D02*
X190920957Y-73638165D01*
X190920957Y-73638165D02*
X191016196Y-73685784D01*
X191016196Y-73685784D02*
X191063815Y-73781022D01*
X191063815Y-73781022D02*
X191063815Y-74304832D01*
X191540005Y-74304832D02*
X191540005Y-73638165D01*
X191540005Y-73304832D02*
X191492386Y-73352451D01*
X191492386Y-73352451D02*
X191540005Y-73400070D01*
X191540005Y-73400070D02*
X191587624Y-73352451D01*
X191587624Y-73352451D02*
X191540005Y-73304832D01*
X191540005Y-73304832D02*
X191540005Y-73400070D01*
X191873338Y-73638165D02*
X192254290Y-73638165D01*
X192016195Y-73304832D02*
X192016195Y-74161974D01*
X192016195Y-74161974D02*
X192063814Y-74257213D01*
X192063814Y-74257213D02*
X192159052Y-74304832D01*
X192159052Y-74304832D02*
X192254290Y-74304832D01*
X193349529Y-74304832D02*
X193349529Y-73304832D01*
X193349529Y-73781022D02*
X193920957Y-73781022D01*
X193920957Y-74304832D02*
X193920957Y-73304832D01*
X194825719Y-73638165D02*
X194825719Y-74304832D01*
X194397148Y-73638165D02*
X194397148Y-74161974D01*
X194397148Y-74161974D02*
X194444767Y-74257213D01*
X194444767Y-74257213D02*
X194540005Y-74304832D01*
X194540005Y-74304832D02*
X194682862Y-74304832D01*
X194682862Y-74304832D02*
X194778100Y-74257213D01*
X194778100Y-74257213D02*
X194825719Y-74209593D01*
X195301910Y-74304832D02*
X195301910Y-73304832D01*
X195301910Y-73685784D02*
X195397148Y-73638165D01*
X195397148Y-73638165D02*
X195587624Y-73638165D01*
X195587624Y-73638165D02*
X195682862Y-73685784D01*
X195682862Y-73685784D02*
X195730481Y-73733403D01*
X195730481Y-73733403D02*
X195778100Y-73828641D01*
X195778100Y-73828641D02*
X195778100Y-74114355D01*
X195778100Y-74114355D02*
X195730481Y-74209593D01*
X195730481Y-74209593D02*
X195682862Y-74257213D01*
X195682862Y-74257213D02*
X195587624Y-74304832D01*
X195587624Y-74304832D02*
X195397148Y-74304832D01*
X195397148Y-74304832D02*
X195301910Y-74257213D01*
X175800000Y-70800000D02*
X201200000Y-70800000D01*
X201200000Y-76200000D01*
X175800000Y-76200000D01*
X175800000Y-70800000D01*
D12*
X179284819Y-63304166D02*
X178808628Y-63637499D01*
X179284819Y-63875594D02*
X178284819Y-63875594D01*
X178284819Y-63875594D02*
X178284819Y-63494642D01*
X178284819Y-63494642D02*
X178332438Y-63399404D01*
X178332438Y-63399404D02*
X178380057Y-63351785D01*
X178380057Y-63351785D02*
X178475295Y-63304166D01*
X178475295Y-63304166D02*
X178618152Y-63304166D01*
X178618152Y-63304166D02*
X178713390Y-63351785D01*
X178713390Y-63351785D02*
X178761009Y-63399404D01*
X178761009Y-63399404D02*
X178808628Y-63494642D01*
X178808628Y-63494642D02*
X178808628Y-63875594D01*
X178618152Y-62447023D02*
X179284819Y-62447023D01*
X178237200Y-62685118D02*
X178951485Y-62923213D01*
X178951485Y-62923213D02*
X178951485Y-62304166D01*
X187638095Y-89854819D02*
X187638095Y-90664342D01*
X187638095Y-90664342D02*
X187685714Y-90759580D01*
X187685714Y-90759580D02*
X187733333Y-90807200D01*
X187733333Y-90807200D02*
X187828571Y-90854819D01*
X187828571Y-90854819D02*
X188019047Y-90854819D01*
X188019047Y-90854819D02*
X188114285Y-90807200D01*
X188114285Y-90807200D02*
X188161904Y-90759580D01*
X188161904Y-90759580D02*
X188209523Y-90664342D01*
X188209523Y-90664342D02*
X188209523Y-89854819D01*
X188638095Y-89950057D02*
X188685714Y-89902438D01*
X188685714Y-89902438D02*
X188780952Y-89854819D01*
X188780952Y-89854819D02*
X189019047Y-89854819D01*
X189019047Y-89854819D02*
X189114285Y-89902438D01*
X189114285Y-89902438D02*
X189161904Y-89950057D01*
X189161904Y-89950057D02*
X189209523Y-90045295D01*
X189209523Y-90045295D02*
X189209523Y-90140533D01*
X189209523Y-90140533D02*
X189161904Y-90283390D01*
X189161904Y-90283390D02*
X188590476Y-90854819D01*
X188590476Y-90854819D02*
X189209523Y-90854819D01*
X164854819Y-84949404D02*
X165664342Y-84949404D01*
X165664342Y-84949404D02*
X165759580Y-84901785D01*
X165759580Y-84901785D02*
X165807200Y-84854166D01*
X165807200Y-84854166D02*
X165854819Y-84758928D01*
X165854819Y-84758928D02*
X165854819Y-84568452D01*
X165854819Y-84568452D02*
X165807200Y-84473214D01*
X165807200Y-84473214D02*
X165759580Y-84425595D01*
X165759580Y-84425595D02*
X165664342Y-84377976D01*
X165664342Y-84377976D02*
X164854819Y-84377976D01*
X164854819Y-83425595D02*
X164854819Y-83901785D01*
X164854819Y-83901785D02*
X165331009Y-83949404D01*
X165331009Y-83949404D02*
X165283390Y-83901785D01*
X165283390Y-83901785D02*
X165235771Y-83806547D01*
X165235771Y-83806547D02*
X165235771Y-83568452D01*
X165235771Y-83568452D02*
X165283390Y-83473214D01*
X165283390Y-83473214D02*
X165331009Y-83425595D01*
X165331009Y-83425595D02*
X165426247Y-83377976D01*
X165426247Y-83377976D02*
X165664342Y-83377976D01*
X165664342Y-83377976D02*
X165759580Y-83425595D01*
X165759580Y-83425595D02*
X165807200Y-83473214D01*
X165807200Y-83473214D02*
X165854819Y-83568452D01*
X165854819Y-83568452D02*
X165854819Y-83806547D01*
X165854819Y-83806547D02*
X165807200Y-83901785D01*
X165807200Y-83901785D02*
X165759580Y-83949404D01*
X156633333Y-51984580D02*
X156585714Y-52032200D01*
X156585714Y-52032200D02*
X156442857Y-52079819D01*
X156442857Y-52079819D02*
X156347619Y-52079819D01*
X156347619Y-52079819D02*
X156204762Y-52032200D01*
X156204762Y-52032200D02*
X156109524Y-51936961D01*
X156109524Y-51936961D02*
X156061905Y-51841723D01*
X156061905Y-51841723D02*
X156014286Y-51651247D01*
X156014286Y-51651247D02*
X156014286Y-51508390D01*
X156014286Y-51508390D02*
X156061905Y-51317914D01*
X156061905Y-51317914D02*
X156109524Y-51222676D01*
X156109524Y-51222676D02*
X156204762Y-51127438D01*
X156204762Y-51127438D02*
X156347619Y-51079819D01*
X156347619Y-51079819D02*
X156442857Y-51079819D01*
X156442857Y-51079819D02*
X156585714Y-51127438D01*
X156585714Y-51127438D02*
X156633333Y-51175057D01*
X157204762Y-51508390D02*
X157109524Y-51460771D01*
X157109524Y-51460771D02*
X157061905Y-51413152D01*
X157061905Y-51413152D02*
X157014286Y-51317914D01*
X157014286Y-51317914D02*
X157014286Y-51270295D01*
X157014286Y-51270295D02*
X157061905Y-51175057D01*
X157061905Y-51175057D02*
X157109524Y-51127438D01*
X157109524Y-51127438D02*
X157204762Y-51079819D01*
X157204762Y-51079819D02*
X157395238Y-51079819D01*
X157395238Y-51079819D02*
X157490476Y-51127438D01*
X157490476Y-51127438D02*
X157538095Y-51175057D01*
X157538095Y-51175057D02*
X157585714Y-51270295D01*
X157585714Y-51270295D02*
X157585714Y-51317914D01*
X157585714Y-51317914D02*
X157538095Y-51413152D01*
X157538095Y-51413152D02*
X157490476Y-51460771D01*
X157490476Y-51460771D02*
X157395238Y-51508390D01*
X157395238Y-51508390D02*
X157204762Y-51508390D01*
X157204762Y-51508390D02*
X157109524Y-51556009D01*
X157109524Y-51556009D02*
X157061905Y-51603628D01*
X157061905Y-51603628D02*
X157014286Y-51698866D01*
X157014286Y-51698866D02*
X157014286Y-51889342D01*
X157014286Y-51889342D02*
X157061905Y-51984580D01*
X157061905Y-51984580D02*
X157109524Y-52032200D01*
X157109524Y-52032200D02*
X157204762Y-52079819D01*
X157204762Y-52079819D02*
X157395238Y-52079819D01*
X157395238Y-52079819D02*
X157490476Y-52032200D01*
X157490476Y-52032200D02*
X157538095Y-51984580D01*
X157538095Y-51984580D02*
X157585714Y-51889342D01*
X157585714Y-51889342D02*
X157585714Y-51698866D01*
X157585714Y-51698866D02*
X157538095Y-51603628D01*
X157538095Y-51603628D02*
X157490476Y-51556009D01*
X157490476Y-51556009D02*
X157395238Y-51508390D01*
X148869819Y-66736904D02*
X149679342Y-66736904D01*
X149679342Y-66736904D02*
X149774580Y-66689285D01*
X149774580Y-66689285D02*
X149822200Y-66641666D01*
X149822200Y-66641666D02*
X149869819Y-66546428D01*
X149869819Y-66546428D02*
X149869819Y-66355952D01*
X149869819Y-66355952D02*
X149822200Y-66260714D01*
X149822200Y-66260714D02*
X149774580Y-66213095D01*
X149774580Y-66213095D02*
X149679342Y-66165476D01*
X149679342Y-66165476D02*
X148869819Y-66165476D01*
X148869819Y-65784523D02*
X148869819Y-65165476D01*
X148869819Y-65165476D02*
X149250771Y-65498809D01*
X149250771Y-65498809D02*
X149250771Y-65355952D01*
X149250771Y-65355952D02*
X149298390Y-65260714D01*
X149298390Y-65260714D02*
X149346009Y-65213095D01*
X149346009Y-65213095D02*
X149441247Y-65165476D01*
X149441247Y-65165476D02*
X149679342Y-65165476D01*
X149679342Y-65165476D02*
X149774580Y-65213095D01*
X149774580Y-65213095D02*
X149822200Y-65260714D01*
X149822200Y-65260714D02*
X149869819Y-65355952D01*
X149869819Y-65355952D02*
X149869819Y-65641666D01*
X149869819Y-65641666D02*
X149822200Y-65736904D01*
X149822200Y-65736904D02*
X149774580Y-65784523D01*
X163433333Y-74359580D02*
X163385714Y-74407200D01*
X163385714Y-74407200D02*
X163242857Y-74454819D01*
X163242857Y-74454819D02*
X163147619Y-74454819D01*
X163147619Y-74454819D02*
X163004762Y-74407200D01*
X163004762Y-74407200D02*
X162909524Y-74311961D01*
X162909524Y-74311961D02*
X162861905Y-74216723D01*
X162861905Y-74216723D02*
X162814286Y-74026247D01*
X162814286Y-74026247D02*
X162814286Y-73883390D01*
X162814286Y-73883390D02*
X162861905Y-73692914D01*
X162861905Y-73692914D02*
X162909524Y-73597676D01*
X162909524Y-73597676D02*
X163004762Y-73502438D01*
X163004762Y-73502438D02*
X163147619Y-73454819D01*
X163147619Y-73454819D02*
X163242857Y-73454819D01*
X163242857Y-73454819D02*
X163385714Y-73502438D01*
X163385714Y-73502438D02*
X163433333Y-73550057D01*
X164338095Y-73454819D02*
X163861905Y-73454819D01*
X163861905Y-73454819D02*
X163814286Y-73931009D01*
X163814286Y-73931009D02*
X163861905Y-73883390D01*
X163861905Y-73883390D02*
X163957143Y-73835771D01*
X163957143Y-73835771D02*
X164195238Y-73835771D01*
X164195238Y-73835771D02*
X164290476Y-73883390D01*
X164290476Y-73883390D02*
X164338095Y-73931009D01*
X164338095Y-73931009D02*
X164385714Y-74026247D01*
X164385714Y-74026247D02*
X164385714Y-74264342D01*
X164385714Y-74264342D02*
X164338095Y-74359580D01*
X164338095Y-74359580D02*
X164290476Y-74407200D01*
X164290476Y-74407200D02*
X164195238Y-74454819D01*
X164195238Y-74454819D02*
X163957143Y-74454819D01*
X163957143Y-74454819D02*
X163861905Y-74407200D01*
X163861905Y-74407200D02*
X163814286Y-74359580D01*
X160433333Y-50159580D02*
X160385714Y-50207200D01*
X160385714Y-50207200D02*
X160242857Y-50254819D01*
X160242857Y-50254819D02*
X160147619Y-50254819D01*
X160147619Y-50254819D02*
X160004762Y-50207200D01*
X160004762Y-50207200D02*
X159909524Y-50111961D01*
X159909524Y-50111961D02*
X159861905Y-50016723D01*
X159861905Y-50016723D02*
X159814286Y-49826247D01*
X159814286Y-49826247D02*
X159814286Y-49683390D01*
X159814286Y-49683390D02*
X159861905Y-49492914D01*
X159861905Y-49492914D02*
X159909524Y-49397676D01*
X159909524Y-49397676D02*
X160004762Y-49302438D01*
X160004762Y-49302438D02*
X160147619Y-49254819D01*
X160147619Y-49254819D02*
X160242857Y-49254819D01*
X160242857Y-49254819D02*
X160385714Y-49302438D01*
X160385714Y-49302438D02*
X160433333Y-49350057D01*
X160909524Y-50254819D02*
X161100000Y-50254819D01*
X161100000Y-50254819D02*
X161195238Y-50207200D01*
X161195238Y-50207200D02*
X161242857Y-50159580D01*
X161242857Y-50159580D02*
X161338095Y-50016723D01*
X161338095Y-50016723D02*
X161385714Y-49826247D01*
X161385714Y-49826247D02*
X161385714Y-49445295D01*
X161385714Y-49445295D02*
X161338095Y-49350057D01*
X161338095Y-49350057D02*
X161290476Y-49302438D01*
X161290476Y-49302438D02*
X161195238Y-49254819D01*
X161195238Y-49254819D02*
X161004762Y-49254819D01*
X161004762Y-49254819D02*
X160909524Y-49302438D01*
X160909524Y-49302438D02*
X160861905Y-49350057D01*
X160861905Y-49350057D02*
X160814286Y-49445295D01*
X160814286Y-49445295D02*
X160814286Y-49683390D01*
X160814286Y-49683390D02*
X160861905Y-49778628D01*
X160861905Y-49778628D02*
X160909524Y-49826247D01*
X160909524Y-49826247D02*
X161004762Y-49873866D01*
X161004762Y-49873866D02*
X161195238Y-49873866D01*
X161195238Y-49873866D02*
X161290476Y-49826247D01*
X161290476Y-49826247D02*
X161338095Y-49778628D01*
X161338095Y-49778628D02*
X161385714Y-49683390D01*
X212815811Y-77774819D02*
X212815811Y-78584342D01*
X212815811Y-78584342D02*
X212863430Y-78679580D01*
X212863430Y-78679580D02*
X212911049Y-78727200D01*
X212911049Y-78727200D02*
X213006287Y-78774819D01*
X213006287Y-78774819D02*
X213196763Y-78774819D01*
X213196763Y-78774819D02*
X213292001Y-78727200D01*
X213292001Y-78727200D02*
X213339620Y-78679580D01*
X213339620Y-78679580D02*
X213387239Y-78584342D01*
X213387239Y-78584342D02*
X213387239Y-77774819D01*
X214292001Y-77774819D02*
X214101525Y-77774819D01*
X214101525Y-77774819D02*
X214006287Y-77822438D01*
X214006287Y-77822438D02*
X213958668Y-77870057D01*
X213958668Y-77870057D02*
X213863430Y-78012914D01*
X213863430Y-78012914D02*
X213815811Y-78203390D01*
X213815811Y-78203390D02*
X213815811Y-78584342D01*
X213815811Y-78584342D02*
X213863430Y-78679580D01*
X213863430Y-78679580D02*
X213911049Y-78727200D01*
X213911049Y-78727200D02*
X214006287Y-78774819D01*
X214006287Y-78774819D02*
X214196763Y-78774819D01*
X214196763Y-78774819D02*
X214292001Y-78727200D01*
X214292001Y-78727200D02*
X214339620Y-78679580D01*
X214339620Y-78679580D02*
X214387239Y-78584342D01*
X214387239Y-78584342D02*
X214387239Y-78346247D01*
X214387239Y-78346247D02*
X214339620Y-78251009D01*
X214339620Y-78251009D02*
X214292001Y-78203390D01*
X214292001Y-78203390D02*
X214196763Y-78155771D01*
X214196763Y-78155771D02*
X214006287Y-78155771D01*
X214006287Y-78155771D02*
X213911049Y-78203390D01*
X213911049Y-78203390D02*
X213863430Y-78251009D01*
X213863430Y-78251009D02*
X213815811Y-78346247D01*
X189866666Y-92454819D02*
X189866666Y-93169104D01*
X189866666Y-93169104D02*
X189819047Y-93311961D01*
X189819047Y-93311961D02*
X189723809Y-93407200D01*
X189723809Y-93407200D02*
X189580952Y-93454819D01*
X189580952Y-93454819D02*
X189485714Y-93454819D01*
X190295238Y-92550057D02*
X190342857Y-92502438D01*
X190342857Y-92502438D02*
X190438095Y-92454819D01*
X190438095Y-92454819D02*
X190676190Y-92454819D01*
X190676190Y-92454819D02*
X190771428Y-92502438D01*
X190771428Y-92502438D02*
X190819047Y-92550057D01*
X190819047Y-92550057D02*
X190866666Y-92645295D01*
X190866666Y-92645295D02*
X190866666Y-92740533D01*
X190866666Y-92740533D02*
X190819047Y-92883390D01*
X190819047Y-92883390D02*
X190247619Y-93454819D01*
X190247619Y-93454819D02*
X190866666Y-93454819D01*
X162033333Y-53254819D02*
X161700000Y-52778628D01*
X161461905Y-53254819D02*
X161461905Y-52254819D01*
X161461905Y-52254819D02*
X161842857Y-52254819D01*
X161842857Y-52254819D02*
X161938095Y-52302438D01*
X161938095Y-52302438D02*
X161985714Y-52350057D01*
X161985714Y-52350057D02*
X162033333Y-52445295D01*
X162033333Y-52445295D02*
X162033333Y-52588152D01*
X162033333Y-52588152D02*
X161985714Y-52683390D01*
X161985714Y-52683390D02*
X161938095Y-52731009D01*
X161938095Y-52731009D02*
X161842857Y-52778628D01*
X161842857Y-52778628D02*
X161461905Y-52778628D01*
X162938095Y-52254819D02*
X162461905Y-52254819D01*
X162461905Y-52254819D02*
X162414286Y-52731009D01*
X162414286Y-52731009D02*
X162461905Y-52683390D01*
X162461905Y-52683390D02*
X162557143Y-52635771D01*
X162557143Y-52635771D02*
X162795238Y-52635771D01*
X162795238Y-52635771D02*
X162890476Y-52683390D01*
X162890476Y-52683390D02*
X162938095Y-52731009D01*
X162938095Y-52731009D02*
X162985714Y-52826247D01*
X162985714Y-52826247D02*
X162985714Y-53064342D01*
X162985714Y-53064342D02*
X162938095Y-53159580D01*
X162938095Y-53159580D02*
X162890476Y-53207200D01*
X162890476Y-53207200D02*
X162795238Y-53254819D01*
X162795238Y-53254819D02*
X162557143Y-53254819D01*
X162557143Y-53254819D02*
X162461905Y-53207200D01*
X162461905Y-53207200D02*
X162414286Y-53159580D01*
X178884819Y-59341666D02*
X178408628Y-59674999D01*
X178884819Y-59913094D02*
X177884819Y-59913094D01*
X177884819Y-59913094D02*
X177884819Y-59532142D01*
X177884819Y-59532142D02*
X177932438Y-59436904D01*
X177932438Y-59436904D02*
X177980057Y-59389285D01*
X177980057Y-59389285D02*
X178075295Y-59341666D01*
X178075295Y-59341666D02*
X178218152Y-59341666D01*
X178218152Y-59341666D02*
X178313390Y-59389285D01*
X178313390Y-59389285D02*
X178361009Y-59436904D01*
X178361009Y-59436904D02*
X178408628Y-59532142D01*
X178408628Y-59532142D02*
X178408628Y-59913094D01*
X177884819Y-59008332D02*
X177884819Y-58389285D01*
X177884819Y-58389285D02*
X178265771Y-58722618D01*
X178265771Y-58722618D02*
X178265771Y-58579761D01*
X178265771Y-58579761D02*
X178313390Y-58484523D01*
X178313390Y-58484523D02*
X178361009Y-58436904D01*
X178361009Y-58436904D02*
X178456247Y-58389285D01*
X178456247Y-58389285D02*
X178694342Y-58389285D01*
X178694342Y-58389285D02*
X178789580Y-58436904D01*
X178789580Y-58436904D02*
X178837200Y-58484523D01*
X178837200Y-58484523D02*
X178884819Y-58579761D01*
X178884819Y-58579761D02*
X178884819Y-58865475D01*
X178884819Y-58865475D02*
X178837200Y-58960713D01*
X178837200Y-58960713D02*
X178789580Y-59008332D01*
X156854819Y-55821904D02*
X157664342Y-55821904D01*
X157664342Y-55821904D02*
X157759580Y-55774285D01*
X157759580Y-55774285D02*
X157807200Y-55726666D01*
X157807200Y-55726666D02*
X157854819Y-55631428D01*
X157854819Y-55631428D02*
X157854819Y-55440952D01*
X157854819Y-55440952D02*
X157807200Y-55345714D01*
X157807200Y-55345714D02*
X157759580Y-55298095D01*
X157759580Y-55298095D02*
X157664342Y-55250476D01*
X157664342Y-55250476D02*
X156854819Y-55250476D01*
X157188152Y-54345714D02*
X157854819Y-54345714D01*
X156807200Y-54583809D02*
X157521485Y-54821904D01*
X157521485Y-54821904D02*
X157521485Y-54202857D01*
X182033333Y-93254819D02*
X181700000Y-92778628D01*
X181461905Y-93254819D02*
X181461905Y-92254819D01*
X181461905Y-92254819D02*
X181842857Y-92254819D01*
X181842857Y-92254819D02*
X181938095Y-92302438D01*
X181938095Y-92302438D02*
X181985714Y-92350057D01*
X181985714Y-92350057D02*
X182033333Y-92445295D01*
X182033333Y-92445295D02*
X182033333Y-92588152D01*
X182033333Y-92588152D02*
X181985714Y-92683390D01*
X181985714Y-92683390D02*
X181938095Y-92731009D01*
X181938095Y-92731009D02*
X181842857Y-92778628D01*
X181842857Y-92778628D02*
X181461905Y-92778628D01*
X182366667Y-92254819D02*
X183033333Y-92254819D01*
X183033333Y-92254819D02*
X182604762Y-93254819D01*
X205026866Y-77236734D02*
X204979247Y-77284354D01*
X204979247Y-77284354D02*
X204836390Y-77331973D01*
X204836390Y-77331973D02*
X204741152Y-77331973D01*
X204741152Y-77331973D02*
X204598295Y-77284354D01*
X204598295Y-77284354D02*
X204503057Y-77189115D01*
X204503057Y-77189115D02*
X204455438Y-77093877D01*
X204455438Y-77093877D02*
X204407819Y-76903401D01*
X204407819Y-76903401D02*
X204407819Y-76760544D01*
X204407819Y-76760544D02*
X204455438Y-76570068D01*
X204455438Y-76570068D02*
X204503057Y-76474830D01*
X204503057Y-76474830D02*
X204598295Y-76379592D01*
X204598295Y-76379592D02*
X204741152Y-76331973D01*
X204741152Y-76331973D02*
X204836390Y-76331973D01*
X204836390Y-76331973D02*
X204979247Y-76379592D01*
X204979247Y-76379592D02*
X205026866Y-76427211D01*
X205884009Y-76665306D02*
X205884009Y-77331973D01*
X205645914Y-76284354D02*
X205407819Y-76998639D01*
X205407819Y-76998639D02*
X206026866Y-76998639D01*
X163433333Y-71559580D02*
X163385714Y-71607200D01*
X163385714Y-71607200D02*
X163242857Y-71654819D01*
X163242857Y-71654819D02*
X163147619Y-71654819D01*
X163147619Y-71654819D02*
X163004762Y-71607200D01*
X163004762Y-71607200D02*
X162909524Y-71511961D01*
X162909524Y-71511961D02*
X162861905Y-71416723D01*
X162861905Y-71416723D02*
X162814286Y-71226247D01*
X162814286Y-71226247D02*
X162814286Y-71083390D01*
X162814286Y-71083390D02*
X162861905Y-70892914D01*
X162861905Y-70892914D02*
X162909524Y-70797676D01*
X162909524Y-70797676D02*
X163004762Y-70702438D01*
X163004762Y-70702438D02*
X163147619Y-70654819D01*
X163147619Y-70654819D02*
X163242857Y-70654819D01*
X163242857Y-70654819D02*
X163385714Y-70702438D01*
X163385714Y-70702438D02*
X163433333Y-70750057D01*
X163766667Y-70654819D02*
X164433333Y-70654819D01*
X164433333Y-70654819D02*
X164004762Y-71654819D01*
X181584580Y-62490476D02*
X181632200Y-62538095D01*
X181632200Y-62538095D02*
X181679819Y-62680952D01*
X181679819Y-62680952D02*
X181679819Y-62776190D01*
X181679819Y-62776190D02*
X181632200Y-62919047D01*
X181632200Y-62919047D02*
X181536961Y-63014285D01*
X181536961Y-63014285D02*
X181441723Y-63061904D01*
X181441723Y-63061904D02*
X181251247Y-63109523D01*
X181251247Y-63109523D02*
X181108390Y-63109523D01*
X181108390Y-63109523D02*
X180917914Y-63061904D01*
X180917914Y-63061904D02*
X180822676Y-63014285D01*
X180822676Y-63014285D02*
X180727438Y-62919047D01*
X180727438Y-62919047D02*
X180679819Y-62776190D01*
X180679819Y-62776190D02*
X180679819Y-62680952D01*
X180679819Y-62680952D02*
X180727438Y-62538095D01*
X180727438Y-62538095D02*
X180775057Y-62490476D01*
X181679819Y-62061904D02*
X180679819Y-62061904D01*
X180679819Y-62061904D02*
X181679819Y-61490476D01*
X181679819Y-61490476D02*
X180679819Y-61490476D01*
X181679819Y-60490476D02*
X181679819Y-61061904D01*
X181679819Y-60776190D02*
X180679819Y-60776190D01*
X180679819Y-60776190D02*
X180822676Y-60871428D01*
X180822676Y-60871428D02*
X180917914Y-60966666D01*
X180917914Y-60966666D02*
X180965533Y-61061904D01*
X187883333Y-93359580D02*
X187835714Y-93407200D01*
X187835714Y-93407200D02*
X187692857Y-93454819D01*
X187692857Y-93454819D02*
X187597619Y-93454819D01*
X187597619Y-93454819D02*
X187454762Y-93407200D01*
X187454762Y-93407200D02*
X187359524Y-93311961D01*
X187359524Y-93311961D02*
X187311905Y-93216723D01*
X187311905Y-93216723D02*
X187264286Y-93026247D01*
X187264286Y-93026247D02*
X187264286Y-92883390D01*
X187264286Y-92883390D02*
X187311905Y-92692914D01*
X187311905Y-92692914D02*
X187359524Y-92597676D01*
X187359524Y-92597676D02*
X187454762Y-92502438D01*
X187454762Y-92502438D02*
X187597619Y-92454819D01*
X187597619Y-92454819D02*
X187692857Y-92454819D01*
X187692857Y-92454819D02*
X187835714Y-92502438D01*
X187835714Y-92502438D02*
X187883333Y-92550057D01*
X188264286Y-92550057D02*
X188311905Y-92502438D01*
X188311905Y-92502438D02*
X188407143Y-92454819D01*
X188407143Y-92454819D02*
X188645238Y-92454819D01*
X188645238Y-92454819D02*
X188740476Y-92502438D01*
X188740476Y-92502438D02*
X188788095Y-92550057D01*
X188788095Y-92550057D02*
X188835714Y-92645295D01*
X188835714Y-92645295D02*
X188835714Y-92740533D01*
X188835714Y-92740533D02*
X188788095Y-92883390D01*
X188788095Y-92883390D02*
X188216667Y-93454819D01*
X188216667Y-93454819D02*
X188835714Y-93454819D01*
X159633333Y-73359580D02*
X159585714Y-73407200D01*
X159585714Y-73407200D02*
X159442857Y-73454819D01*
X159442857Y-73454819D02*
X159347619Y-73454819D01*
X159347619Y-73454819D02*
X159204762Y-73407200D01*
X159204762Y-73407200D02*
X159109524Y-73311961D01*
X159109524Y-73311961D02*
X159061905Y-73216723D01*
X159061905Y-73216723D02*
X159014286Y-73026247D01*
X159014286Y-73026247D02*
X159014286Y-72883390D01*
X159014286Y-72883390D02*
X159061905Y-72692914D01*
X159061905Y-72692914D02*
X159109524Y-72597676D01*
X159109524Y-72597676D02*
X159204762Y-72502438D01*
X159204762Y-72502438D02*
X159347619Y-72454819D01*
X159347619Y-72454819D02*
X159442857Y-72454819D01*
X159442857Y-72454819D02*
X159585714Y-72502438D01*
X159585714Y-72502438D02*
X159633333Y-72550057D01*
X160490476Y-72454819D02*
X160300000Y-72454819D01*
X160300000Y-72454819D02*
X160204762Y-72502438D01*
X160204762Y-72502438D02*
X160157143Y-72550057D01*
X160157143Y-72550057D02*
X160061905Y-72692914D01*
X160061905Y-72692914D02*
X160014286Y-72883390D01*
X160014286Y-72883390D02*
X160014286Y-73264342D01*
X160014286Y-73264342D02*
X160061905Y-73359580D01*
X160061905Y-73359580D02*
X160109524Y-73407200D01*
X160109524Y-73407200D02*
X160204762Y-73454819D01*
X160204762Y-73454819D02*
X160395238Y-73454819D01*
X160395238Y-73454819D02*
X160490476Y-73407200D01*
X160490476Y-73407200D02*
X160538095Y-73359580D01*
X160538095Y-73359580D02*
X160585714Y-73264342D01*
X160585714Y-73264342D02*
X160585714Y-73026247D01*
X160585714Y-73026247D02*
X160538095Y-72931009D01*
X160538095Y-72931009D02*
X160490476Y-72883390D01*
X160490476Y-72883390D02*
X160395238Y-72835771D01*
X160395238Y-72835771D02*
X160204762Y-72835771D01*
X160204762Y-72835771D02*
X160109524Y-72883390D01*
X160109524Y-72883390D02*
X160061905Y-72931009D01*
X160061905Y-72931009D02*
X160014286Y-73026247D01*
X174633333Y-60654819D02*
X174300000Y-60178628D01*
X174061905Y-60654819D02*
X174061905Y-59654819D01*
X174061905Y-59654819D02*
X174442857Y-59654819D01*
X174442857Y-59654819D02*
X174538095Y-59702438D01*
X174538095Y-59702438D02*
X174585714Y-59750057D01*
X174585714Y-59750057D02*
X174633333Y-59845295D01*
X174633333Y-59845295D02*
X174633333Y-59988152D01*
X174633333Y-59988152D02*
X174585714Y-60083390D01*
X174585714Y-60083390D02*
X174538095Y-60131009D01*
X174538095Y-60131009D02*
X174442857Y-60178628D01*
X174442857Y-60178628D02*
X174061905Y-60178628D01*
X175014286Y-59750057D02*
X175061905Y-59702438D01*
X175061905Y-59702438D02*
X175157143Y-59654819D01*
X175157143Y-59654819D02*
X175395238Y-59654819D01*
X175395238Y-59654819D02*
X175490476Y-59702438D01*
X175490476Y-59702438D02*
X175538095Y-59750057D01*
X175538095Y-59750057D02*
X175585714Y-59845295D01*
X175585714Y-59845295D02*
X175585714Y-59940533D01*
X175585714Y-59940533D02*
X175538095Y-60083390D01*
X175538095Y-60083390D02*
X174966667Y-60654819D01*
X174966667Y-60654819D02*
X175585714Y-60654819D01*
X188233333Y-87359580D02*
X188185714Y-87407200D01*
X188185714Y-87407200D02*
X188042857Y-87454819D01*
X188042857Y-87454819D02*
X187947619Y-87454819D01*
X187947619Y-87454819D02*
X187804762Y-87407200D01*
X187804762Y-87407200D02*
X187709524Y-87311961D01*
X187709524Y-87311961D02*
X187661905Y-87216723D01*
X187661905Y-87216723D02*
X187614286Y-87026247D01*
X187614286Y-87026247D02*
X187614286Y-86883390D01*
X187614286Y-86883390D02*
X187661905Y-86692914D01*
X187661905Y-86692914D02*
X187709524Y-86597676D01*
X187709524Y-86597676D02*
X187804762Y-86502438D01*
X187804762Y-86502438D02*
X187947619Y-86454819D01*
X187947619Y-86454819D02*
X188042857Y-86454819D01*
X188042857Y-86454819D02*
X188185714Y-86502438D01*
X188185714Y-86502438D02*
X188233333Y-86550057D01*
X189185714Y-87454819D02*
X188614286Y-87454819D01*
X188900000Y-87454819D02*
X188900000Y-86454819D01*
X188900000Y-86454819D02*
X188804762Y-86597676D01*
X188804762Y-86597676D02*
X188709524Y-86692914D01*
X188709524Y-86692914D02*
X188614286Y-86740533D01*
X183172864Y-95838849D02*
X183077626Y-95791230D01*
X183077626Y-95791230D02*
X182982388Y-95695992D01*
X182982388Y-95695992D02*
X182839531Y-95553134D01*
X182839531Y-95553134D02*
X182744293Y-95505515D01*
X182744293Y-95505515D02*
X182649055Y-95505515D01*
X182696674Y-95743611D02*
X182601436Y-95695992D01*
X182601436Y-95695992D02*
X182506198Y-95600753D01*
X182506198Y-95600753D02*
X182458579Y-95410277D01*
X182458579Y-95410277D02*
X182458579Y-95076944D01*
X182458579Y-95076944D02*
X182506198Y-94886468D01*
X182506198Y-94886468D02*
X182601436Y-94791230D01*
X182601436Y-94791230D02*
X182696674Y-94743611D01*
X182696674Y-94743611D02*
X182887150Y-94743611D01*
X182887150Y-94743611D02*
X182982388Y-94791230D01*
X182982388Y-94791230D02*
X183077626Y-94886468D01*
X183077626Y-94886468D02*
X183125245Y-95076944D01*
X183125245Y-95076944D02*
X183125245Y-95410277D01*
X183125245Y-95410277D02*
X183077626Y-95600753D01*
X183077626Y-95600753D02*
X182982388Y-95695992D01*
X182982388Y-95695992D02*
X182887150Y-95743611D01*
X182887150Y-95743611D02*
X182696674Y-95743611D01*
X184077626Y-95743611D02*
X183506198Y-95743611D01*
X183791912Y-95743611D02*
X183791912Y-94743611D01*
X183791912Y-94743611D02*
X183696674Y-94886468D01*
X183696674Y-94886468D02*
X183601436Y-94981706D01*
X183601436Y-94981706D02*
X183506198Y-95029325D01*
X182038506Y-94517750D02*
X181705173Y-94041559D01*
X181467078Y-94517750D02*
X181467078Y-93517750D01*
X181467078Y-93517750D02*
X181848030Y-93517750D01*
X181848030Y-93517750D02*
X181943268Y-93565369D01*
X181943268Y-93565369D02*
X181990887Y-93612988D01*
X181990887Y-93612988D02*
X182038506Y-93708226D01*
X182038506Y-93708226D02*
X182038506Y-93851083D01*
X182038506Y-93851083D02*
X181990887Y-93946321D01*
X181990887Y-93946321D02*
X181943268Y-93993940D01*
X181943268Y-93993940D02*
X181848030Y-94041559D01*
X181848030Y-94041559D02*
X181467078Y-94041559D01*
X182895649Y-93517750D02*
X182705173Y-93517750D01*
X182705173Y-93517750D02*
X182609935Y-93565369D01*
X182609935Y-93565369D02*
X182562316Y-93612988D01*
X182562316Y-93612988D02*
X182467078Y-93755845D01*
X182467078Y-93755845D02*
X182419459Y-93946321D01*
X182419459Y-93946321D02*
X182419459Y-94327273D01*
X182419459Y-94327273D02*
X182467078Y-94422511D01*
X182467078Y-94422511D02*
X182514697Y-94470131D01*
X182514697Y-94470131D02*
X182609935Y-94517750D01*
X182609935Y-94517750D02*
X182800411Y-94517750D01*
X182800411Y-94517750D02*
X182895649Y-94470131D01*
X182895649Y-94470131D02*
X182943268Y-94422511D01*
X182943268Y-94422511D02*
X182990887Y-94327273D01*
X182990887Y-94327273D02*
X182990887Y-94089178D01*
X182990887Y-94089178D02*
X182943268Y-93993940D01*
X182943268Y-93993940D02*
X182895649Y-93946321D01*
X182895649Y-93946321D02*
X182800411Y-93898702D01*
X182800411Y-93898702D02*
X182609935Y-93898702D01*
X182609935Y-93898702D02*
X182514697Y-93946321D01*
X182514697Y-93946321D02*
X182467078Y-93993940D01*
X182467078Y-93993940D02*
X182419459Y-94089178D01*
X206559580Y-75366666D02*
X206607200Y-75414285D01*
X206607200Y-75414285D02*
X206654819Y-75557142D01*
X206654819Y-75557142D02*
X206654819Y-75652380D01*
X206654819Y-75652380D02*
X206607200Y-75795237D01*
X206607200Y-75795237D02*
X206511961Y-75890475D01*
X206511961Y-75890475D02*
X206416723Y-75938094D01*
X206416723Y-75938094D02*
X206226247Y-75985713D01*
X206226247Y-75985713D02*
X206083390Y-75985713D01*
X206083390Y-75985713D02*
X205892914Y-75938094D01*
X205892914Y-75938094D02*
X205797676Y-75890475D01*
X205797676Y-75890475D02*
X205702438Y-75795237D01*
X205702438Y-75795237D02*
X205654819Y-75652380D01*
X205654819Y-75652380D02*
X205654819Y-75557142D01*
X205654819Y-75557142D02*
X205702438Y-75414285D01*
X205702438Y-75414285D02*
X205750057Y-75366666D01*
X205654819Y-75033332D02*
X205654819Y-74414285D01*
X205654819Y-74414285D02*
X206035771Y-74747618D01*
X206035771Y-74747618D02*
X206035771Y-74604761D01*
X206035771Y-74604761D02*
X206083390Y-74509523D01*
X206083390Y-74509523D02*
X206131009Y-74461904D01*
X206131009Y-74461904D02*
X206226247Y-74414285D01*
X206226247Y-74414285D02*
X206464342Y-74414285D01*
X206464342Y-74414285D02*
X206559580Y-74461904D01*
X206559580Y-74461904D02*
X206607200Y-74509523D01*
X206607200Y-74509523D02*
X206654819Y-74604761D01*
X206654819Y-74604761D02*
X206654819Y-74890475D01*
X206654819Y-74890475D02*
X206607200Y-74985713D01*
X206607200Y-74985713D02*
X206559580Y-75033332D01*
X174633333Y-53629819D02*
X174300000Y-53153628D01*
X174061905Y-53629819D02*
X174061905Y-52629819D01*
X174061905Y-52629819D02*
X174442857Y-52629819D01*
X174442857Y-52629819D02*
X174538095Y-52677438D01*
X174538095Y-52677438D02*
X174585714Y-52725057D01*
X174585714Y-52725057D02*
X174633333Y-52820295D01*
X174633333Y-52820295D02*
X174633333Y-52963152D01*
X174633333Y-52963152D02*
X174585714Y-53058390D01*
X174585714Y-53058390D02*
X174538095Y-53106009D01*
X174538095Y-53106009D02*
X174442857Y-53153628D01*
X174442857Y-53153628D02*
X174061905Y-53153628D01*
X175585714Y-53629819D02*
X175014286Y-53629819D01*
X175300000Y-53629819D02*
X175300000Y-52629819D01*
X175300000Y-52629819D02*
X175204762Y-52772676D01*
X175204762Y-52772676D02*
X175109524Y-52867914D01*
X175109524Y-52867914D02*
X175014286Y-52915533D01*
X203232535Y-87681904D02*
X204042058Y-87681904D01*
X204042058Y-87681904D02*
X204137296Y-87634285D01*
X204137296Y-87634285D02*
X204184916Y-87586666D01*
X204184916Y-87586666D02*
X204232535Y-87491428D01*
X204232535Y-87491428D02*
X204232535Y-87300952D01*
X204232535Y-87300952D02*
X204184916Y-87205714D01*
X204184916Y-87205714D02*
X204137296Y-87158095D01*
X204137296Y-87158095D02*
X204042058Y-87110476D01*
X204042058Y-87110476D02*
X203232535Y-87110476D01*
X204232535Y-86110476D02*
X204232535Y-86681904D01*
X204232535Y-86396190D02*
X203232535Y-86396190D01*
X203232535Y-86396190D02*
X203375392Y-86491428D01*
X203375392Y-86491428D02*
X203470630Y-86586666D01*
X203470630Y-86586666D02*
X203518249Y-86681904D01*
X182404069Y-54338094D02*
X183213592Y-54338094D01*
X183213592Y-54338094D02*
X183308830Y-54290475D01*
X183308830Y-54290475D02*
X183356450Y-54242856D01*
X183356450Y-54242856D02*
X183404069Y-54147618D01*
X183404069Y-54147618D02*
X183404069Y-53957142D01*
X183404069Y-53957142D02*
X183356450Y-53861904D01*
X183356450Y-53861904D02*
X183308830Y-53814285D01*
X183308830Y-53814285D02*
X183213592Y-53766666D01*
X183213592Y-53766666D02*
X182404069Y-53766666D01*
X183356450Y-53338094D02*
X183404069Y-53195237D01*
X183404069Y-53195237D02*
X183404069Y-52957142D01*
X183404069Y-52957142D02*
X183356450Y-52861904D01*
X183356450Y-52861904D02*
X183308830Y-52814285D01*
X183308830Y-52814285D02*
X183213592Y-52766666D01*
X183213592Y-52766666D02*
X183118354Y-52766666D01*
X183118354Y-52766666D02*
X183023116Y-52814285D01*
X183023116Y-52814285D02*
X182975497Y-52861904D01*
X182975497Y-52861904D02*
X182927878Y-52957142D01*
X182927878Y-52957142D02*
X182880259Y-53147618D01*
X182880259Y-53147618D02*
X182832640Y-53242856D01*
X182832640Y-53242856D02*
X182785021Y-53290475D01*
X182785021Y-53290475D02*
X182689783Y-53338094D01*
X182689783Y-53338094D02*
X182594545Y-53338094D01*
X182594545Y-53338094D02*
X182499307Y-53290475D01*
X182499307Y-53290475D02*
X182451688Y-53242856D01*
X182451688Y-53242856D02*
X182404069Y-53147618D01*
X182404069Y-53147618D02*
X182404069Y-52909523D01*
X182404069Y-52909523D02*
X182451688Y-52766666D01*
X182880259Y-52004761D02*
X182927878Y-51861904D01*
X182927878Y-51861904D02*
X182975497Y-51814285D01*
X182975497Y-51814285D02*
X183070735Y-51766666D01*
X183070735Y-51766666D02*
X183213592Y-51766666D01*
X183213592Y-51766666D02*
X183308830Y-51814285D01*
X183308830Y-51814285D02*
X183356450Y-51861904D01*
X183356450Y-51861904D02*
X183404069Y-51957142D01*
X183404069Y-51957142D02*
X183404069Y-52338094D01*
X183404069Y-52338094D02*
X182404069Y-52338094D01*
X182404069Y-52338094D02*
X182404069Y-52004761D01*
X182404069Y-52004761D02*
X182451688Y-51909523D01*
X182451688Y-51909523D02*
X182499307Y-51861904D01*
X182499307Y-51861904D02*
X182594545Y-51814285D01*
X182594545Y-51814285D02*
X182689783Y-51814285D01*
X182689783Y-51814285D02*
X182785021Y-51861904D01*
X182785021Y-51861904D02*
X182832640Y-51909523D01*
X182832640Y-51909523D02*
X182880259Y-52004761D01*
X182880259Y-52004761D02*
X182880259Y-52338094D01*
X183404069Y-50814285D02*
X183404069Y-51385713D01*
X183404069Y-51099999D02*
X182404069Y-51099999D01*
X182404069Y-51099999D02*
X182546926Y-51195237D01*
X182546926Y-51195237D02*
X182642164Y-51290475D01*
X182642164Y-51290475D02*
X182689783Y-51385713D01*
D13*
%TO.C,R4*%
X176090000Y-62410436D02*
X176090000Y-63864564D01*
X177910000Y-62410436D02*
X177910000Y-63864564D01*
%TO.C,U2*%
X184090000Y-89090000D02*
X184140000Y-89090000D01*
X184090000Y-90910000D02*
X184090000Y-89090000D01*
X184140000Y-90910000D02*
X184090000Y-90910000D01*
X185260000Y-89090000D02*
X186040000Y-89090000D01*
X187160000Y-89090000D02*
X187210000Y-89090000D01*
X187210000Y-89090000D02*
X187210000Y-90910000D01*
X187210000Y-90910000D02*
X187160000Y-90910000D01*
X184140000Y-91450000D02*
X183810000Y-91690000D01*
X183810000Y-91210000D01*
X184140000Y-91450000D01*
G36*
X184140000Y-91450000D02*
G01*
X183810000Y-91690000D01*
X183810000Y-91210000D01*
X184140000Y-91450000D01*
G37*
D14*
%TO.C,U5*%
X155887500Y-74977500D02*
X157906500Y-74977500D01*
X155887500Y-93377500D02*
X155887500Y-74977500D01*
X157906500Y-93377500D02*
X155887500Y-93377500D01*
X157906500Y-93377500D02*
X173518500Y-93377500D01*
X172268500Y-74977500D02*
X157906500Y-74977500D01*
X172268500Y-74977500D02*
X174287500Y-74977500D01*
X174287500Y-74977500D02*
X174287500Y-93377500D01*
X174287500Y-93377500D02*
X173518500Y-93377500D01*
X173808500Y-73687500D02*
G75*
G02*
X172591500Y-73687500I-608500J0D01*
G01*
X172591500Y-73687500D02*
G75*
G02*
X173808500Y-73687500I608500J0D01*
G01*
D13*
%TO.C,C8*%
X158827836Y-51265000D02*
X158612164Y-51265000D01*
X158827836Y-51985000D02*
X158612164Y-51985000D01*
D15*
%TO.C,U3*%
X150550000Y-47400000D02*
X156900000Y-47400000D01*
X150550000Y-65400000D02*
X150550000Y-47400000D01*
X156900000Y-43700000D02*
X208700000Y-43700000D01*
X156900000Y-47400000D02*
X156900000Y-43700000D01*
X156900000Y-65400000D02*
X150550000Y-65400000D01*
X156900000Y-69100000D02*
X156900000Y-65400000D01*
X208700000Y-43700000D02*
X208700000Y-44875000D01*
X208700000Y-53525000D02*
X208700000Y-59275000D01*
X208700000Y-53525000D02*
X209100000Y-53525000D01*
X208700000Y-67925000D02*
X208700000Y-69100000D01*
X208700000Y-67925000D02*
X209100000Y-67925000D01*
X208700000Y-69100000D02*
X156900000Y-69100000D01*
X209100000Y-44875000D02*
X208700000Y-44875000D01*
X209100000Y-53525000D02*
X209100000Y-44875000D01*
X209100000Y-59275000D02*
X208700000Y-59275000D01*
X209100000Y-67925000D02*
X209100000Y-59275000D01*
D16*
X158575000Y-69650000D02*
G75*
G02*
X158375000Y-69650000I-100000J0D01*
G01*
X158375000Y-69650000D02*
G75*
G02*
X158575000Y-69650000I100000J0D01*
G01*
D13*
%TO.C,C5*%
X161612164Y-73640000D02*
X161827836Y-73640000D01*
X161612164Y-74360000D02*
X161827836Y-74360000D01*
%TO.C,C9*%
X158111252Y-49090000D02*
X157588748Y-49090000D01*
X158111252Y-50560000D02*
X157588748Y-50560000D01*
D14*
%TO.C,U6*%
X207752000Y-74624000D02*
X207752000Y-72376000D01*
X209676000Y-70452000D02*
X211924000Y-70452000D01*
X211924000Y-76548000D02*
X209676000Y-76548000D01*
X213975000Y-74682000D02*
X213975000Y-72318000D01*
X214676000Y-70452000D02*
X222484000Y-70452000D01*
X215344500Y-76548000D02*
X216071000Y-70452000D01*
X216161000Y-76548000D02*
X216887500Y-70452000D01*
X216995500Y-76548000D02*
X217722000Y-70452000D01*
X217848500Y-76548000D02*
X218575000Y-70452000D01*
X218665000Y-76548000D02*
X219391000Y-70452000D01*
X219481000Y-76548000D02*
X220207500Y-70452000D01*
X220316000Y-76548000D02*
X221042000Y-70452000D01*
X221167500Y-76549000D02*
X221894000Y-70453000D01*
X222484000Y-70452000D02*
X222484000Y-76548000D01*
X222484000Y-76548000D02*
X214676000Y-76548000D01*
D13*
%TO.C,J2*%
X184240000Y-93890000D02*
X184240000Y-95140000D01*
X184540000Y-95500000D02*
X185150000Y-95500000D01*
X184540000Y-96800000D02*
X185150000Y-96800000D01*
X185150000Y-94800000D02*
X185150000Y-98300000D01*
X185150000Y-98300000D02*
X190050000Y-98300000D01*
X185490000Y-93890000D02*
X184240000Y-93890000D01*
X186000000Y-93990000D02*
X186000000Y-94190000D01*
X186300000Y-93990000D02*
X186000000Y-93990000D01*
X186300000Y-94090000D02*
X186000000Y-94090000D01*
X186300000Y-94190000D02*
X186300000Y-93990000D01*
X187100000Y-94190000D02*
X187100000Y-94800000D01*
X187100000Y-94800000D02*
X185150000Y-94800000D01*
X187500000Y-97800000D02*
X187700000Y-97800000D01*
X187500000Y-98300000D02*
X187500000Y-97800000D01*
X187600000Y-98300000D02*
X187600000Y-97800000D01*
X187700000Y-97800000D02*
X187700000Y-98300000D01*
X188100000Y-94800000D02*
X188100000Y-94190000D01*
X190050000Y-94800000D02*
X188100000Y-94800000D01*
X190050000Y-98300000D02*
X190050000Y-94800000D01*
X190660000Y-95500000D02*
X190050000Y-95500000D01*
X190660000Y-96800000D02*
X190050000Y-96800000D01*
X184540000Y-94190000D02*
X190660000Y-94190000D01*
X190660000Y-98910000D01*
X184540000Y-98910000D01*
X184540000Y-94190000D01*
%TO.C,R5*%
X161465000Y-55339564D02*
X161465000Y-54885436D01*
X162935000Y-55339564D02*
X162935000Y-54885436D01*
%TO.C,R3*%
X176477500Y-58937742D02*
X176477500Y-59412258D01*
X177522500Y-58937742D02*
X177522500Y-59412258D01*
%TO.C,U4*%
X155340000Y-52500000D02*
X159460000Y-52500000D01*
X155340000Y-52595000D02*
X155340000Y-52500000D01*
X155340000Y-57620000D02*
X155340000Y-57525000D01*
X159460000Y-52500000D02*
X159460000Y-52595000D01*
X159460000Y-57525000D02*
X159460000Y-57620000D01*
X159460000Y-57620000D02*
X155340000Y-57620000D01*
X154800000Y-52590000D02*
X154560000Y-52260000D01*
X155040000Y-52260000D01*
X154800000Y-52590000D01*
G36*
X154800000Y-52590000D02*
G01*
X154560000Y-52260000D01*
X155040000Y-52260000D01*
X154800000Y-52590000D01*
G37*
%TO.C,R7*%
X180420000Y-93336359D02*
X180420000Y-93643641D01*
X181180000Y-93336359D02*
X181180000Y-93643641D01*
%TO.C,C4*%
X203212164Y-76440000D02*
X203427836Y-76440000D01*
X203212164Y-77160000D02*
X203427836Y-77160000D01*
%TO.C,C7*%
X160588748Y-70465000D02*
X161111252Y-70465000D01*
X160588748Y-71935000D02*
X161111252Y-71935000D01*
D14*
%TO.C,CN1*%
X183590000Y-58700000D02*
X183590000Y-59769000D01*
X183590000Y-58700000D02*
X185769000Y-58700000D01*
X183590000Y-63831000D02*
X183590000Y-64900000D01*
X183590000Y-64900000D02*
X185769000Y-64900000D01*
X187850000Y-63769000D02*
X187850000Y-59831000D01*
D17*
X182930000Y-64400000D02*
G75*
G02*
X182630000Y-64400000I-150000J0D01*
G01*
X182630000Y-64400000D02*
G75*
G02*
X182930000Y-64400000I150000J0D01*
G01*
D13*
%TO.C,C2*%
X185484420Y-92390000D02*
X185765580Y-92390000D01*
X185484420Y-93410000D02*
X185765580Y-93410000D01*
%TO.C,C6*%
X161612164Y-72440000D02*
X161827836Y-72440000D01*
X161612164Y-73160000D02*
X161827836Y-73160000D01*
%TO.C,R2*%
X174277500Y-62187742D02*
X174277500Y-62662258D01*
X175322500Y-62187742D02*
X175322500Y-62662258D01*
%TO.C,C1*%
X185388748Y-86065000D02*
X185911252Y-86065000D01*
X185388748Y-87535000D02*
X185911252Y-87535000D01*
%TO.C,Q1*%
X181302500Y-96040000D02*
X182822500Y-96040000D01*
X181302500Y-96090000D02*
X181302500Y-96040000D01*
X181302500Y-97990000D02*
X181302500Y-97210000D01*
X181302500Y-99160000D02*
X181302500Y-99110000D01*
X182822500Y-96040000D02*
X182822500Y-97040000D01*
X182822500Y-98160000D02*
X182822500Y-99160000D01*
X182822500Y-99160000D02*
X181302500Y-99160000D01*
X181002500Y-97550000D02*
X180522500Y-97550000D01*
X180762500Y-97220000D01*
X181002500Y-97550000D01*
G36*
X181002500Y-97550000D02*
G01*
X180522500Y-97550000D01*
X180762500Y-97220000D01*
X181002500Y-97550000D01*
G37*
%TO.C,R6*%
X181136359Y-94820000D02*
X181443641Y-94820000D01*
X181136359Y-95580000D02*
X181443641Y-95580000D01*
%TO.C,C3*%
X203884420Y-74890000D02*
X204165580Y-74890000D01*
X203884420Y-75910000D02*
X204165580Y-75910000D01*
%TO.C,R1*%
X174277500Y-50737742D02*
X174277500Y-51212258D01*
X175322500Y-50737742D02*
X175322500Y-51212258D01*
D14*
%TO.C,U1*%
X195522716Y-78665000D02*
X195903716Y-78665000D01*
X195522716Y-95302000D02*
X195522716Y-78665000D01*
X195776716Y-95302000D02*
X195522716Y-95302000D01*
X195903716Y-78665000D02*
X195947216Y-78621500D01*
X195946716Y-95302000D02*
X195776716Y-95302000D01*
X196538716Y-80951000D02*
X211016716Y-80951000D01*
X196538716Y-93016000D02*
X196538716Y-80951000D01*
X197608716Y-78665000D02*
X197946716Y-78665000D01*
X197946716Y-95302000D02*
X197608716Y-95302000D01*
X199608716Y-78665000D02*
X199946716Y-78665000D01*
X199946716Y-95302000D02*
X199608716Y-95302000D01*
X201608716Y-78665000D02*
X201946716Y-78665000D01*
X201946716Y-95302000D02*
X201608716Y-95302000D01*
X203608716Y-78665000D02*
X203946716Y-78665000D01*
X203946716Y-95302000D02*
X203608716Y-95302000D01*
X205608716Y-78665000D02*
X205946716Y-78665000D01*
X205946716Y-95302000D02*
X205608716Y-95302000D01*
X207608716Y-78665000D02*
X207946716Y-78665000D01*
X207946716Y-95302000D02*
X207608716Y-95302000D01*
X209608716Y-78665000D02*
X209946716Y-78665000D01*
X209946716Y-95302000D02*
X209608716Y-95302000D01*
X211016716Y-80951000D02*
X211016716Y-93016000D01*
X211016716Y-93016000D02*
X196538716Y-93016000D01*
X211608716Y-78665000D02*
X212032716Y-78665000D01*
X212032716Y-78665000D02*
X212032716Y-95302000D01*
X212032716Y-95302000D02*
X211608716Y-95302000D01*
%TO.C,USB1*%
X184343250Y-57100000D02*
X182355250Y-57100000D01*
X184346250Y-48028000D02*
X182352250Y-48028000D01*
X187775250Y-48028000D02*
X186302250Y-48028000D01*
X187924250Y-48100000D02*
X187924250Y-57100000D01*
X187924250Y-57100000D02*
X186305250Y-57100000D01*
%TD*%
M02*
