%TF.GenerationSoftware,KiCad,Pcbnew,9.0.7*%
%TF.CreationDate,2026-02-15T18:11:32-05:00*%
%TF.ProjectId,satellite-board,73617465-6c6c-4697-9465-2d626f617264,rev?*%
%TF.SameCoordinates,PX43ce660PY5296940*%
%TF.FileFunction,Legend,Top*%
%TF.FilePolarity,Positive*%
%FSLAX46Y46*%
G04 Gerber Fmt 4.6, Leading zero omitted, Abs format (unit mm)*
G04 Created by KiCad (PCBNEW 9.0.7) date 2026-02-15 18:11:32*
%MOMM*%
%LPD*%
G01*
G04 APERTURE LIST*
%ADD10C,0.100000*%
%ADD11C,0.125000*%
%ADD12C,0.150000*%
%ADD13C,0.120000*%
%ADD14C,0.254000*%
%ADD15C,0.127000*%
%ADD16C,0.200000*%
%ADD17C,0.300000*%
G04 APERTURE END LIST*
D10*
X25800000Y28700000D02*
X51200000Y28700000D01*
X51200000Y23300000D01*
X25800000Y23300000D01*
X25800000Y28700000D01*
D11*
X26248318Y26969023D02*
X26248318Y28219023D01*
X26248318Y28219023D02*
X26724508Y28219023D01*
X26724508Y28219023D02*
X26843556Y28159499D01*
X26843556Y28159499D02*
X26903079Y28099975D01*
X26903079Y28099975D02*
X26962603Y27980927D01*
X26962603Y27980927D02*
X26962603Y27802356D01*
X26962603Y27802356D02*
X26903079Y27683308D01*
X26903079Y27683308D02*
X26843556Y27623785D01*
X26843556Y27623785D02*
X26724508Y27564261D01*
X26724508Y27564261D02*
X26248318Y27564261D01*
X27498318Y26969023D02*
X27498318Y27802356D01*
X27498318Y27564261D02*
X27557841Y27683308D01*
X27557841Y27683308D02*
X27617365Y27742832D01*
X27617365Y27742832D02*
X27736413Y27802356D01*
X27736413Y27802356D02*
X27855460Y27802356D01*
X28450699Y26969023D02*
X28331651Y27028546D01*
X28331651Y27028546D02*
X28272128Y27088070D01*
X28272128Y27088070D02*
X28212604Y27207118D01*
X28212604Y27207118D02*
X28212604Y27564261D01*
X28212604Y27564261D02*
X28272128Y27683308D01*
X28272128Y27683308D02*
X28331651Y27742832D01*
X28331651Y27742832D02*
X28450699Y27802356D01*
X28450699Y27802356D02*
X28629270Y27802356D01*
X28629270Y27802356D02*
X28748318Y27742832D01*
X28748318Y27742832D02*
X28807842Y27683308D01*
X28807842Y27683308D02*
X28867366Y27564261D01*
X28867366Y27564261D02*
X28867366Y27207118D01*
X28867366Y27207118D02*
X28807842Y27088070D01*
X28807842Y27088070D02*
X28748318Y27028546D01*
X28748318Y27028546D02*
X28629270Y26969023D01*
X28629270Y26969023D02*
X28450699Y26969023D01*
X29403080Y27802356D02*
X29403080Y26730927D01*
X29403080Y26730927D02*
X29343556Y26611880D01*
X29343556Y26611880D02*
X29224508Y26552356D01*
X29224508Y26552356D02*
X29164984Y26552356D01*
X29403080Y28219023D02*
X29343556Y28159499D01*
X29343556Y28159499D02*
X29403080Y28099975D01*
X29403080Y28099975D02*
X29462603Y28159499D01*
X29462603Y28159499D02*
X29403080Y28219023D01*
X29403080Y28219023D02*
X29403080Y28099975D01*
X30474508Y27028546D02*
X30355460Y26969023D01*
X30355460Y26969023D02*
X30117365Y26969023D01*
X30117365Y26969023D02*
X29998318Y27028546D01*
X29998318Y27028546D02*
X29938794Y27147594D01*
X29938794Y27147594D02*
X29938794Y27623785D01*
X29938794Y27623785D02*
X29998318Y27742832D01*
X29998318Y27742832D02*
X30117365Y27802356D01*
X30117365Y27802356D02*
X30355460Y27802356D01*
X30355460Y27802356D02*
X30474508Y27742832D01*
X30474508Y27742832D02*
X30534032Y27623785D01*
X30534032Y27623785D02*
X30534032Y27504737D01*
X30534032Y27504737D02*
X29938794Y27385689D01*
X31605461Y27028546D02*
X31486413Y26969023D01*
X31486413Y26969023D02*
X31248318Y26969023D01*
X31248318Y26969023D02*
X31129270Y27028546D01*
X31129270Y27028546D02*
X31069747Y27088070D01*
X31069747Y27088070D02*
X31010223Y27207118D01*
X31010223Y27207118D02*
X31010223Y27564261D01*
X31010223Y27564261D02*
X31069747Y27683308D01*
X31069747Y27683308D02*
X31129270Y27742832D01*
X31129270Y27742832D02*
X31248318Y27802356D01*
X31248318Y27802356D02*
X31486413Y27802356D01*
X31486413Y27802356D02*
X31605461Y27742832D01*
X31962604Y27802356D02*
X32438795Y27802356D01*
X32141176Y28219023D02*
X32141176Y27147594D01*
X32141176Y27147594D02*
X32200699Y27028546D01*
X32200699Y27028546D02*
X32319747Y26969023D01*
X32319747Y26969023D02*
X32438795Y26969023D01*
X34045938Y28219023D02*
X34284033Y28219023D01*
X34284033Y28219023D02*
X34403081Y28159499D01*
X34403081Y28159499D02*
X34522128Y28040451D01*
X34522128Y28040451D02*
X34581652Y27802356D01*
X34581652Y27802356D02*
X34581652Y27385689D01*
X34581652Y27385689D02*
X34522128Y27147594D01*
X34522128Y27147594D02*
X34403081Y27028546D01*
X34403081Y27028546D02*
X34284033Y26969023D01*
X34284033Y26969023D02*
X34045938Y26969023D01*
X34045938Y26969023D02*
X33926890Y27028546D01*
X33926890Y27028546D02*
X33807843Y27147594D01*
X33807843Y27147594D02*
X33748319Y27385689D01*
X33748319Y27385689D02*
X33748319Y27802356D01*
X33748319Y27802356D02*
X33807843Y28040451D01*
X33807843Y28040451D02*
X33926890Y28159499D01*
X33926890Y28159499D02*
X34045938Y28219023D01*
X35831652Y26969023D02*
X35414986Y27564261D01*
X35117367Y26969023D02*
X35117367Y28219023D01*
X35117367Y28219023D02*
X35593557Y28219023D01*
X35593557Y28219023D02*
X35712605Y28159499D01*
X35712605Y28159499D02*
X35772128Y28099975D01*
X35772128Y28099975D02*
X35831652Y27980927D01*
X35831652Y27980927D02*
X35831652Y27802356D01*
X35831652Y27802356D02*
X35772128Y27683308D01*
X35772128Y27683308D02*
X35712605Y27623785D01*
X35712605Y27623785D02*
X35593557Y27564261D01*
X35593557Y27564261D02*
X35117367Y27564261D01*
X37081652Y27088070D02*
X37022128Y27028546D01*
X37022128Y27028546D02*
X36843557Y26969023D01*
X36843557Y26969023D02*
X36724509Y26969023D01*
X36724509Y26969023D02*
X36545938Y27028546D01*
X36545938Y27028546D02*
X36426890Y27147594D01*
X36426890Y27147594D02*
X36367367Y27266642D01*
X36367367Y27266642D02*
X36307843Y27504737D01*
X36307843Y27504737D02*
X36307843Y27683308D01*
X36307843Y27683308D02*
X36367367Y27921404D01*
X36367367Y27921404D02*
X36426890Y28040451D01*
X36426890Y28040451D02*
X36545938Y28159499D01*
X36545938Y28159499D02*
X36724509Y28219023D01*
X36724509Y28219023D02*
X36843557Y28219023D01*
X36843557Y28219023D02*
X37022128Y28159499D01*
X37022128Y28159499D02*
X37081652Y28099975D01*
X37557843Y27326166D02*
X38153081Y27326166D01*
X37438795Y26969023D02*
X37855462Y28219023D01*
X37855462Y28219023D02*
X38272128Y26969023D01*
X39641177Y27445213D02*
X40593558Y27445213D01*
X42081653Y27028546D02*
X42260224Y26969023D01*
X42260224Y26969023D02*
X42557843Y26969023D01*
X42557843Y26969023D02*
X42676891Y27028546D01*
X42676891Y27028546D02*
X42736415Y27088070D01*
X42736415Y27088070D02*
X42795938Y27207118D01*
X42795938Y27207118D02*
X42795938Y27326166D01*
X42795938Y27326166D02*
X42736415Y27445213D01*
X42736415Y27445213D02*
X42676891Y27504737D01*
X42676891Y27504737D02*
X42557843Y27564261D01*
X42557843Y27564261D02*
X42319748Y27623785D01*
X42319748Y27623785D02*
X42200700Y27683308D01*
X42200700Y27683308D02*
X42141177Y27742832D01*
X42141177Y27742832D02*
X42081653Y27861880D01*
X42081653Y27861880D02*
X42081653Y27980927D01*
X42081653Y27980927D02*
X42141177Y28099975D01*
X42141177Y28099975D02*
X42200700Y28159499D01*
X42200700Y28159499D02*
X42319748Y28219023D01*
X42319748Y28219023D02*
X42617367Y28219023D01*
X42617367Y28219023D02*
X42795938Y28159499D01*
X43272129Y27326166D02*
X43867367Y27326166D01*
X43153081Y26969023D02*
X43569748Y28219023D01*
X43569748Y28219023D02*
X43986414Y26969023D01*
X44224510Y28219023D02*
X44938796Y28219023D01*
X44581653Y26969023D02*
X44581653Y28219023D01*
X45355463Y27623785D02*
X45772129Y27623785D01*
X45950701Y26969023D02*
X45355463Y26969023D01*
X45355463Y26969023D02*
X45355463Y28219023D01*
X45355463Y28219023D02*
X45950701Y28219023D01*
X47081653Y26969023D02*
X46486415Y26969023D01*
X46486415Y26969023D02*
X46486415Y28219023D01*
X48093558Y26969023D02*
X47498320Y26969023D01*
X47498320Y26969023D02*
X47498320Y28219023D01*
X48510225Y26969023D02*
X48510225Y28219023D01*
X48926891Y28219023D02*
X49641177Y28219023D01*
X49284034Y26969023D02*
X49284034Y28219023D01*
X50057844Y27623785D02*
X50474510Y27623785D01*
X50653082Y26969023D02*
X50057844Y26969023D01*
X50057844Y26969023D02*
X50057844Y28219023D01*
X50057844Y28219023D02*
X50653082Y28219023D01*
D10*
X26256265Y23803105D02*
X26256265Y24603105D01*
X26256265Y24603105D02*
X26446741Y24603105D01*
X26446741Y24603105D02*
X26561027Y24565010D01*
X26561027Y24565010D02*
X26637217Y24488820D01*
X26637217Y24488820D02*
X26675312Y24412629D01*
X26675312Y24412629D02*
X26713408Y24260248D01*
X26713408Y24260248D02*
X26713408Y24145962D01*
X26713408Y24145962D02*
X26675312Y23993581D01*
X26675312Y23993581D02*
X26637217Y23917391D01*
X26637217Y23917391D02*
X26561027Y23841200D01*
X26561027Y23841200D02*
X26446741Y23803105D01*
X26446741Y23803105D02*
X26256265Y23803105D01*
X27361027Y23841200D02*
X27284836Y23803105D01*
X27284836Y23803105D02*
X27132455Y23803105D01*
X27132455Y23803105D02*
X27056265Y23841200D01*
X27056265Y23841200D02*
X27018169Y23917391D01*
X27018169Y23917391D02*
X27018169Y24222153D01*
X27018169Y24222153D02*
X27056265Y24298343D01*
X27056265Y24298343D02*
X27132455Y24336439D01*
X27132455Y24336439D02*
X27284836Y24336439D01*
X27284836Y24336439D02*
X27361027Y24298343D01*
X27361027Y24298343D02*
X27399122Y24222153D01*
X27399122Y24222153D02*
X27399122Y24145962D01*
X27399122Y24145962D02*
X27018169Y24069772D01*
X27703883Y23841200D02*
X27780074Y23803105D01*
X27780074Y23803105D02*
X27932455Y23803105D01*
X27932455Y23803105D02*
X28008645Y23841200D01*
X28008645Y23841200D02*
X28046741Y23917391D01*
X28046741Y23917391D02*
X28046741Y23955486D01*
X28046741Y23955486D02*
X28008645Y24031677D01*
X28008645Y24031677D02*
X27932455Y24069772D01*
X27932455Y24069772D02*
X27818169Y24069772D01*
X27818169Y24069772D02*
X27741979Y24107867D01*
X27741979Y24107867D02*
X27703883Y24184058D01*
X27703883Y24184058D02*
X27703883Y24222153D01*
X27703883Y24222153D02*
X27741979Y24298343D01*
X27741979Y24298343D02*
X27818169Y24336439D01*
X27818169Y24336439D02*
X27932455Y24336439D01*
X27932455Y24336439D02*
X28008645Y24298343D01*
X28389598Y23803105D02*
X28389598Y24336439D01*
X28389598Y24603105D02*
X28351502Y24565010D01*
X28351502Y24565010D02*
X28389598Y24526915D01*
X28389598Y24526915D02*
X28427693Y24565010D01*
X28427693Y24565010D02*
X28389598Y24603105D01*
X28389598Y24603105D02*
X28389598Y24526915D01*
X29113407Y24336439D02*
X29113407Y23688820D01*
X29113407Y23688820D02*
X29075312Y23612629D01*
X29075312Y23612629D02*
X29037216Y23574534D01*
X29037216Y23574534D02*
X28961026Y23536439D01*
X28961026Y23536439D02*
X28846740Y23536439D01*
X28846740Y23536439D02*
X28770550Y23574534D01*
X29113407Y23841200D02*
X29037216Y23803105D01*
X29037216Y23803105D02*
X28884835Y23803105D01*
X28884835Y23803105D02*
X28808645Y23841200D01*
X28808645Y23841200D02*
X28770550Y23879296D01*
X28770550Y23879296D02*
X28732454Y23955486D01*
X28732454Y23955486D02*
X28732454Y24184058D01*
X28732454Y24184058D02*
X28770550Y24260248D01*
X28770550Y24260248D02*
X28808645Y24298343D01*
X28808645Y24298343D02*
X28884835Y24336439D01*
X28884835Y24336439D02*
X29037216Y24336439D01*
X29037216Y24336439D02*
X29113407Y24298343D01*
X29494360Y24336439D02*
X29494360Y23803105D01*
X29494360Y24260248D02*
X29532455Y24298343D01*
X29532455Y24298343D02*
X29608645Y24336439D01*
X29608645Y24336439D02*
X29722931Y24336439D01*
X29722931Y24336439D02*
X29799122Y24298343D01*
X29799122Y24298343D02*
X29837217Y24222153D01*
X29837217Y24222153D02*
X29837217Y23803105D01*
X30522932Y23841200D02*
X30446741Y23803105D01*
X30446741Y23803105D02*
X30294360Y23803105D01*
X30294360Y23803105D02*
X30218170Y23841200D01*
X30218170Y23841200D02*
X30180074Y23917391D01*
X30180074Y23917391D02*
X30180074Y24222153D01*
X30180074Y24222153D02*
X30218170Y24298343D01*
X30218170Y24298343D02*
X30294360Y24336439D01*
X30294360Y24336439D02*
X30446741Y24336439D01*
X30446741Y24336439D02*
X30522932Y24298343D01*
X30522932Y24298343D02*
X30561027Y24222153D01*
X30561027Y24222153D02*
X30561027Y24145962D01*
X30561027Y24145962D02*
X30180074Y24069772D01*
X31246741Y23803105D02*
X31246741Y24603105D01*
X31246741Y23841200D02*
X31170550Y23803105D01*
X31170550Y23803105D02*
X31018169Y23803105D01*
X31018169Y23803105D02*
X30941979Y23841200D01*
X30941979Y23841200D02*
X30903884Y23879296D01*
X30903884Y23879296D02*
X30865788Y23955486D01*
X30865788Y23955486D02*
X30865788Y24184058D01*
X30865788Y24184058D02*
X30903884Y24260248D01*
X30903884Y24260248D02*
X30941979Y24298343D01*
X30941979Y24298343D02*
X31018169Y24336439D01*
X31018169Y24336439D02*
X31170550Y24336439D01*
X31170550Y24336439D02*
X31246741Y24298343D01*
X32237218Y23803105D02*
X32237218Y24603105D01*
X32237218Y24298343D02*
X32313408Y24336439D01*
X32313408Y24336439D02*
X32465789Y24336439D01*
X32465789Y24336439D02*
X32541980Y24298343D01*
X32541980Y24298343D02*
X32580075Y24260248D01*
X32580075Y24260248D02*
X32618170Y24184058D01*
X32618170Y24184058D02*
X32618170Y23955486D01*
X32618170Y23955486D02*
X32580075Y23879296D01*
X32580075Y23879296D02*
X32541980Y23841200D01*
X32541980Y23841200D02*
X32465789Y23803105D01*
X32465789Y23803105D02*
X32313408Y23803105D01*
X32313408Y23803105D02*
X32237218Y23841200D01*
X32884837Y24336439D02*
X33075313Y23803105D01*
X33265790Y24336439D02*
X33075313Y23803105D01*
X33075313Y23803105D02*
X32999123Y23612629D01*
X32999123Y23612629D02*
X32961028Y23574534D01*
X32961028Y23574534D02*
X32884837Y23536439D01*
X34180076Y23803105D02*
X34180076Y24603105D01*
X34180076Y24603105D02*
X34446742Y24031677D01*
X34446742Y24031677D02*
X34713409Y24603105D01*
X34713409Y24603105D02*
X34713409Y23803105D01*
X35094362Y23803105D02*
X35094362Y24336439D01*
X35094362Y24603105D02*
X35056266Y24565010D01*
X35056266Y24565010D02*
X35094362Y24526915D01*
X35094362Y24526915D02*
X35132457Y24565010D01*
X35132457Y24565010D02*
X35094362Y24603105D01*
X35094362Y24603105D02*
X35094362Y24526915D01*
X35818171Y23841200D02*
X35741980Y23803105D01*
X35741980Y23803105D02*
X35589599Y23803105D01*
X35589599Y23803105D02*
X35513409Y23841200D01*
X35513409Y23841200D02*
X35475314Y23879296D01*
X35475314Y23879296D02*
X35437218Y23955486D01*
X35437218Y23955486D02*
X35437218Y24184058D01*
X35437218Y24184058D02*
X35475314Y24260248D01*
X35475314Y24260248D02*
X35513409Y24298343D01*
X35513409Y24298343D02*
X35589599Y24336439D01*
X35589599Y24336439D02*
X35741980Y24336439D01*
X35741980Y24336439D02*
X35818171Y24298343D01*
X36161028Y23803105D02*
X36161028Y24603105D01*
X36503885Y23803105D02*
X36503885Y24222153D01*
X36503885Y24222153D02*
X36465790Y24298343D01*
X36465790Y24298343D02*
X36389599Y24336439D01*
X36389599Y24336439D02*
X36275313Y24336439D01*
X36275313Y24336439D02*
X36199123Y24298343D01*
X36199123Y24298343D02*
X36161028Y24260248D01*
X37227695Y23803105D02*
X37227695Y24222153D01*
X37227695Y24222153D02*
X37189600Y24298343D01*
X37189600Y24298343D02*
X37113409Y24336439D01*
X37113409Y24336439D02*
X36961028Y24336439D01*
X36961028Y24336439D02*
X36884838Y24298343D01*
X37227695Y23841200D02*
X37151504Y23803105D01*
X37151504Y23803105D02*
X36961028Y23803105D01*
X36961028Y23803105D02*
X36884838Y23841200D01*
X36884838Y23841200D02*
X36846742Y23917391D01*
X36846742Y23917391D02*
X36846742Y23993581D01*
X36846742Y23993581D02*
X36884838Y24069772D01*
X36884838Y24069772D02*
X36961028Y24107867D01*
X36961028Y24107867D02*
X37151504Y24107867D01*
X37151504Y24107867D02*
X37227695Y24145962D01*
X37913410Y23841200D02*
X37837219Y23803105D01*
X37837219Y23803105D02*
X37684838Y23803105D01*
X37684838Y23803105D02*
X37608648Y23841200D01*
X37608648Y23841200D02*
X37570552Y23917391D01*
X37570552Y23917391D02*
X37570552Y24222153D01*
X37570552Y24222153D02*
X37608648Y24298343D01*
X37608648Y24298343D02*
X37684838Y24336439D01*
X37684838Y24336439D02*
X37837219Y24336439D01*
X37837219Y24336439D02*
X37913410Y24298343D01*
X37913410Y24298343D02*
X37951505Y24222153D01*
X37951505Y24222153D02*
X37951505Y24145962D01*
X37951505Y24145962D02*
X37570552Y24069772D01*
X38408647Y23803105D02*
X38332457Y23841200D01*
X38332457Y23841200D02*
X38294362Y23917391D01*
X38294362Y23917391D02*
X38294362Y24603105D01*
X39322934Y23803105D02*
X39322934Y24603105D01*
X39322934Y24603105D02*
X39513410Y24603105D01*
X39513410Y24603105D02*
X39627696Y24565010D01*
X39627696Y24565010D02*
X39703886Y24488820D01*
X39703886Y24488820D02*
X39741981Y24412629D01*
X39741981Y24412629D02*
X39780077Y24260248D01*
X39780077Y24260248D02*
X39780077Y24145962D01*
X39780077Y24145962D02*
X39741981Y23993581D01*
X39741981Y23993581D02*
X39703886Y23917391D01*
X39703886Y23917391D02*
X39627696Y23841200D01*
X39627696Y23841200D02*
X39513410Y23803105D01*
X39513410Y23803105D02*
X39322934Y23803105D01*
X40465791Y23803105D02*
X40465791Y24222153D01*
X40465791Y24222153D02*
X40427696Y24298343D01*
X40427696Y24298343D02*
X40351505Y24336439D01*
X40351505Y24336439D02*
X40199124Y24336439D01*
X40199124Y24336439D02*
X40122934Y24298343D01*
X40465791Y23841200D02*
X40389600Y23803105D01*
X40389600Y23803105D02*
X40199124Y23803105D01*
X40199124Y23803105D02*
X40122934Y23841200D01*
X40122934Y23841200D02*
X40084838Y23917391D01*
X40084838Y23917391D02*
X40084838Y23993581D01*
X40084838Y23993581D02*
X40122934Y24069772D01*
X40122934Y24069772D02*
X40199124Y24107867D01*
X40199124Y24107867D02*
X40389600Y24107867D01*
X40389600Y24107867D02*
X40465791Y24145962D01*
X40846744Y24336439D02*
X40846744Y23803105D01*
X40846744Y24260248D02*
X40884839Y24298343D01*
X40884839Y24298343D02*
X40961029Y24336439D01*
X40961029Y24336439D02*
X41075315Y24336439D01*
X41075315Y24336439D02*
X41151506Y24298343D01*
X41151506Y24298343D02*
X41189601Y24222153D01*
X41189601Y24222153D02*
X41189601Y23803105D01*
X41684839Y23803105D02*
X41608649Y23841200D01*
X41608649Y23841200D02*
X41570554Y23917391D01*
X41570554Y23917391D02*
X41570554Y24603105D01*
X42294364Y23841200D02*
X42218173Y23803105D01*
X42218173Y23803105D02*
X42065792Y23803105D01*
X42065792Y23803105D02*
X41989602Y23841200D01*
X41989602Y23841200D02*
X41951506Y23917391D01*
X41951506Y23917391D02*
X41951506Y24222153D01*
X41951506Y24222153D02*
X41989602Y24298343D01*
X41989602Y24298343D02*
X42065792Y24336439D01*
X42065792Y24336439D02*
X42218173Y24336439D01*
X42218173Y24336439D02*
X42294364Y24298343D01*
X42294364Y24298343D02*
X42332459Y24222153D01*
X42332459Y24222153D02*
X42332459Y24145962D01*
X42332459Y24145962D02*
X41951506Y24069772D01*
X42599125Y24336439D02*
X42789601Y23803105D01*
X42980078Y24336439D02*
X42789601Y23803105D01*
X42789601Y23803105D02*
X42713411Y23612629D01*
X42713411Y23612629D02*
X42675316Y23574534D01*
X42675316Y23574534D02*
X42599125Y23536439D01*
X26206669Y25242787D02*
X26349526Y25195168D01*
X26349526Y25195168D02*
X26587621Y25195168D01*
X26587621Y25195168D02*
X26682859Y25242787D01*
X26682859Y25242787D02*
X26730478Y25290407D01*
X26730478Y25290407D02*
X26778097Y25385645D01*
X26778097Y25385645D02*
X26778097Y25480883D01*
X26778097Y25480883D02*
X26730478Y25576121D01*
X26730478Y25576121D02*
X26682859Y25623740D01*
X26682859Y25623740D02*
X26587621Y25671359D01*
X26587621Y25671359D02*
X26397145Y25718978D01*
X26397145Y25718978D02*
X26301907Y25766597D01*
X26301907Y25766597D02*
X26254288Y25814216D01*
X26254288Y25814216D02*
X26206669Y25909454D01*
X26206669Y25909454D02*
X26206669Y26004692D01*
X26206669Y26004692D02*
X26254288Y26099930D01*
X26254288Y26099930D02*
X26301907Y26147549D01*
X26301907Y26147549D02*
X26397145Y26195168D01*
X26397145Y26195168D02*
X26635240Y26195168D01*
X26635240Y26195168D02*
X26778097Y26147549D01*
X27587621Y25242787D02*
X27492383Y25195168D01*
X27492383Y25195168D02*
X27301907Y25195168D01*
X27301907Y25195168D02*
X27206669Y25242787D01*
X27206669Y25242787D02*
X27159050Y25338026D01*
X27159050Y25338026D02*
X27159050Y25718978D01*
X27159050Y25718978D02*
X27206669Y25814216D01*
X27206669Y25814216D02*
X27301907Y25861835D01*
X27301907Y25861835D02*
X27492383Y25861835D01*
X27492383Y25861835D02*
X27587621Y25814216D01*
X27587621Y25814216D02*
X27635240Y25718978D01*
X27635240Y25718978D02*
X27635240Y25623740D01*
X27635240Y25623740D02*
X27159050Y25528502D01*
X28063812Y25861835D02*
X28063812Y25195168D01*
X28063812Y25766597D02*
X28111431Y25814216D01*
X28111431Y25814216D02*
X28206669Y25861835D01*
X28206669Y25861835D02*
X28349526Y25861835D01*
X28349526Y25861835D02*
X28444764Y25814216D01*
X28444764Y25814216D02*
X28492383Y25718978D01*
X28492383Y25718978D02*
X28492383Y25195168D01*
X28920955Y25242787D02*
X29016193Y25195168D01*
X29016193Y25195168D02*
X29206669Y25195168D01*
X29206669Y25195168D02*
X29301907Y25242787D01*
X29301907Y25242787D02*
X29349526Y25338026D01*
X29349526Y25338026D02*
X29349526Y25385645D01*
X29349526Y25385645D02*
X29301907Y25480883D01*
X29301907Y25480883D02*
X29206669Y25528502D01*
X29206669Y25528502D02*
X29063812Y25528502D01*
X29063812Y25528502D02*
X28968574Y25576121D01*
X28968574Y25576121D02*
X28920955Y25671359D01*
X28920955Y25671359D02*
X28920955Y25718978D01*
X28920955Y25718978D02*
X28968574Y25814216D01*
X28968574Y25814216D02*
X29063812Y25861835D01*
X29063812Y25861835D02*
X29206669Y25861835D01*
X29206669Y25861835D02*
X29301907Y25814216D01*
X29920955Y25195168D02*
X29825717Y25242787D01*
X29825717Y25242787D02*
X29778098Y25290407D01*
X29778098Y25290407D02*
X29730479Y25385645D01*
X29730479Y25385645D02*
X29730479Y25671359D01*
X29730479Y25671359D02*
X29778098Y25766597D01*
X29778098Y25766597D02*
X29825717Y25814216D01*
X29825717Y25814216D02*
X29920955Y25861835D01*
X29920955Y25861835D02*
X30063812Y25861835D01*
X30063812Y25861835D02*
X30159050Y25814216D01*
X30159050Y25814216D02*
X30206669Y25766597D01*
X30206669Y25766597D02*
X30254288Y25671359D01*
X30254288Y25671359D02*
X30254288Y25385645D01*
X30254288Y25385645D02*
X30206669Y25290407D01*
X30206669Y25290407D02*
X30159050Y25242787D01*
X30159050Y25242787D02*
X30063812Y25195168D01*
X30063812Y25195168D02*
X29920955Y25195168D01*
X30682860Y25195168D02*
X30682860Y25861835D01*
X30682860Y25671359D02*
X30730479Y25766597D01*
X30730479Y25766597D02*
X30778098Y25814216D01*
X30778098Y25814216D02*
X30873336Y25861835D01*
X30873336Y25861835D02*
X30968574Y25861835D01*
X32063813Y25195168D02*
X32063813Y26195168D01*
X32063813Y26195168D02*
X32301908Y26195168D01*
X32301908Y26195168D02*
X32444765Y26147549D01*
X32444765Y26147549D02*
X32540003Y26052311D01*
X32540003Y26052311D02*
X32587622Y25957073D01*
X32587622Y25957073D02*
X32635241Y25766597D01*
X32635241Y25766597D02*
X32635241Y25623740D01*
X32635241Y25623740D02*
X32587622Y25433264D01*
X32587622Y25433264D02*
X32540003Y25338026D01*
X32540003Y25338026D02*
X32444765Y25242787D01*
X32444765Y25242787D02*
X32301908Y25195168D01*
X32301908Y25195168D02*
X32063813Y25195168D01*
X33492384Y25195168D02*
X33492384Y25718978D01*
X33492384Y25718978D02*
X33444765Y25814216D01*
X33444765Y25814216D02*
X33349527Y25861835D01*
X33349527Y25861835D02*
X33159051Y25861835D01*
X33159051Y25861835D02*
X33063813Y25814216D01*
X33492384Y25242787D02*
X33397146Y25195168D01*
X33397146Y25195168D02*
X33159051Y25195168D01*
X33159051Y25195168D02*
X33063813Y25242787D01*
X33063813Y25242787D02*
X33016194Y25338026D01*
X33016194Y25338026D02*
X33016194Y25433264D01*
X33016194Y25433264D02*
X33063813Y25528502D01*
X33063813Y25528502D02*
X33159051Y25576121D01*
X33159051Y25576121D02*
X33397146Y25576121D01*
X33397146Y25576121D02*
X33492384Y25623740D01*
X33825718Y25861835D02*
X34206670Y25861835D01*
X33968575Y26195168D02*
X33968575Y25338026D01*
X33968575Y25338026D02*
X34016194Y25242787D01*
X34016194Y25242787D02*
X34111432Y25195168D01*
X34111432Y25195168D02*
X34206670Y25195168D01*
X34968575Y25195168D02*
X34968575Y25718978D01*
X34968575Y25718978D02*
X34920956Y25814216D01*
X34920956Y25814216D02*
X34825718Y25861835D01*
X34825718Y25861835D02*
X34635242Y25861835D01*
X34635242Y25861835D02*
X34540004Y25814216D01*
X34968575Y25242787D02*
X34873337Y25195168D01*
X34873337Y25195168D02*
X34635242Y25195168D01*
X34635242Y25195168D02*
X34540004Y25242787D01*
X34540004Y25242787D02*
X34492385Y25338026D01*
X34492385Y25338026D02*
X34492385Y25433264D01*
X34492385Y25433264D02*
X34540004Y25528502D01*
X34540004Y25528502D02*
X34635242Y25576121D01*
X34635242Y25576121D02*
X34873337Y25576121D01*
X34873337Y25576121D02*
X34968575Y25623740D01*
X36063814Y26195168D02*
X36635242Y26195168D01*
X36349528Y25195168D02*
X36349528Y26195168D01*
X36968576Y25195168D02*
X36968576Y25861835D01*
X36968576Y25671359D02*
X37016195Y25766597D01*
X37016195Y25766597D02*
X37063814Y25814216D01*
X37063814Y25814216D02*
X37159052Y25861835D01*
X37159052Y25861835D02*
X37254290Y25861835D01*
X38016195Y25195168D02*
X38016195Y25718978D01*
X38016195Y25718978D02*
X37968576Y25814216D01*
X37968576Y25814216D02*
X37873338Y25861835D01*
X37873338Y25861835D02*
X37682862Y25861835D01*
X37682862Y25861835D02*
X37587624Y25814216D01*
X38016195Y25242787D02*
X37920957Y25195168D01*
X37920957Y25195168D02*
X37682862Y25195168D01*
X37682862Y25195168D02*
X37587624Y25242787D01*
X37587624Y25242787D02*
X37540005Y25338026D01*
X37540005Y25338026D02*
X37540005Y25433264D01*
X37540005Y25433264D02*
X37587624Y25528502D01*
X37587624Y25528502D02*
X37682862Y25576121D01*
X37682862Y25576121D02*
X37920957Y25576121D01*
X37920957Y25576121D02*
X38016195Y25623740D01*
X38492386Y25861835D02*
X38492386Y25195168D01*
X38492386Y25766597D02*
X38540005Y25814216D01*
X38540005Y25814216D02*
X38635243Y25861835D01*
X38635243Y25861835D02*
X38778100Y25861835D01*
X38778100Y25861835D02*
X38873338Y25814216D01*
X38873338Y25814216D02*
X38920957Y25718978D01*
X38920957Y25718978D02*
X38920957Y25195168D01*
X39349529Y25242787D02*
X39444767Y25195168D01*
X39444767Y25195168D02*
X39635243Y25195168D01*
X39635243Y25195168D02*
X39730481Y25242787D01*
X39730481Y25242787D02*
X39778100Y25338026D01*
X39778100Y25338026D02*
X39778100Y25385645D01*
X39778100Y25385645D02*
X39730481Y25480883D01*
X39730481Y25480883D02*
X39635243Y25528502D01*
X39635243Y25528502D02*
X39492386Y25528502D01*
X39492386Y25528502D02*
X39397148Y25576121D01*
X39397148Y25576121D02*
X39349529Y25671359D01*
X39349529Y25671359D02*
X39349529Y25718978D01*
X39349529Y25718978D02*
X39397148Y25814216D01*
X39397148Y25814216D02*
X39492386Y25861835D01*
X39492386Y25861835D02*
X39635243Y25861835D01*
X39635243Y25861835D02*
X39730481Y25814216D01*
X40206672Y25195168D02*
X40206672Y25861835D01*
X40206672Y25766597D02*
X40254291Y25814216D01*
X40254291Y25814216D02*
X40349529Y25861835D01*
X40349529Y25861835D02*
X40492386Y25861835D01*
X40492386Y25861835D02*
X40587624Y25814216D01*
X40587624Y25814216D02*
X40635243Y25718978D01*
X40635243Y25718978D02*
X40635243Y25195168D01*
X40635243Y25718978D02*
X40682862Y25814216D01*
X40682862Y25814216D02*
X40778100Y25861835D01*
X40778100Y25861835D02*
X40920957Y25861835D01*
X40920957Y25861835D02*
X41016196Y25814216D01*
X41016196Y25814216D02*
X41063815Y25718978D01*
X41063815Y25718978D02*
X41063815Y25195168D01*
X41540005Y25195168D02*
X41540005Y25861835D01*
X41540005Y26195168D02*
X41492386Y26147549D01*
X41492386Y26147549D02*
X41540005Y26099930D01*
X41540005Y26099930D02*
X41587624Y26147549D01*
X41587624Y26147549D02*
X41540005Y26195168D01*
X41540005Y26195168D02*
X41540005Y26099930D01*
X41873338Y25861835D02*
X42254290Y25861835D01*
X42016195Y26195168D02*
X42016195Y25338026D01*
X42016195Y25338026D02*
X42063814Y25242787D01*
X42063814Y25242787D02*
X42159052Y25195168D01*
X42159052Y25195168D02*
X42254290Y25195168D01*
X43349529Y25195168D02*
X43349529Y26195168D01*
X43349529Y25718978D02*
X43920957Y25718978D01*
X43920957Y25195168D02*
X43920957Y26195168D01*
X44825719Y25861835D02*
X44825719Y25195168D01*
X44397148Y25861835D02*
X44397148Y25338026D01*
X44397148Y25338026D02*
X44444767Y25242787D01*
X44444767Y25242787D02*
X44540005Y25195168D01*
X44540005Y25195168D02*
X44682862Y25195168D01*
X44682862Y25195168D02*
X44778100Y25242787D01*
X44778100Y25242787D02*
X44825719Y25290407D01*
X45301910Y25195168D02*
X45301910Y26195168D01*
X45301910Y25814216D02*
X45397148Y25861835D01*
X45397148Y25861835D02*
X45587624Y25861835D01*
X45587624Y25861835D02*
X45682862Y25814216D01*
X45682862Y25814216D02*
X45730481Y25766597D01*
X45730481Y25766597D02*
X45778100Y25671359D01*
X45778100Y25671359D02*
X45778100Y25385645D01*
X45778100Y25385645D02*
X45730481Y25290407D01*
X45730481Y25290407D02*
X45682862Y25242787D01*
X45682862Y25242787D02*
X45587624Y25195168D01*
X45587624Y25195168D02*
X45397148Y25195168D01*
X45397148Y25195168D02*
X45301910Y25242787D01*
D12*
X29284819Y36195834D02*
X28808628Y35862501D01*
X29284819Y35624406D02*
X28284819Y35624406D01*
X28284819Y35624406D02*
X28284819Y36005358D01*
X28284819Y36005358D02*
X28332438Y36100596D01*
X28332438Y36100596D02*
X28380057Y36148215D01*
X28380057Y36148215D02*
X28475295Y36195834D01*
X28475295Y36195834D02*
X28618152Y36195834D01*
X28618152Y36195834D02*
X28713390Y36148215D01*
X28713390Y36148215D02*
X28761009Y36100596D01*
X28761009Y36100596D02*
X28808628Y36005358D01*
X28808628Y36005358D02*
X28808628Y35624406D01*
X28618152Y37052977D02*
X29284819Y37052977D01*
X28237200Y36814882D02*
X28951485Y36576787D01*
X28951485Y36576787D02*
X28951485Y37195834D01*
X37638095Y9645181D02*
X37638095Y8835658D01*
X37638095Y8835658D02*
X37685714Y8740420D01*
X37685714Y8740420D02*
X37733333Y8692800D01*
X37733333Y8692800D02*
X37828571Y8645181D01*
X37828571Y8645181D02*
X38019047Y8645181D01*
X38019047Y8645181D02*
X38114285Y8692800D01*
X38114285Y8692800D02*
X38161904Y8740420D01*
X38161904Y8740420D02*
X38209523Y8835658D01*
X38209523Y8835658D02*
X38209523Y9645181D01*
X38638095Y9549943D02*
X38685714Y9597562D01*
X38685714Y9597562D02*
X38780952Y9645181D01*
X38780952Y9645181D02*
X39019047Y9645181D01*
X39019047Y9645181D02*
X39114285Y9597562D01*
X39114285Y9597562D02*
X39161904Y9549943D01*
X39161904Y9549943D02*
X39209523Y9454705D01*
X39209523Y9454705D02*
X39209523Y9359467D01*
X39209523Y9359467D02*
X39161904Y9216610D01*
X39161904Y9216610D02*
X38590476Y8645181D01*
X38590476Y8645181D02*
X39209523Y8645181D01*
X14854819Y14550596D02*
X15664342Y14550596D01*
X15664342Y14550596D02*
X15759580Y14598215D01*
X15759580Y14598215D02*
X15807200Y14645834D01*
X15807200Y14645834D02*
X15854819Y14741072D01*
X15854819Y14741072D02*
X15854819Y14931548D01*
X15854819Y14931548D02*
X15807200Y15026786D01*
X15807200Y15026786D02*
X15759580Y15074405D01*
X15759580Y15074405D02*
X15664342Y15122024D01*
X15664342Y15122024D02*
X14854819Y15122024D01*
X14854819Y16074405D02*
X14854819Y15598215D01*
X14854819Y15598215D02*
X15331009Y15550596D01*
X15331009Y15550596D02*
X15283390Y15598215D01*
X15283390Y15598215D02*
X15235771Y15693453D01*
X15235771Y15693453D02*
X15235771Y15931548D01*
X15235771Y15931548D02*
X15283390Y16026786D01*
X15283390Y16026786D02*
X15331009Y16074405D01*
X15331009Y16074405D02*
X15426247Y16122024D01*
X15426247Y16122024D02*
X15664342Y16122024D01*
X15664342Y16122024D02*
X15759580Y16074405D01*
X15759580Y16074405D02*
X15807200Y16026786D01*
X15807200Y16026786D02*
X15854819Y15931548D01*
X15854819Y15931548D02*
X15854819Y15693453D01*
X15854819Y15693453D02*
X15807200Y15598215D01*
X15807200Y15598215D02*
X15759580Y15550596D01*
X6633333Y47515420D02*
X6585714Y47467800D01*
X6585714Y47467800D02*
X6442857Y47420181D01*
X6442857Y47420181D02*
X6347619Y47420181D01*
X6347619Y47420181D02*
X6204762Y47467800D01*
X6204762Y47467800D02*
X6109524Y47563039D01*
X6109524Y47563039D02*
X6061905Y47658277D01*
X6061905Y47658277D02*
X6014286Y47848753D01*
X6014286Y47848753D02*
X6014286Y47991610D01*
X6014286Y47991610D02*
X6061905Y48182086D01*
X6061905Y48182086D02*
X6109524Y48277324D01*
X6109524Y48277324D02*
X6204762Y48372562D01*
X6204762Y48372562D02*
X6347619Y48420181D01*
X6347619Y48420181D02*
X6442857Y48420181D01*
X6442857Y48420181D02*
X6585714Y48372562D01*
X6585714Y48372562D02*
X6633333Y48324943D01*
X7204762Y47991610D02*
X7109524Y48039229D01*
X7109524Y48039229D02*
X7061905Y48086848D01*
X7061905Y48086848D02*
X7014286Y48182086D01*
X7014286Y48182086D02*
X7014286Y48229705D01*
X7014286Y48229705D02*
X7061905Y48324943D01*
X7061905Y48324943D02*
X7109524Y48372562D01*
X7109524Y48372562D02*
X7204762Y48420181D01*
X7204762Y48420181D02*
X7395238Y48420181D01*
X7395238Y48420181D02*
X7490476Y48372562D01*
X7490476Y48372562D02*
X7538095Y48324943D01*
X7538095Y48324943D02*
X7585714Y48229705D01*
X7585714Y48229705D02*
X7585714Y48182086D01*
X7585714Y48182086D02*
X7538095Y48086848D01*
X7538095Y48086848D02*
X7490476Y48039229D01*
X7490476Y48039229D02*
X7395238Y47991610D01*
X7395238Y47991610D02*
X7204762Y47991610D01*
X7204762Y47991610D02*
X7109524Y47943991D01*
X7109524Y47943991D02*
X7061905Y47896372D01*
X7061905Y47896372D02*
X7014286Y47801134D01*
X7014286Y47801134D02*
X7014286Y47610658D01*
X7014286Y47610658D02*
X7061905Y47515420D01*
X7061905Y47515420D02*
X7109524Y47467800D01*
X7109524Y47467800D02*
X7204762Y47420181D01*
X7204762Y47420181D02*
X7395238Y47420181D01*
X7395238Y47420181D02*
X7490476Y47467800D01*
X7490476Y47467800D02*
X7538095Y47515420D01*
X7538095Y47515420D02*
X7585714Y47610658D01*
X7585714Y47610658D02*
X7585714Y47801134D01*
X7585714Y47801134D02*
X7538095Y47896372D01*
X7538095Y47896372D02*
X7490476Y47943991D01*
X7490476Y47943991D02*
X7395238Y47991610D01*
X57054819Y53638096D02*
X57864342Y53638096D01*
X57864342Y53638096D02*
X57959580Y53685715D01*
X57959580Y53685715D02*
X58007200Y53733334D01*
X58007200Y53733334D02*
X58054819Y53828572D01*
X58054819Y53828572D02*
X58054819Y54019048D01*
X58054819Y54019048D02*
X58007200Y54114286D01*
X58007200Y54114286D02*
X57959580Y54161905D01*
X57959580Y54161905D02*
X57864342Y54209524D01*
X57864342Y54209524D02*
X57054819Y54209524D01*
X57054819Y54590477D02*
X57054819Y55209524D01*
X57054819Y55209524D02*
X57435771Y54876191D01*
X57435771Y54876191D02*
X57435771Y55019048D01*
X57435771Y55019048D02*
X57483390Y55114286D01*
X57483390Y55114286D02*
X57531009Y55161905D01*
X57531009Y55161905D02*
X57626247Y55209524D01*
X57626247Y55209524D02*
X57864342Y55209524D01*
X57864342Y55209524D02*
X57959580Y55161905D01*
X57959580Y55161905D02*
X58007200Y55114286D01*
X58007200Y55114286D02*
X58054819Y55019048D01*
X58054819Y55019048D02*
X58054819Y54733334D01*
X58054819Y54733334D02*
X58007200Y54638096D01*
X58007200Y54638096D02*
X57959580Y54590477D01*
X13433333Y25140420D02*
X13385714Y25092800D01*
X13385714Y25092800D02*
X13242857Y25045181D01*
X13242857Y25045181D02*
X13147619Y25045181D01*
X13147619Y25045181D02*
X13004762Y25092800D01*
X13004762Y25092800D02*
X12909524Y25188039D01*
X12909524Y25188039D02*
X12861905Y25283277D01*
X12861905Y25283277D02*
X12814286Y25473753D01*
X12814286Y25473753D02*
X12814286Y25616610D01*
X12814286Y25616610D02*
X12861905Y25807086D01*
X12861905Y25807086D02*
X12909524Y25902324D01*
X12909524Y25902324D02*
X13004762Y25997562D01*
X13004762Y25997562D02*
X13147619Y26045181D01*
X13147619Y26045181D02*
X13242857Y26045181D01*
X13242857Y26045181D02*
X13385714Y25997562D01*
X13385714Y25997562D02*
X13433333Y25949943D01*
X14338095Y26045181D02*
X13861905Y26045181D01*
X13861905Y26045181D02*
X13814286Y25568991D01*
X13814286Y25568991D02*
X13861905Y25616610D01*
X13861905Y25616610D02*
X13957143Y25664229D01*
X13957143Y25664229D02*
X14195238Y25664229D01*
X14195238Y25664229D02*
X14290476Y25616610D01*
X14290476Y25616610D02*
X14338095Y25568991D01*
X14338095Y25568991D02*
X14385714Y25473753D01*
X14385714Y25473753D02*
X14385714Y25235658D01*
X14385714Y25235658D02*
X14338095Y25140420D01*
X14338095Y25140420D02*
X14290476Y25092800D01*
X14290476Y25092800D02*
X14195238Y25045181D01*
X14195238Y25045181D02*
X13957143Y25045181D01*
X13957143Y25045181D02*
X13861905Y25092800D01*
X13861905Y25092800D02*
X13814286Y25140420D01*
X10433333Y49340420D02*
X10385714Y49292800D01*
X10385714Y49292800D02*
X10242857Y49245181D01*
X10242857Y49245181D02*
X10147619Y49245181D01*
X10147619Y49245181D02*
X10004762Y49292800D01*
X10004762Y49292800D02*
X9909524Y49388039D01*
X9909524Y49388039D02*
X9861905Y49483277D01*
X9861905Y49483277D02*
X9814286Y49673753D01*
X9814286Y49673753D02*
X9814286Y49816610D01*
X9814286Y49816610D02*
X9861905Y50007086D01*
X9861905Y50007086D02*
X9909524Y50102324D01*
X9909524Y50102324D02*
X10004762Y50197562D01*
X10004762Y50197562D02*
X10147619Y50245181D01*
X10147619Y50245181D02*
X10242857Y50245181D01*
X10242857Y50245181D02*
X10385714Y50197562D01*
X10385714Y50197562D02*
X10433333Y50149943D01*
X10909524Y49245181D02*
X11100000Y49245181D01*
X11100000Y49245181D02*
X11195238Y49292800D01*
X11195238Y49292800D02*
X11242857Y49340420D01*
X11242857Y49340420D02*
X11338095Y49483277D01*
X11338095Y49483277D02*
X11385714Y49673753D01*
X11385714Y49673753D02*
X11385714Y50054705D01*
X11385714Y50054705D02*
X11338095Y50149943D01*
X11338095Y50149943D02*
X11290476Y50197562D01*
X11290476Y50197562D02*
X11195238Y50245181D01*
X11195238Y50245181D02*
X11004762Y50245181D01*
X11004762Y50245181D02*
X10909524Y50197562D01*
X10909524Y50197562D02*
X10861905Y50149943D01*
X10861905Y50149943D02*
X10814286Y50054705D01*
X10814286Y50054705D02*
X10814286Y49816610D01*
X10814286Y49816610D02*
X10861905Y49721372D01*
X10861905Y49721372D02*
X10909524Y49673753D01*
X10909524Y49673753D02*
X11004762Y49626134D01*
X11004762Y49626134D02*
X11195238Y49626134D01*
X11195238Y49626134D02*
X11290476Y49673753D01*
X11290476Y49673753D02*
X11338095Y49721372D01*
X11338095Y49721372D02*
X11385714Y49816610D01*
X62815811Y21725181D02*
X62815811Y20915658D01*
X62815811Y20915658D02*
X62863430Y20820420D01*
X62863430Y20820420D02*
X62911049Y20772800D01*
X62911049Y20772800D02*
X63006287Y20725181D01*
X63006287Y20725181D02*
X63196763Y20725181D01*
X63196763Y20725181D02*
X63292001Y20772800D01*
X63292001Y20772800D02*
X63339620Y20820420D01*
X63339620Y20820420D02*
X63387239Y20915658D01*
X63387239Y20915658D02*
X63387239Y21725181D01*
X64292001Y21725181D02*
X64101525Y21725181D01*
X64101525Y21725181D02*
X64006287Y21677562D01*
X64006287Y21677562D02*
X63958668Y21629943D01*
X63958668Y21629943D02*
X63863430Y21487086D01*
X63863430Y21487086D02*
X63815811Y21296610D01*
X63815811Y21296610D02*
X63815811Y20915658D01*
X63815811Y20915658D02*
X63863430Y20820420D01*
X63863430Y20820420D02*
X63911049Y20772800D01*
X63911049Y20772800D02*
X64006287Y20725181D01*
X64006287Y20725181D02*
X64196763Y20725181D01*
X64196763Y20725181D02*
X64292001Y20772800D01*
X64292001Y20772800D02*
X64339620Y20820420D01*
X64339620Y20820420D02*
X64387239Y20915658D01*
X64387239Y20915658D02*
X64387239Y21153753D01*
X64387239Y21153753D02*
X64339620Y21248991D01*
X64339620Y21248991D02*
X64292001Y21296610D01*
X64292001Y21296610D02*
X64196763Y21344229D01*
X64196763Y21344229D02*
X64006287Y21344229D01*
X64006287Y21344229D02*
X63911049Y21296610D01*
X63911049Y21296610D02*
X63863430Y21248991D01*
X63863430Y21248991D02*
X63815811Y21153753D01*
X39866666Y7045181D02*
X39866666Y6330896D01*
X39866666Y6330896D02*
X39819047Y6188039D01*
X39819047Y6188039D02*
X39723809Y6092800D01*
X39723809Y6092800D02*
X39580952Y6045181D01*
X39580952Y6045181D02*
X39485714Y6045181D01*
X40295238Y6949943D02*
X40342857Y6997562D01*
X40342857Y6997562D02*
X40438095Y7045181D01*
X40438095Y7045181D02*
X40676190Y7045181D01*
X40676190Y7045181D02*
X40771428Y6997562D01*
X40771428Y6997562D02*
X40819047Y6949943D01*
X40819047Y6949943D02*
X40866666Y6854705D01*
X40866666Y6854705D02*
X40866666Y6759467D01*
X40866666Y6759467D02*
X40819047Y6616610D01*
X40819047Y6616610D02*
X40247619Y6045181D01*
X40247619Y6045181D02*
X40866666Y6045181D01*
X12033333Y46245181D02*
X11700000Y46721372D01*
X11461905Y46245181D02*
X11461905Y47245181D01*
X11461905Y47245181D02*
X11842857Y47245181D01*
X11842857Y47245181D02*
X11938095Y47197562D01*
X11938095Y47197562D02*
X11985714Y47149943D01*
X11985714Y47149943D02*
X12033333Y47054705D01*
X12033333Y47054705D02*
X12033333Y46911848D01*
X12033333Y46911848D02*
X11985714Y46816610D01*
X11985714Y46816610D02*
X11938095Y46768991D01*
X11938095Y46768991D02*
X11842857Y46721372D01*
X11842857Y46721372D02*
X11461905Y46721372D01*
X12938095Y47245181D02*
X12461905Y47245181D01*
X12461905Y47245181D02*
X12414286Y46768991D01*
X12414286Y46768991D02*
X12461905Y46816610D01*
X12461905Y46816610D02*
X12557143Y46864229D01*
X12557143Y46864229D02*
X12795238Y46864229D01*
X12795238Y46864229D02*
X12890476Y46816610D01*
X12890476Y46816610D02*
X12938095Y46768991D01*
X12938095Y46768991D02*
X12985714Y46673753D01*
X12985714Y46673753D02*
X12985714Y46435658D01*
X12985714Y46435658D02*
X12938095Y46340420D01*
X12938095Y46340420D02*
X12890476Y46292800D01*
X12890476Y46292800D02*
X12795238Y46245181D01*
X12795238Y46245181D02*
X12557143Y46245181D01*
X12557143Y46245181D02*
X12461905Y46292800D01*
X12461905Y46292800D02*
X12414286Y46340420D01*
X28884819Y40158334D02*
X28408628Y39825001D01*
X28884819Y39586906D02*
X27884819Y39586906D01*
X27884819Y39586906D02*
X27884819Y39967858D01*
X27884819Y39967858D02*
X27932438Y40063096D01*
X27932438Y40063096D02*
X27980057Y40110715D01*
X27980057Y40110715D02*
X28075295Y40158334D01*
X28075295Y40158334D02*
X28218152Y40158334D01*
X28218152Y40158334D02*
X28313390Y40110715D01*
X28313390Y40110715D02*
X28361009Y40063096D01*
X28361009Y40063096D02*
X28408628Y39967858D01*
X28408628Y39967858D02*
X28408628Y39586906D01*
X27884819Y40491668D02*
X27884819Y41110715D01*
X27884819Y41110715D02*
X28265771Y40777382D01*
X28265771Y40777382D02*
X28265771Y40920239D01*
X28265771Y40920239D02*
X28313390Y41015477D01*
X28313390Y41015477D02*
X28361009Y41063096D01*
X28361009Y41063096D02*
X28456247Y41110715D01*
X28456247Y41110715D02*
X28694342Y41110715D01*
X28694342Y41110715D02*
X28789580Y41063096D01*
X28789580Y41063096D02*
X28837200Y41015477D01*
X28837200Y41015477D02*
X28884819Y40920239D01*
X28884819Y40920239D02*
X28884819Y40634525D01*
X28884819Y40634525D02*
X28837200Y40539287D01*
X28837200Y40539287D02*
X28789580Y40491668D01*
X6854819Y43678096D02*
X7664342Y43678096D01*
X7664342Y43678096D02*
X7759580Y43725715D01*
X7759580Y43725715D02*
X7807200Y43773334D01*
X7807200Y43773334D02*
X7854819Y43868572D01*
X7854819Y43868572D02*
X7854819Y44059048D01*
X7854819Y44059048D02*
X7807200Y44154286D01*
X7807200Y44154286D02*
X7759580Y44201905D01*
X7759580Y44201905D02*
X7664342Y44249524D01*
X7664342Y44249524D02*
X6854819Y44249524D01*
X7188152Y45154286D02*
X7854819Y45154286D01*
X6807200Y44916191D02*
X7521485Y44678096D01*
X7521485Y44678096D02*
X7521485Y45297143D01*
X32033333Y6245181D02*
X31700000Y6721372D01*
X31461905Y6245181D02*
X31461905Y7245181D01*
X31461905Y7245181D02*
X31842857Y7245181D01*
X31842857Y7245181D02*
X31938095Y7197562D01*
X31938095Y7197562D02*
X31985714Y7149943D01*
X31985714Y7149943D02*
X32033333Y7054705D01*
X32033333Y7054705D02*
X32033333Y6911848D01*
X32033333Y6911848D02*
X31985714Y6816610D01*
X31985714Y6816610D02*
X31938095Y6768991D01*
X31938095Y6768991D02*
X31842857Y6721372D01*
X31842857Y6721372D02*
X31461905Y6721372D01*
X32366667Y7245181D02*
X33033333Y7245181D01*
X33033333Y7245181D02*
X32604762Y6245181D01*
X55026866Y22263266D02*
X54979247Y22215646D01*
X54979247Y22215646D02*
X54836390Y22168027D01*
X54836390Y22168027D02*
X54741152Y22168027D01*
X54741152Y22168027D02*
X54598295Y22215646D01*
X54598295Y22215646D02*
X54503057Y22310885D01*
X54503057Y22310885D02*
X54455438Y22406123D01*
X54455438Y22406123D02*
X54407819Y22596599D01*
X54407819Y22596599D02*
X54407819Y22739456D01*
X54407819Y22739456D02*
X54455438Y22929932D01*
X54455438Y22929932D02*
X54503057Y23025170D01*
X54503057Y23025170D02*
X54598295Y23120408D01*
X54598295Y23120408D02*
X54741152Y23168027D01*
X54741152Y23168027D02*
X54836390Y23168027D01*
X54836390Y23168027D02*
X54979247Y23120408D01*
X54979247Y23120408D02*
X55026866Y23072789D01*
X55884009Y22834694D02*
X55884009Y22168027D01*
X55645914Y23215646D02*
X55407819Y22501361D01*
X55407819Y22501361D02*
X56026866Y22501361D01*
X13433333Y27940420D02*
X13385714Y27892800D01*
X13385714Y27892800D02*
X13242857Y27845181D01*
X13242857Y27845181D02*
X13147619Y27845181D01*
X13147619Y27845181D02*
X13004762Y27892800D01*
X13004762Y27892800D02*
X12909524Y27988039D01*
X12909524Y27988039D02*
X12861905Y28083277D01*
X12861905Y28083277D02*
X12814286Y28273753D01*
X12814286Y28273753D02*
X12814286Y28416610D01*
X12814286Y28416610D02*
X12861905Y28607086D01*
X12861905Y28607086D02*
X12909524Y28702324D01*
X12909524Y28702324D02*
X13004762Y28797562D01*
X13004762Y28797562D02*
X13147619Y28845181D01*
X13147619Y28845181D02*
X13242857Y28845181D01*
X13242857Y28845181D02*
X13385714Y28797562D01*
X13385714Y28797562D02*
X13433333Y28749943D01*
X13766667Y28845181D02*
X14433333Y28845181D01*
X14433333Y28845181D02*
X14004762Y27845181D01*
X31584580Y37009524D02*
X31632200Y36961905D01*
X31632200Y36961905D02*
X31679819Y36819048D01*
X31679819Y36819048D02*
X31679819Y36723810D01*
X31679819Y36723810D02*
X31632200Y36580953D01*
X31632200Y36580953D02*
X31536961Y36485715D01*
X31536961Y36485715D02*
X31441723Y36438096D01*
X31441723Y36438096D02*
X31251247Y36390477D01*
X31251247Y36390477D02*
X31108390Y36390477D01*
X31108390Y36390477D02*
X30917914Y36438096D01*
X30917914Y36438096D02*
X30822676Y36485715D01*
X30822676Y36485715D02*
X30727438Y36580953D01*
X30727438Y36580953D02*
X30679819Y36723810D01*
X30679819Y36723810D02*
X30679819Y36819048D01*
X30679819Y36819048D02*
X30727438Y36961905D01*
X30727438Y36961905D02*
X30775057Y37009524D01*
X31679819Y37438096D02*
X30679819Y37438096D01*
X30679819Y37438096D02*
X31679819Y38009524D01*
X31679819Y38009524D02*
X30679819Y38009524D01*
X31679819Y39009524D02*
X31679819Y38438096D01*
X31679819Y38723810D02*
X30679819Y38723810D01*
X30679819Y38723810D02*
X30822676Y38628572D01*
X30822676Y38628572D02*
X30917914Y38533334D01*
X30917914Y38533334D02*
X30965533Y38438096D01*
X37883333Y6140420D02*
X37835714Y6092800D01*
X37835714Y6092800D02*
X37692857Y6045181D01*
X37692857Y6045181D02*
X37597619Y6045181D01*
X37597619Y6045181D02*
X37454762Y6092800D01*
X37454762Y6092800D02*
X37359524Y6188039D01*
X37359524Y6188039D02*
X37311905Y6283277D01*
X37311905Y6283277D02*
X37264286Y6473753D01*
X37264286Y6473753D02*
X37264286Y6616610D01*
X37264286Y6616610D02*
X37311905Y6807086D01*
X37311905Y6807086D02*
X37359524Y6902324D01*
X37359524Y6902324D02*
X37454762Y6997562D01*
X37454762Y6997562D02*
X37597619Y7045181D01*
X37597619Y7045181D02*
X37692857Y7045181D01*
X37692857Y7045181D02*
X37835714Y6997562D01*
X37835714Y6997562D02*
X37883333Y6949943D01*
X38264286Y6949943D02*
X38311905Y6997562D01*
X38311905Y6997562D02*
X38407143Y7045181D01*
X38407143Y7045181D02*
X38645238Y7045181D01*
X38645238Y7045181D02*
X38740476Y6997562D01*
X38740476Y6997562D02*
X38788095Y6949943D01*
X38788095Y6949943D02*
X38835714Y6854705D01*
X38835714Y6854705D02*
X38835714Y6759467D01*
X38835714Y6759467D02*
X38788095Y6616610D01*
X38788095Y6616610D02*
X38216667Y6045181D01*
X38216667Y6045181D02*
X38835714Y6045181D01*
X9633333Y26140420D02*
X9585714Y26092800D01*
X9585714Y26092800D02*
X9442857Y26045181D01*
X9442857Y26045181D02*
X9347619Y26045181D01*
X9347619Y26045181D02*
X9204762Y26092800D01*
X9204762Y26092800D02*
X9109524Y26188039D01*
X9109524Y26188039D02*
X9061905Y26283277D01*
X9061905Y26283277D02*
X9014286Y26473753D01*
X9014286Y26473753D02*
X9014286Y26616610D01*
X9014286Y26616610D02*
X9061905Y26807086D01*
X9061905Y26807086D02*
X9109524Y26902324D01*
X9109524Y26902324D02*
X9204762Y26997562D01*
X9204762Y26997562D02*
X9347619Y27045181D01*
X9347619Y27045181D02*
X9442857Y27045181D01*
X9442857Y27045181D02*
X9585714Y26997562D01*
X9585714Y26997562D02*
X9633333Y26949943D01*
X10490476Y27045181D02*
X10300000Y27045181D01*
X10300000Y27045181D02*
X10204762Y26997562D01*
X10204762Y26997562D02*
X10157143Y26949943D01*
X10157143Y26949943D02*
X10061905Y26807086D01*
X10061905Y26807086D02*
X10014286Y26616610D01*
X10014286Y26616610D02*
X10014286Y26235658D01*
X10014286Y26235658D02*
X10061905Y26140420D01*
X10061905Y26140420D02*
X10109524Y26092800D01*
X10109524Y26092800D02*
X10204762Y26045181D01*
X10204762Y26045181D02*
X10395238Y26045181D01*
X10395238Y26045181D02*
X10490476Y26092800D01*
X10490476Y26092800D02*
X10538095Y26140420D01*
X10538095Y26140420D02*
X10585714Y26235658D01*
X10585714Y26235658D02*
X10585714Y26473753D01*
X10585714Y26473753D02*
X10538095Y26568991D01*
X10538095Y26568991D02*
X10490476Y26616610D01*
X10490476Y26616610D02*
X10395238Y26664229D01*
X10395238Y26664229D02*
X10204762Y26664229D01*
X10204762Y26664229D02*
X10109524Y26616610D01*
X10109524Y26616610D02*
X10061905Y26568991D01*
X10061905Y26568991D02*
X10014286Y26473753D01*
X24633333Y38845181D02*
X24300000Y39321372D01*
X24061905Y38845181D02*
X24061905Y39845181D01*
X24061905Y39845181D02*
X24442857Y39845181D01*
X24442857Y39845181D02*
X24538095Y39797562D01*
X24538095Y39797562D02*
X24585714Y39749943D01*
X24585714Y39749943D02*
X24633333Y39654705D01*
X24633333Y39654705D02*
X24633333Y39511848D01*
X24633333Y39511848D02*
X24585714Y39416610D01*
X24585714Y39416610D02*
X24538095Y39368991D01*
X24538095Y39368991D02*
X24442857Y39321372D01*
X24442857Y39321372D02*
X24061905Y39321372D01*
X25014286Y39749943D02*
X25061905Y39797562D01*
X25061905Y39797562D02*
X25157143Y39845181D01*
X25157143Y39845181D02*
X25395238Y39845181D01*
X25395238Y39845181D02*
X25490476Y39797562D01*
X25490476Y39797562D02*
X25538095Y39749943D01*
X25538095Y39749943D02*
X25585714Y39654705D01*
X25585714Y39654705D02*
X25585714Y39559467D01*
X25585714Y39559467D02*
X25538095Y39416610D01*
X25538095Y39416610D02*
X24966667Y38845181D01*
X24966667Y38845181D02*
X25585714Y38845181D01*
X38233333Y12140420D02*
X38185714Y12092800D01*
X38185714Y12092800D02*
X38042857Y12045181D01*
X38042857Y12045181D02*
X37947619Y12045181D01*
X37947619Y12045181D02*
X37804762Y12092800D01*
X37804762Y12092800D02*
X37709524Y12188039D01*
X37709524Y12188039D02*
X37661905Y12283277D01*
X37661905Y12283277D02*
X37614286Y12473753D01*
X37614286Y12473753D02*
X37614286Y12616610D01*
X37614286Y12616610D02*
X37661905Y12807086D01*
X37661905Y12807086D02*
X37709524Y12902324D01*
X37709524Y12902324D02*
X37804762Y12997562D01*
X37804762Y12997562D02*
X37947619Y13045181D01*
X37947619Y13045181D02*
X38042857Y13045181D01*
X38042857Y13045181D02*
X38185714Y12997562D01*
X38185714Y12997562D02*
X38233333Y12949943D01*
X39185714Y12045181D02*
X38614286Y12045181D01*
X38900000Y12045181D02*
X38900000Y13045181D01*
X38900000Y13045181D02*
X38804762Y12902324D01*
X38804762Y12902324D02*
X38709524Y12807086D01*
X38709524Y12807086D02*
X38614286Y12759467D01*
X33172864Y3661151D02*
X33077626Y3708770D01*
X33077626Y3708770D02*
X32982388Y3804008D01*
X32982388Y3804008D02*
X32839531Y3946866D01*
X32839531Y3946866D02*
X32744293Y3994485D01*
X32744293Y3994485D02*
X32649055Y3994485D01*
X32696674Y3756389D02*
X32601436Y3804008D01*
X32601436Y3804008D02*
X32506198Y3899247D01*
X32506198Y3899247D02*
X32458579Y4089723D01*
X32458579Y4089723D02*
X32458579Y4423056D01*
X32458579Y4423056D02*
X32506198Y4613532D01*
X32506198Y4613532D02*
X32601436Y4708770D01*
X32601436Y4708770D02*
X32696674Y4756389D01*
X32696674Y4756389D02*
X32887150Y4756389D01*
X32887150Y4756389D02*
X32982388Y4708770D01*
X32982388Y4708770D02*
X33077626Y4613532D01*
X33077626Y4613532D02*
X33125245Y4423056D01*
X33125245Y4423056D02*
X33125245Y4089723D01*
X33125245Y4089723D02*
X33077626Y3899247D01*
X33077626Y3899247D02*
X32982388Y3804008D01*
X32982388Y3804008D02*
X32887150Y3756389D01*
X32887150Y3756389D02*
X32696674Y3756389D01*
X34077626Y3756389D02*
X33506198Y3756389D01*
X33791912Y3756389D02*
X33791912Y4756389D01*
X33791912Y4756389D02*
X33696674Y4613532D01*
X33696674Y4613532D02*
X33601436Y4518294D01*
X33601436Y4518294D02*
X33506198Y4470675D01*
X32038506Y4982250D02*
X31705173Y5458441D01*
X31467078Y4982250D02*
X31467078Y5982250D01*
X31467078Y5982250D02*
X31848030Y5982250D01*
X31848030Y5982250D02*
X31943268Y5934631D01*
X31943268Y5934631D02*
X31990887Y5887012D01*
X31990887Y5887012D02*
X32038506Y5791774D01*
X32038506Y5791774D02*
X32038506Y5648917D01*
X32038506Y5648917D02*
X31990887Y5553679D01*
X31990887Y5553679D02*
X31943268Y5506060D01*
X31943268Y5506060D02*
X31848030Y5458441D01*
X31848030Y5458441D02*
X31467078Y5458441D01*
X32895649Y5982250D02*
X32705173Y5982250D01*
X32705173Y5982250D02*
X32609935Y5934631D01*
X32609935Y5934631D02*
X32562316Y5887012D01*
X32562316Y5887012D02*
X32467078Y5744155D01*
X32467078Y5744155D02*
X32419459Y5553679D01*
X32419459Y5553679D02*
X32419459Y5172727D01*
X32419459Y5172727D02*
X32467078Y5077489D01*
X32467078Y5077489D02*
X32514697Y5029869D01*
X32514697Y5029869D02*
X32609935Y4982250D01*
X32609935Y4982250D02*
X32800411Y4982250D01*
X32800411Y4982250D02*
X32895649Y5029869D01*
X32895649Y5029869D02*
X32943268Y5077489D01*
X32943268Y5077489D02*
X32990887Y5172727D01*
X32990887Y5172727D02*
X32990887Y5410822D01*
X32990887Y5410822D02*
X32943268Y5506060D01*
X32943268Y5506060D02*
X32895649Y5553679D01*
X32895649Y5553679D02*
X32800411Y5601298D01*
X32800411Y5601298D02*
X32609935Y5601298D01*
X32609935Y5601298D02*
X32514697Y5553679D01*
X32514697Y5553679D02*
X32467078Y5506060D01*
X32467078Y5506060D02*
X32419459Y5410822D01*
X56559580Y24133334D02*
X56607200Y24085715D01*
X56607200Y24085715D02*
X56654819Y23942858D01*
X56654819Y23942858D02*
X56654819Y23847620D01*
X56654819Y23847620D02*
X56607200Y23704763D01*
X56607200Y23704763D02*
X56511961Y23609525D01*
X56511961Y23609525D02*
X56416723Y23561906D01*
X56416723Y23561906D02*
X56226247Y23514287D01*
X56226247Y23514287D02*
X56083390Y23514287D01*
X56083390Y23514287D02*
X55892914Y23561906D01*
X55892914Y23561906D02*
X55797676Y23609525D01*
X55797676Y23609525D02*
X55702438Y23704763D01*
X55702438Y23704763D02*
X55654819Y23847620D01*
X55654819Y23847620D02*
X55654819Y23942858D01*
X55654819Y23942858D02*
X55702438Y24085715D01*
X55702438Y24085715D02*
X55750057Y24133334D01*
X55654819Y24466668D02*
X55654819Y25085715D01*
X55654819Y25085715D02*
X56035771Y24752382D01*
X56035771Y24752382D02*
X56035771Y24895239D01*
X56035771Y24895239D02*
X56083390Y24990477D01*
X56083390Y24990477D02*
X56131009Y25038096D01*
X56131009Y25038096D02*
X56226247Y25085715D01*
X56226247Y25085715D02*
X56464342Y25085715D01*
X56464342Y25085715D02*
X56559580Y25038096D01*
X56559580Y25038096D02*
X56607200Y24990477D01*
X56607200Y24990477D02*
X56654819Y24895239D01*
X56654819Y24895239D02*
X56654819Y24609525D01*
X56654819Y24609525D02*
X56607200Y24514287D01*
X56607200Y24514287D02*
X56559580Y24466668D01*
X24633333Y45870181D02*
X24300000Y46346372D01*
X24061905Y45870181D02*
X24061905Y46870181D01*
X24061905Y46870181D02*
X24442857Y46870181D01*
X24442857Y46870181D02*
X24538095Y46822562D01*
X24538095Y46822562D02*
X24585714Y46774943D01*
X24585714Y46774943D02*
X24633333Y46679705D01*
X24633333Y46679705D02*
X24633333Y46536848D01*
X24633333Y46536848D02*
X24585714Y46441610D01*
X24585714Y46441610D02*
X24538095Y46393991D01*
X24538095Y46393991D02*
X24442857Y46346372D01*
X24442857Y46346372D02*
X24061905Y46346372D01*
X25585714Y45870181D02*
X25014286Y45870181D01*
X25300000Y45870181D02*
X25300000Y46870181D01*
X25300000Y46870181D02*
X25204762Y46727324D01*
X25204762Y46727324D02*
X25109524Y46632086D01*
X25109524Y46632086D02*
X25014286Y46584467D01*
X53232535Y11818096D02*
X54042058Y11818096D01*
X54042058Y11818096D02*
X54137296Y11865715D01*
X54137296Y11865715D02*
X54184916Y11913334D01*
X54184916Y11913334D02*
X54232535Y12008572D01*
X54232535Y12008572D02*
X54232535Y12199048D01*
X54232535Y12199048D02*
X54184916Y12294286D01*
X54184916Y12294286D02*
X54137296Y12341905D01*
X54137296Y12341905D02*
X54042058Y12389524D01*
X54042058Y12389524D02*
X53232535Y12389524D01*
X54232535Y13389524D02*
X54232535Y12818096D01*
X54232535Y13103810D02*
X53232535Y13103810D01*
X53232535Y13103810D02*
X53375392Y13008572D01*
X53375392Y13008572D02*
X53470630Y12913334D01*
X53470630Y12913334D02*
X53518249Y12818096D01*
X32404069Y45161906D02*
X33213592Y45161906D01*
X33213592Y45161906D02*
X33308830Y45209525D01*
X33308830Y45209525D02*
X33356450Y45257144D01*
X33356450Y45257144D02*
X33404069Y45352382D01*
X33404069Y45352382D02*
X33404069Y45542858D01*
X33404069Y45542858D02*
X33356450Y45638096D01*
X33356450Y45638096D02*
X33308830Y45685715D01*
X33308830Y45685715D02*
X33213592Y45733334D01*
X33213592Y45733334D02*
X32404069Y45733334D01*
X33356450Y46161906D02*
X33404069Y46304763D01*
X33404069Y46304763D02*
X33404069Y46542858D01*
X33404069Y46542858D02*
X33356450Y46638096D01*
X33356450Y46638096D02*
X33308830Y46685715D01*
X33308830Y46685715D02*
X33213592Y46733334D01*
X33213592Y46733334D02*
X33118354Y46733334D01*
X33118354Y46733334D02*
X33023116Y46685715D01*
X33023116Y46685715D02*
X32975497Y46638096D01*
X32975497Y46638096D02*
X32927878Y46542858D01*
X32927878Y46542858D02*
X32880259Y46352382D01*
X32880259Y46352382D02*
X32832640Y46257144D01*
X32832640Y46257144D02*
X32785021Y46209525D01*
X32785021Y46209525D02*
X32689783Y46161906D01*
X32689783Y46161906D02*
X32594545Y46161906D01*
X32594545Y46161906D02*
X32499307Y46209525D01*
X32499307Y46209525D02*
X32451688Y46257144D01*
X32451688Y46257144D02*
X32404069Y46352382D01*
X32404069Y46352382D02*
X32404069Y46590477D01*
X32404069Y46590477D02*
X32451688Y46733334D01*
X32880259Y47495239D02*
X32927878Y47638096D01*
X32927878Y47638096D02*
X32975497Y47685715D01*
X32975497Y47685715D02*
X33070735Y47733334D01*
X33070735Y47733334D02*
X33213592Y47733334D01*
X33213592Y47733334D02*
X33308830Y47685715D01*
X33308830Y47685715D02*
X33356450Y47638096D01*
X33356450Y47638096D02*
X33404069Y47542858D01*
X33404069Y47542858D02*
X33404069Y47161906D01*
X33404069Y47161906D02*
X32404069Y47161906D01*
X32404069Y47161906D02*
X32404069Y47495239D01*
X32404069Y47495239D02*
X32451688Y47590477D01*
X32451688Y47590477D02*
X32499307Y47638096D01*
X32499307Y47638096D02*
X32594545Y47685715D01*
X32594545Y47685715D02*
X32689783Y47685715D01*
X32689783Y47685715D02*
X32785021Y47638096D01*
X32785021Y47638096D02*
X32832640Y47590477D01*
X32832640Y47590477D02*
X32880259Y47495239D01*
X32880259Y47495239D02*
X32880259Y47161906D01*
X33404069Y48685715D02*
X33404069Y48114287D01*
X33404069Y48400001D02*
X32404069Y48400001D01*
X32404069Y48400001D02*
X32546926Y48304763D01*
X32546926Y48304763D02*
X32642164Y48209525D01*
X32642164Y48209525D02*
X32689783Y48114287D01*
D13*
%TO.C,R4*%
X26090000Y37089564D02*
X26090000Y35635436D01*
X27910000Y37089564D02*
X27910000Y35635436D01*
%TO.C,U2*%
X34090000Y10410000D02*
X34140000Y10410000D01*
X34090000Y8590000D02*
X34090000Y10410000D01*
X34140000Y8590000D02*
X34090000Y8590000D01*
X35260000Y10410000D02*
X36040000Y10410000D01*
X37160000Y10410000D02*
X37210000Y10410000D01*
X37210000Y10410000D02*
X37210000Y8590000D01*
X37210000Y8590000D02*
X37160000Y8590000D01*
X34140000Y8050000D02*
X33810000Y7810000D01*
X33810000Y8290000D01*
X34140000Y8050000D01*
G36*
X34140000Y8050000D02*
G01*
X33810000Y7810000D01*
X33810000Y8290000D01*
X34140000Y8050000D01*
G37*
D14*
%TO.C,U5*%
X5887500Y24522500D02*
X7906500Y24522500D01*
X5887500Y6122500D02*
X5887500Y24522500D01*
X7906500Y6122500D02*
X5887500Y6122500D01*
X7906500Y6122500D02*
X23518500Y6122500D01*
X22268500Y24522500D02*
X7906500Y24522500D01*
X22268500Y24522500D02*
X24287500Y24522500D01*
X24287500Y24522500D02*
X24287500Y6122500D01*
X24287500Y6122500D02*
X23518500Y6122500D01*
X23808500Y25812500D02*
G75*
G02*
X22591500Y25812500I-608500J0D01*
G01*
X22591500Y25812500D02*
G75*
G02*
X23808500Y25812500I608500J0D01*
G01*
D13*
%TO.C,C8*%
X8827836Y48235000D02*
X8612164Y48235000D01*
X8827836Y47515000D02*
X8612164Y47515000D01*
D15*
%TO.C,U3*%
X550000Y52100000D02*
X6900000Y52100000D01*
X550000Y34100000D02*
X550000Y52100000D01*
X6900000Y55800000D02*
X58700000Y55800000D01*
X6900000Y52100000D02*
X6900000Y55800000D01*
X6900000Y34100000D02*
X550000Y34100000D01*
X6900000Y30400000D02*
X6900000Y34100000D01*
X58700000Y55800000D02*
X58700000Y54625000D01*
X58700000Y45975000D02*
X58700000Y40225000D01*
X58700000Y45975000D02*
X59100000Y45975000D01*
X58700000Y31575000D02*
X58700000Y30400000D01*
X58700000Y31575000D02*
X59100000Y31575000D01*
X58700000Y30400000D02*
X6900000Y30400000D01*
X59100000Y54625000D02*
X58700000Y54625000D01*
X59100000Y45975000D02*
X59100000Y54625000D01*
X59100000Y40225000D02*
X58700000Y40225000D01*
X59100000Y31575000D02*
X59100000Y40225000D01*
D16*
X8575000Y29850000D02*
G75*
G02*
X8375000Y29850000I-100000J0D01*
G01*
X8375000Y29850000D02*
G75*
G02*
X8575000Y29850000I100000J0D01*
G01*
D13*
%TO.C,C5*%
X11612164Y25860000D02*
X11827836Y25860000D01*
X11612164Y25140000D02*
X11827836Y25140000D01*
%TO.C,C9*%
X8111252Y50410000D02*
X7588748Y50410000D01*
X8111252Y48940000D02*
X7588748Y48940000D01*
D14*
%TO.C,U6*%
X57752000Y24876000D02*
X57752000Y27124000D01*
X59676000Y29048000D02*
X61924000Y29048000D01*
X61924000Y22952000D02*
X59676000Y22952000D01*
X63975000Y24818000D02*
X63975000Y27182000D01*
X64676000Y29048000D02*
X72484000Y29048000D01*
X65344500Y22952000D02*
X66071000Y29048000D01*
X66161000Y22952000D02*
X66887500Y29048000D01*
X66995500Y22952000D02*
X67722000Y29048000D01*
X67848500Y22952000D02*
X68575000Y29048000D01*
X68665000Y22952000D02*
X69391000Y29048000D01*
X69481000Y22952000D02*
X70207500Y29048000D01*
X70316000Y22952000D02*
X71042000Y29048000D01*
X71167500Y22951000D02*
X71894000Y29047000D01*
X72484000Y29048000D02*
X72484000Y22952000D01*
X72484000Y22952000D02*
X64676000Y22952000D01*
D13*
%TO.C,J2*%
X34240000Y5610000D02*
X34240000Y4360000D01*
X34540000Y4000000D02*
X35150000Y4000000D01*
X34540000Y2700000D02*
X35150000Y2700000D01*
X35150000Y4700000D02*
X35150000Y1200000D01*
X35150000Y1200000D02*
X40050000Y1200000D01*
X35490000Y5610000D02*
X34240000Y5610000D01*
X36000000Y5510000D02*
X36000000Y5310000D01*
X36300000Y5510000D02*
X36000000Y5510000D01*
X36300000Y5410000D02*
X36000000Y5410000D01*
X36300000Y5310000D02*
X36300000Y5510000D01*
X37100000Y5310000D02*
X37100000Y4700000D01*
X37100000Y4700000D02*
X35150000Y4700000D01*
X37500000Y1700000D02*
X37700000Y1700000D01*
X37500000Y1200000D02*
X37500000Y1700000D01*
X37600000Y1200000D02*
X37600000Y1700000D01*
X37700000Y1700000D02*
X37700000Y1200000D01*
X38100000Y4700000D02*
X38100000Y5310000D01*
X40050000Y4700000D02*
X38100000Y4700000D01*
X40050000Y1200000D02*
X40050000Y4700000D01*
X40660000Y4000000D02*
X40050000Y4000000D01*
X40660000Y2700000D02*
X40050000Y2700000D01*
X34540000Y5310000D02*
X40660000Y5310000D01*
X40660000Y590000D01*
X34540000Y590000D01*
X34540000Y5310000D01*
%TO.C,R5*%
X11465000Y44160436D02*
X11465000Y44614564D01*
X12935000Y44160436D02*
X12935000Y44614564D01*
%TO.C,R3*%
X26477500Y40562258D02*
X26477500Y40087742D01*
X27522500Y40562258D02*
X27522500Y40087742D01*
%TO.C,U4*%
X5340000Y47000000D02*
X9460000Y47000000D01*
X5340000Y46905000D02*
X5340000Y47000000D01*
X5340000Y41880000D02*
X5340000Y41975000D01*
X9460000Y47000000D02*
X9460000Y46905000D01*
X9460000Y41975000D02*
X9460000Y41880000D01*
X9460000Y41880000D02*
X5340000Y41880000D01*
X4800000Y46910000D02*
X4560000Y47240000D01*
X5040000Y47240000D01*
X4800000Y46910000D01*
G36*
X4800000Y46910000D02*
G01*
X4560000Y47240000D01*
X5040000Y47240000D01*
X4800000Y46910000D01*
G37*
%TO.C,R7*%
X30420000Y6163641D02*
X30420000Y5856359D01*
X31180000Y6163641D02*
X31180000Y5856359D01*
%TO.C,C4*%
X53212164Y23060000D02*
X53427836Y23060000D01*
X53212164Y22340000D02*
X53427836Y22340000D01*
%TO.C,C7*%
X10588748Y29035000D02*
X11111252Y29035000D01*
X10588748Y27565000D02*
X11111252Y27565000D01*
D14*
%TO.C,CN1*%
X33590000Y40800000D02*
X33590000Y39731000D01*
X33590000Y40800000D02*
X35769000Y40800000D01*
X33590000Y35669000D02*
X33590000Y34600000D01*
X33590000Y34600000D02*
X35769000Y34600000D01*
X37850000Y35731000D02*
X37850000Y39669000D01*
D17*
X32930000Y35100000D02*
G75*
G02*
X32630000Y35100000I-150000J0D01*
G01*
X32630000Y35100000D02*
G75*
G02*
X32930000Y35100000I150000J0D01*
G01*
D13*
%TO.C,C2*%
X35484420Y7110000D02*
X35765580Y7110000D01*
X35484420Y6090000D02*
X35765580Y6090000D01*
%TO.C,C6*%
X11612164Y27060000D02*
X11827836Y27060000D01*
X11612164Y26340000D02*
X11827836Y26340000D01*
%TO.C,R2*%
X24277500Y37312258D02*
X24277500Y36837742D01*
X25322500Y37312258D02*
X25322500Y36837742D01*
%TO.C,C1*%
X35388748Y13435000D02*
X35911252Y13435000D01*
X35388748Y11965000D02*
X35911252Y11965000D01*
%TO.C,Q1*%
X31302500Y3460000D02*
X32822500Y3460000D01*
X31302500Y3410000D02*
X31302500Y3460000D01*
X31302500Y1510000D02*
X31302500Y2290000D01*
X31302500Y340000D02*
X31302500Y390000D01*
X32822500Y3460000D02*
X32822500Y2460000D01*
X32822500Y1340000D02*
X32822500Y340000D01*
X32822500Y340000D02*
X31302500Y340000D01*
X31002500Y1950000D02*
X30522500Y1950000D01*
X30762500Y2280000D01*
X31002500Y1950000D01*
G36*
X31002500Y1950000D02*
G01*
X30522500Y1950000D01*
X30762500Y2280000D01*
X31002500Y1950000D01*
G37*
%TO.C,R6*%
X31136359Y4680000D02*
X31443641Y4680000D01*
X31136359Y3920000D02*
X31443641Y3920000D01*
%TO.C,C3*%
X53884420Y24610000D02*
X54165580Y24610000D01*
X53884420Y23590000D02*
X54165580Y23590000D01*
%TO.C,R1*%
X24277500Y48762258D02*
X24277500Y48287742D01*
X25322500Y48762258D02*
X25322500Y48287742D01*
D14*
%TO.C,U1*%
X45522716Y20835000D02*
X45903716Y20835000D01*
X45522716Y4198000D02*
X45522716Y20835000D01*
X45776716Y4198000D02*
X45522716Y4198000D01*
X45903716Y20835000D02*
X45947216Y20878500D01*
X45946716Y4198000D02*
X45776716Y4198000D01*
X46538716Y18549000D02*
X61016716Y18549000D01*
X46538716Y6484000D02*
X46538716Y18549000D01*
X47608716Y20835000D02*
X47946716Y20835000D01*
X47946716Y4198000D02*
X47608716Y4198000D01*
X49608716Y20835000D02*
X49946716Y20835000D01*
X49946716Y4198000D02*
X49608716Y4198000D01*
X51608716Y20835000D02*
X51946716Y20835000D01*
X51946716Y4198000D02*
X51608716Y4198000D01*
X53608716Y20835000D02*
X53946716Y20835000D01*
X53946716Y4198000D02*
X53608716Y4198000D01*
X55608716Y20835000D02*
X55946716Y20835000D01*
X55946716Y4198000D02*
X55608716Y4198000D01*
X57608716Y20835000D02*
X57946716Y20835000D01*
X57946716Y4198000D02*
X57608716Y4198000D01*
X59608716Y20835000D02*
X59946716Y20835000D01*
X59946716Y4198000D02*
X59608716Y4198000D01*
X61016716Y18549000D02*
X61016716Y6484000D01*
X61016716Y6484000D02*
X46538716Y6484000D01*
X61608716Y20835000D02*
X62032716Y20835000D01*
X62032716Y20835000D02*
X62032716Y4198000D01*
X62032716Y4198000D02*
X61608716Y4198000D01*
%TO.C,USB1*%
X34343250Y42400000D02*
X32355250Y42400000D01*
X34346250Y51472000D02*
X32352250Y51472000D01*
X37775250Y51472000D02*
X36302250Y51472000D01*
X37924250Y51400000D02*
X37924250Y42400000D01*
X37924250Y42400000D02*
X36305250Y42400000D01*
%TD*%
M02*
