%TF.GenerationSoftware,KiCad,Pcbnew,9.0.7*%
%TF.CreationDate,2026-02-14T09:58:14-05:00*%
%TF.ProjectId,satellite-board,73617465-6c6c-4697-9465-2d626f617264,rev?*%
%TF.SameCoordinates,Original*%
%TF.FileFunction,Paste,Top*%
%TF.FilePolarity,Positive*%
%FSLAX46Y46*%
G04 Gerber Fmt 4.6, Leading zero omitted, Abs format (unit mm)*
G04 Created by KiCad (PCBNEW 9.0.7) date 2026-02-14 09:58:14*
%MOMM*%
%LPD*%
G01*
G04 APERTURE LIST*
G04 Aperture macros list*
%AMRoundRect*
0 Rectangle with rounded corners*
0 $1 Rounding radius*
0 $2 $3 $4 $5 $6 $7 $8 $9 X,Y pos of 4 corners*
0 Add a 4 corners polygon primitive as box body*
4,1,4,$2,$3,$4,$5,$6,$7,$8,$9,$2,$3,0*
0 Add four circle primitives for the rounded corners*
1,1,$1+$1,$2,$3*
1,1,$1+$1,$4,$5*
1,1,$1+$1,$6,$7*
1,1,$1+$1,$8,$9*
0 Add four rect primitives between the rounded corners*
20,1,$1+$1,$2,$3,$4,$5,0*
20,1,$1+$1,$4,$5,$6,$7,0*
20,1,$1+$1,$6,$7,$8,$9,0*
20,1,$1+$1,$8,$9,$2,$3,0*%
G04 Aperture macros list end*
%ADD10C,0.000000*%
%ADD11RoundRect,0.250000X-0.625000X0.312500X-0.625000X-0.312500X0.625000X-0.312500X0.625000X0.312500X0*%
%ADD12RoundRect,0.150000X0.150000X-0.512500X0.150000X0.512500X-0.150000X0.512500X-0.150000X-0.512500X0*%
%ADD13R,1.000000X1.500000*%
%ADD14R,2.250000X1.500000*%
%ADD15R,1.000000X1.000000*%
%ADD16RoundRect,0.140000X0.140000X0.170000X-0.140000X0.170000X-0.140000X-0.170000X0.140000X-0.170000X0*%
%ADD17RoundRect,0.140000X-0.140000X-0.170000X0.140000X-0.170000X0.140000X0.170000X-0.140000X0.170000X0*%
%ADD18RoundRect,0.250000X0.250000X0.475000X-0.250000X0.475000X-0.250000X-0.475000X0.250000X-0.475000X0*%
%ADD19RoundRect,0.250000X0.450000X-0.262500X0.450000X0.262500X-0.450000X0.262500X-0.450000X-0.262500X0*%
%ADD20RoundRect,0.200000X-0.275000X0.200000X-0.275000X-0.200000X0.275000X-0.200000X0.275000X0.200000X0*%
%ADD21RoundRect,0.150000X-0.825000X-0.150000X0.825000X-0.150000X0.825000X0.150000X-0.825000X0.150000X0*%
%ADD22RoundRect,0.135000X-0.185000X0.135000X-0.185000X-0.135000X0.185000X-0.135000X0.185000X0.135000X0*%
%ADD23RoundRect,0.250000X-0.250000X-0.475000X0.250000X-0.475000X0.250000X0.475000X-0.250000X0.475000X0*%
%ADD24R,1.600000X0.600000*%
%ADD25R,2.000000X1.200000*%
%ADD26RoundRect,0.225000X-0.225000X-0.250000X0.225000X-0.250000X0.225000X0.250000X-0.225000X0.250000X0*%
%ADD27RoundRect,0.150000X-0.587500X-0.150000X0.587500X-0.150000X0.587500X0.150000X-0.587500X0.150000X0*%
%ADD28RoundRect,0.135000X-0.135000X-0.185000X0.135000X-0.185000X0.135000X0.185000X-0.135000X0.185000X0*%
%ADD29R,1.200000X2.000000*%
%ADD30R,1.100000X0.550000*%
%ADD31R,1.100000X0.300000*%
G04 APERTURE END LIST*
D10*
%TO.C,USB1*%
G36*
X181124250Y-50500000D02*
G01*
X180024250Y-50500000D01*
X180024250Y-49900000D01*
X181124250Y-49900000D01*
X181124250Y-50500000D01*
G37*
G36*
X181124250Y-51000000D02*
G01*
X180024250Y-51000000D01*
X180024250Y-50700000D01*
X181124250Y-50700000D01*
X181124250Y-51000000D01*
G37*
G36*
X181124250Y-55300000D02*
G01*
X180024250Y-55300000D01*
X180024250Y-54700000D01*
X181124250Y-54700000D01*
X181124250Y-55300000D01*
G37*
G36*
X181124250Y-56100000D02*
G01*
X180024250Y-56100000D01*
X180024250Y-55500000D01*
X181124250Y-55500000D01*
X181124250Y-56100000D01*
G37*
G36*
X181124250Y-49700000D02*
G01*
X180024250Y-49700000D01*
X180024250Y-49100000D01*
X181124250Y-49100000D01*
X181124250Y-49700000D01*
G37*
G36*
X181124250Y-51500000D02*
G01*
X180024250Y-51500000D01*
X180024250Y-51200000D01*
X181124250Y-51200000D01*
X181124250Y-51500000D01*
G37*
G36*
X181124250Y-52000000D02*
G01*
X180024250Y-52000000D01*
X180024250Y-51700000D01*
X181124250Y-51700000D01*
X181124250Y-52000000D01*
G37*
G36*
X181124250Y-52500000D02*
G01*
X180024250Y-52500000D01*
X180024250Y-52200000D01*
X181124250Y-52200000D01*
X181124250Y-52500000D01*
G37*
G36*
X181124250Y-53000000D02*
G01*
X180024250Y-53000000D01*
X180024250Y-52700000D01*
X181124250Y-52700000D01*
X181124250Y-53000000D01*
G37*
G36*
X181124250Y-53500000D02*
G01*
X180024250Y-53500000D01*
X180024250Y-53200000D01*
X181124250Y-53200000D01*
X181124250Y-53500000D01*
G37*
G36*
X181124250Y-54000000D02*
G01*
X180024250Y-54000000D01*
X180024250Y-53700000D01*
X181124250Y-53700000D01*
X181124250Y-54000000D01*
G37*
G36*
X181124250Y-54500000D02*
G01*
X180024250Y-54500000D01*
X180024250Y-54200000D01*
X181124250Y-54200000D01*
X181124250Y-54500000D01*
G37*
G36*
X181554250Y-56325500D02*
G01*
X181583750Y-56328000D01*
X181613750Y-56331500D01*
X181643250Y-56337000D01*
X181672250Y-56343500D01*
X181700750Y-56351500D01*
X181729250Y-56361000D01*
X181757250Y-56372000D01*
X181784250Y-56384500D01*
X181811250Y-56398000D01*
X181836750Y-56413000D01*
X181862250Y-56429500D01*
X181886250Y-56446500D01*
X181909750Y-56465500D01*
X181932250Y-56485000D01*
X181953750Y-56506000D01*
X181973750Y-56528000D01*
X181993250Y-56551000D01*
X182011250Y-56574500D01*
X182028250Y-56599500D01*
X182043750Y-56625000D01*
X182058250Y-56651000D01*
X182071250Y-56678000D01*
X182082750Y-56706000D01*
X182092750Y-56734000D01*
X182101750Y-56762500D01*
X182109250Y-56791500D01*
X182115250Y-56821000D01*
X182119250Y-56850500D01*
X182122250Y-56880000D01*
X182123750Y-56910000D01*
X182123750Y-56940000D01*
X182122250Y-56970000D01*
X182119250Y-56999500D01*
X182115250Y-57029000D01*
X182109250Y-57058500D01*
X182101750Y-57087500D01*
X182092750Y-57116000D01*
X182082750Y-57144000D01*
X182071250Y-57171500D01*
X182058250Y-57198500D01*
X182043750Y-57225000D01*
X182028250Y-57250500D01*
X182011250Y-57275000D01*
X181993250Y-57299000D01*
X181973750Y-57322000D01*
X181953750Y-57344000D01*
X181932250Y-57365000D01*
X181909750Y-57384500D01*
X181886250Y-57403500D01*
X181862250Y-57420500D01*
X181836750Y-57437000D01*
X181811250Y-57452000D01*
X181784250Y-57465500D01*
X181757250Y-57478000D01*
X181729250Y-57489000D01*
X181700750Y-57498500D01*
X181672250Y-57506500D01*
X181643250Y-57513000D01*
X181613750Y-57518500D01*
X181583750Y-57522000D01*
X181554250Y-57524000D01*
X181524250Y-57525000D01*
X180724250Y-57525000D01*
X180694250Y-57524000D01*
X180664250Y-57522000D01*
X180634750Y-57518500D01*
X180605250Y-57513000D01*
X180576250Y-57506500D01*
X180547250Y-57498500D01*
X180518750Y-57489000D01*
X180491250Y-57478000D01*
X180463750Y-57465500D01*
X180437250Y-57452000D01*
X180411250Y-57437000D01*
X180386250Y-57420500D01*
X180361750Y-57403500D01*
X180338250Y-57384500D01*
X180316250Y-57365000D01*
X180294750Y-57344000D01*
X180274250Y-57322000D01*
X180255250Y-57299000D01*
X180236750Y-57275000D01*
X180220250Y-57250500D01*
X180204750Y-57225000D01*
X180190250Y-57198500D01*
X180177250Y-57171500D01*
X180165750Y-57144000D01*
X180155250Y-57116000D01*
X180146750Y-57087500D01*
X180139250Y-57058500D01*
X180133250Y-57029000D01*
X180128750Y-56999500D01*
X180125750Y-56970000D01*
X180124250Y-56940000D01*
X180124250Y-56910000D01*
X180125750Y-56880000D01*
X180128750Y-56850500D01*
X180133250Y-56821000D01*
X180139250Y-56791500D01*
X180146750Y-56762500D01*
X180155250Y-56734000D01*
X180165750Y-56706000D01*
X180177250Y-56678000D01*
X180190250Y-56651000D01*
X180204750Y-56625000D01*
X180220250Y-56599500D01*
X180236750Y-56574500D01*
X180255250Y-56551000D01*
X180274250Y-56528000D01*
X180294750Y-56506000D01*
X180316250Y-56485000D01*
X180338250Y-56465500D01*
X180361750Y-56446500D01*
X180386250Y-56429500D01*
X180411250Y-56413000D01*
X180437250Y-56398000D01*
X180463750Y-56384500D01*
X180491250Y-56372000D01*
X180518750Y-56361000D01*
X180547250Y-56351500D01*
X180576250Y-56343500D01*
X180605250Y-56337000D01*
X180634750Y-56331500D01*
X180664250Y-56328000D01*
X180694250Y-56325500D01*
X180724250Y-56325000D01*
X181524250Y-56325000D01*
X181554250Y-56325500D01*
G37*
G36*
X181554250Y-47676000D02*
G01*
X181583750Y-47678000D01*
X181613750Y-47681500D01*
X181643250Y-47687000D01*
X181672250Y-47693500D01*
X181700750Y-47701500D01*
X181729250Y-47711000D01*
X181757250Y-47722000D01*
X181784250Y-47734500D01*
X181811250Y-47748000D01*
X181836750Y-47763000D01*
X181862250Y-47779500D01*
X181886250Y-47796500D01*
X181909750Y-47815500D01*
X181932250Y-47835000D01*
X181953750Y-47856000D01*
X181973750Y-47878000D01*
X181993250Y-47901000D01*
X182011250Y-47925000D01*
X182028250Y-47949500D01*
X182043750Y-47975000D01*
X182058250Y-48001500D01*
X182071250Y-48028500D01*
X182082750Y-48056000D01*
X182092750Y-48084000D01*
X182101750Y-48112500D01*
X182109250Y-48141500D01*
X182115250Y-48171000D01*
X182119250Y-48200500D01*
X182122250Y-48230000D01*
X182123750Y-48260000D01*
X182123750Y-48290000D01*
X182122250Y-48320000D01*
X182119250Y-48349500D01*
X182115250Y-48379000D01*
X182109250Y-48408500D01*
X182101750Y-48437500D01*
X182092750Y-48466000D01*
X182082750Y-48494000D01*
X182071250Y-48522000D01*
X182058250Y-48549000D01*
X182043750Y-48575000D01*
X182028250Y-48600500D01*
X182011250Y-48625500D01*
X181993250Y-48649000D01*
X181973750Y-48672000D01*
X181953750Y-48694000D01*
X181932250Y-48715000D01*
X181909750Y-48734500D01*
X181886250Y-48753500D01*
X181862250Y-48770500D01*
X181836750Y-48787000D01*
X181811250Y-48802000D01*
X181784250Y-48815500D01*
X181757250Y-48828000D01*
X181729250Y-48839000D01*
X181700750Y-48848500D01*
X181672250Y-48856500D01*
X181643250Y-48863000D01*
X181613750Y-48868500D01*
X181583750Y-48872000D01*
X181554250Y-48874500D01*
X181524250Y-48875000D01*
X180724250Y-48875000D01*
X180694250Y-48874500D01*
X180664250Y-48872000D01*
X180634750Y-48868500D01*
X180605250Y-48863000D01*
X180576250Y-48856500D01*
X180547250Y-48848500D01*
X180518750Y-48839000D01*
X180491250Y-48828000D01*
X180463750Y-48815500D01*
X180437250Y-48802000D01*
X180411250Y-48787000D01*
X180386250Y-48770500D01*
X180361750Y-48753500D01*
X180338250Y-48734500D01*
X180316250Y-48715000D01*
X180294750Y-48694000D01*
X180274250Y-48672000D01*
X180255250Y-48649000D01*
X180236750Y-48625500D01*
X180220250Y-48600500D01*
X180204750Y-48575000D01*
X180190250Y-48549000D01*
X180177250Y-48522000D01*
X180165750Y-48494000D01*
X180155250Y-48466000D01*
X180146750Y-48437500D01*
X180139250Y-48408500D01*
X180133250Y-48379000D01*
X180128750Y-48349500D01*
X180125750Y-48320000D01*
X180124250Y-48290000D01*
X180124250Y-48260000D01*
X180125750Y-48230000D01*
X180128750Y-48200500D01*
X180133250Y-48171000D01*
X180139250Y-48141500D01*
X180146750Y-48112500D01*
X180155250Y-48084000D01*
X180165750Y-48056000D01*
X180177250Y-48028500D01*
X180190250Y-48001500D01*
X180204750Y-47975000D01*
X180220250Y-47949500D01*
X180236750Y-47925000D01*
X180255250Y-47901000D01*
X180274250Y-47878000D01*
X180294750Y-47856000D01*
X180316250Y-47835000D01*
X180338250Y-47815500D01*
X180361750Y-47796500D01*
X180386250Y-47779500D01*
X180411250Y-47763000D01*
X180437250Y-47748000D01*
X180463750Y-47734500D01*
X180491250Y-47722000D01*
X180518750Y-47711000D01*
X180547250Y-47701500D01*
X180576250Y-47693500D01*
X180605250Y-47687000D01*
X180634750Y-47681500D01*
X180664250Y-47678000D01*
X180694250Y-47676000D01*
X180724250Y-47675000D01*
X181524250Y-47675000D01*
X181554250Y-47676000D01*
G37*
G36*
X185504250Y-47676000D02*
G01*
X185534250Y-47678000D01*
X185563750Y-47681500D01*
X185593250Y-47687000D01*
X185622250Y-47693500D01*
X185651250Y-47701500D01*
X185679250Y-47711000D01*
X185707250Y-47722000D01*
X185734750Y-47734500D01*
X185761250Y-47748000D01*
X185787250Y-47763000D01*
X185812250Y-47779500D01*
X185836750Y-47796500D01*
X185859750Y-47815500D01*
X185882250Y-47835000D01*
X185903750Y-47856000D01*
X185924250Y-47878000D01*
X185943250Y-47901000D01*
X185961250Y-47925000D01*
X185978250Y-47949500D01*
X185993750Y-47975000D01*
X186008250Y-48001500D01*
X186021250Y-48028500D01*
X186032750Y-48056000D01*
X186043250Y-48084000D01*
X186051750Y-48112500D01*
X186059250Y-48141500D01*
X186065250Y-48171000D01*
X186069750Y-48200500D01*
X186072750Y-48230000D01*
X186074250Y-48260000D01*
X186074250Y-48290000D01*
X186072750Y-48320000D01*
X186069750Y-48349500D01*
X186065250Y-48379000D01*
X186059250Y-48408500D01*
X186051750Y-48437500D01*
X186043250Y-48466000D01*
X186032750Y-48494000D01*
X186021250Y-48522000D01*
X186008250Y-48549000D01*
X185993750Y-48575000D01*
X185978250Y-48600500D01*
X185961250Y-48625500D01*
X185943250Y-48649000D01*
X185924250Y-48672000D01*
X185903750Y-48694000D01*
X185882250Y-48715000D01*
X185859750Y-48734500D01*
X185836750Y-48753500D01*
X185812250Y-48770500D01*
X185787250Y-48787000D01*
X185761250Y-48802000D01*
X185734750Y-48815500D01*
X185707250Y-48828000D01*
X185679250Y-48839000D01*
X185651250Y-48848500D01*
X185622250Y-48856500D01*
X185593250Y-48863000D01*
X185563750Y-48868500D01*
X185534250Y-48872000D01*
X185504250Y-48874500D01*
X185474250Y-48875000D01*
X185174250Y-48875000D01*
X185144250Y-48874500D01*
X185114750Y-48872000D01*
X185084750Y-48868500D01*
X185055250Y-48863000D01*
X185026250Y-48856500D01*
X184997250Y-48848500D01*
X184969250Y-48839000D01*
X184941250Y-48828000D01*
X184913750Y-48815500D01*
X184887250Y-48802000D01*
X184861250Y-48787000D01*
X184836250Y-48770500D01*
X184812250Y-48753500D01*
X184788750Y-48734500D01*
X184766250Y-48715000D01*
X184744750Y-48694000D01*
X184724250Y-48672000D01*
X184705250Y-48649000D01*
X184687250Y-48625500D01*
X184670250Y-48600500D01*
X184654750Y-48575000D01*
X184640250Y-48549000D01*
X184627250Y-48522000D01*
X184615750Y-48494000D01*
X184605750Y-48466000D01*
X184596750Y-48437500D01*
X184589250Y-48408500D01*
X184583250Y-48379000D01*
X184578750Y-48349500D01*
X184575750Y-48320000D01*
X184574250Y-48290000D01*
X184574250Y-48260000D01*
X184575750Y-48230000D01*
X184578750Y-48200500D01*
X184583250Y-48171000D01*
X184589250Y-48141500D01*
X184596750Y-48112500D01*
X184605750Y-48084000D01*
X184615750Y-48056000D01*
X184627250Y-48028500D01*
X184640250Y-48001500D01*
X184654750Y-47975000D01*
X184670250Y-47949500D01*
X184687250Y-47925000D01*
X184705250Y-47901000D01*
X184724250Y-47878000D01*
X184744750Y-47856000D01*
X184766250Y-47835000D01*
X184788750Y-47815500D01*
X184812250Y-47796500D01*
X184836250Y-47779500D01*
X184861250Y-47763000D01*
X184887250Y-47748000D01*
X184913750Y-47734500D01*
X184941250Y-47722000D01*
X184969250Y-47711000D01*
X184997250Y-47701500D01*
X185026250Y-47693500D01*
X185055250Y-47687000D01*
X185084750Y-47681500D01*
X185114750Y-47678000D01*
X185144250Y-47676000D01*
X185174250Y-47675000D01*
X185474250Y-47675000D01*
X185504250Y-47676000D01*
G37*
G36*
X185504250Y-56325500D02*
G01*
X185534250Y-56328000D01*
X185563750Y-56331500D01*
X185593250Y-56337000D01*
X185622250Y-56343500D01*
X185651250Y-56351500D01*
X185679250Y-56361000D01*
X185707250Y-56372000D01*
X185734750Y-56384500D01*
X185761250Y-56398000D01*
X185787250Y-56413000D01*
X185812250Y-56429500D01*
X185836750Y-56446500D01*
X185859750Y-56465500D01*
X185882250Y-56485000D01*
X185903750Y-56506000D01*
X185924250Y-56528000D01*
X185943250Y-56551000D01*
X185961250Y-56574500D01*
X185978250Y-56599500D01*
X185993750Y-56625000D01*
X186008250Y-56651000D01*
X186021250Y-56678000D01*
X186032750Y-56706000D01*
X186043250Y-56734000D01*
X186051750Y-56762500D01*
X186059250Y-56791500D01*
X186065250Y-56821000D01*
X186069750Y-56850500D01*
X186072750Y-56880000D01*
X186074250Y-56910000D01*
X186074250Y-56940000D01*
X186072750Y-56970000D01*
X186069750Y-56999500D01*
X186065250Y-57029000D01*
X186059250Y-57058500D01*
X186051750Y-57087500D01*
X186043250Y-57116000D01*
X186032750Y-57144000D01*
X186021250Y-57171500D01*
X186008250Y-57198500D01*
X185993750Y-57225000D01*
X185978250Y-57250500D01*
X185961250Y-57275000D01*
X185943250Y-57299000D01*
X185924250Y-57322000D01*
X185903750Y-57344000D01*
X185882250Y-57365000D01*
X185859750Y-57384500D01*
X185836750Y-57403500D01*
X185812250Y-57420500D01*
X185787250Y-57437000D01*
X185761250Y-57452000D01*
X185734750Y-57465500D01*
X185707250Y-57478000D01*
X185679250Y-57489000D01*
X185651250Y-57498500D01*
X185622250Y-57506500D01*
X185593250Y-57513000D01*
X185563750Y-57518500D01*
X185534250Y-57522000D01*
X185504250Y-57524000D01*
X185474250Y-57525000D01*
X185174250Y-57525000D01*
X185144250Y-57524000D01*
X185114750Y-57522000D01*
X185084750Y-57518500D01*
X185055250Y-57513000D01*
X185026250Y-57506500D01*
X184997250Y-57498500D01*
X184969250Y-57489000D01*
X184941250Y-57478000D01*
X184913750Y-57465500D01*
X184887250Y-57452000D01*
X184861250Y-57437000D01*
X184836250Y-57420500D01*
X184812250Y-57403500D01*
X184788750Y-57384500D01*
X184766250Y-57365000D01*
X184744750Y-57344000D01*
X184724250Y-57322000D01*
X184705250Y-57299000D01*
X184687250Y-57275000D01*
X184670250Y-57250500D01*
X184654750Y-57225000D01*
X184640250Y-57198500D01*
X184627250Y-57171500D01*
X184615750Y-57144000D01*
X184605750Y-57116000D01*
X184596750Y-57087500D01*
X184589250Y-57058500D01*
X184583250Y-57029000D01*
X184578750Y-56999500D01*
X184575750Y-56970000D01*
X184574250Y-56940000D01*
X184574250Y-56910000D01*
X184575750Y-56880000D01*
X184578750Y-56850500D01*
X184583250Y-56821000D01*
X184589250Y-56791500D01*
X184596750Y-56762500D01*
X184605750Y-56734000D01*
X184615750Y-56706000D01*
X184627250Y-56678000D01*
X184640250Y-56651000D01*
X184654750Y-56625000D01*
X184670250Y-56599500D01*
X184687250Y-56574500D01*
X184705250Y-56551000D01*
X184724250Y-56528000D01*
X184744750Y-56506000D01*
X184766250Y-56485000D01*
X184788750Y-56465500D01*
X184812250Y-56446500D01*
X184836250Y-56429500D01*
X184861250Y-56413000D01*
X184887250Y-56398000D01*
X184913750Y-56384500D01*
X184941250Y-56372000D01*
X184969250Y-56361000D01*
X184997250Y-56351500D01*
X185026250Y-56343500D01*
X185055250Y-56337000D01*
X185084750Y-56331500D01*
X185114750Y-56328000D01*
X185144250Y-56325500D01*
X185174250Y-56325000D01*
X185474250Y-56325000D01*
X185504250Y-56325500D01*
G37*
%TD*%
D11*
%TO.C,R4*%
X177000000Y-61675000D03*
X177000000Y-64600000D03*
%TD*%
D12*
%TO.C,U2*%
X184700000Y-91137500D03*
X185650000Y-91137500D03*
X186600000Y-91137500D03*
X186600000Y-88862500D03*
X184700000Y-88862500D03*
%TD*%
D13*
%TO.C,U5*%
X171437500Y-76937500D03*
X168897500Y-76937500D03*
X166357500Y-76937500D03*
X163817500Y-76937500D03*
X161277500Y-76937500D03*
X158737500Y-76937500D03*
X158737500Y-91437500D03*
X161277500Y-91437500D03*
X163817500Y-91437500D03*
X166357500Y-91437500D03*
X168897500Y-91437500D03*
D14*
X172062500Y-91437500D03*
D15*
X171587500Y-88587500D03*
X171587500Y-86387500D03*
X171587500Y-84187500D03*
X171587500Y-81987500D03*
X171587500Y-79787500D03*
X169387500Y-79787500D03*
X167187500Y-79787500D03*
X164987500Y-79787500D03*
X162787500Y-79787500D03*
X160587500Y-79787500D03*
X160587500Y-81987500D03*
X160587500Y-84187500D03*
X160587500Y-86387500D03*
X160587500Y-88587500D03*
X162787500Y-88587500D03*
X164987500Y-88587500D03*
X167187500Y-88587500D03*
X169387500Y-88587500D03*
X169387500Y-86387500D03*
X169387500Y-84187500D03*
X169387500Y-81987500D03*
X162787500Y-81987500D03*
X162787500Y-84187500D03*
X162787500Y-86387500D03*
%TD*%
D16*
%TO.C,C8*%
X159200000Y-51625000D03*
X158240000Y-51625000D03*
%TD*%
D17*
%TO.C,C5*%
X161240000Y-74000000D03*
X162200000Y-74000000D03*
%TD*%
D18*
%TO.C,C9*%
X158800000Y-49825000D03*
X156900000Y-49825000D03*
%TD*%
D19*
%TO.C,R5*%
X162200000Y-56025000D03*
X162200000Y-54200000D03*
%TD*%
D20*
%TO.C,R3*%
X177000000Y-58350000D03*
X177000000Y-60000000D03*
%TD*%
D21*
%TO.C,U4*%
X154925000Y-53155000D03*
X154925000Y-54425000D03*
X154925000Y-55695000D03*
X154925000Y-56965000D03*
X159875000Y-56965000D03*
X159875000Y-55695000D03*
X159875000Y-54425000D03*
X159875000Y-53155000D03*
%TD*%
D22*
%TO.C,R7*%
X180800000Y-92980000D03*
X180800000Y-94000000D03*
%TD*%
D17*
%TO.C,C4*%
X202840000Y-76800000D03*
X203800000Y-76800000D03*
%TD*%
D23*
%TO.C,C7*%
X159900000Y-71200000D03*
X161800000Y-71200000D03*
%TD*%
D24*
%TO.C,CN1*%
X183000000Y-63300000D03*
X183000000Y-62300000D03*
X183000000Y-61300000D03*
X183000000Y-60300000D03*
D25*
X187000000Y-59000000D03*
X187000000Y-64600000D03*
%TD*%
D26*
%TO.C,C2*%
X184850000Y-92900000D03*
X186400000Y-92900000D03*
%TD*%
D17*
%TO.C,C6*%
X161240000Y-72800000D03*
X162200000Y-72800000D03*
%TD*%
D20*
%TO.C,R2*%
X174800000Y-61600000D03*
X174800000Y-63250000D03*
%TD*%
D23*
%TO.C,C1*%
X184700000Y-86800000D03*
X186600000Y-86800000D03*
%TD*%
D27*
%TO.C,Q1*%
X181125000Y-96650000D03*
X181125000Y-98550000D03*
X183000000Y-97600000D03*
%TD*%
D28*
%TO.C,R6*%
X180780000Y-95200000D03*
X181800000Y-95200000D03*
%TD*%
D26*
%TO.C,C3*%
X203250000Y-75400000D03*
X204800000Y-75400000D03*
%TD*%
D20*
%TO.C,R1*%
X174800000Y-50150000D03*
X174800000Y-51800000D03*
%TD*%
D29*
%TO.C,U1*%
X196777716Y-94920000D03*
X198777716Y-94920000D03*
X200777716Y-94920000D03*
X202777716Y-94920000D03*
X204777716Y-94920000D03*
X206777716Y-94920000D03*
X208777716Y-94920000D03*
X210777716Y-94920000D03*
X210777716Y-78920000D03*
X208777716Y-78920000D03*
X206777716Y-78920000D03*
X204777716Y-78920000D03*
X202777716Y-78920000D03*
X200777716Y-78920000D03*
X198777716Y-78920000D03*
X196777716Y-78920000D03*
%TD*%
D30*
%TO.C,USB1*%
X180574250Y-55800000D03*
X180574250Y-55000000D03*
D31*
X180574250Y-54350000D03*
X180574250Y-53850000D03*
X180574250Y-53350000D03*
X180574250Y-52850000D03*
X180574250Y-52350000D03*
X180574250Y-51850000D03*
X180574250Y-51350000D03*
X180574250Y-50850000D03*
D30*
X180574250Y-50200000D03*
X180574250Y-49400000D03*
%TD*%
M02*
