%TF.GenerationSoftware,KiCad,Pcbnew,9.0.7*%
%TF.CreationDate,2026-02-15T18:11:32-05:00*%
%TF.ProjectId,satellite-board,73617465-6c6c-4697-9465-2d626f617264,rev?*%
%TF.SameCoordinates,PX43ce660PY5296940*%
%TF.FileFunction,Paste,Top*%
%TF.FilePolarity,Positive*%
%FSLAX46Y46*%
G04 Gerber Fmt 4.6, Leading zero omitted, Abs format (unit mm)*
G04 Created by KiCad (PCBNEW 9.0.7) date 2026-02-15 18:11:32*
%MOMM*%
%LPD*%
G01*
G04 APERTURE LIST*
G04 Aperture macros list*
%AMRoundRect*
0 Rectangle with rounded corners*
0 $1 Rounding radius*
0 $2 $3 $4 $5 $6 $7 $8 $9 X,Y pos of 4 corners*
0 Add a 4 corners polygon primitive as box body*
4,1,4,$2,$3,$4,$5,$6,$7,$8,$9,$2,$3,0*
0 Add four circle primitives for the rounded corners*
1,1,$1+$1,$2,$3*
1,1,$1+$1,$4,$5*
1,1,$1+$1,$6,$7*
1,1,$1+$1,$8,$9*
0 Add four rect primitives between the rounded corners*
20,1,$1+$1,$2,$3,$4,$5,0*
20,1,$1+$1,$4,$5,$6,$7,0*
20,1,$1+$1,$6,$7,$8,$9,0*
20,1,$1+$1,$8,$9,$2,$3,0*%
G04 Aperture macros list end*
%ADD10C,0.000000*%
%ADD11RoundRect,0.250000X-0.625000X0.312500X-0.625000X-0.312500X0.625000X-0.312500X0.625000X0.312500X0*%
%ADD12RoundRect,0.150000X0.150000X-0.512500X0.150000X0.512500X-0.150000X0.512500X-0.150000X-0.512500X0*%
%ADD13R,1.000000X1.500000*%
%ADD14R,2.250000X1.500000*%
%ADD15R,1.000000X1.000000*%
%ADD16RoundRect,0.140000X0.140000X0.170000X-0.140000X0.170000X-0.140000X-0.170000X0.140000X-0.170000X0*%
%ADD17RoundRect,0.140000X-0.140000X-0.170000X0.140000X-0.170000X0.140000X0.170000X-0.140000X0.170000X0*%
%ADD18RoundRect,0.250000X0.250000X0.475000X-0.250000X0.475000X-0.250000X-0.475000X0.250000X-0.475000X0*%
%ADD19RoundRect,0.250000X0.450000X-0.262500X0.450000X0.262500X-0.450000X0.262500X-0.450000X-0.262500X0*%
%ADD20RoundRect,0.200000X-0.275000X0.200000X-0.275000X-0.200000X0.275000X-0.200000X0.275000X0.200000X0*%
%ADD21RoundRect,0.150000X-0.825000X-0.150000X0.825000X-0.150000X0.825000X0.150000X-0.825000X0.150000X0*%
%ADD22RoundRect,0.135000X-0.185000X0.135000X-0.185000X-0.135000X0.185000X-0.135000X0.185000X0.135000X0*%
%ADD23RoundRect,0.250000X-0.250000X-0.475000X0.250000X-0.475000X0.250000X0.475000X-0.250000X0.475000X0*%
%ADD24R,1.600000X0.600000*%
%ADD25R,2.000000X1.200000*%
%ADD26RoundRect,0.225000X-0.225000X-0.250000X0.225000X-0.250000X0.225000X0.250000X-0.225000X0.250000X0*%
%ADD27RoundRect,0.150000X-0.587500X-0.150000X0.587500X-0.150000X0.587500X0.150000X-0.587500X0.150000X0*%
%ADD28RoundRect,0.135000X-0.135000X-0.185000X0.135000X-0.185000X0.135000X0.185000X-0.135000X0.185000X0*%
%ADD29R,1.200000X2.000000*%
%ADD30R,1.100000X0.550000*%
%ADD31R,1.100000X0.300000*%
G04 APERTURE END LIST*
D10*
%TO.C,USB1*%
G36*
X31124250Y49000000D02*
G01*
X30024250Y49000000D01*
X30024250Y49600000D01*
X31124250Y49600000D01*
X31124250Y49000000D01*
G37*
G36*
X31124250Y48500000D02*
G01*
X30024250Y48500000D01*
X30024250Y48800000D01*
X31124250Y48800000D01*
X31124250Y48500000D01*
G37*
G36*
X31124250Y44200000D02*
G01*
X30024250Y44200000D01*
X30024250Y44800000D01*
X31124250Y44800000D01*
X31124250Y44200000D01*
G37*
G36*
X31124250Y43400000D02*
G01*
X30024250Y43400000D01*
X30024250Y44000000D01*
X31124250Y44000000D01*
X31124250Y43400000D01*
G37*
G36*
X31124250Y49800000D02*
G01*
X30024250Y49800000D01*
X30024250Y50400000D01*
X31124250Y50400000D01*
X31124250Y49800000D01*
G37*
G36*
X31124250Y48000000D02*
G01*
X30024250Y48000000D01*
X30024250Y48300000D01*
X31124250Y48300000D01*
X31124250Y48000000D01*
G37*
G36*
X31124250Y47500000D02*
G01*
X30024250Y47500000D01*
X30024250Y47800000D01*
X31124250Y47800000D01*
X31124250Y47500000D01*
G37*
G36*
X31124250Y47000000D02*
G01*
X30024250Y47000000D01*
X30024250Y47300000D01*
X31124250Y47300000D01*
X31124250Y47000000D01*
G37*
G36*
X31124250Y46500000D02*
G01*
X30024250Y46500000D01*
X30024250Y46800000D01*
X31124250Y46800000D01*
X31124250Y46500000D01*
G37*
G36*
X31124250Y46000000D02*
G01*
X30024250Y46000000D01*
X30024250Y46300000D01*
X31124250Y46300000D01*
X31124250Y46000000D01*
G37*
G36*
X31124250Y45500000D02*
G01*
X30024250Y45500000D01*
X30024250Y45800000D01*
X31124250Y45800000D01*
X31124250Y45500000D01*
G37*
G36*
X31124250Y45000000D02*
G01*
X30024250Y45000000D01*
X30024250Y45300000D01*
X31124250Y45300000D01*
X31124250Y45000000D01*
G37*
G36*
X31554250Y43174500D02*
G01*
X31583750Y43172000D01*
X31613750Y43168500D01*
X31643250Y43163000D01*
X31672250Y43156500D01*
X31700750Y43148500D01*
X31729250Y43139000D01*
X31757250Y43128000D01*
X31784250Y43115500D01*
X31811250Y43102000D01*
X31836750Y43087000D01*
X31862250Y43070500D01*
X31886250Y43053500D01*
X31909750Y43034500D01*
X31932250Y43015000D01*
X31953750Y42994000D01*
X31973750Y42972000D01*
X31993250Y42949000D01*
X32011250Y42925500D01*
X32028250Y42900500D01*
X32043750Y42875000D01*
X32058250Y42849000D01*
X32071250Y42822000D01*
X32082750Y42794000D01*
X32092750Y42766000D01*
X32101750Y42737500D01*
X32109250Y42708500D01*
X32115250Y42679000D01*
X32119250Y42649500D01*
X32122250Y42620000D01*
X32123750Y42590000D01*
X32123750Y42560000D01*
X32122250Y42530000D01*
X32119250Y42500500D01*
X32115250Y42471000D01*
X32109250Y42441500D01*
X32101750Y42412500D01*
X32092750Y42384000D01*
X32082750Y42356000D01*
X32071250Y42328500D01*
X32058250Y42301500D01*
X32043750Y42275000D01*
X32028250Y42249500D01*
X32011250Y42225000D01*
X31993250Y42201000D01*
X31973750Y42178000D01*
X31953750Y42156000D01*
X31932250Y42135000D01*
X31909750Y42115500D01*
X31886250Y42096500D01*
X31862250Y42079500D01*
X31836750Y42063000D01*
X31811250Y42048000D01*
X31784250Y42034500D01*
X31757250Y42022000D01*
X31729250Y42011000D01*
X31700750Y42001500D01*
X31672250Y41993500D01*
X31643250Y41987000D01*
X31613750Y41981500D01*
X31583750Y41978000D01*
X31554250Y41976000D01*
X31524250Y41975000D01*
X30724250Y41975000D01*
X30694250Y41976000D01*
X30664250Y41978000D01*
X30634750Y41981500D01*
X30605250Y41987000D01*
X30576250Y41993500D01*
X30547250Y42001500D01*
X30518750Y42011000D01*
X30491250Y42022000D01*
X30463750Y42034500D01*
X30437250Y42048000D01*
X30411250Y42063000D01*
X30386250Y42079500D01*
X30361750Y42096500D01*
X30338250Y42115500D01*
X30316250Y42135000D01*
X30294750Y42156000D01*
X30274250Y42178000D01*
X30255250Y42201000D01*
X30236750Y42225000D01*
X30220250Y42249500D01*
X30204750Y42275000D01*
X30190250Y42301500D01*
X30177250Y42328500D01*
X30165750Y42356000D01*
X30155250Y42384000D01*
X30146750Y42412500D01*
X30139250Y42441500D01*
X30133250Y42471000D01*
X30128750Y42500500D01*
X30125750Y42530000D01*
X30124250Y42560000D01*
X30124250Y42590000D01*
X30125750Y42620000D01*
X30128750Y42649500D01*
X30133250Y42679000D01*
X30139250Y42708500D01*
X30146750Y42737500D01*
X30155250Y42766000D01*
X30165750Y42794000D01*
X30177250Y42822000D01*
X30190250Y42849000D01*
X30204750Y42875000D01*
X30220250Y42900500D01*
X30236750Y42925500D01*
X30255250Y42949000D01*
X30274250Y42972000D01*
X30294750Y42994000D01*
X30316250Y43015000D01*
X30338250Y43034500D01*
X30361750Y43053500D01*
X30386250Y43070500D01*
X30411250Y43087000D01*
X30437250Y43102000D01*
X30463750Y43115500D01*
X30491250Y43128000D01*
X30518750Y43139000D01*
X30547250Y43148500D01*
X30576250Y43156500D01*
X30605250Y43163000D01*
X30634750Y43168500D01*
X30664250Y43172000D01*
X30694250Y43174500D01*
X30724250Y43175000D01*
X31524250Y43175000D01*
X31554250Y43174500D01*
G37*
G36*
X31554250Y51824000D02*
G01*
X31583750Y51822000D01*
X31613750Y51818500D01*
X31643250Y51813000D01*
X31672250Y51806500D01*
X31700750Y51798500D01*
X31729250Y51789000D01*
X31757250Y51778000D01*
X31784250Y51765500D01*
X31811250Y51752000D01*
X31836750Y51737000D01*
X31862250Y51720500D01*
X31886250Y51703500D01*
X31909750Y51684500D01*
X31932250Y51665000D01*
X31953750Y51644000D01*
X31973750Y51622000D01*
X31993250Y51599000D01*
X32011250Y51575000D01*
X32028250Y51550500D01*
X32043750Y51525000D01*
X32058250Y51498500D01*
X32071250Y51471500D01*
X32082750Y51444000D01*
X32092750Y51416000D01*
X32101750Y51387500D01*
X32109250Y51358500D01*
X32115250Y51329000D01*
X32119250Y51299500D01*
X32122250Y51270000D01*
X32123750Y51240000D01*
X32123750Y51210000D01*
X32122250Y51180000D01*
X32119250Y51150500D01*
X32115250Y51121000D01*
X32109250Y51091500D01*
X32101750Y51062500D01*
X32092750Y51034000D01*
X32082750Y51006000D01*
X32071250Y50978000D01*
X32058250Y50951000D01*
X32043750Y50925000D01*
X32028250Y50899500D01*
X32011250Y50874500D01*
X31993250Y50851000D01*
X31973750Y50828000D01*
X31953750Y50806000D01*
X31932250Y50785000D01*
X31909750Y50765500D01*
X31886250Y50746500D01*
X31862250Y50729500D01*
X31836750Y50713000D01*
X31811250Y50698000D01*
X31784250Y50684500D01*
X31757250Y50672000D01*
X31729250Y50661000D01*
X31700750Y50651500D01*
X31672250Y50643500D01*
X31643250Y50637000D01*
X31613750Y50631500D01*
X31583750Y50628000D01*
X31554250Y50625500D01*
X31524250Y50625000D01*
X30724250Y50625000D01*
X30694250Y50625500D01*
X30664250Y50628000D01*
X30634750Y50631500D01*
X30605250Y50637000D01*
X30576250Y50643500D01*
X30547250Y50651500D01*
X30518750Y50661000D01*
X30491250Y50672000D01*
X30463750Y50684500D01*
X30437250Y50698000D01*
X30411250Y50713000D01*
X30386250Y50729500D01*
X30361750Y50746500D01*
X30338250Y50765500D01*
X30316250Y50785000D01*
X30294750Y50806000D01*
X30274250Y50828000D01*
X30255250Y50851000D01*
X30236750Y50874500D01*
X30220250Y50899500D01*
X30204750Y50925000D01*
X30190250Y50951000D01*
X30177250Y50978000D01*
X30165750Y51006000D01*
X30155250Y51034000D01*
X30146750Y51062500D01*
X30139250Y51091500D01*
X30133250Y51121000D01*
X30128750Y51150500D01*
X30125750Y51180000D01*
X30124250Y51210000D01*
X30124250Y51240000D01*
X30125750Y51270000D01*
X30128750Y51299500D01*
X30133250Y51329000D01*
X30139250Y51358500D01*
X30146750Y51387500D01*
X30155250Y51416000D01*
X30165750Y51444000D01*
X30177250Y51471500D01*
X30190250Y51498500D01*
X30204750Y51525000D01*
X30220250Y51550500D01*
X30236750Y51575000D01*
X30255250Y51599000D01*
X30274250Y51622000D01*
X30294750Y51644000D01*
X30316250Y51665000D01*
X30338250Y51684500D01*
X30361750Y51703500D01*
X30386250Y51720500D01*
X30411250Y51737000D01*
X30437250Y51752000D01*
X30463750Y51765500D01*
X30491250Y51778000D01*
X30518750Y51789000D01*
X30547250Y51798500D01*
X30576250Y51806500D01*
X30605250Y51813000D01*
X30634750Y51818500D01*
X30664250Y51822000D01*
X30694250Y51824000D01*
X30724250Y51825000D01*
X31524250Y51825000D01*
X31554250Y51824000D01*
G37*
G36*
X35504250Y51824000D02*
G01*
X35534250Y51822000D01*
X35563750Y51818500D01*
X35593250Y51813000D01*
X35622250Y51806500D01*
X35651250Y51798500D01*
X35679250Y51789000D01*
X35707250Y51778000D01*
X35734750Y51765500D01*
X35761250Y51752000D01*
X35787250Y51737000D01*
X35812250Y51720500D01*
X35836750Y51703500D01*
X35859750Y51684500D01*
X35882250Y51665000D01*
X35903750Y51644000D01*
X35924250Y51622000D01*
X35943250Y51599000D01*
X35961250Y51575000D01*
X35978250Y51550500D01*
X35993750Y51525000D01*
X36008250Y51498500D01*
X36021250Y51471500D01*
X36032750Y51444000D01*
X36043250Y51416000D01*
X36051750Y51387500D01*
X36059250Y51358500D01*
X36065250Y51329000D01*
X36069750Y51299500D01*
X36072750Y51270000D01*
X36074250Y51240000D01*
X36074250Y51210000D01*
X36072750Y51180000D01*
X36069750Y51150500D01*
X36065250Y51121000D01*
X36059250Y51091500D01*
X36051750Y51062500D01*
X36043250Y51034000D01*
X36032750Y51006000D01*
X36021250Y50978000D01*
X36008250Y50951000D01*
X35993750Y50925000D01*
X35978250Y50899500D01*
X35961250Y50874500D01*
X35943250Y50851000D01*
X35924250Y50828000D01*
X35903750Y50806000D01*
X35882250Y50785000D01*
X35859750Y50765500D01*
X35836750Y50746500D01*
X35812250Y50729500D01*
X35787250Y50713000D01*
X35761250Y50698000D01*
X35734750Y50684500D01*
X35707250Y50672000D01*
X35679250Y50661000D01*
X35651250Y50651500D01*
X35622250Y50643500D01*
X35593250Y50637000D01*
X35563750Y50631500D01*
X35534250Y50628000D01*
X35504250Y50625500D01*
X35474250Y50625000D01*
X35174250Y50625000D01*
X35144250Y50625500D01*
X35114750Y50628000D01*
X35084750Y50631500D01*
X35055250Y50637000D01*
X35026250Y50643500D01*
X34997250Y50651500D01*
X34969250Y50661000D01*
X34941250Y50672000D01*
X34913750Y50684500D01*
X34887250Y50698000D01*
X34861250Y50713000D01*
X34836250Y50729500D01*
X34812250Y50746500D01*
X34788750Y50765500D01*
X34766250Y50785000D01*
X34744750Y50806000D01*
X34724250Y50828000D01*
X34705250Y50851000D01*
X34687250Y50874500D01*
X34670250Y50899500D01*
X34654750Y50925000D01*
X34640250Y50951000D01*
X34627250Y50978000D01*
X34615750Y51006000D01*
X34605750Y51034000D01*
X34596750Y51062500D01*
X34589250Y51091500D01*
X34583250Y51121000D01*
X34578750Y51150500D01*
X34575750Y51180000D01*
X34574250Y51210000D01*
X34574250Y51240000D01*
X34575750Y51270000D01*
X34578750Y51299500D01*
X34583250Y51329000D01*
X34589250Y51358500D01*
X34596750Y51387500D01*
X34605750Y51416000D01*
X34615750Y51444000D01*
X34627250Y51471500D01*
X34640250Y51498500D01*
X34654750Y51525000D01*
X34670250Y51550500D01*
X34687250Y51575000D01*
X34705250Y51599000D01*
X34724250Y51622000D01*
X34744750Y51644000D01*
X34766250Y51665000D01*
X34788750Y51684500D01*
X34812250Y51703500D01*
X34836250Y51720500D01*
X34861250Y51737000D01*
X34887250Y51752000D01*
X34913750Y51765500D01*
X34941250Y51778000D01*
X34969250Y51789000D01*
X34997250Y51798500D01*
X35026250Y51806500D01*
X35055250Y51813000D01*
X35084750Y51818500D01*
X35114750Y51822000D01*
X35144250Y51824000D01*
X35174250Y51825000D01*
X35474250Y51825000D01*
X35504250Y51824000D01*
G37*
G36*
X35504250Y43174500D02*
G01*
X35534250Y43172000D01*
X35563750Y43168500D01*
X35593250Y43163000D01*
X35622250Y43156500D01*
X35651250Y43148500D01*
X35679250Y43139000D01*
X35707250Y43128000D01*
X35734750Y43115500D01*
X35761250Y43102000D01*
X35787250Y43087000D01*
X35812250Y43070500D01*
X35836750Y43053500D01*
X35859750Y43034500D01*
X35882250Y43015000D01*
X35903750Y42994000D01*
X35924250Y42972000D01*
X35943250Y42949000D01*
X35961250Y42925500D01*
X35978250Y42900500D01*
X35993750Y42875000D01*
X36008250Y42849000D01*
X36021250Y42822000D01*
X36032750Y42794000D01*
X36043250Y42766000D01*
X36051750Y42737500D01*
X36059250Y42708500D01*
X36065250Y42679000D01*
X36069750Y42649500D01*
X36072750Y42620000D01*
X36074250Y42590000D01*
X36074250Y42560000D01*
X36072750Y42530000D01*
X36069750Y42500500D01*
X36065250Y42471000D01*
X36059250Y42441500D01*
X36051750Y42412500D01*
X36043250Y42384000D01*
X36032750Y42356000D01*
X36021250Y42328500D01*
X36008250Y42301500D01*
X35993750Y42275000D01*
X35978250Y42249500D01*
X35961250Y42225000D01*
X35943250Y42201000D01*
X35924250Y42178000D01*
X35903750Y42156000D01*
X35882250Y42135000D01*
X35859750Y42115500D01*
X35836750Y42096500D01*
X35812250Y42079500D01*
X35787250Y42063000D01*
X35761250Y42048000D01*
X35734750Y42034500D01*
X35707250Y42022000D01*
X35679250Y42011000D01*
X35651250Y42001500D01*
X35622250Y41993500D01*
X35593250Y41987000D01*
X35563750Y41981500D01*
X35534250Y41978000D01*
X35504250Y41976000D01*
X35474250Y41975000D01*
X35174250Y41975000D01*
X35144250Y41976000D01*
X35114750Y41978000D01*
X35084750Y41981500D01*
X35055250Y41987000D01*
X35026250Y41993500D01*
X34997250Y42001500D01*
X34969250Y42011000D01*
X34941250Y42022000D01*
X34913750Y42034500D01*
X34887250Y42048000D01*
X34861250Y42063000D01*
X34836250Y42079500D01*
X34812250Y42096500D01*
X34788750Y42115500D01*
X34766250Y42135000D01*
X34744750Y42156000D01*
X34724250Y42178000D01*
X34705250Y42201000D01*
X34687250Y42225000D01*
X34670250Y42249500D01*
X34654750Y42275000D01*
X34640250Y42301500D01*
X34627250Y42328500D01*
X34615750Y42356000D01*
X34605750Y42384000D01*
X34596750Y42412500D01*
X34589250Y42441500D01*
X34583250Y42471000D01*
X34578750Y42500500D01*
X34575750Y42530000D01*
X34574250Y42560000D01*
X34574250Y42590000D01*
X34575750Y42620000D01*
X34578750Y42649500D01*
X34583250Y42679000D01*
X34589250Y42708500D01*
X34596750Y42737500D01*
X34605750Y42766000D01*
X34615750Y42794000D01*
X34627250Y42822000D01*
X34640250Y42849000D01*
X34654750Y42875000D01*
X34670250Y42900500D01*
X34687250Y42925500D01*
X34705250Y42949000D01*
X34724250Y42972000D01*
X34744750Y42994000D01*
X34766250Y43015000D01*
X34788750Y43034500D01*
X34812250Y43053500D01*
X34836250Y43070500D01*
X34861250Y43087000D01*
X34887250Y43102000D01*
X34913750Y43115500D01*
X34941250Y43128000D01*
X34969250Y43139000D01*
X34997250Y43148500D01*
X35026250Y43156500D01*
X35055250Y43163000D01*
X35084750Y43168500D01*
X35114750Y43172000D01*
X35144250Y43174500D01*
X35174250Y43175000D01*
X35474250Y43175000D01*
X35504250Y43174500D01*
G37*
%TD*%
D11*
%TO.C,R4*%
X27000000Y37825000D03*
X27000000Y34900000D03*
%TD*%
D12*
%TO.C,U2*%
X34700000Y8362500D03*
X35650000Y8362500D03*
X36600000Y8362500D03*
X36600000Y10637500D03*
X34700000Y10637500D03*
%TD*%
D13*
%TO.C,U5*%
X21437500Y22562500D03*
X18897500Y22562500D03*
X16357500Y22562500D03*
X13817500Y22562500D03*
X11277500Y22562500D03*
X8737500Y22562500D03*
X8737500Y8062500D03*
X11277500Y8062500D03*
X13817500Y8062500D03*
X16357500Y8062500D03*
X18897500Y8062500D03*
D14*
X22062500Y8062500D03*
D15*
X21587500Y10912500D03*
X21587500Y13112500D03*
X21587500Y15312500D03*
X21587500Y17512500D03*
X21587500Y19712500D03*
X19387500Y19712500D03*
X17187500Y19712500D03*
X14987500Y19712500D03*
X12787500Y19712500D03*
X10587500Y19712500D03*
X10587500Y17512500D03*
X10587500Y15312500D03*
X10587500Y13112500D03*
X10587500Y10912500D03*
X12787500Y10912500D03*
X14987500Y10912500D03*
X17187500Y10912500D03*
X19387500Y10912500D03*
X19387500Y13112500D03*
X19387500Y15312500D03*
X19387500Y17512500D03*
X12787500Y17512500D03*
X12787500Y15312500D03*
X12787500Y13112500D03*
%TD*%
D16*
%TO.C,C8*%
X9200000Y47875000D03*
X8240000Y47875000D03*
%TD*%
D17*
%TO.C,C5*%
X11240000Y25500000D03*
X12200000Y25500000D03*
%TD*%
D18*
%TO.C,C9*%
X8800000Y49675000D03*
X6900000Y49675000D03*
%TD*%
D19*
%TO.C,R5*%
X12200000Y43475000D03*
X12200000Y45300000D03*
%TD*%
D20*
%TO.C,R3*%
X27000000Y41150000D03*
X27000000Y39500000D03*
%TD*%
D21*
%TO.C,U4*%
X4925000Y46345000D03*
X4925000Y45075000D03*
X4925000Y43805000D03*
X4925000Y42535000D03*
X9875000Y42535000D03*
X9875000Y43805000D03*
X9875000Y45075000D03*
X9875000Y46345000D03*
%TD*%
D22*
%TO.C,R7*%
X30800000Y6520000D03*
X30800000Y5500000D03*
%TD*%
D17*
%TO.C,C4*%
X52840000Y22700000D03*
X53800000Y22700000D03*
%TD*%
D23*
%TO.C,C7*%
X9900000Y28300000D03*
X11800000Y28300000D03*
%TD*%
D24*
%TO.C,CN1*%
X33000000Y36200000D03*
X33000000Y37200000D03*
X33000000Y38200000D03*
X33000000Y39200000D03*
D25*
X37000000Y40500000D03*
X37000000Y34900000D03*
%TD*%
D26*
%TO.C,C2*%
X34850000Y6600000D03*
X36400000Y6600000D03*
%TD*%
D17*
%TO.C,C6*%
X11240000Y26700000D03*
X12200000Y26700000D03*
%TD*%
D20*
%TO.C,R2*%
X24800000Y37900000D03*
X24800000Y36250000D03*
%TD*%
D23*
%TO.C,C1*%
X34700000Y12700000D03*
X36600000Y12700000D03*
%TD*%
D27*
%TO.C,Q1*%
X31125000Y2850000D03*
X31125000Y950000D03*
X33000000Y1900000D03*
%TD*%
D28*
%TO.C,R6*%
X30780000Y4300000D03*
X31800000Y4300000D03*
%TD*%
D26*
%TO.C,C3*%
X53250000Y24100000D03*
X54800000Y24100000D03*
%TD*%
D20*
%TO.C,R1*%
X24800000Y49350000D03*
X24800000Y47700000D03*
%TD*%
D29*
%TO.C,U1*%
X46777716Y4580000D03*
X48777716Y4580000D03*
X50777716Y4580000D03*
X52777716Y4580000D03*
X54777716Y4580000D03*
X56777716Y4580000D03*
X58777716Y4580000D03*
X60777716Y4580000D03*
X60777716Y20580000D03*
X58777716Y20580000D03*
X56777716Y20580000D03*
X54777716Y20580000D03*
X52777716Y20580000D03*
X50777716Y20580000D03*
X48777716Y20580000D03*
X46777716Y20580000D03*
%TD*%
D30*
%TO.C,USB1*%
X30574250Y43700000D03*
X30574250Y44500000D03*
D31*
X30574250Y45150000D03*
X30574250Y45650000D03*
X30574250Y46150000D03*
X30574250Y46650000D03*
X30574250Y47150000D03*
X30574250Y47650000D03*
X30574250Y48150000D03*
X30574250Y48650000D03*
D30*
X30574250Y49300000D03*
X30574250Y50100000D03*
%TD*%
M02*
