%TF.GenerationSoftware,KiCad,Pcbnew,9.0.7*%
%TF.CreationDate,2026-02-14T09:58:14-05:00*%
%TF.ProjectId,satellite-board,73617465-6c6c-4697-9465-2d626f617264,rev?*%
%TF.SameCoordinates,Original*%
%TF.FileFunction,Profile,NP*%
%FSLAX46Y46*%
G04 Gerber Fmt 4.6, Leading zero omitted, Abs format (unit mm)*
G04 Created by KiCad (PCBNEW 9.0.7) date 2026-02-14 09:58:14*
%MOMM*%
%LPD*%
G01*
G04 APERTURE LIST*
%TA.AperFunction,Profile*%
%ADD10C,0.050000*%
%TD*%
%TA.AperFunction,Profile*%
%ADD11C,0.000000*%
%TD*%
G04 APERTURE END LIST*
D10*
X150000000Y-43500000D02*
X150000000Y-99500000D01*
X215000000Y-43500000D02*
X150000000Y-43500000D01*
X150000000Y-99500000D02*
X215000000Y-99500000D01*
X215000000Y-99500000D02*
X215000000Y-43500000D01*
D11*
%TA.AperFunction,Profile*%
%TO.C,USB1*%
G36*
X181778189Y-49386642D02*
G01*
X181857317Y-49432326D01*
X181921924Y-49496933D01*
X181967608Y-49576061D01*
X181991256Y-49664316D01*
X181991256Y-49755684D01*
X181967608Y-49843939D01*
X181921924Y-49923067D01*
X181857317Y-49987674D01*
X181778189Y-50033358D01*
X181689934Y-50057006D01*
X181598566Y-50057006D01*
X181510311Y-50033358D01*
X181431183Y-49987674D01*
X181366576Y-49923067D01*
X181320892Y-49843939D01*
X181297244Y-49755684D01*
X181297244Y-49664316D01*
X181320892Y-49576061D01*
X181366576Y-49496933D01*
X181431183Y-49432326D01*
X181510311Y-49386642D01*
X181598566Y-49362994D01*
X181689934Y-49362994D01*
X181778189Y-49386642D01*
G37*
%TD.AperFunction*%
%TA.AperFunction,Profile*%
G36*
X181778189Y-55166642D02*
G01*
X181857317Y-55212326D01*
X181921924Y-55276933D01*
X181967608Y-55356061D01*
X181991256Y-55444316D01*
X181991256Y-55535684D01*
X181967608Y-55623939D01*
X181921924Y-55703067D01*
X181857317Y-55767674D01*
X181778189Y-55813358D01*
X181689934Y-55837006D01*
X181598566Y-55837006D01*
X181510311Y-55813358D01*
X181431183Y-55767674D01*
X181366576Y-55703067D01*
X181320892Y-55623939D01*
X181297244Y-55535684D01*
X181297244Y-55444316D01*
X181320892Y-55356061D01*
X181366576Y-55276933D01*
X181431183Y-55212326D01*
X181510311Y-55166642D01*
X181598566Y-55142994D01*
X181689934Y-55142994D01*
X181778189Y-55166642D01*
G37*
%TD.AperFunction*%
%TD*%
M02*
