M48
; DRILL file {KiCad 9.0.7} date 2026-02-15T18:11:39-0500
; FORMAT={-:-/ absolute / metric / decimal}
; #@! TF.CreationDate,2026-02-15T18:11:39-05:00
; #@! TF.GenerationSoftware,Kicad,Pcbnew,9.0.7
; #@! TF.FileFunction,Plated,1,2,PTH
FMAT,2
METRIC
; #@! TA.AperFunction,Plated,PTH,ViaDrill
T1C0.300
; #@! TA.AperFunction,Plated,PTH,ComponentDrill
T2C0.600
; #@! TA.AperFunction,Plated,PTH,ComponentDrill
T3C0.750
; #@! TA.AperFunction,Plated,PTH,ComponentDrill
T4C0.900
; #@! TA.AperFunction,Plated,PTH,ComponentDrill
T5C1.016
; #@! TA.AperFunction,Plated,PTH,ComponentDrill
T6C1.500
; #@! TA.AperFunction,Plated,PTH,ComponentDrill
T7C1.600
%
G90
G05
T1
X2.5Y55.0
X2.5Y50.0
X2.5Y32.5
X2.5Y27.5
X2.5Y22.5
X2.5Y17.5
X2.5Y12.5
X2.5Y7.5
X2.5Y2.5
X5.0Y52.5
X5.0Y37.5
X6.0Y24.5
X6.0Y22.5
X6.0Y20.5
X6.0Y18.5
X6.0Y16.5
X6.0Y14.5
X6.0Y12.5
X6.0Y10.5
X6.0Y8.5
X6.0Y6.5
X6.8Y45.1
X6.8Y43.5
X7.0Y23.5
X7.0Y21.5
X7.0Y19.5
X7.0Y17.5
X7.0Y15.5
X7.0Y13.5
X7.0Y11.5
X7.0Y9.5
X7.0Y7.5
X7.5Y40.0
X7.5Y2.5
X8.0Y24.5
X8.0Y20.5
X8.0Y18.5
X8.0Y16.5
X8.0Y14.5
X8.0Y12.5
X8.0Y10.5
X8.0Y6.5
X9.0Y19.5
X9.0Y17.5
X9.0Y15.5
X9.0Y13.5
X9.0Y11.5
X9.0Y9.5
X10.0Y37.5
X10.0Y24.5
X10.0Y6.5
X11.8Y20.7
X11.8Y18.5
X11.8Y16.5
X11.8Y14.3
X11.8Y12.1
X11.8Y10.1
X12.0Y6.5
X12.5Y40.0
X12.5Y2.5
X14.0Y24.5
X14.0Y20.7
X14.0Y18.5
X14.0Y16.5
X14.0Y14.3
X14.0Y12.1
X14.0Y10.1
X14.0Y6.5
X16.0Y24.5
X16.0Y6.5
X16.1Y18.5
X16.108Y27.008
X16.2Y20.7
X16.2Y12.1
X16.2Y10.1
X17.5Y2.5
X18.2Y20.7
X18.2Y18.5
X18.2Y16.5
X18.2Y14.3
X18.2Y12.1
X18.2Y10.1
X20.0Y50.0
X20.0Y47.5
X20.0Y37.5
X20.0Y6.5
X20.4Y20.7
X20.4Y18.5
X20.4Y16.5
X20.4Y14.3
X20.4Y12.1
X20.4Y10.1
X22.0Y24.5
X22.0Y6.5
X22.5Y27.5
X23.0Y23.5
X23.0Y21.5
X23.0Y19.5
X23.0Y17.5
X23.0Y15.5
X23.0Y13.5
X23.0Y11.5
X23.0Y9.5
X24.0Y24.5
X24.0Y22.5
X24.0Y20.5
X24.0Y18.5
X24.0Y16.5
X24.0Y14.5
X24.0Y12.5
X24.0Y10.5
X24.0Y8.5
X24.0Y6.5
X24.8Y42.1
X27.5Y27.5
X27.5Y22.5
X27.5Y17.5
X27.5Y12.5
X27.5Y7.5
X30.6Y7.5
X32.5Y22.5
X32.5Y17.5
X32.5Y12.5
X33.85Y28.75
X37.5Y20.0
X37.6Y8.1
X38.2Y52.9
X40.0Y45.0
X40.0Y40.0
X40.0Y35.0
X40.0Y15.0
X42.2Y16.8
X42.9Y17.4
X43.6Y18.0
X45.0Y50.0
X45.0Y40.0
X45.0Y35.0
X47.5Y17.0
X47.5Y14.5
X47.5Y12.0
X47.5Y9.5
X47.5Y7.0
X48.8Y42.3
X48.8Y22.5
X50.0Y55.0
X50.0Y50.0
X50.0Y45.0
X50.0Y40.0
X50.0Y35.0
X50.0Y17.0
X50.0Y14.5
X50.0Y12.0
X50.0Y9.5
X50.0Y7.0
X52.5Y17.0
X52.5Y14.5
X52.5Y12.0
X52.5Y9.5
X52.5Y7.0
X55.0Y55.0
X55.0Y50.0
X55.0Y45.0
X55.0Y40.0
X55.0Y35.0
X55.0Y17.0
X55.0Y14.5
X55.0Y12.0
X55.0Y9.5
X55.0Y7.0
X57.112Y25.996
X57.4Y26.9
X57.4Y25.1
X57.5Y17.0
X57.5Y14.5
X57.5Y12.0
X57.5Y9.5
X57.5Y7.0
X58.2Y25.9
X58.912Y26.796
X58.912Y25.196
X59.4Y18.9
X59.8Y29.5
X60.0Y55.0
X60.0Y50.0
X60.0Y45.0
X60.0Y40.0
X60.0Y35.0
X60.0Y27.9
X60.0Y17.0
X60.0Y14.5
X60.0Y12.0
X60.0Y9.5
X60.0Y7.0
X60.6Y18.9
X60.8Y29.7
X60.8Y28.7
X61.2Y18.1
X61.6Y27.9
X61.8Y29.5
X61.8Y18.9
X62.4Y21.7
X62.4Y20.1
X62.4Y18.1
X62.659Y26.827
X62.659Y25.227
X62.8Y20.9
X62.8Y19.3
X63.4Y26.027
X63.4Y21.7
X63.4Y20.1
X63.4Y18.5
X64.0Y20.9
X64.0Y19.3
X64.189Y26.956
X64.2Y25.027
X64.4Y21.7
X64.4Y20.1
T3
X36.6Y3.5
X38.6Y3.5
T4
X15.94Y46.67
X15.94Y44.63
X15.94Y42.59
X15.94Y40.55
X17.72Y45.65
X17.72Y43.61
X17.72Y41.57
X17.72Y39.53
X22.54Y49.96
X22.54Y47.67
X22.54Y38.53
X22.54Y36.24
T5
X8.475Y54.53
X8.475Y31.67
X11.015Y54.53
X11.015Y31.67
X13.555Y54.53
X13.555Y31.67
X16.095Y54.53
X16.095Y31.67
X18.635Y54.53
X18.635Y31.67
X21.175Y54.53
X21.175Y31.67
X23.715Y54.53
X23.715Y31.67
X26.255Y54.53
X26.255Y31.67
X28.795Y54.53
X28.795Y31.67
X31.335Y54.53
X31.335Y31.67
X33.875Y54.53
X33.875Y31.67
X36.415Y54.53
X36.415Y31.67
X38.955Y54.53
X38.955Y31.67
X41.495Y54.53
X41.495Y31.67
X44.035Y54.53
X44.035Y31.67
X46.575Y54.53
X46.575Y31.67
T6
X58.3Y28.5
X58.3Y23.5
X60.8Y26.0
X63.3Y28.5
X63.34Y23.46
T7
X16.83Y51.225
X16.83Y34.975
T2
G00X30.674Y51.225
M15
G01X31.574Y51.225
M16
G05
G00X30.674Y42.575
M15
G01X31.574Y42.575
M16
G05
G00X35.024Y51.225
M15
G01X35.624Y51.225
M16
G05
G00X35.024Y42.575
M15
G01X35.624Y42.575
M16
G05
M30
