%TF.GenerationSoftware,KiCad,Pcbnew,9.0.7*%
%TF.CreationDate,2026-02-15T18:11:32-05:00*%
%TF.ProjectId,satellite-board,73617465-6c6c-4697-9465-2d626f617264,rev?*%
%TF.SameCoordinates,PX43ce660PY5296940*%
%TF.FileFunction,Soldermask,Top*%
%TF.FilePolarity,Negative*%
%FSLAX46Y46*%
G04 Gerber Fmt 4.6, Leading zero omitted, Abs format (unit mm)*
G04 Created by KiCad (PCBNEW 9.0.7) date 2026-02-15 18:11:32*
%MOMM*%
%LPD*%
G01*
G04 APERTURE LIST*
G04 Aperture macros list*
%AMRoundRect*
0 Rectangle with rounded corners*
0 $1 Rounding radius*
0 $2 $3 $4 $5 $6 $7 $8 $9 X,Y pos of 4 corners*
0 Add a 4 corners polygon primitive as box body*
4,1,4,$2,$3,$4,$5,$6,$7,$8,$9,$2,$3,0*
0 Add four circle primitives for the rounded corners*
1,1,$1+$1,$2,$3*
1,1,$1+$1,$4,$5*
1,1,$1+$1,$6,$7*
1,1,$1+$1,$8,$9*
0 Add four rect primitives between the rounded corners*
20,1,$1+$1,$2,$3,$4,$5,0*
20,1,$1+$1,$4,$5,$6,$7,0*
20,1,$1+$1,$6,$7,$8,$9,0*
20,1,$1+$1,$8,$9,$2,$3,0*%
G04 Aperture macros list end*
%ADD10RoundRect,0.250000X-0.625000X0.312500X-0.625000X-0.312500X0.625000X-0.312500X0.625000X0.312500X0*%
%ADD11RoundRect,0.150000X0.150000X-0.512500X0.150000X0.512500X-0.150000X0.512500X-0.150000X-0.512500X0*%
%ADD12R,1.000000X1.500000*%
%ADD13R,2.250000X1.500000*%
%ADD14R,1.000000X1.000000*%
%ADD15RoundRect,0.140000X0.140000X0.170000X-0.140000X0.170000X-0.140000X-0.170000X0.140000X-0.170000X0*%
%ADD16RoundRect,0.102000X0.762000X-0.762000X0.762000X0.762000X-0.762000X0.762000X-0.762000X-0.762000X0*%
%ADD17C,1.728000*%
%ADD18RoundRect,0.140000X-0.140000X-0.170000X0.140000X-0.170000X0.140000X0.170000X-0.140000X0.170000X0*%
%ADD19RoundRect,0.250000X0.250000X0.475000X-0.250000X0.475000X-0.250000X-0.475000X0.250000X-0.475000X0*%
%ADD20C,2.500000*%
%ADD21RoundRect,0.250000X-0.350000X-0.625000X0.350000X-0.625000X0.350000X0.625000X-0.350000X0.625000X0*%
%ADD22O,1.200000X1.750000*%
%ADD23RoundRect,0.250000X0.450000X-0.262500X0.450000X0.262500X-0.450000X0.262500X-0.450000X-0.262500X0*%
%ADD24RoundRect,0.200000X-0.275000X0.200000X-0.275000X-0.200000X0.275000X-0.200000X0.275000X0.200000X0*%
%ADD25RoundRect,0.150000X-0.825000X-0.150000X0.825000X-0.150000X0.825000X0.150000X-0.825000X0.150000X0*%
%ADD26RoundRect,0.135000X-0.185000X0.135000X-0.185000X-0.135000X0.185000X-0.135000X0.185000X0.135000X0*%
%ADD27RoundRect,0.250000X-0.250000X-0.475000X0.250000X-0.475000X0.250000X0.475000X-0.250000X0.475000X0*%
%ADD28R,1.600000X0.600000*%
%ADD29R,2.000000X1.200000*%
%ADD30RoundRect,0.225000X-0.225000X-0.250000X0.225000X-0.250000X0.225000X0.250000X-0.225000X0.250000X0*%
%ADD31RoundRect,0.150000X-0.587500X-0.150000X0.587500X-0.150000X0.587500X0.150000X-0.587500X0.150000X0*%
%ADD32RoundRect,0.135000X-0.135000X-0.185000X0.135000X-0.185000X0.135000X0.185000X-0.135000X0.185000X0*%
%ADD33R,1.200000X2.000000*%
%ADD34R,1.100000X0.550000*%
%ADD35R,1.100000X0.300000*%
%ADD36O,2.000000X1.100000*%
%ADD37O,1.800000X1.200000*%
%ADD38C,3.200000*%
%ADD39RoundRect,0.102000X0.704000X-0.704000X0.704000X0.704000X-0.704000X0.704000X-0.704000X-0.704000X0*%
%ADD40C,1.612000*%
%ADD41C,2.604000*%
G04 APERTURE END LIST*
D10*
%TO.C,R4*%
X27000000Y37825000D03*
X27000000Y34900000D03*
%TD*%
D11*
%TO.C,U2*%
X34700000Y8362500D03*
X35650000Y8362500D03*
X36600000Y8362500D03*
X36600000Y10637500D03*
X34700000Y10637500D03*
%TD*%
D12*
%TO.C,U5*%
X21437500Y22562500D03*
X18897500Y22562500D03*
X16357500Y22562500D03*
X13817500Y22562500D03*
X11277500Y22562500D03*
X8737500Y22562500D03*
X8737500Y8062500D03*
X11277500Y8062500D03*
X13817500Y8062500D03*
X16357500Y8062500D03*
X18897500Y8062500D03*
D13*
X22062500Y8062500D03*
D14*
X21587500Y10912500D03*
X21587500Y13112500D03*
X21587500Y15312500D03*
X21587500Y17512500D03*
X21587500Y19712500D03*
X19387500Y19712500D03*
X17187500Y19712500D03*
X14987500Y19712500D03*
X12787500Y19712500D03*
X10587500Y19712500D03*
X10587500Y17512500D03*
X10587500Y15312500D03*
X10587500Y13112500D03*
X10587500Y10912500D03*
X12787500Y10912500D03*
X14987500Y10912500D03*
X17187500Y10912500D03*
X19387500Y10912500D03*
X19387500Y13112500D03*
X19387500Y15312500D03*
X19387500Y17512500D03*
X12787500Y17512500D03*
X12787500Y15312500D03*
X12787500Y13112500D03*
%TD*%
D15*
%TO.C,C8*%
X9200000Y47875000D03*
X8240000Y47875000D03*
%TD*%
D16*
%TO.C,U3*%
X8475000Y31670000D03*
D17*
X11015000Y31670000D03*
X13555000Y31670000D03*
X16095000Y31670000D03*
X18635000Y31670000D03*
X21175000Y31670000D03*
X23715000Y31670000D03*
X26255000Y31670000D03*
X28795000Y31670000D03*
X31335000Y31670000D03*
X33875000Y31670000D03*
X36415000Y31670000D03*
X38955000Y31670000D03*
X41495000Y31670000D03*
X44035000Y31670000D03*
X46575000Y31670000D03*
X8475000Y54530000D03*
X11015000Y54530000D03*
X13555000Y54530000D03*
X16095000Y54530000D03*
X18635000Y54530000D03*
X21175000Y54530000D03*
X23715000Y54530000D03*
X26255000Y54530000D03*
X28795000Y54530000D03*
X31335000Y54530000D03*
X33875000Y54530000D03*
X36415000Y54530000D03*
X38955000Y54530000D03*
X41495000Y54530000D03*
X44035000Y54530000D03*
X46575000Y54530000D03*
%TD*%
D18*
%TO.C,C5*%
X11240000Y25500000D03*
X12200000Y25500000D03*
%TD*%
D19*
%TO.C,C9*%
X8800000Y49675000D03*
X6900000Y49675000D03*
%TD*%
D20*
%TO.C,U6*%
X63300000Y28500000D03*
X63340000Y23460000D03*
X58300000Y23500000D03*
X58300000Y28500000D03*
X60800000Y26000000D03*
%TD*%
D21*
%TO.C,J2*%
X36600000Y3500000D03*
D22*
X38600000Y3500000D03*
%TD*%
D23*
%TO.C,R5*%
X12200000Y43475000D03*
X12200000Y45300000D03*
%TD*%
D24*
%TO.C,R3*%
X27000000Y41150000D03*
X27000000Y39500000D03*
%TD*%
D25*
%TO.C,U4*%
X4925000Y46345000D03*
X4925000Y45075000D03*
X4925000Y43805000D03*
X4925000Y42535000D03*
X9875000Y42535000D03*
X9875000Y43805000D03*
X9875000Y45075000D03*
X9875000Y46345000D03*
%TD*%
D26*
%TO.C,R7*%
X30800000Y6520000D03*
X30800000Y5500000D03*
%TD*%
D18*
%TO.C,C4*%
X52840000Y22700000D03*
X53800000Y22700000D03*
%TD*%
D27*
%TO.C,C7*%
X9900000Y28300000D03*
X11800000Y28300000D03*
%TD*%
D28*
%TO.C,CN1*%
X33000000Y36200000D03*
X33000000Y37200000D03*
X33000000Y38200000D03*
X33000000Y39200000D03*
D29*
X37000000Y40500000D03*
X37000000Y34900000D03*
%TD*%
D30*
%TO.C,C2*%
X34850000Y6600000D03*
X36400000Y6600000D03*
%TD*%
D18*
%TO.C,C6*%
X11240000Y26700000D03*
X12200000Y26700000D03*
%TD*%
D24*
%TO.C,R2*%
X24800000Y37900000D03*
X24800000Y36250000D03*
%TD*%
D27*
%TO.C,C1*%
X34700000Y12700000D03*
X36600000Y12700000D03*
%TD*%
D31*
%TO.C,Q1*%
X31125000Y2850000D03*
X31125000Y950000D03*
X33000000Y1900000D03*
%TD*%
D32*
%TO.C,R6*%
X30780000Y4300000D03*
X31800000Y4300000D03*
%TD*%
D30*
%TO.C,C3*%
X53250000Y24100000D03*
X54800000Y24100000D03*
%TD*%
D24*
%TO.C,R1*%
X24800000Y49350000D03*
X24800000Y47700000D03*
%TD*%
D33*
%TO.C,U1*%
X46777716Y4580000D03*
X48777716Y4580000D03*
X50777716Y4580000D03*
X52777716Y4580000D03*
X54777716Y4580000D03*
X56777716Y4580000D03*
X58777716Y4580000D03*
X60777716Y4580000D03*
X60777716Y20580000D03*
X58777716Y20580000D03*
X56777716Y20580000D03*
X54777716Y20580000D03*
X52777716Y20580000D03*
X50777716Y20580000D03*
X48777716Y20580000D03*
X46777716Y20580000D03*
%TD*%
D34*
%TO.C,USB1*%
X30574250Y43700000D03*
X30574250Y44500000D03*
D35*
X30574250Y45150000D03*
X30574250Y45650000D03*
X30574250Y46150000D03*
X30574250Y46650000D03*
X30574250Y47150000D03*
X30574250Y47650000D03*
X30574250Y48150000D03*
X30574250Y48650000D03*
D34*
X30574250Y49300000D03*
X30574250Y50100000D03*
D36*
X31124250Y42575000D03*
D37*
X35324250Y42575000D03*
D36*
X31124250Y51225000D03*
D37*
X35324250Y51225000D03*
%TD*%
D38*
%TO.C,J1*%
X13400000Y36750000D03*
X13400000Y49450000D03*
D39*
X15940000Y46670000D03*
D40*
X17720000Y45650000D03*
X15940000Y44630000D03*
X17720000Y43610000D03*
X15940000Y42590000D03*
X17720000Y41570000D03*
X15940000Y40550000D03*
X17720000Y39530000D03*
X22540000Y49960000D03*
X22540000Y47670000D03*
X22540000Y38530000D03*
X22540000Y36240000D03*
D41*
X16830000Y34975000D03*
X16830000Y51225000D03*
%TD*%
M02*
