M48
; DRILL file {KiCad 9.0.7} date 2026-02-14T09:58:15-0500
; FORMAT={-:-/ absolute / metric / decimal}
; #@! TF.CreationDate,2026-02-14T09:58:15-05:00
; #@! TF.GenerationSoftware,Kicad,Pcbnew,9.0.7
; #@! TF.FileFunction,Plated,1,2,PTH
FMAT,2
METRIC
; #@! TA.AperFunction,Plated,PTH,ViaDrill
T1C0.300
; #@! TA.AperFunction,Plated,PTH,ComponentDrill
T2C0.600
; #@! TA.AperFunction,Plated,PTH,ComponentDrill
T3C0.750
; #@! TA.AperFunction,Plated,PTH,ComponentDrill
T4C0.900
; #@! TA.AperFunction,Plated,PTH,ComponentDrill
T5C1.016
; #@! TA.AperFunction,Plated,PTH,ComponentDrill
T6C1.500
; #@! TA.AperFunction,Plated,PTH,ComponentDrill
T7C1.600
%
G90
G05
T1
X156.0Y-75.0
X156.0Y-77.0
X156.0Y-79.0
X156.0Y-81.0
X156.0Y-83.0
X156.0Y-85.0
X156.0Y-87.0
X156.0Y-89.0
X156.0Y-91.0
X156.0Y-93.0
X156.8Y-54.4
X156.8Y-56.0
X157.0Y-76.0
X157.0Y-78.0
X157.0Y-80.0
X157.0Y-82.0
X157.0Y-84.0
X157.0Y-86.0
X157.0Y-88.0
X157.0Y-90.0
X157.0Y-92.0
X158.0Y-75.0
X158.0Y-79.0
X158.0Y-81.0
X158.0Y-83.0
X158.0Y-85.0
X158.0Y-87.0
X158.0Y-89.0
X158.0Y-93.0
X159.0Y-80.0
X159.0Y-82.0
X159.0Y-84.0
X159.0Y-86.0
X159.0Y-88.0
X159.0Y-90.0
X160.0Y-75.0
X160.0Y-93.0
X161.8Y-78.8
X161.8Y-81.0
X161.8Y-83.0
X161.8Y-85.2
X161.8Y-87.4
X161.8Y-89.4
X162.0Y-93.0
X164.0Y-75.0
X164.0Y-78.8
X164.0Y-81.0
X164.0Y-83.0
X164.0Y-85.2
X164.0Y-87.4
X164.0Y-89.4
X164.0Y-93.0
X166.0Y-75.0
X166.0Y-93.0
X166.1Y-81.0
X166.108Y-72.492
X166.2Y-78.8
X166.2Y-87.4
X166.2Y-89.4
X168.2Y-78.8
X168.2Y-81.0
X168.2Y-83.0
X168.2Y-85.2
X168.2Y-87.4
X168.2Y-89.4
X170.0Y-93.0
X170.4Y-78.8
X170.4Y-81.0
X170.4Y-83.0
X170.4Y-85.2
X170.4Y-87.4
X170.4Y-89.4
X172.0Y-75.0
X172.0Y-93.0
X173.0Y-76.0
X173.0Y-78.0
X173.0Y-80.0
X173.0Y-82.0
X173.0Y-84.0
X173.0Y-86.0
X173.0Y-88.0
X173.0Y-90.0
X174.0Y-75.0
X174.0Y-77.0
X174.0Y-79.0
X174.0Y-81.0
X174.0Y-83.0
X174.0Y-85.0
X174.0Y-87.0
X174.0Y-89.0
X174.0Y-91.0
X174.0Y-93.0
X174.8Y-57.4
X180.6Y-92.0
X183.85Y-70.75
X187.6Y-91.4
X188.2Y-46.6
X192.2Y-82.7
X192.9Y-82.1
X193.6Y-81.5
X197.5Y-82.5
X197.5Y-85.0
X197.5Y-87.5
X197.5Y-90.0
X197.5Y-92.5
X198.8Y-57.2
X198.8Y-77.0
X200.0Y-82.5
X200.0Y-85.0
X200.0Y-87.5
X200.0Y-90.0
X200.0Y-92.5
X202.5Y-82.5
X202.5Y-85.0
X202.5Y-87.5
X202.5Y-90.0
X202.5Y-92.5
X205.0Y-82.5
X205.0Y-85.0
X205.0Y-87.5
X205.0Y-90.0
X205.0Y-92.5
X207.112Y-73.504
X207.4Y-72.6
X207.4Y-74.4
X207.5Y-82.5
X207.5Y-85.0
X207.5Y-87.5
X207.5Y-90.0
X207.5Y-92.5
X208.2Y-73.6
X208.912Y-72.704
X208.912Y-74.304
X209.4Y-80.6
X209.8Y-70.0
X210.0Y-71.6
X210.0Y-82.5
X210.0Y-85.0
X210.0Y-87.5
X210.0Y-90.0
X210.0Y-92.5
X210.6Y-80.6
X210.8Y-69.8
X210.8Y-70.8
X211.2Y-81.4
X211.6Y-71.6
X211.8Y-70.0
X211.8Y-80.6
X212.4Y-77.8
X212.4Y-79.4
X212.4Y-81.4
X212.659Y-72.673
X212.659Y-74.273
X212.8Y-78.6
X212.8Y-80.2
X213.4Y-73.473
X213.4Y-77.8
X213.4Y-79.4
X213.4Y-81.0
X214.0Y-78.6
X214.0Y-80.2
X214.189Y-72.544
X214.2Y-74.473
X214.4Y-77.8
X214.4Y-79.4
T3
X186.6Y-96.0
X188.6Y-96.0
T4
X165.94Y-52.83
X165.94Y-54.87
X165.94Y-56.91
X165.94Y-58.95
X167.72Y-53.85
X167.72Y-55.89
X167.72Y-57.93
X167.72Y-59.97
X172.54Y-49.54
X172.54Y-51.83
X172.54Y-60.97
X172.54Y-63.26
T5
X158.475Y-44.97
X158.475Y-67.83
X161.015Y-44.97
X161.015Y-67.83
X163.555Y-44.97
X163.555Y-67.83
X166.095Y-44.97
X166.095Y-67.83
X168.635Y-44.97
X168.635Y-67.83
X171.175Y-44.97
X171.175Y-67.83
X173.715Y-44.97
X173.715Y-67.83
X176.255Y-44.97
X176.255Y-67.83
X178.795Y-44.97
X178.795Y-67.83
X181.335Y-44.97
X181.335Y-67.83
X183.875Y-44.97
X183.875Y-67.83
X186.415Y-44.97
X186.415Y-67.83
X188.955Y-44.97
X188.955Y-67.83
X191.495Y-44.97
X191.495Y-67.83
X194.035Y-44.97
X194.035Y-67.83
X196.575Y-44.97
X196.575Y-67.83
T6
X208.3Y-71.0
X208.3Y-76.0
X210.8Y-73.5
X213.3Y-71.0
X213.34Y-76.04
T7
X166.83Y-48.275
X166.83Y-64.525
T2
G00X180.674Y-48.275
M15
G01X181.574Y-48.275
M16
G05
G00X180.674Y-56.925
M15
G01X181.574Y-56.925
M16
G05
G00X185.024Y-48.275
M15
G01X185.624Y-48.275
M16
G05
G00X185.024Y-56.925
M15
G01X185.624Y-56.925
M16
G05
M30
