%TF.GenerationSoftware,KiCad,Pcbnew,9.0.7*%
%TF.CreationDate,2026-02-15T18:11:32-05:00*%
%TF.ProjectId,satellite-board,73617465-6c6c-4697-9465-2d626f617264,rev?*%
%TF.SameCoordinates,PX43ce660PY5296940*%
%TF.FileFunction,Copper,L2,Bot*%
%TF.FilePolarity,Positive*%
%FSLAX46Y46*%
G04 Gerber Fmt 4.6, Leading zero omitted, Abs format (unit mm)*
G04 Created by KiCad (PCBNEW 9.0.7) date 2026-02-15 18:11:32*
%MOMM*%
%LPD*%
G01*
G04 APERTURE LIST*
G04 Aperture macros list*
%AMRoundRect*
0 Rectangle with rounded corners*
0 $1 Rounding radius*
0 $2 $3 $4 $5 $6 $7 $8 $9 X,Y pos of 4 corners*
0 Add a 4 corners polygon primitive as box body*
4,1,4,$2,$3,$4,$5,$6,$7,$8,$9,$2,$3,0*
0 Add four circle primitives for the rounded corners*
1,1,$1+$1,$2,$3*
1,1,$1+$1,$4,$5*
1,1,$1+$1,$6,$7*
1,1,$1+$1,$8,$9*
0 Add four rect primitives between the rounded corners*
20,1,$1+$1,$2,$3,$4,$5,0*
20,1,$1+$1,$4,$5,$6,$7,0*
20,1,$1+$1,$6,$7,$8,$9,0*
20,1,$1+$1,$8,$9,$2,$3,0*%
G04 Aperture macros list end*
%TA.AperFunction,ComponentPad*%
%ADD10R,1.524000X1.524000*%
%TD*%
%TA.AperFunction,ComponentPad*%
%ADD11C,1.524000*%
%TD*%
%TA.AperFunction,ComponentPad*%
%ADD12C,2.500000*%
%TD*%
%TA.AperFunction,ComponentPad*%
%ADD13RoundRect,0.250000X-0.350000X-0.625000X0.350000X-0.625000X0.350000X0.625000X-0.350000X0.625000X0*%
%TD*%
%TA.AperFunction,ComponentPad*%
%ADD14O,1.200000X1.750000*%
%TD*%
%TA.AperFunction,ComponentPad*%
%ADD15O,2.000000X1.100000*%
%TD*%
%TA.AperFunction,ComponentPad*%
%ADD16O,1.800000X1.200000*%
%TD*%
%TA.AperFunction,ComponentPad*%
%ADD17R,1.408000X1.408000*%
%TD*%
%TA.AperFunction,ComponentPad*%
%ADD18C,1.408000*%
%TD*%
%TA.AperFunction,ComponentPad*%
%ADD19C,2.400000*%
%TD*%
%TA.AperFunction,ViaPad*%
%ADD20C,0.600000*%
%TD*%
%TA.AperFunction,Conductor*%
%ADD21C,0.350000*%
%TD*%
%TA.AperFunction,Conductor*%
%ADD22C,0.250000*%
%TD*%
G04 APERTURE END LIST*
D10*
%TO.P,U3,J1_1,ESP_3V3*%
%TO.N,+3V3*%
X8475000Y31670000D03*
D11*
%TO.P,U3,J1_2,CHIP_PU*%
%TO.N,unconnected-(U3-CHIP_PU-PadJ1_2)*%
X11015000Y31670000D03*
%TO.P,U3,J1_3,GPIO4*%
%TO.N,GPS_RX*%
X13555000Y31670000D03*
%TO.P,U3,J1_4,GPIO5*%
%TO.N,GPS_TX*%
X16095000Y31670000D03*
%TO.P,U3,J1_5,GPIO6*%
%TO.N,SCK*%
X18635000Y31670000D03*
%TO.P,U3,J1_6,GPIO7*%
%TO.N,MOSI*%
X21175000Y31670000D03*
%TO.P,U3,J1_7,GPIO0*%
%TO.N,NRESET*%
X23715000Y31670000D03*
%TO.P,U3,J1_8,GPIO1*%
%TO.N,GPS_RESET*%
X26255000Y31670000D03*
%TO.P,U3,J1_9,GPIO8*%
%TO.N,unconnected-(U3-GPIO8-PadJ1_9)*%
X28795000Y31670000D03*
%TO.P,U3,J1_10,GPIO10*%
%TO.N,RJ45_SNS*%
X31335000Y31670000D03*
%TO.P,U3,J1_11,GPIO11*%
%TO.N,CS_1*%
X33875000Y31670000D03*
%TO.P,U3,J1_12,GPIO2*%
%TO.N,MISO*%
X36415000Y31670000D03*
%TO.P,U3,J1_13,GPIO3*%
%TO.N,BUSY*%
X38955000Y31670000D03*
%TO.P,U3,J1_14,VCC_5V*%
%TO.N,unconnected-(U3-VCC_5V-PadJ1_14)*%
X41495000Y31670000D03*
%TO.P,U3,J1_15,GND_J1_15*%
%TO.N,GND*%
X44035000Y31670000D03*
%TO.P,U3,J1_16,NC_J1_16*%
%TO.N,unconnected-(U3-NC_J1_16-PadJ1_16)*%
X46575000Y31670000D03*
%TO.P,U3,J3_1,GND_J3_1*%
%TO.N,GND*%
X8475000Y54530000D03*
%TO.P,U3,J3_2,UART_TXD*%
%TO.N,RS_TX*%
X11015000Y54530000D03*
%TO.P,U3,J3_3,UART_RXD*%
%TO.N,unconnected-(U3-UART_RXD-PadJ3_3)*%
X13555000Y54530000D03*
%TO.P,U3,J3_4,GPIO15*%
%TO.N,unconnected-(U3-GPIO15-PadJ3_4)*%
X16095000Y54530000D03*
%TO.P,U3,J3_5,GPIO23*%
%TO.N,RS_EN*%
X18635000Y54530000D03*
%TO.P,U3,J3_6,GPIO22*%
%TO.N,LED_YLW*%
X21175000Y54530000D03*
%TO.P,U3,J3_7,GPIO21*%
%TO.N,LED_GRN*%
X23715000Y54530000D03*
%TO.P,U3,J3_8,GPIO20*%
%TO.N,DIO1*%
X26255000Y54530000D03*
%TO.P,U3,J3_9,GPIO19*%
%TO.N,SCL*%
X28795000Y54530000D03*
%TO.P,U3,J3_10,GPIO18*%
%TO.N,SDA*%
X31335000Y54530000D03*
%TO.P,U3,J3_11,GPIO9*%
%TO.N,unconnected-(U3-GPIO9-PadJ3_11)*%
X33875000Y54530000D03*
%TO.P,U3,J3_12,GND_J3_12*%
%TO.N,GND*%
X36415000Y54530000D03*
%TO.P,U3,J3_13,GPIO13*%
%TO.N,unconnected-(U3-GPIO13-PadJ3_13)*%
X38955000Y54530000D03*
%TO.P,U3,J3_14,GPIO12*%
%TO.N,unconnected-(U3-GPIO12-PadJ3_14)*%
X41495000Y54530000D03*
%TO.P,U3,J3_15,GND_J3_15*%
%TO.N,GND*%
X44035000Y54530000D03*
%TO.P,U3,J3_16,NC_J3_16*%
%TO.N,unconnected-(U3-NC_J3_16-PadJ3_16)*%
X46575000Y54530000D03*
%TD*%
D12*
%TO.P,U6,1,1*%
%TO.N,GND*%
X63300000Y28500000D03*
%TO.P,U6,2,2*%
X63340000Y23460000D03*
%TO.P,U6,3,3*%
X58300000Y23500000D03*
%TO.P,U6,4,4*%
X58300000Y28500000D03*
%TO.P,U6,5,5*%
%TO.N,Net-(U1-ANT)*%
X60800000Y26000000D03*
%TD*%
D13*
%TO.P,J2,1,1*%
%TO.N,+BATT*%
X36600000Y3500000D03*
D14*
%TO.P,J2,2,2*%
%TO.N,GND*%
X38600000Y3500000D03*
%TD*%
D15*
%TO.P,USB1,13,SHELL*%
%TO.N,GND*%
X31124250Y42575000D03*
D16*
X35324250Y42575000D03*
D15*
%TO.P,USB1,14,SHELL*%
X31124250Y51225000D03*
D16*
X35324250Y51225000D03*
%TD*%
D17*
%TO.P,J1,1,1*%
%TO.N,RS_A*%
X15940000Y46670000D03*
D18*
%TO.P,J1,2,2*%
%TO.N,RS_B*%
X17720000Y45650000D03*
%TO.P,J1,3,3*%
%TO.N,Net-(J1-Pad3)*%
X15940000Y44630000D03*
%TO.P,J1,4,4*%
%TO.N,VBUS*%
X17720000Y43610000D03*
%TO.P,J1,5,5*%
X15940000Y42590000D03*
%TO.P,J1,6,6*%
%TO.N,Net-(J1-Pad3)*%
X17720000Y41570000D03*
%TO.P,J1,7,7*%
%TO.N,GND*%
X15940000Y40550000D03*
%TO.P,J1,8,8*%
X17720000Y39530000D03*
%TO.P,J1,9*%
X22540000Y49960000D03*
%TO.P,J1,10*%
%TO.N,Net-(J1-Pad10)*%
X22540000Y47670000D03*
%TO.P,J1,11*%
%TO.N,GND*%
X22540000Y38530000D03*
%TO.P,J1,12*%
%TO.N,Net-(J1-Pad12)*%
X22540000Y36240000D03*
D19*
%TO.P,J1,SH1,SHIELD*%
%TO.N,GND*%
X16830000Y34975000D03*
%TO.P,J1,SH2,SHIELD__1*%
X16830000Y51225000D03*
%TD*%
D20*
%TO.N,GND*%
X16000000Y6500000D03*
X60000000Y12000000D03*
X50000000Y9500000D03*
X60000000Y50000000D03*
X55000000Y17000000D03*
X58200000Y25900000D03*
X60000000Y55000000D03*
X60800000Y29700000D03*
X9000000Y9500000D03*
X12000000Y6500000D03*
X7500000Y2500000D03*
X32500000Y12500000D03*
X7000000Y7500000D03*
X7000000Y9500000D03*
X58912076Y25195691D03*
X7000000Y15500000D03*
X23000000Y21500000D03*
X14000000Y14300000D03*
X14000000Y12100000D03*
X40000000Y35000000D03*
X10000000Y6500000D03*
X45000000Y50000000D03*
X55000000Y12000000D03*
X50000000Y12000000D03*
X2500000Y2500000D03*
X2500000Y55000000D03*
X8000000Y10500000D03*
X18200000Y16500000D03*
X2500000Y7500000D03*
X16200000Y10100000D03*
X27500000Y22500000D03*
X16200000Y20700000D03*
X55000000Y55000000D03*
X60000000Y35000000D03*
X14000000Y10100000D03*
X64400000Y21700000D03*
X23000000Y11500000D03*
X16200000Y12100000D03*
X20000000Y37500000D03*
X9000000Y17500000D03*
X18200000Y18500000D03*
X5000000Y52500000D03*
X6000000Y22500000D03*
X12500000Y40000000D03*
X23000000Y17500000D03*
X60800000Y28700000D03*
X6000000Y20500000D03*
X24000000Y6500000D03*
X20400000Y14300000D03*
X47500000Y12000000D03*
X50000000Y55000000D03*
X5000000Y37500000D03*
X60600000Y18900000D03*
X24000000Y12500000D03*
X9000000Y11500000D03*
X9000000Y19500000D03*
X18200000Y14300000D03*
X10000000Y24500000D03*
X52500000Y9500000D03*
X62400000Y18100000D03*
X50000000Y17000000D03*
X20000000Y6500000D03*
X8000000Y12500000D03*
X32500000Y22500000D03*
X52500000Y17000000D03*
X27500000Y27500000D03*
X6000000Y6500000D03*
X50000000Y40000000D03*
X14000000Y16500000D03*
X6000000Y8500000D03*
X18200000Y12100000D03*
X50000000Y50000000D03*
X37500000Y20000000D03*
X55000000Y9500000D03*
X62659482Y26826725D03*
X60000000Y7000000D03*
X11800000Y18500000D03*
X47500000Y9500000D03*
X23000000Y19500000D03*
X7000000Y21500000D03*
X11800000Y12100000D03*
X2500000Y27500000D03*
X24000000Y14500000D03*
X6000000Y18500000D03*
X18200000Y10100000D03*
X63400000Y21700000D03*
X7000000Y19500000D03*
X2500000Y22500000D03*
X62400000Y21700000D03*
X61800000Y29500000D03*
X6000000Y24500000D03*
X32500000Y17500000D03*
X24000000Y20500000D03*
X45000000Y40000000D03*
X16100000Y18500000D03*
X11800000Y14300000D03*
X20400000Y16500000D03*
X17500000Y2500000D03*
X11800000Y16500000D03*
X50000000Y7000000D03*
X64000000Y20900000D03*
X55000000Y45000000D03*
X24000000Y22500000D03*
X20400000Y10100000D03*
X12500000Y2500000D03*
X8000000Y6500000D03*
X9000000Y15500000D03*
X55000000Y40000000D03*
X60000000Y9500000D03*
X22000000Y24500000D03*
X20400000Y20700000D03*
X20000000Y47500000D03*
X8000000Y16500000D03*
X8000000Y24500000D03*
X20400000Y18500000D03*
X6000000Y12500000D03*
X62659482Y25226725D03*
X24000000Y16500000D03*
X57500000Y14500000D03*
X52500000Y12000000D03*
X2500000Y32500000D03*
X55000000Y7000000D03*
X55000000Y14500000D03*
X24000000Y24500000D03*
X47500000Y7000000D03*
X7000000Y13500000D03*
X23000000Y9500000D03*
X8000000Y20500000D03*
X11800000Y20700000D03*
X9000000Y13500000D03*
X58912076Y26795691D03*
X6000000Y14500000D03*
X59400000Y18900000D03*
X60000000Y27900000D03*
X57500000Y7000000D03*
X57500000Y17000000D03*
X63400000Y20100000D03*
X20400000Y12100000D03*
X57400000Y26900000D03*
X61200000Y18100000D03*
X52500000Y14500000D03*
X22000000Y6500000D03*
X55000000Y50000000D03*
X64200000Y25026725D03*
X61800000Y18900000D03*
X47500000Y17000000D03*
X40000000Y45000000D03*
X11800000Y10100000D03*
X7000000Y17500000D03*
X64188789Y26956037D03*
X52500000Y7000000D03*
X2500000Y50000000D03*
X50000000Y45000000D03*
X2500000Y12500000D03*
X57500000Y9500000D03*
X63400000Y26026725D03*
X59800000Y29500000D03*
X63400000Y18500000D03*
X57400000Y25100000D03*
X45000000Y35000000D03*
X7000000Y11500000D03*
X27500000Y12500000D03*
X8000000Y18500000D03*
X16000000Y24500000D03*
X64000000Y19300000D03*
X20000000Y50000000D03*
X2500000Y17500000D03*
X14000000Y6500000D03*
X6000000Y10500000D03*
X40000000Y40000000D03*
X24000000Y18500000D03*
X40000000Y15000000D03*
X22500000Y27500000D03*
X47500000Y14500000D03*
X60000000Y40000000D03*
X18200000Y20700000D03*
X50000000Y35000000D03*
X64400000Y20100000D03*
X24000000Y8500000D03*
X62400000Y20100000D03*
X55000000Y35000000D03*
X57500000Y12000000D03*
X27500000Y17500000D03*
X8000000Y14500000D03*
X27500000Y7500000D03*
X24000000Y10500000D03*
X57112076Y25995691D03*
X62800000Y19300000D03*
X62800000Y20900000D03*
X60000000Y45000000D03*
X23000000Y23500000D03*
X23000000Y15500000D03*
X61600000Y27900000D03*
X7000000Y23500000D03*
X14000000Y24500000D03*
X50000000Y14500000D03*
X14000000Y18500000D03*
X6000000Y16500000D03*
X60000000Y14500000D03*
X10000000Y37500000D03*
X23000000Y13500000D03*
X14000000Y20700000D03*
X7500000Y40000000D03*
X60000000Y17000000D03*
%TO.N,+BATT*%
X37600000Y8100000D03*
%TO.N,GPS_RESET*%
X30600000Y7500000D03*
%TO.N,LED_YLW*%
X24800000Y42100000D03*
%TO.N,NRESET*%
X42200000Y16800000D03*
%TO.N,SCK*%
X43600000Y18000000D03*
%TO.N,MOSI*%
X33850000Y28750000D03*
%TO.N,CS_1*%
X42900000Y17400000D03*
%TO.N,DIO1*%
X48800000Y22500000D03*
X48800000Y42300000D03*
X38200000Y52900000D03*
%TO.N,GPS_TX*%
X16108058Y27008058D03*
%TO.N,RS_EN*%
X6800000Y45100000D03*
%TO.N,RS_TX*%
X6800000Y43500000D03*
%TD*%
D21*
%TO.N,GND*%
X28400000Y2100000D02*
X24000000Y6500000D01*
X37200000Y2100000D02*
X28400000Y2100000D01*
X38600000Y3500000D02*
X37200000Y2100000D01*
D22*
%TO.N,+BATT*%
X36600000Y3500000D02*
X36600000Y7100000D01*
X36600000Y7100000D02*
X37600000Y8100000D01*
%TO.N,GPS_RESET*%
X30300000Y30200000D02*
X30300000Y7800000D01*
X30300000Y7800000D02*
X30600000Y7500000D01*
X26255000Y31670000D02*
X27525000Y30400000D01*
X27525000Y30400000D02*
X30100000Y30400000D01*
X30100000Y30400000D02*
X30300000Y30200000D01*
D21*
%TO.N,LED_YLW*%
X22405000Y53295000D02*
X22405000Y53300000D01*
X24800000Y50900000D02*
X22405000Y53295000D01*
X24800000Y42100000D02*
X24800000Y50900000D01*
X22405000Y53300000D02*
X21175000Y54530000D01*
D22*
%TO.N,NRESET*%
X42200000Y19100000D02*
X42200000Y16800000D01*
X30100000Y31200000D02*
X35100000Y26200000D01*
X30100000Y32000000D02*
X30100000Y31200000D01*
X24803000Y32758000D02*
X29342000Y32758000D01*
X23715000Y31670000D02*
X24803000Y32758000D01*
X35100000Y26200000D02*
X42200000Y19100000D01*
X29342000Y32758000D02*
X30100000Y32000000D01*
%TO.N,SCK*%
X20625000Y33660000D02*
X34040000Y33660000D01*
X35100000Y31000000D02*
X43600000Y22500000D01*
X18635000Y31670000D02*
X20625000Y33660000D01*
X35100000Y32600000D02*
X35100000Y31000000D01*
X34040000Y33660000D02*
X35100000Y32600000D01*
X43600000Y22500000D02*
X43600000Y18000000D01*
%TO.N,MOSI*%
X22714000Y33209000D02*
X21175000Y31670000D01*
X33850000Y28750000D02*
X32600000Y30000000D01*
X32600000Y30000000D02*
X32600000Y32100000D01*
X32600000Y32100000D02*
X31491000Y33209000D01*
X31491000Y33209000D02*
X22714000Y33209000D01*
%TO.N,CS_1*%
X38800000Y25667370D02*
X38832630Y25667370D01*
X42600000Y21900000D02*
X42900000Y21600000D01*
X38832630Y25667370D02*
X42600000Y21900000D01*
X42900000Y21600000D02*
X42900000Y17400000D01*
X33875000Y31670000D02*
X33875000Y30592370D01*
X33875000Y30592370D02*
X38800000Y25667370D01*
%TO.N,DIO1*%
X26255000Y54530000D02*
X27885000Y52900000D01*
X48800000Y42300000D02*
X48800000Y22500000D01*
X27885000Y52900000D02*
X38200000Y52900000D01*
%TO.N,GPS_TX*%
X16095000Y27021116D02*
X16108058Y27008058D01*
X16095000Y31670000D02*
X16095000Y27021116D01*
%TO.N,RS_EN*%
X6800000Y45100000D02*
X6800000Y45900000D01*
X17405000Y53300000D02*
X18635000Y54530000D01*
X14200000Y53300000D02*
X17405000Y53300000D01*
X6800000Y45900000D02*
X14200000Y53300000D01*
%TO.N,RS_TX*%
X11015000Y50915000D02*
X11015000Y54530000D01*
X6000000Y45900000D02*
X11015000Y50915000D01*
X6000000Y44300000D02*
X6000000Y45900000D01*
X6800000Y43500000D02*
X6000000Y44300000D01*
%TD*%
%TA.AperFunction,Conductor*%
%TO.N,GND*%
G36*
X64749500Y18400000D02*
G01*
X56300000Y18400000D01*
X56300000Y26129903D01*
X59149500Y26129903D01*
X59149500Y25870098D01*
X59190140Y25613507D01*
X59270422Y25366424D01*
X59351534Y25207236D01*
X59388366Y25134949D01*
X59541069Y24924771D01*
X59724771Y24741069D01*
X59934949Y24588366D01*
X60082445Y24513213D01*
X60166423Y24470423D01*
X60166425Y24470423D01*
X60166428Y24470421D01*
X60413507Y24390140D01*
X60545706Y24369203D01*
X60670098Y24349500D01*
X60670103Y24349500D01*
X60929902Y24349500D01*
X61043298Y24367461D01*
X61186493Y24390140D01*
X61433572Y24470421D01*
X61665051Y24588366D01*
X61875229Y24741069D01*
X62058931Y24924771D01*
X62211634Y25134949D01*
X62329579Y25366428D01*
X62409860Y25613507D01*
X62432539Y25756702D01*
X62450500Y25870098D01*
X62450500Y26129903D01*
X62428947Y26265979D01*
X62409860Y26386493D01*
X62329579Y26633572D01*
X62329577Y26633575D01*
X62329577Y26633577D01*
X62286787Y26717555D01*
X62211634Y26865051D01*
X62058931Y27075229D01*
X61875229Y27258931D01*
X61665051Y27411634D01*
X61592764Y27448466D01*
X61433576Y27529578D01*
X61186493Y27609860D01*
X60929902Y27650500D01*
X60929897Y27650500D01*
X60670103Y27650500D01*
X60670098Y27650500D01*
X60413506Y27609860D01*
X60166423Y27529578D01*
X59934945Y27411632D01*
X59724774Y27258934D01*
X59724768Y27258929D01*
X59541071Y27075232D01*
X59541066Y27075226D01*
X59388368Y26865055D01*
X59270422Y26633577D01*
X59190140Y26386494D01*
X59149500Y26129903D01*
X56300000Y26129903D01*
X56300000Y32500000D01*
X64749500Y32500000D01*
X64749500Y18400000D01*
G37*
%TD.AperFunction*%
%TD*%
%TA.AperFunction,Conductor*%
%TO.N,GND*%
G36*
X7861993Y55729815D02*
G01*
X7907748Y55677011D01*
X7917692Y55607853D01*
X7888667Y55544297D01*
X7867834Y55525178D01*
X7847875Y55510679D01*
X8339058Y55019496D01*
X8278919Y55003381D01*
X8163080Y54936502D01*
X8068498Y54841920D01*
X8001619Y54726081D01*
X7985504Y54665942D01*
X7494321Y55157125D01*
X7494320Y55157125D01*
X7481167Y55139019D01*
X7398133Y54976056D01*
X7341611Y54802103D01*
X7313000Y54621457D01*
X7313000Y54438544D01*
X7341611Y54257898D01*
X7398133Y54083943D01*
X7481169Y53920980D01*
X7494320Y53902877D01*
X7494321Y53902877D01*
X7985504Y54394060D01*
X8001619Y54333919D01*
X8068498Y54218080D01*
X8163080Y54123498D01*
X8278919Y54056619D01*
X8339058Y54040505D01*
X7847875Y53549323D01*
X7847875Y53549322D01*
X7865978Y53536170D01*
X7865980Y53536169D01*
X8028944Y53453134D01*
X8202897Y53396612D01*
X8383544Y53368000D01*
X8566456Y53368000D01*
X8747102Y53396612D01*
X8921055Y53453134D01*
X9084020Y53536170D01*
X9102123Y53549322D01*
X9102123Y53549323D01*
X8610941Y54040505D01*
X8671081Y54056619D01*
X8786920Y54123498D01*
X8881502Y54218080D01*
X8948381Y54333919D01*
X8964495Y54394059D01*
X9455677Y53902877D01*
X9455678Y53902877D01*
X9468830Y53920980D01*
X9551866Y54083945D01*
X9608388Y54257898D01*
X9622273Y54345567D01*
X9652202Y54408702D01*
X9711513Y54445634D01*
X9781375Y54444636D01*
X9839608Y54406027D01*
X9867219Y54345569D01*
X9881123Y54257784D01*
X9881124Y54257781D01*
X9937669Y54083755D01*
X10012380Y53937126D01*
X10020743Y53920714D01*
X10128288Y53772688D01*
X10128294Y53772682D01*
X10257682Y53643294D01*
X10405717Y53535741D01*
X10421795Y53527549D01*
X10472590Y53479578D01*
X10489500Y53417065D01*
X10489500Y51184032D01*
X10469815Y51116993D01*
X10453181Y51096351D01*
X5579496Y46222667D01*
X5579492Y46222662D01*
X5510311Y46102837D01*
X5510312Y46102837D01*
X5510312Y46102835D01*
X5474499Y45969182D01*
X5474499Y45820828D01*
X5474500Y45820815D01*
X5474500Y44376796D01*
X5474499Y44376778D01*
X5474499Y44369183D01*
X5474499Y44230817D01*
X5495575Y44152162D01*
X5495574Y44152162D01*
X5510310Y44097169D01*
X5510313Y44097162D01*
X5579492Y43977339D01*
X5579496Y43977334D01*
X5684400Y43872430D01*
X5684406Y43872425D01*
X6066365Y43490466D01*
X6099850Y43429143D01*
X6100301Y43426977D01*
X6126418Y43295678D01*
X6126421Y43295668D01*
X6179221Y43168196D01*
X6179228Y43168183D01*
X6255885Y43053459D01*
X6255888Y43053455D01*
X6353454Y42955889D01*
X6353458Y42955886D01*
X6468182Y42879229D01*
X6468195Y42879222D01*
X6595667Y42826422D01*
X6595672Y42826420D01*
X6595676Y42826420D01*
X6595677Y42826419D01*
X6731004Y42799500D01*
X6731007Y42799500D01*
X6868995Y42799500D01*
X6960041Y42817611D01*
X7004328Y42826420D01*
X7131811Y42879225D01*
X7246542Y42955886D01*
X7344114Y43053458D01*
X7420775Y43168189D01*
X7473580Y43295672D01*
X7484658Y43351362D01*
X7500500Y43431005D01*
X7500500Y43568996D01*
X7473581Y43704323D01*
X7473580Y43704324D01*
X7473580Y43704328D01*
X7471099Y43710317D01*
X7420778Y43831805D01*
X7420771Y43831818D01*
X7344114Y43946542D01*
X7344111Y43946546D01*
X7246545Y44044112D01*
X7246541Y44044115D01*
X7131817Y44120772D01*
X7131804Y44120779D01*
X7004332Y44173579D01*
X7004320Y44173582D01*
X6980184Y44178383D01*
X6918273Y44210768D01*
X6883699Y44271483D01*
X6887438Y44341253D01*
X6928304Y44397925D01*
X6980184Y44421617D01*
X6990277Y44423626D01*
X7004328Y44426420D01*
X7131811Y44479225D01*
X7246542Y44555886D01*
X7344114Y44653458D01*
X7420775Y44768189D01*
X7473580Y44895672D01*
X7500500Y45031007D01*
X7500500Y45168993D01*
X7500500Y45168996D01*
X7473581Y45304323D01*
X7473580Y45304324D01*
X7473580Y45304328D01*
X7437530Y45391361D01*
X7420778Y45431805D01*
X7420771Y45431818D01*
X7346398Y45543125D01*
X7340747Y45561172D01*
X7330523Y45577081D01*
X7326071Y45608043D01*
X7325520Y45609803D01*
X7325500Y45612016D01*
X7325500Y45630970D01*
X7345185Y45698009D01*
X7361814Y45718646D01*
X9048693Y47405525D01*
X14835500Y47405525D01*
X14835500Y45934483D01*
X14846292Y45866343D01*
X14850354Y45840696D01*
X14907950Y45727658D01*
X14907952Y45727656D01*
X14907954Y45727653D01*
X14997652Y45637955D01*
X14997656Y45637952D01*
X14997658Y45637950D01*
X15102820Y45584367D01*
X15153614Y45536394D01*
X15170409Y45468573D01*
X15147872Y45402439D01*
X15134205Y45386204D01*
X15097538Y45349537D01*
X15097537Y45349535D01*
X15097535Y45349533D01*
X15064688Y45304323D01*
X14995347Y45208885D01*
X14916418Y45053979D01*
X14862697Y44888643D01*
X14862697Y44888640D01*
X14835500Y44716926D01*
X14835500Y44543075D01*
X14862697Y44371361D01*
X14862697Y44371358D01*
X14916418Y44206022D01*
X14971882Y44097169D01*
X14995347Y44051116D01*
X15097535Y43910467D01*
X15220467Y43787535D01*
X15220473Y43787531D01*
X15326746Y43710317D01*
X15369412Y43654987D01*
X15375390Y43585374D01*
X15342784Y43523579D01*
X15326746Y43509683D01*
X15220473Y43432470D01*
X15220464Y43432463D01*
X15097537Y43309536D01*
X15097537Y43309535D01*
X15097535Y43309533D01*
X15053649Y43249131D01*
X14995347Y43168885D01*
X14916418Y43013979D01*
X14862697Y42848643D01*
X14862697Y42848640D01*
X14837697Y42690796D01*
X14835500Y42676926D01*
X14835500Y42503074D01*
X14845991Y42436835D01*
X14862697Y42331361D01*
X14862697Y42331358D01*
X14916418Y42166022D01*
X14985212Y42031007D01*
X14995347Y42011116D01*
X15097535Y41870467D01*
X15220467Y41747535D01*
X15327171Y41670010D01*
X15369835Y41614681D01*
X15375814Y41545067D01*
X15355816Y41507168D01*
X15354398Y41489155D01*
X15851414Y40992139D01*
X15766306Y40969333D01*
X15663694Y40910090D01*
X15579910Y40826306D01*
X15520667Y40723694D01*
X15497861Y40638586D01*
X15000845Y41135602D01*
X15000844Y41135602D01*
X14995775Y41128625D01*
X14916884Y40973794D01*
X14863183Y40808522D01*
X14836000Y40636893D01*
X14836000Y40463108D01*
X14863183Y40291479D01*
X14916884Y40126207D01*
X14995776Y39971376D01*
X14995777Y39971374D01*
X15000844Y39964400D01*
X15000846Y39964399D01*
X15497861Y40461415D01*
X15520667Y40376306D01*
X15579910Y40273694D01*
X15663694Y40189910D01*
X15766306Y40130667D01*
X15851413Y40107863D01*
X15354398Y39610848D01*
X15361382Y39605772D01*
X15516206Y39526885D01*
X15681478Y39473184D01*
X15853108Y39446000D01*
X16026892Y39446000D01*
X16198521Y39473184D01*
X16363793Y39526885D01*
X16435705Y39563526D01*
X16504374Y39576422D01*
X16569115Y39550146D01*
X16609372Y39493039D01*
X16616000Y39453041D01*
X16616000Y39443108D01*
X16643183Y39271479D01*
X16696884Y39106207D01*
X16775776Y38951376D01*
X16775777Y38951374D01*
X16780844Y38944400D01*
X16780845Y38944400D01*
X17277861Y39441416D01*
X17300667Y39356306D01*
X17359910Y39253694D01*
X17443694Y39169910D01*
X17546306Y39110667D01*
X17631414Y39087863D01*
X17134398Y38590847D01*
X17141382Y38585772D01*
X17296206Y38506885D01*
X17461478Y38453184D01*
X17633108Y38426000D01*
X17806892Y38426000D01*
X17978521Y38453184D01*
X18143793Y38506885D01*
X18298624Y38585776D01*
X18305600Y38590846D01*
X18305600Y38590847D01*
X17808585Y39087863D01*
X17893694Y39110667D01*
X17996306Y39169910D01*
X18080090Y39253694D01*
X18139333Y39356306D01*
X18162138Y39441415D01*
X18659153Y38944400D01*
X18664224Y38951376D01*
X18743115Y39106207D01*
X18796816Y39271479D01*
X18823713Y39441294D01*
X18824000Y39443108D01*
X18824000Y39616893D01*
X18796816Y39788522D01*
X18743115Y39953794D01*
X18664228Y40108618D01*
X18659153Y40115602D01*
X18162137Y39618586D01*
X18139333Y39703694D01*
X18080090Y39806306D01*
X17996306Y39890090D01*
X17893694Y39949333D01*
X17808583Y39972139D01*
X18305600Y40469155D01*
X18304240Y40486447D01*
X18290158Y40504711D01*
X18284183Y40574325D01*
X18316794Y40636117D01*
X18332820Y40650004D01*
X18439533Y40727535D01*
X18562465Y40850467D01*
X18664653Y40991116D01*
X18743580Y41146019D01*
X18797303Y41311362D01*
X18824500Y41483074D01*
X18824500Y41656926D01*
X18797303Y41828638D01*
X18797302Y41828642D01*
X18797302Y41828643D01*
X18743581Y41993979D01*
X18691766Y42095672D01*
X18664653Y42148884D01*
X18562465Y42289533D01*
X18439533Y42412465D01*
X18333252Y42489683D01*
X18290588Y42545012D01*
X18284609Y42614626D01*
X18317215Y42676421D01*
X18333253Y42690318D01*
X18333911Y42690796D01*
X18439533Y42767535D01*
X18562465Y42890467D01*
X18664653Y43031116D01*
X18743580Y43186019D01*
X18752172Y43212463D01*
X18797302Y43351358D01*
X18797302Y43351359D01*
X18797303Y43351362D01*
X18824500Y43523074D01*
X18824500Y43696926D01*
X18797303Y43868638D01*
X18797302Y43868642D01*
X18797302Y43868643D01*
X18743581Y44033979D01*
X18732518Y44055692D01*
X18664653Y44188884D01*
X18562465Y44329533D01*
X18439533Y44452465D01*
X18333252Y44529683D01*
X18290588Y44585012D01*
X18284609Y44654626D01*
X18317215Y44716421D01*
X18333253Y44730318D01*
X18439533Y44807535D01*
X18562465Y44930467D01*
X18664653Y45071116D01*
X18743580Y45226019D01*
X18743581Y45226022D01*
X18797302Y45391358D01*
X18797302Y45391359D01*
X18797303Y45391362D01*
X18824500Y45563074D01*
X18824500Y45736926D01*
X18797303Y45908638D01*
X18797302Y45908642D01*
X18797302Y45908643D01*
X18743581Y46073979D01*
X18667823Y46222662D01*
X18664653Y46228884D01*
X18562465Y46369533D01*
X18439533Y46492465D01*
X18298884Y46594653D01*
X18240514Y46624394D01*
X18143978Y46673582D01*
X17978641Y46727303D01*
X17849385Y46747775D01*
X17806926Y46754500D01*
X17633074Y46754500D01*
X17590615Y46747775D01*
X17461360Y46727303D01*
X17461357Y46727303D01*
X17296019Y46673581D01*
X17296018Y46673581D01*
X17224793Y46637290D01*
X17156124Y46624394D01*
X17091383Y46650671D01*
X17051127Y46707778D01*
X17044499Y46747775D01*
X17044499Y47405518D01*
X17043573Y47411362D01*
X17029646Y47499304D01*
X16972050Y47612342D01*
X16972046Y47612346D01*
X16972045Y47612348D01*
X16882347Y47702046D01*
X16882344Y47702048D01*
X16882342Y47702050D01*
X16805517Y47741195D01*
X16774643Y47756926D01*
X21435500Y47756926D01*
X21435500Y47583075D01*
X21462697Y47411361D01*
X21462697Y47411358D01*
X21516418Y47246022D01*
X21516420Y47246019D01*
X21595347Y47091116D01*
X21697535Y46950467D01*
X21820467Y46827535D01*
X21961116Y46725347D01*
X22107676Y46650671D01*
X22116021Y46646419D01*
X22281358Y46592698D01*
X22281359Y46592698D01*
X22281362Y46592697D01*
X22453074Y46565500D01*
X22453075Y46565500D01*
X22626925Y46565500D01*
X22626926Y46565500D01*
X22798638Y46592697D01*
X22798641Y46592698D01*
X22798642Y46592698D01*
X22963978Y46646419D01*
X22963978Y46646420D01*
X22963981Y46646420D01*
X23118884Y46725347D01*
X23259533Y46827535D01*
X23382465Y46950467D01*
X23484653Y47091116D01*
X23563580Y47246019D01*
X23615405Y47405519D01*
X23617302Y47411358D01*
X23617302Y47411359D01*
X23617303Y47411362D01*
X23644500Y47583074D01*
X23644500Y47756926D01*
X23617303Y47928638D01*
X23617302Y47928642D01*
X23617302Y47928643D01*
X23563581Y48093979D01*
X23563580Y48093981D01*
X23484653Y48248884D01*
X23382465Y48389533D01*
X23259533Y48512465D01*
X23118884Y48614653D01*
X22963981Y48693580D01*
X22963980Y48693581D01*
X22963975Y48693583D01*
X22963974Y48693584D01*
X22952430Y48697335D01*
X22894756Y48736775D01*
X22867561Y48801135D01*
X22879478Y48869980D01*
X22926724Y48921454D01*
X22952440Y48933197D01*
X22963794Y48936886D01*
X23118624Y49015776D01*
X23125600Y49020847D01*
X22628585Y49517863D01*
X22713694Y49540667D01*
X22816306Y49599910D01*
X22900090Y49683694D01*
X22959333Y49786306D01*
X22982138Y49871415D01*
X23479153Y49374400D01*
X23484224Y49381376D01*
X23563115Y49536207D01*
X23616816Y49701479D01*
X23644000Y49873108D01*
X23644000Y50046893D01*
X23616816Y50218522D01*
X23563115Y50383794D01*
X23484228Y50538618D01*
X23479153Y50545602D01*
X22982137Y50048586D01*
X22959333Y50133694D01*
X22900090Y50236306D01*
X22816306Y50320090D01*
X22713694Y50379333D01*
X22628585Y50402139D01*
X23125601Y50899154D01*
X23125600Y50899156D01*
X23118626Y50904223D01*
X23118624Y50904224D01*
X22963793Y50983116D01*
X22798521Y51036817D01*
X22626892Y51064000D01*
X22453108Y51064000D01*
X22281478Y51036817D01*
X22116206Y50983116D01*
X21961375Y50904225D01*
X21954398Y50899156D01*
X21954398Y50899155D01*
X22451415Y50402139D01*
X22366306Y50379333D01*
X22263694Y50320090D01*
X22179910Y50236306D01*
X22120667Y50133694D01*
X22097861Y50048586D01*
X21600845Y50545602D01*
X21600844Y50545602D01*
X21595775Y50538625D01*
X21516884Y50383794D01*
X21463183Y50218522D01*
X21436000Y50046893D01*
X21436000Y49873108D01*
X21463183Y49701479D01*
X21516884Y49536207D01*
X21595776Y49381376D01*
X21595777Y49381374D01*
X21600844Y49374400D01*
X21600846Y49374399D01*
X22097861Y49871415D01*
X22120667Y49786306D01*
X22179910Y49683694D01*
X22263694Y49599910D01*
X22366306Y49540667D01*
X22451414Y49517863D01*
X21954398Y49020847D01*
X21961382Y49015772D01*
X22116207Y48936885D01*
X22127561Y48933196D01*
X22185237Y48893760D01*
X22212437Y48829402D01*
X22200525Y48760556D01*
X22153282Y48709078D01*
X22127572Y48697335D01*
X22116020Y48693581D01*
X21961115Y48614653D01*
X21880869Y48556351D01*
X21820467Y48512465D01*
X21820465Y48512463D01*
X21820464Y48512463D01*
X21697537Y48389536D01*
X21697537Y48389535D01*
X21697535Y48389533D01*
X21653649Y48329131D01*
X21595347Y48248885D01*
X21516418Y48093979D01*
X21462697Y47928643D01*
X21462697Y47928640D01*
X21435500Y47756926D01*
X16774643Y47756926D01*
X16769301Y47759648D01*
X16675524Y47774500D01*
X15204482Y47774500D01*
X15123519Y47761677D01*
X15110696Y47759646D01*
X14997658Y47702050D01*
X14997657Y47702049D01*
X14997652Y47702046D01*
X14907954Y47612348D01*
X14907951Y47612343D01*
X14850352Y47499302D01*
X14835500Y47405525D01*
X9048693Y47405525D01*
X11341998Y49698831D01*
X11403319Y49732314D01*
X11473011Y49727330D01*
X11528944Y49685458D01*
X11553361Y49619994D01*
X11552617Y49594966D01*
X11549500Y49571286D01*
X11549500Y49328712D01*
X11581161Y49088215D01*
X11643947Y48853896D01*
X11736773Y48629795D01*
X11736776Y48629788D01*
X11858064Y48419711D01*
X11858066Y48419708D01*
X11858067Y48419707D01*
X12005733Y48227264D01*
X12005739Y48227257D01*
X12177256Y48055740D01*
X12177262Y48055735D01*
X12369711Y47908064D01*
X12579788Y47786776D01*
X12803900Y47693946D01*
X13038211Y47631162D01*
X13181166Y47612342D01*
X13278711Y47599500D01*
X13278712Y47599500D01*
X13521289Y47599500D01*
X13569388Y47605833D01*
X13761789Y47631162D01*
X13996100Y47693946D01*
X14220212Y47786776D01*
X14430289Y47908064D01*
X14622738Y48055735D01*
X14794265Y48227262D01*
X14941936Y48419711D01*
X15063224Y48629788D01*
X15156054Y48853900D01*
X15218838Y49088211D01*
X15250500Y49328712D01*
X15250500Y49571288D01*
X15218838Y49811789D01*
X15156054Y50046100D01*
X15153739Y50051688D01*
X15119771Y50133694D01*
X15063224Y50270212D01*
X14941936Y50480289D01*
X14847317Y50603599D01*
X14794266Y50672737D01*
X14794260Y50672744D01*
X14622743Y50844261D01*
X14622736Y50844267D01*
X14430293Y50991933D01*
X14430290Y50991935D01*
X14430289Y50991936D01*
X14220212Y51113224D01*
X14173268Y51132669D01*
X13996104Y51206053D01*
X13977663Y51210995D01*
X13761789Y51268838D01*
X13761788Y51268839D01*
X13761785Y51268839D01*
X13521289Y51300500D01*
X13521288Y51300500D01*
X13278712Y51300500D01*
X13263330Y51298475D01*
X13255034Y51297383D01*
X13185999Y51308151D01*
X13133744Y51354532D01*
X13114861Y51421802D01*
X13135344Y51488602D01*
X13151165Y51507998D01*
X14381350Y52738181D01*
X14442673Y52771666D01*
X14469031Y52774500D01*
X15858987Y52774500D01*
X15926026Y52754815D01*
X15971781Y52702011D01*
X15981725Y52632853D01*
X15952700Y52569297D01*
X15931872Y52550181D01*
X15889300Y52519252D01*
X16467705Y51940847D01*
X16451058Y51933951D01*
X16320030Y51846401D01*
X16208599Y51734970D01*
X16121049Y51603942D01*
X16114153Y51587295D01*
X15535748Y52165700D01*
X15535747Y52165699D01*
X15461559Y52063587D01*
X15347219Y51839185D01*
X15269397Y51599670D01*
X15230000Y51350929D01*
X15230000Y51099072D01*
X15269397Y50850331D01*
X15347219Y50610816D01*
X15461557Y50386417D01*
X15535748Y50284303D01*
X15535748Y50284302D01*
X16114152Y50862707D01*
X16121049Y50846058D01*
X16208599Y50715030D01*
X16320030Y50603599D01*
X16451058Y50516049D01*
X16467705Y50509154D01*
X15889300Y49930750D01*
X15991416Y49856558D01*
X16215815Y49742220D01*
X16455330Y49664398D01*
X16704072Y49625000D01*
X16955928Y49625000D01*
X17204669Y49664398D01*
X17444184Y49742220D01*
X17668575Y49856554D01*
X17668581Y49856558D01*
X17770697Y49930750D01*
X17770698Y49930750D01*
X17737370Y49964078D01*
X17192294Y50509154D01*
X17208942Y50516049D01*
X17339970Y50603599D01*
X17451401Y50715030D01*
X17538951Y50846058D01*
X17545846Y50862706D01*
X18124250Y50284302D01*
X18124250Y50284303D01*
X18198442Y50386419D01*
X18198446Y50386425D01*
X18312780Y50610816D01*
X18390601Y50850326D01*
X18393922Y50871293D01*
X18393923Y50871296D01*
X18430000Y51099072D01*
X18430000Y51350929D01*
X18390602Y51599670D01*
X18312780Y51839185D01*
X18198442Y52063584D01*
X18124250Y52165699D01*
X18124250Y52165700D01*
X17545846Y51587296D01*
X17538951Y51603942D01*
X17451401Y51734970D01*
X17339970Y51846401D01*
X17208942Y51933951D01*
X17192292Y51940848D01*
X17770698Y52519252D01*
X17668580Y52593445D01*
X17640266Y52607872D01*
X17589471Y52655847D01*
X17572676Y52723668D01*
X17595214Y52789803D01*
X17634559Y52825741D01*
X17727665Y52879495D01*
X17825505Y52977335D01*
X17825505Y52977337D01*
X17835709Y52987540D01*
X17835712Y52987545D01*
X18219620Y53371453D01*
X18280942Y53404936D01*
X18345616Y53401702D01*
X18362781Y53396124D01*
X18430554Y53385390D01*
X18543504Y53367500D01*
X18543509Y53367500D01*
X18726496Y53367500D01*
X18829527Y53383819D01*
X18907219Y53396124D01*
X19081245Y53452669D01*
X19244283Y53535741D01*
X19333417Y53600500D01*
X19392312Y53643289D01*
X19392314Y53643292D01*
X19392318Y53643294D01*
X19521706Y53772682D01*
X19521708Y53772686D01*
X19521711Y53772688D01*
X19592993Y53870801D01*
X19629259Y53920717D01*
X19712331Y54083755D01*
X19768876Y54257781D01*
X19782527Y54343969D01*
X19812456Y54407104D01*
X19871768Y54444035D01*
X19941630Y54443037D01*
X19999863Y54404427D01*
X20027473Y54343969D01*
X20041123Y54257785D01*
X20041123Y54257783D01*
X20041124Y54257781D01*
X20097669Y54083755D01*
X20172380Y53937126D01*
X20180743Y53920714D01*
X20288288Y53772688D01*
X20417687Y53643289D01*
X20552008Y53545701D01*
X20565717Y53535741D01*
X20728755Y53452669D01*
X20902781Y53396124D01*
X20970554Y53385390D01*
X21083504Y53367500D01*
X21083509Y53367500D01*
X21266496Y53367500D01*
X21394212Y53387729D01*
X21426060Y53392773D01*
X21495353Y53383819D01*
X21533139Y53357981D01*
X21926111Y52965009D01*
X21939265Y52947867D01*
X21939541Y52948078D01*
X21944486Y52941633D01*
X24188181Y50697939D01*
X24221666Y50636616D01*
X24224500Y50610258D01*
X24224500Y42537185D01*
X24204815Y42470146D01*
X24203602Y42468295D01*
X24179225Y42431813D01*
X24179223Y42431810D01*
X24126421Y42304333D01*
X24126418Y42304323D01*
X24099500Y42168996D01*
X24099500Y42168993D01*
X24099500Y42031007D01*
X24099500Y42031005D01*
X24099499Y42031005D01*
X24126418Y41895678D01*
X24126421Y41895668D01*
X24179221Y41768196D01*
X24179228Y41768183D01*
X24255885Y41653459D01*
X24255888Y41653455D01*
X24353454Y41555889D01*
X24353458Y41555886D01*
X24468182Y41479229D01*
X24468195Y41479222D01*
X24595667Y41426422D01*
X24595672Y41426420D01*
X24595676Y41426420D01*
X24595677Y41426419D01*
X24731004Y41399500D01*
X24731007Y41399500D01*
X24868995Y41399500D01*
X24960041Y41417611D01*
X25004328Y41426420D01*
X25131811Y41479225D01*
X25246542Y41555886D01*
X25344114Y41653458D01*
X25420775Y41768189D01*
X25473580Y41895672D01*
X25482389Y41939959D01*
X25500500Y42031005D01*
X25500500Y42168996D01*
X25473581Y42304323D01*
X25473580Y42304324D01*
X25473580Y42304328D01*
X25420775Y42431811D01*
X25391526Y42475585D01*
X25387730Y42483487D01*
X25383444Y42509664D01*
X25375520Y42534972D01*
X25375500Y42537185D01*
X25375500Y42825001D01*
X29755365Y42825001D01*
X29755366Y42825000D01*
X30507262Y42825000D01*
X30490045Y42815060D01*
X30434190Y42759205D01*
X30394694Y42690796D01*
X30374250Y42614496D01*
X30374250Y42535504D01*
X30394694Y42459204D01*
X30434190Y42390795D01*
X30490045Y42334940D01*
X30507262Y42325000D01*
X29755366Y42325000D01*
X29760756Y42297900D01*
X29760757Y42297897D01*
X29832369Y42125009D01*
X29832374Y42125000D01*
X29936336Y41969411D01*
X29936339Y41969407D01*
X30068656Y41837090D01*
X30068660Y41837087D01*
X30224249Y41733125D01*
X30224258Y41733120D01*
X30397144Y41661509D01*
X30397152Y41661507D01*
X30580678Y41625001D01*
X30580681Y41625000D01*
X30874250Y41625000D01*
X30874250Y42275000D01*
X31374250Y42275000D01*
X31374250Y41625000D01*
X31667819Y41625000D01*
X31667821Y41625001D01*
X31851347Y41661507D01*
X31851355Y41661509D01*
X32024241Y41733120D01*
X32024250Y41733125D01*
X32179839Y41837087D01*
X32179843Y41837090D01*
X32312160Y41969407D01*
X32312163Y41969411D01*
X32416125Y42125000D01*
X32416130Y42125009D01*
X32487742Y42297897D01*
X32487743Y42297900D01*
X32493134Y42325000D01*
X31741238Y42325000D01*
X31758455Y42334940D01*
X31814310Y42390795D01*
X31853806Y42459204D01*
X31874250Y42535504D01*
X31874250Y42614496D01*
X31853806Y42690796D01*
X31814310Y42759205D01*
X31758455Y42815060D01*
X31741238Y42825000D01*
X32493134Y42825000D01*
X34054388Y42825000D01*
X34857262Y42825000D01*
X34840045Y42815060D01*
X34784190Y42759205D01*
X34744694Y42690796D01*
X34724250Y42614496D01*
X34724250Y42535504D01*
X34744694Y42459204D01*
X34784190Y42390795D01*
X34840045Y42334940D01*
X34857262Y42325000D01*
X34054388Y42325000D01*
X34062680Y42283310D01*
X34062680Y42283308D01*
X34138057Y42101329D01*
X34138064Y42101316D01*
X34247498Y41937538D01*
X34247501Y41937534D01*
X34386783Y41798252D01*
X34386787Y41798249D01*
X34550565Y41688815D01*
X34550578Y41688808D01*
X34732556Y41613431D01*
X34732568Y41613428D01*
X34925754Y41575001D01*
X34925758Y41575000D01*
X35074250Y41575000D01*
X35074250Y42275000D01*
X35574250Y42275000D01*
X35574250Y41575000D01*
X35722742Y41575000D01*
X35722745Y41575001D01*
X35915931Y41613428D01*
X35915943Y41613431D01*
X36097921Y41688808D01*
X36097934Y41688815D01*
X36261712Y41798249D01*
X36261716Y41798252D01*
X36400998Y41937534D01*
X36401001Y41937538D01*
X36510435Y42101316D01*
X36510442Y42101329D01*
X36564155Y42231005D01*
X48099499Y42231005D01*
X48126418Y42095678D01*
X48126421Y42095668D01*
X48179221Y41968196D01*
X48179228Y41968183D01*
X48253602Y41856876D01*
X48274480Y41790199D01*
X48274500Y41787985D01*
X48274500Y23012016D01*
X48254815Y22944977D01*
X48253602Y22943125D01*
X48179228Y22831818D01*
X48179221Y22831805D01*
X48126421Y22704333D01*
X48126418Y22704323D01*
X48099500Y22568996D01*
X48099500Y22568993D01*
X48099500Y22431007D01*
X48099500Y22431005D01*
X48099499Y22431005D01*
X48126418Y22295678D01*
X48126421Y22295668D01*
X48179221Y22168196D01*
X48179228Y22168183D01*
X48255885Y22053459D01*
X48255888Y22053455D01*
X48353454Y21955889D01*
X48353458Y21955886D01*
X48468182Y21879229D01*
X48468195Y21879222D01*
X48589371Y21829030D01*
X48595672Y21826420D01*
X48595676Y21826420D01*
X48595677Y21826419D01*
X48731004Y21799500D01*
X48731007Y21799500D01*
X48868995Y21799500D01*
X48960041Y21817611D01*
X49004328Y21826420D01*
X49131811Y21879225D01*
X49246542Y21955886D01*
X49344114Y22053458D01*
X49420775Y22168189D01*
X49473580Y22295672D01*
X49484957Y22352868D01*
X49500500Y22431005D01*
X49500500Y22568996D01*
X49473581Y22704323D01*
X49473580Y22704324D01*
X49473580Y22704328D01*
X49424565Y22822662D01*
X49420778Y22831805D01*
X49420771Y22831818D01*
X49346398Y22943125D01*
X49325520Y23009803D01*
X49325500Y23012016D01*
X49325500Y41787985D01*
X49345185Y41855024D01*
X49346398Y41856876D01*
X49420771Y41968183D01*
X49420771Y41968184D01*
X49420775Y41968189D01*
X49473580Y42095672D01*
X49500500Y42231007D01*
X49500500Y42368993D01*
X49500500Y42368996D01*
X49473581Y42504323D01*
X49473580Y42504324D01*
X49473580Y42504328D01*
X49438094Y42590000D01*
X49420778Y42631805D01*
X49420771Y42631818D01*
X49344114Y42746542D01*
X49344111Y42746546D01*
X49246545Y42844112D01*
X49246541Y42844115D01*
X49131817Y42920772D01*
X49131804Y42920779D01*
X49004332Y42973579D01*
X49004322Y42973582D01*
X48868995Y43000500D01*
X48868993Y43000500D01*
X48731007Y43000500D01*
X48731005Y43000500D01*
X48595677Y42973582D01*
X48595667Y42973579D01*
X48468195Y42920779D01*
X48468182Y42920772D01*
X48353458Y42844115D01*
X48353454Y42844112D01*
X48255888Y42746546D01*
X48255885Y42746542D01*
X48179228Y42631818D01*
X48179221Y42631805D01*
X48126421Y42504333D01*
X48126418Y42504323D01*
X48099500Y42368996D01*
X48099500Y42368993D01*
X48099500Y42231007D01*
X48099500Y42231005D01*
X48099499Y42231005D01*
X36564155Y42231005D01*
X36585819Y42283308D01*
X36585819Y42283310D01*
X36594112Y42325000D01*
X35791238Y42325000D01*
X35808455Y42334940D01*
X35864310Y42390795D01*
X35903806Y42459204D01*
X35924250Y42535504D01*
X35924250Y42614496D01*
X35903806Y42690796D01*
X35864310Y42759205D01*
X35808455Y42815060D01*
X35791238Y42825000D01*
X36594112Y42825000D01*
X36585819Y42866691D01*
X36585819Y42866693D01*
X36510442Y43048672D01*
X36510435Y43048685D01*
X36401001Y43212463D01*
X36400998Y43212467D01*
X36261716Y43351749D01*
X36261712Y43351752D01*
X36097934Y43461186D01*
X36097921Y43461193D01*
X35915943Y43536570D01*
X35915931Y43536573D01*
X35722745Y43575000D01*
X35574250Y43575000D01*
X35574250Y42875000D01*
X35074250Y42875000D01*
X35074250Y43575000D01*
X34925754Y43575000D01*
X34732568Y43536573D01*
X34732556Y43536570D01*
X34550578Y43461193D01*
X34550565Y43461186D01*
X34386787Y43351752D01*
X34386783Y43351749D01*
X34247501Y43212467D01*
X34247498Y43212463D01*
X34138064Y43048685D01*
X34138057Y43048672D01*
X34062680Y42866693D01*
X34062680Y42866691D01*
X34054388Y42825000D01*
X32493134Y42825000D01*
X32487743Y42852101D01*
X32487742Y42852104D01*
X32416130Y43024992D01*
X32416125Y43025001D01*
X32312163Y43180590D01*
X32312160Y43180594D01*
X32179843Y43312911D01*
X32179839Y43312914D01*
X32077315Y43381419D01*
X32032510Y43435031D01*
X32023803Y43504356D01*
X32053958Y43567384D01*
X32058526Y43572203D01*
X32102585Y43616262D01*
X32102590Y43616267D01*
X32143194Y43669184D01*
X32188878Y43748312D01*
X32214402Y43809932D01*
X32238050Y43898187D01*
X32246756Y43964316D01*
X32246756Y44055684D01*
X32238050Y44121813D01*
X32214402Y44210068D01*
X32214112Y44210768D01*
X32188883Y44271677D01*
X32188878Y44271687D01*
X32188878Y44271688D01*
X32143194Y44350816D01*
X32102590Y44403733D01*
X32102588Y44403735D01*
X32102585Y44403739D01*
X32037988Y44468336D01*
X32037983Y44468340D01*
X31985066Y44508944D01*
X31905938Y44554628D01*
X31905936Y44554629D01*
X31905926Y44554634D01*
X31844319Y44580152D01*
X31814899Y44588035D01*
X31756063Y44603800D01*
X31741367Y44605735D01*
X31689941Y44612506D01*
X31689934Y44612506D01*
X31598566Y44612506D01*
X31598558Y44612506D01*
X31539784Y44604768D01*
X31532437Y44603800D01*
X31503018Y44595918D01*
X31444180Y44580152D01*
X31444179Y44580152D01*
X31382573Y44554634D01*
X31382563Y44554629D01*
X31303438Y44508947D01*
X31303436Y44508946D01*
X31303434Y44508944D01*
X31278583Y44489876D01*
X31250511Y44468336D01*
X31185914Y44403739D01*
X31181453Y44397925D01*
X31145306Y44350816D01*
X31145305Y44350814D01*
X31145303Y44350812D01*
X31099621Y44271687D01*
X31099616Y44271677D01*
X31074098Y44210071D01*
X31074098Y44210070D01*
X31050450Y44121812D01*
X31041744Y44055692D01*
X31041744Y43964309D01*
X31048515Y43912883D01*
X31050450Y43898187D01*
X31058367Y43868640D01*
X31074098Y43809931D01*
X31074098Y43809930D01*
X31099616Y43748324D01*
X31099621Y43748314D01*
X31099622Y43748312D01*
X31145306Y43669184D01*
X31185910Y43616267D01*
X31185914Y43616262D01*
X31250509Y43551667D01*
X31250514Y43551663D01*
X31250517Y43551660D01*
X31303434Y43511056D01*
X31303438Y43511054D01*
X31303442Y43511051D01*
X31312248Y43505967D01*
X31360465Y43455401D01*
X31374250Y43398579D01*
X31374250Y42875000D01*
X30874250Y42875000D01*
X30874250Y43525000D01*
X30580680Y43525000D01*
X30397152Y43488494D01*
X30397144Y43488492D01*
X30224258Y43416881D01*
X30224249Y43416876D01*
X30068660Y43312914D01*
X30068656Y43312911D01*
X29936339Y43180594D01*
X29936336Y43180590D01*
X29832374Y43025001D01*
X29832369Y43024992D01*
X29760757Y42852104D01*
X29760756Y42852101D01*
X29755365Y42825001D01*
X25375500Y42825001D01*
X25375500Y50975765D01*
X25375500Y50975766D01*
X25371167Y50991936D01*
X25336281Y51122135D01*
X25260514Y51253366D01*
X23325965Y53187915D01*
X23292480Y53249238D01*
X23297464Y53318930D01*
X23339336Y53374863D01*
X23404800Y53399280D01*
X23437916Y53396553D01*
X23437969Y53396886D01*
X23442415Y53396182D01*
X23442607Y53396166D01*
X23442770Y53396128D01*
X23442781Y53396124D01*
X23520473Y53383819D01*
X23623504Y53367500D01*
X23623509Y53367500D01*
X23806496Y53367500D01*
X23909527Y53383819D01*
X23987219Y53396124D01*
X24161245Y53452669D01*
X24324283Y53535741D01*
X24413417Y53600500D01*
X24472312Y53643289D01*
X24472314Y53643292D01*
X24472318Y53643294D01*
X24601706Y53772682D01*
X24601708Y53772686D01*
X24601711Y53772688D01*
X24672993Y53870801D01*
X24709259Y53920717D01*
X24792331Y54083755D01*
X24848876Y54257781D01*
X24862527Y54343969D01*
X24892456Y54407104D01*
X24951768Y54444035D01*
X25021630Y54443037D01*
X25079863Y54404427D01*
X25107473Y54343969D01*
X25121123Y54257785D01*
X25121123Y54257783D01*
X25121124Y54257781D01*
X25177669Y54083755D01*
X25252380Y53937126D01*
X25260743Y53920714D01*
X25368288Y53772688D01*
X25497687Y53643289D01*
X25632008Y53545701D01*
X25645717Y53535741D01*
X25808755Y53452669D01*
X25982781Y53396124D01*
X26050554Y53385390D01*
X26163504Y53367500D01*
X26163509Y53367500D01*
X26346496Y53367500D01*
X26449527Y53383819D01*
X26527219Y53396124D01*
X26544379Y53401701D01*
X26614220Y53403697D01*
X26670380Y53371451D01*
X27460154Y52581677D01*
X27460164Y52581666D01*
X27464494Y52577336D01*
X27464495Y52577335D01*
X27562335Y52479495D01*
X27562337Y52479494D01*
X27562338Y52479493D01*
X27607438Y52453455D01*
X27682164Y52410312D01*
X27815817Y52374500D01*
X30343529Y52374500D01*
X30410568Y52354815D01*
X30456323Y52302011D01*
X30466267Y52232853D01*
X30437242Y52169297D01*
X30390982Y52135939D01*
X30224258Y52066881D01*
X30224249Y52066876D01*
X30068660Y51962914D01*
X30068656Y51962911D01*
X29936339Y51830594D01*
X29936336Y51830590D01*
X29832374Y51675001D01*
X29832369Y51674992D01*
X29760757Y51502104D01*
X29760756Y51502101D01*
X29755365Y51475001D01*
X29755366Y51475000D01*
X30507262Y51475000D01*
X30490045Y51465060D01*
X30434190Y51409205D01*
X30394694Y51340796D01*
X30374250Y51264496D01*
X30374250Y51185504D01*
X30394694Y51109204D01*
X30434190Y51040795D01*
X30490045Y50984940D01*
X30507262Y50975000D01*
X29755366Y50975000D01*
X29760756Y50947900D01*
X29760757Y50947897D01*
X29832369Y50775009D01*
X29832374Y50775000D01*
X29936336Y50619411D01*
X29936339Y50619407D01*
X30068656Y50487090D01*
X30068660Y50487087D01*
X30224249Y50383125D01*
X30224258Y50383120D01*
X30397144Y50311509D01*
X30397152Y50311507D01*
X30580678Y50275001D01*
X30580681Y50275000D01*
X30874250Y50275000D01*
X30874250Y50925000D01*
X31374250Y50925000D01*
X31374250Y50401421D01*
X31354565Y50334382D01*
X31312252Y50294036D01*
X31307786Y50291458D01*
X31303435Y50288945D01*
X31303434Y50288944D01*
X31250511Y50248336D01*
X31185914Y50183739D01*
X31164374Y50155667D01*
X31145306Y50130816D01*
X31145305Y50130814D01*
X31145303Y50130812D01*
X31099621Y50051687D01*
X31099616Y50051677D01*
X31074098Y49990071D01*
X31074098Y49990070D01*
X31050450Y49901812D01*
X31041744Y49835692D01*
X31041744Y49744309D01*
X31047732Y49698829D01*
X31050450Y49678187D01*
X31054145Y49664398D01*
X31074098Y49589931D01*
X31074098Y49589930D01*
X31099616Y49528324D01*
X31099621Y49528314D01*
X31099622Y49528312D01*
X31145306Y49449184D01*
X31185910Y49396267D01*
X31185914Y49396262D01*
X31250511Y49331665D01*
X31250515Y49331662D01*
X31250517Y49331660D01*
X31303434Y49291056D01*
X31382562Y49245372D01*
X31382567Y49245370D01*
X31382573Y49245367D01*
X31426998Y49226966D01*
X31444182Y49219848D01*
X31532437Y49196200D01*
X31598566Y49187494D01*
X31598573Y49187494D01*
X31689927Y49187494D01*
X31689934Y49187494D01*
X31756063Y49196200D01*
X31844318Y49219848D01*
X31905938Y49245372D01*
X31985066Y49291056D01*
X32037983Y49331660D01*
X32102590Y49396267D01*
X32143194Y49449184D01*
X32188878Y49528312D01*
X32214402Y49589932D01*
X32238050Y49678187D01*
X32246756Y49744316D01*
X32246756Y49835684D01*
X32238050Y49901813D01*
X32214402Y49990068D01*
X32191193Y50046100D01*
X32188883Y50051677D01*
X32188878Y50051687D01*
X32188878Y50051688D01*
X32143194Y50130816D01*
X32102590Y50183733D01*
X32102588Y50183735D01*
X32102585Y50183739D01*
X32058525Y50227799D01*
X32025040Y50289122D01*
X32030024Y50358814D01*
X32071896Y50414747D01*
X32077316Y50418582D01*
X32179835Y50487084D01*
X32179843Y50487090D01*
X32312160Y50619407D01*
X32312163Y50619411D01*
X32416125Y50775000D01*
X32416130Y50775009D01*
X32487742Y50947897D01*
X32487743Y50947900D01*
X32493134Y50975000D01*
X31741238Y50975000D01*
X31758455Y50984940D01*
X31814310Y51040795D01*
X31853806Y51109204D01*
X31874250Y51185504D01*
X31874250Y51264496D01*
X31853806Y51340796D01*
X31814310Y51409205D01*
X31758455Y51465060D01*
X31741238Y51475000D01*
X32493134Y51475000D01*
X32493134Y51475001D01*
X32487743Y51502101D01*
X32487742Y51502104D01*
X32416130Y51674992D01*
X32416125Y51675001D01*
X32312163Y51830590D01*
X32312160Y51830594D01*
X32179843Y51962911D01*
X32179839Y51962914D01*
X32024250Y52066876D01*
X32024241Y52066881D01*
X31857518Y52135939D01*
X31803115Y52179780D01*
X31781050Y52246074D01*
X31798329Y52313773D01*
X31849466Y52361384D01*
X31904971Y52374500D01*
X34562871Y52374500D01*
X34629910Y52354815D01*
X34675665Y52302011D01*
X34685609Y52232853D01*
X34656584Y52169297D01*
X34610323Y52135939D01*
X34550578Y52111193D01*
X34550565Y52111186D01*
X34386787Y52001752D01*
X34386783Y52001749D01*
X34247501Y51862467D01*
X34247498Y51862463D01*
X34138064Y51698685D01*
X34138057Y51698672D01*
X34062680Y51516693D01*
X34062680Y51516691D01*
X34054388Y51475000D01*
X34857262Y51475000D01*
X34840045Y51465060D01*
X34784190Y51409205D01*
X34744694Y51340796D01*
X34724250Y51264496D01*
X34724250Y51185504D01*
X34744694Y51109204D01*
X34784190Y51040795D01*
X34840045Y50984940D01*
X34857262Y50975000D01*
X34054388Y50975000D01*
X34062680Y50933310D01*
X34062680Y50933308D01*
X34138057Y50751329D01*
X34138064Y50751316D01*
X34247498Y50587538D01*
X34247501Y50587534D01*
X34386783Y50448252D01*
X34386787Y50448249D01*
X34550565Y50338815D01*
X34550578Y50338808D01*
X34732556Y50263431D01*
X34732568Y50263428D01*
X34925754Y50225001D01*
X34925758Y50225000D01*
X35074250Y50225000D01*
X35074250Y50925000D01*
X35574250Y50925000D01*
X35574250Y50225000D01*
X35722742Y50225000D01*
X35722745Y50225001D01*
X35915931Y50263428D01*
X35915943Y50263431D01*
X36097921Y50338808D01*
X36097934Y50338815D01*
X36261712Y50448249D01*
X36261716Y50448252D01*
X36400998Y50587534D01*
X36401001Y50587538D01*
X36510435Y50751316D01*
X36510442Y50751329D01*
X36585819Y50933308D01*
X36585819Y50933310D01*
X36594112Y50975000D01*
X35791238Y50975000D01*
X35808455Y50984940D01*
X35864310Y51040795D01*
X35903806Y51109204D01*
X35924250Y51185504D01*
X35924250Y51264496D01*
X35903806Y51340796D01*
X35864310Y51409205D01*
X35808455Y51465060D01*
X35791238Y51475000D01*
X36594112Y51475000D01*
X36585819Y51516691D01*
X36585819Y51516693D01*
X36510442Y51698672D01*
X36510435Y51698685D01*
X36401001Y51862463D01*
X36400998Y51862467D01*
X36261716Y52001749D01*
X36261712Y52001752D01*
X36097934Y52111186D01*
X36097921Y52111193D01*
X36038177Y52135939D01*
X35983773Y52179780D01*
X35961708Y52246074D01*
X35978987Y52313773D01*
X36030124Y52361384D01*
X36085629Y52374500D01*
X37687985Y52374500D01*
X37755024Y52354815D01*
X37756876Y52353602D01*
X37868182Y52279229D01*
X37868195Y52279222D01*
X37980141Y52232853D01*
X37995672Y52226420D01*
X37995676Y52226420D01*
X37995677Y52226419D01*
X38131004Y52199500D01*
X38131007Y52199500D01*
X38268995Y52199500D01*
X38360041Y52217611D01*
X38404328Y52226420D01*
X38531811Y52279225D01*
X38646542Y52355886D01*
X38744114Y52453458D01*
X38820775Y52568189D01*
X38873580Y52695672D01*
X38894878Y52802744D01*
X38900500Y52831005D01*
X38900500Y52968996D01*
X38873581Y53104323D01*
X38873580Y53104324D01*
X38873580Y53104328D01*
X38873578Y53104333D01*
X38835589Y53196048D01*
X38828120Y53265517D01*
X38859395Y53327996D01*
X38919484Y53363648D01*
X38950150Y53367500D01*
X39046496Y53367500D01*
X39149527Y53383819D01*
X39227219Y53396124D01*
X39401245Y53452669D01*
X39564283Y53535741D01*
X39653417Y53600500D01*
X39712312Y53643289D01*
X39712314Y53643292D01*
X39712318Y53643294D01*
X39841706Y53772682D01*
X39841708Y53772686D01*
X39841711Y53772688D01*
X39912993Y53870801D01*
X39949259Y53920717D01*
X40032331Y54083755D01*
X40088876Y54257781D01*
X40102527Y54343969D01*
X40132456Y54407104D01*
X40191768Y54444035D01*
X40261630Y54443037D01*
X40319863Y54404427D01*
X40347473Y54343969D01*
X40361123Y54257785D01*
X40361123Y54257783D01*
X40361124Y54257781D01*
X40417669Y54083755D01*
X40492380Y53937126D01*
X40500743Y53920714D01*
X40608288Y53772688D01*
X40737687Y53643289D01*
X40872008Y53545701D01*
X40885717Y53535741D01*
X41048755Y53452669D01*
X41222781Y53396124D01*
X41290554Y53385390D01*
X41403504Y53367500D01*
X41403509Y53367500D01*
X41586496Y53367500D01*
X41689527Y53383819D01*
X41767219Y53396124D01*
X41941245Y53452669D01*
X42104283Y53535741D01*
X42193417Y53600500D01*
X42252312Y53643289D01*
X42252314Y53643292D01*
X42252318Y53643294D01*
X42381706Y53772682D01*
X42381708Y53772686D01*
X42381711Y53772688D01*
X42452993Y53870801D01*
X42489259Y53920717D01*
X42572331Y54083755D01*
X42628876Y54257781D01*
X42642780Y54345569D01*
X42672709Y54408702D01*
X42732020Y54445634D01*
X42801883Y54444636D01*
X42860116Y54406027D01*
X42887726Y54345568D01*
X42901611Y54257898D01*
X42958133Y54083943D01*
X43041169Y53920980D01*
X43054320Y53902877D01*
X43054321Y53902877D01*
X43545504Y54394060D01*
X43561619Y54333919D01*
X43628498Y54218080D01*
X43723080Y54123498D01*
X43838919Y54056619D01*
X43899058Y54040505D01*
X43407875Y53549323D01*
X43407875Y53549322D01*
X43425978Y53536170D01*
X43425980Y53536169D01*
X43588944Y53453134D01*
X43762897Y53396612D01*
X43943544Y53368000D01*
X44126456Y53368000D01*
X44307102Y53396612D01*
X44481055Y53453134D01*
X44644020Y53536170D01*
X44662123Y53549322D01*
X44662123Y53549323D01*
X44170941Y54040505D01*
X44231081Y54056619D01*
X44346920Y54123498D01*
X44441502Y54218080D01*
X44508381Y54333919D01*
X44524495Y54394059D01*
X45015677Y53902877D01*
X45015678Y53902877D01*
X45028830Y53920980D01*
X45111866Y54083945D01*
X45168388Y54257898D01*
X45182273Y54345567D01*
X45212202Y54408702D01*
X45271513Y54445634D01*
X45341375Y54444636D01*
X45399608Y54406027D01*
X45427219Y54345569D01*
X45441123Y54257784D01*
X45441124Y54257781D01*
X45497669Y54083755D01*
X45572380Y53937126D01*
X45580743Y53920714D01*
X45688288Y53772688D01*
X45817687Y53643289D01*
X45952008Y53545701D01*
X45965717Y53535741D01*
X46128755Y53452669D01*
X46302781Y53396124D01*
X46370554Y53385390D01*
X46483504Y53367500D01*
X46483509Y53367500D01*
X46666496Y53367500D01*
X46769527Y53383819D01*
X46847219Y53396124D01*
X47021245Y53452669D01*
X47184283Y53535741D01*
X47273417Y53600500D01*
X47332312Y53643289D01*
X47332314Y53643292D01*
X47332318Y53643294D01*
X47461706Y53772682D01*
X47461708Y53772686D01*
X47461711Y53772688D01*
X47532993Y53870801D01*
X47569259Y53920717D01*
X47652331Y54083755D01*
X47708876Y54257781D01*
X47727867Y54377688D01*
X47737500Y54438504D01*
X47737500Y54621497D01*
X47708876Y54802216D01*
X47708876Y54802217D01*
X47708876Y54802219D01*
X47652331Y54976245D01*
X47569259Y55139283D01*
X47556296Y55157125D01*
X47461711Y55287313D01*
X47332316Y55416708D01*
X47332311Y55416712D01*
X47183014Y55525182D01*
X47140348Y55580511D01*
X47134369Y55650125D01*
X47166974Y55711920D01*
X47227813Y55746277D01*
X47255899Y55749500D01*
X64625500Y55749500D01*
X64692539Y55729815D01*
X64738294Y55677011D01*
X64749500Y55625500D01*
X64749500Y32500000D01*
X56300000Y32500000D01*
X56300000Y18400000D01*
X64749500Y18400000D01*
X64749500Y374500D01*
X64729815Y307461D01*
X64677011Y261706D01*
X64625500Y250500D01*
X30000000Y250500D01*
X30000000Y4190702D01*
X35599500Y4190702D01*
X35599500Y2809299D01*
X35602401Y2772433D01*
X35602402Y2772427D01*
X35648254Y2614607D01*
X35648255Y2614604D01*
X35731917Y2473138D01*
X35731923Y2473130D01*
X35848129Y2356924D01*
X35848133Y2356921D01*
X35848135Y2356919D01*
X35989602Y2273256D01*
X36023420Y2263431D01*
X36147426Y2227403D01*
X36147429Y2227403D01*
X36147431Y2227402D01*
X36184306Y2224500D01*
X36184314Y2224500D01*
X37015686Y2224500D01*
X37015694Y2224500D01*
X37052569Y2227402D01*
X37052571Y2227403D01*
X37052573Y2227403D01*
X37094191Y2239495D01*
X37210398Y2273256D01*
X37351865Y2356919D01*
X37468081Y2473135D01*
X37551744Y2614602D01*
X37554265Y2623283D01*
X37591868Y2682169D01*
X37655340Y2711378D01*
X37724527Y2701636D01*
X37776445Y2657583D01*
X37823248Y2587538D01*
X37823251Y2587534D01*
X37962533Y2448252D01*
X37962537Y2448249D01*
X38126315Y2338815D01*
X38126328Y2338808D01*
X38308308Y2263431D01*
X38350000Y2255138D01*
X38350000Y3219670D01*
X38369745Y3199925D01*
X38455255Y3150556D01*
X38550630Y3125000D01*
X38649370Y3125000D01*
X38744745Y3150556D01*
X38830255Y3199925D01*
X38850000Y3219670D01*
X38850000Y2255138D01*
X38891690Y2263431D01*
X38891692Y2263431D01*
X39073671Y2338808D01*
X39073684Y2338815D01*
X39237462Y2448249D01*
X39237466Y2448252D01*
X39376748Y2587534D01*
X39376751Y2587538D01*
X39486185Y2751316D01*
X39486192Y2751329D01*
X39561569Y2933307D01*
X39561572Y2933319D01*
X39599999Y3126505D01*
X39600000Y3126508D01*
X39600000Y3250000D01*
X38880330Y3250000D01*
X38900075Y3269745D01*
X38949444Y3355255D01*
X38975000Y3450630D01*
X38975000Y3549370D01*
X38949444Y3644745D01*
X38900075Y3730255D01*
X38880330Y3750000D01*
X39600000Y3750000D01*
X39600000Y3873492D01*
X39599999Y3873496D01*
X39561572Y4066682D01*
X39561569Y4066694D01*
X39486192Y4248672D01*
X39486185Y4248685D01*
X39376751Y4412463D01*
X39376748Y4412467D01*
X39237466Y4551749D01*
X39237462Y4551752D01*
X39073684Y4661186D01*
X39073671Y4661193D01*
X38891691Y4736571D01*
X38891683Y4736573D01*
X38850000Y4744865D01*
X38850000Y3780330D01*
X38830255Y3800075D01*
X38744745Y3849444D01*
X38649370Y3875000D01*
X38550630Y3875000D01*
X38455255Y3849444D01*
X38369745Y3800075D01*
X38350000Y3780330D01*
X38350000Y4744864D01*
X38349999Y4744865D01*
X38308316Y4736573D01*
X38308308Y4736571D01*
X38126328Y4661193D01*
X38126315Y4661186D01*
X37962537Y4551752D01*
X37962533Y4551749D01*
X37823251Y4412467D01*
X37776445Y4342417D01*
X37722832Y4297613D01*
X37653507Y4288906D01*
X37590480Y4319061D01*
X37554266Y4376716D01*
X37551744Y4385398D01*
X37468081Y4526865D01*
X37468079Y4526867D01*
X37468076Y4526871D01*
X37351870Y4643077D01*
X37351862Y4643083D01*
X37210396Y4726745D01*
X37203235Y4729844D01*
X37204265Y4732225D01*
X37156000Y4763064D01*
X37126809Y4826544D01*
X37125500Y4844512D01*
X37125500Y6830969D01*
X37145185Y6898008D01*
X37161819Y6918650D01*
X37296628Y7053459D01*
X37609537Y7366368D01*
X37670858Y7399851D01*
X37673025Y7400302D01*
X37677417Y7401176D01*
X37804328Y7426420D01*
X37931811Y7479225D01*
X38046542Y7555886D01*
X38144114Y7653458D01*
X38220775Y7768189D01*
X38273580Y7895672D01*
X38300500Y8031007D01*
X38300500Y8168993D01*
X38300500Y8168996D01*
X38273581Y8304323D01*
X38273580Y8304324D01*
X38273580Y8304328D01*
X38273578Y8304333D01*
X38220778Y8431805D01*
X38220771Y8431818D01*
X38144114Y8546542D01*
X38144111Y8546546D01*
X38046545Y8644112D01*
X38046541Y8644115D01*
X37931817Y8720772D01*
X37931804Y8720779D01*
X37804332Y8773579D01*
X37804322Y8773582D01*
X37668995Y8800500D01*
X37668993Y8800500D01*
X37531007Y8800500D01*
X37531005Y8800500D01*
X37395677Y8773582D01*
X37395667Y8773579D01*
X37268195Y8720779D01*
X37268182Y8720772D01*
X37153458Y8644115D01*
X37153454Y8644112D01*
X37055888Y8546546D01*
X37055885Y8546542D01*
X36979228Y8431818D01*
X36979221Y8431805D01*
X36926421Y8304333D01*
X36926418Y8304323D01*
X36900301Y8173025D01*
X36867916Y8111114D01*
X36866365Y8109536D01*
X36277337Y7520507D01*
X36179496Y7422667D01*
X36179492Y7422662D01*
X36110311Y7302836D01*
X36106207Y7287517D01*
X36106207Y7287516D01*
X36074499Y7169182D01*
X36074499Y7020828D01*
X36074500Y7020815D01*
X36074500Y4844512D01*
X36054815Y4777473D01*
X36002011Y4731718D01*
X35995542Y4729315D01*
X35989603Y4726745D01*
X35848137Y4643083D01*
X35848129Y4643077D01*
X35731923Y4526871D01*
X35731917Y4526863D01*
X35648255Y4385397D01*
X35648254Y4385394D01*
X35602402Y4227574D01*
X35602401Y4227568D01*
X35599500Y4190702D01*
X30000000Y4190702D01*
X30000000Y7137096D01*
X30055885Y7053459D01*
X30055888Y7053455D01*
X30153454Y6955889D01*
X30153458Y6955886D01*
X30268182Y6879229D01*
X30268195Y6879222D01*
X30395667Y6826422D01*
X30395672Y6826420D01*
X30395676Y6826420D01*
X30395677Y6826419D01*
X30531004Y6799500D01*
X30531007Y6799500D01*
X30668995Y6799500D01*
X30760041Y6817611D01*
X30804328Y6826420D01*
X30931811Y6879225D01*
X31046542Y6955886D01*
X31144114Y7053458D01*
X31220775Y7168189D01*
X31273580Y7295672D01*
X31294303Y7399851D01*
X31300500Y7431005D01*
X31300500Y7568996D01*
X31273581Y7704323D01*
X31273580Y7704324D01*
X31273580Y7704328D01*
X31262607Y7730819D01*
X31220778Y7831805D01*
X31220771Y7831818D01*
X31144114Y7946542D01*
X31144111Y7946546D01*
X31046545Y8044112D01*
X31046537Y8044118D01*
X30931813Y8120774D01*
X30931809Y8120776D01*
X30902047Y8133104D01*
X30847644Y8176945D01*
X30825579Y8243240D01*
X30825500Y8247665D01*
X30825500Y29431969D01*
X30845185Y29499008D01*
X30897989Y29544763D01*
X30967147Y29554707D01*
X31030703Y29525682D01*
X31037180Y29519651D01*
X32921621Y27635209D01*
X34784400Y25772430D01*
X34784406Y25772425D01*
X41638181Y18918650D01*
X41671666Y18857327D01*
X41674500Y18830969D01*
X41674500Y17312016D01*
X41654815Y17244977D01*
X41653602Y17243125D01*
X41579228Y17131818D01*
X41579221Y17131805D01*
X41526421Y17004333D01*
X41526418Y17004323D01*
X41499500Y16868996D01*
X41499500Y16868993D01*
X41499500Y16731007D01*
X41499500Y16731005D01*
X41499499Y16731005D01*
X41526418Y16595678D01*
X41526421Y16595668D01*
X41579221Y16468196D01*
X41579228Y16468183D01*
X41655885Y16353459D01*
X41655888Y16353455D01*
X41753454Y16255889D01*
X41753458Y16255886D01*
X41868182Y16179229D01*
X41868195Y16179222D01*
X41995667Y16126422D01*
X41995672Y16126420D01*
X41995676Y16126420D01*
X41995677Y16126419D01*
X42131004Y16099500D01*
X42131007Y16099500D01*
X42268995Y16099500D01*
X42360041Y16117611D01*
X42404328Y16126420D01*
X42531811Y16179225D01*
X42646542Y16255886D01*
X42744114Y16353458D01*
X42820775Y16468189D01*
X42873580Y16595672D01*
X42874988Y16602753D01*
X42907371Y16664664D01*
X42968086Y16699240D01*
X42972397Y16700178D01*
X43104328Y16726420D01*
X43231811Y16779225D01*
X43346542Y16855886D01*
X43444114Y16953458D01*
X43520775Y17068189D01*
X43573580Y17195672D01*
X43574988Y17202753D01*
X43607371Y17264664D01*
X43668086Y17299240D01*
X43672397Y17300178D01*
X43804328Y17326420D01*
X43931811Y17379225D01*
X44046542Y17455886D01*
X44144114Y17553458D01*
X44220775Y17668189D01*
X44273580Y17795672D01*
X44300500Y17931007D01*
X44300500Y18068993D01*
X44300500Y18068996D01*
X44273581Y18204323D01*
X44273580Y18204324D01*
X44273580Y18204328D01*
X44273578Y18204333D01*
X44220778Y18331805D01*
X44220771Y18331818D01*
X44146398Y18443125D01*
X44125520Y18509803D01*
X44125500Y18512016D01*
X44125500Y22569181D01*
X44125500Y22569183D01*
X44089688Y22702836D01*
X44020505Y22822665D01*
X43922665Y22920505D01*
X43922664Y22920506D01*
X43918334Y22924836D01*
X43918323Y22924846D01*
X36531109Y30312060D01*
X36497624Y30373383D01*
X36502608Y30443075D01*
X36544480Y30499008D01*
X36599393Y30522214D01*
X36605537Y30523187D01*
X36614155Y30524552D01*
X36687214Y30536123D01*
X36687214Y30536124D01*
X36687219Y30536124D01*
X36861245Y30592669D01*
X37024283Y30675741D01*
X37162458Y30776130D01*
X37172312Y30783289D01*
X37172314Y30783292D01*
X37172318Y30783294D01*
X37301706Y30912682D01*
X37301708Y30912686D01*
X37301711Y30912688D01*
X37348873Y30977603D01*
X37409259Y31060717D01*
X37492331Y31223755D01*
X37548876Y31397781D01*
X37562527Y31483969D01*
X37592456Y31547104D01*
X37651768Y31584035D01*
X37721630Y31583037D01*
X37779863Y31544427D01*
X37807473Y31483969D01*
X37821123Y31397785D01*
X37821123Y31397783D01*
X37821124Y31397781D01*
X37877669Y31223755D01*
X37891495Y31196619D01*
X37960743Y31060714D01*
X38068288Y30912688D01*
X38197687Y30783289D01*
X38327023Y30689323D01*
X38345717Y30675741D01*
X38508755Y30592669D01*
X38682781Y30536124D01*
X38750554Y30525390D01*
X38863504Y30507500D01*
X38863509Y30507500D01*
X39046496Y30507500D01*
X39154155Y30524552D01*
X39227219Y30536124D01*
X39401245Y30592669D01*
X39564283Y30675741D01*
X39702458Y30776130D01*
X39712312Y30783289D01*
X39712314Y30783292D01*
X39712318Y30783294D01*
X39841706Y30912682D01*
X39841708Y30912686D01*
X39841711Y30912688D01*
X39888873Y30977603D01*
X39949259Y31060717D01*
X40032331Y31223755D01*
X40088876Y31397781D01*
X40102527Y31483969D01*
X40132456Y31547104D01*
X40191768Y31584035D01*
X40261630Y31583037D01*
X40319863Y31544427D01*
X40347473Y31483969D01*
X40361123Y31397785D01*
X40361123Y31397783D01*
X40361124Y31397781D01*
X40417669Y31223755D01*
X40431495Y31196619D01*
X40500743Y31060714D01*
X40608288Y30912688D01*
X40737687Y30783289D01*
X40867023Y30689323D01*
X40885717Y30675741D01*
X41048755Y30592669D01*
X41222781Y30536124D01*
X41290554Y30525390D01*
X41403504Y30507500D01*
X41403509Y30507500D01*
X41586496Y30507500D01*
X41694155Y30524552D01*
X41767219Y30536124D01*
X41941245Y30592669D01*
X42104283Y30675741D01*
X42242458Y30776130D01*
X42252312Y30783289D01*
X42252314Y30783292D01*
X42252318Y30783294D01*
X42381706Y30912682D01*
X42381708Y30912686D01*
X42381711Y30912688D01*
X42428873Y30977603D01*
X42489259Y31060717D01*
X42572331Y31223755D01*
X42628876Y31397781D01*
X42642780Y31485569D01*
X42672709Y31548702D01*
X42732020Y31585634D01*
X42801883Y31584636D01*
X42860116Y31546027D01*
X42887726Y31485568D01*
X42901611Y31397898D01*
X42958133Y31223943D01*
X43041169Y31060980D01*
X43054320Y31042877D01*
X43054321Y31042877D01*
X43545504Y31534060D01*
X43561619Y31473919D01*
X43628498Y31358080D01*
X43723080Y31263498D01*
X43838919Y31196619D01*
X43899058Y31180505D01*
X43407875Y30689323D01*
X43407875Y30689322D01*
X43425978Y30676170D01*
X43425980Y30676169D01*
X43588944Y30593134D01*
X43762897Y30536612D01*
X43943544Y30508000D01*
X44126456Y30508000D01*
X44307102Y30536612D01*
X44481055Y30593134D01*
X44644020Y30676170D01*
X44662123Y30689322D01*
X44662123Y30689323D01*
X44170941Y31180505D01*
X44231081Y31196619D01*
X44346920Y31263498D01*
X44441502Y31358080D01*
X44508381Y31473919D01*
X44524495Y31534059D01*
X45015677Y31042877D01*
X45015678Y31042877D01*
X45028830Y31060980D01*
X45111866Y31223945D01*
X45168388Y31397898D01*
X45182273Y31485567D01*
X45212202Y31548702D01*
X45271513Y31585634D01*
X45341375Y31584636D01*
X45399608Y31546027D01*
X45427219Y31485569D01*
X45441123Y31397784D01*
X45441124Y31397781D01*
X45497669Y31223755D01*
X45511495Y31196619D01*
X45580743Y31060714D01*
X45688288Y30912688D01*
X45817687Y30783289D01*
X45947023Y30689323D01*
X45965717Y30675741D01*
X46128755Y30592669D01*
X46302781Y30536124D01*
X46370554Y30525390D01*
X46483504Y30507500D01*
X46483509Y30507500D01*
X46666496Y30507500D01*
X46774155Y30524552D01*
X46847219Y30536124D01*
X47021245Y30592669D01*
X47184283Y30675741D01*
X47322458Y30776130D01*
X47332312Y30783289D01*
X47332314Y30783292D01*
X47332318Y30783294D01*
X47461706Y30912682D01*
X47461708Y30912686D01*
X47461711Y30912688D01*
X47508873Y30977603D01*
X47569259Y31060717D01*
X47652331Y31223755D01*
X47708876Y31397781D01*
X47723105Y31487619D01*
X47737500Y31578504D01*
X47737500Y31761497D01*
X47715085Y31903017D01*
X47708876Y31942219D01*
X47652331Y32116245D01*
X47569259Y32279283D01*
X47556296Y32297125D01*
X47461711Y32427313D01*
X47332312Y32556712D01*
X47184286Y32664257D01*
X47184285Y32664258D01*
X47184283Y32664259D01*
X47021245Y32747331D01*
X46847219Y32803876D01*
X46847217Y32803877D01*
X46847215Y32803877D01*
X46666496Y32832500D01*
X46666491Y32832500D01*
X46483509Y32832500D01*
X46483504Y32832500D01*
X46302784Y32803877D01*
X46128752Y32747330D01*
X45965713Y32664257D01*
X45817687Y32556712D01*
X45688288Y32427313D01*
X45580743Y32279287D01*
X45497670Y32116248D01*
X45441123Y31942217D01*
X45427219Y31854432D01*
X45397289Y31791297D01*
X45337977Y31754367D01*
X45268115Y31755365D01*
X45209882Y31793976D01*
X45182273Y31854434D01*
X45168388Y31942103D01*
X45111866Y32116056D01*
X45028831Y32279020D01*
X45028830Y32279022D01*
X45015677Y32297125D01*
X44524494Y31805943D01*
X44508381Y31866081D01*
X44441502Y31981920D01*
X44346920Y32076502D01*
X44231081Y32143381D01*
X44170941Y32159496D01*
X44662123Y32650679D01*
X44662123Y32650680D01*
X44644020Y32663831D01*
X44481057Y32746867D01*
X44307102Y32803389D01*
X44126456Y32832000D01*
X43943544Y32832000D01*
X43762897Y32803389D01*
X43588944Y32746867D01*
X43425981Y32663833D01*
X43407875Y32650680D01*
X43407875Y32650679D01*
X43899058Y32159496D01*
X43838919Y32143381D01*
X43723080Y32076502D01*
X43628498Y31981920D01*
X43561619Y31866081D01*
X43545504Y31805942D01*
X43054321Y32297125D01*
X43054320Y32297125D01*
X43041167Y32279019D01*
X42958133Y32116056D01*
X42901611Y31942103D01*
X42887726Y31854433D01*
X42857796Y31791298D01*
X42798485Y31754367D01*
X42728622Y31755365D01*
X42670390Y31793975D01*
X42642780Y31854433D01*
X42635085Y31903017D01*
X42628876Y31942219D01*
X42572331Y32116245D01*
X42489259Y32279283D01*
X42476296Y32297125D01*
X42381711Y32427313D01*
X42252312Y32556712D01*
X42104286Y32664257D01*
X42104285Y32664258D01*
X42104283Y32664259D01*
X41941245Y32747331D01*
X41767219Y32803876D01*
X41767217Y32803877D01*
X41767215Y32803877D01*
X41586496Y32832500D01*
X41586491Y32832500D01*
X41403509Y32832500D01*
X41403504Y32832500D01*
X41222784Y32803877D01*
X41048752Y32747330D01*
X40885713Y32664257D01*
X40737687Y32556712D01*
X40608288Y32427313D01*
X40500743Y32279287D01*
X40417670Y32116248D01*
X40361123Y31942216D01*
X40347473Y31856032D01*
X40317544Y31792897D01*
X40258232Y31755966D01*
X40188370Y31756964D01*
X40130137Y31795574D01*
X40102527Y31856032D01*
X40095085Y31903017D01*
X40088876Y31942219D01*
X40032331Y32116245D01*
X39949259Y32279283D01*
X39936296Y32297125D01*
X39841711Y32427313D01*
X39712312Y32556712D01*
X39564286Y32664257D01*
X39564285Y32664258D01*
X39564283Y32664259D01*
X39401245Y32747331D01*
X39227219Y32803876D01*
X39227217Y32803877D01*
X39227215Y32803877D01*
X39046496Y32832500D01*
X39046491Y32832500D01*
X38863509Y32832500D01*
X38863504Y32832500D01*
X38682784Y32803877D01*
X38508752Y32747330D01*
X38345713Y32664257D01*
X38197687Y32556712D01*
X38068288Y32427313D01*
X37960743Y32279287D01*
X37877670Y32116248D01*
X37821123Y31942216D01*
X37807473Y31856032D01*
X37777544Y31792897D01*
X37718232Y31755966D01*
X37648370Y31756964D01*
X37590137Y31795574D01*
X37562527Y31856032D01*
X37555085Y31903017D01*
X37548876Y31942219D01*
X37492331Y32116245D01*
X37409259Y32279283D01*
X37396296Y32297125D01*
X37301711Y32427313D01*
X37172312Y32556712D01*
X37024286Y32664257D01*
X37024285Y32664258D01*
X37024283Y32664259D01*
X36861245Y32747331D01*
X36687219Y32803876D01*
X36687217Y32803877D01*
X36687215Y32803877D01*
X36506496Y32832500D01*
X36506491Y32832500D01*
X36323509Y32832500D01*
X36323504Y32832500D01*
X36142784Y32803877D01*
X35968752Y32747330D01*
X35805710Y32664256D01*
X35801927Y32661507D01*
X35772501Y32651011D01*
X35743769Y32638707D01*
X35739855Y32639366D01*
X35736119Y32638032D01*
X35705684Y32645112D01*
X35674867Y32650294D01*
X35671930Y32652964D01*
X35668067Y32653862D01*
X35646291Y32676272D01*
X35623167Y32697293D01*
X35621042Y32702256D01*
X35619375Y32703971D01*
X35609274Y32729738D01*
X35601152Y32760051D01*
X35591770Y32795066D01*
X35589688Y32802836D01*
X35520505Y32922665D01*
X35422665Y33020505D01*
X35422664Y33020506D01*
X35418334Y33024836D01*
X35418323Y33024846D01*
X34467575Y33975594D01*
X34467573Y33975597D01*
X34362666Y34080504D01*
X34362661Y34080508D01*
X34242840Y34149687D01*
X34214592Y34157257D01*
X34214591Y34157257D01*
X34109183Y34185501D01*
X33970817Y34185501D01*
X33963221Y34185501D01*
X33963205Y34185500D01*
X20701795Y34185500D01*
X20701779Y34185501D01*
X20694183Y34185501D01*
X20555817Y34185501D01*
X20450409Y34157258D01*
X20450408Y34157257D01*
X20422164Y34149688D01*
X20352982Y34109746D01*
X20302336Y34080506D01*
X20302333Y34080504D01*
X20204493Y33982663D01*
X19050380Y32828551D01*
X18989057Y32795066D01*
X18924386Y32798299D01*
X18907219Y32803876D01*
X18726496Y32832500D01*
X18726491Y32832500D01*
X18543509Y32832500D01*
X18543504Y32832500D01*
X18362784Y32803877D01*
X18188752Y32747330D01*
X18025713Y32664257D01*
X17877687Y32556712D01*
X17748288Y32427313D01*
X17640743Y32279287D01*
X17557670Y32116248D01*
X17501123Y31942216D01*
X17487473Y31856032D01*
X17457544Y31792897D01*
X17398232Y31755966D01*
X17328370Y31756964D01*
X17270137Y31795574D01*
X17242527Y31856032D01*
X17235085Y31903017D01*
X17228876Y31942219D01*
X17172331Y32116245D01*
X17089259Y32279283D01*
X17076296Y32297125D01*
X16981711Y32427313D01*
X16852312Y32556712D01*
X16704286Y32664257D01*
X16704285Y32664258D01*
X16704283Y32664259D01*
X16541245Y32747331D01*
X16367219Y32803876D01*
X16367217Y32803877D01*
X16367215Y32803877D01*
X16186496Y32832500D01*
X16186491Y32832500D01*
X16003509Y32832500D01*
X16003504Y32832500D01*
X15822784Y32803877D01*
X15648752Y32747330D01*
X15485713Y32664257D01*
X15337687Y32556712D01*
X15208288Y32427313D01*
X15100743Y32279287D01*
X15017670Y32116248D01*
X14961123Y31942216D01*
X14947473Y31856032D01*
X14917544Y31792897D01*
X14858232Y31755966D01*
X14788370Y31756964D01*
X14730137Y31795574D01*
X14702527Y31856032D01*
X14695085Y31903017D01*
X14688876Y31942219D01*
X14632331Y32116245D01*
X14549259Y32279283D01*
X14536296Y32297125D01*
X14441711Y32427313D01*
X14312312Y32556712D01*
X14164286Y32664257D01*
X14164285Y32664258D01*
X14164283Y32664259D01*
X14001245Y32747331D01*
X13827219Y32803876D01*
X13827217Y32803877D01*
X13827215Y32803877D01*
X13646496Y32832500D01*
X13646491Y32832500D01*
X13463509Y32832500D01*
X13463504Y32832500D01*
X13282784Y32803877D01*
X13108752Y32747330D01*
X12945713Y32664257D01*
X12797687Y32556712D01*
X12668288Y32427313D01*
X12560743Y32279287D01*
X12477670Y32116248D01*
X12421123Y31942216D01*
X12407473Y31856032D01*
X12377544Y31792897D01*
X12318232Y31755966D01*
X12248370Y31756964D01*
X12190137Y31795574D01*
X12162527Y31856032D01*
X12155085Y31903017D01*
X12148876Y31942219D01*
X12092331Y32116245D01*
X12009259Y32279283D01*
X11996296Y32297125D01*
X11901711Y32427313D01*
X11772312Y32556712D01*
X11624286Y32664257D01*
X11624285Y32664258D01*
X11624283Y32664259D01*
X11461245Y32747331D01*
X11287219Y32803876D01*
X11287217Y32803877D01*
X11287215Y32803877D01*
X11106496Y32832500D01*
X11106491Y32832500D01*
X10923509Y32832500D01*
X10923504Y32832500D01*
X10742784Y32803877D01*
X10568752Y32747330D01*
X10405713Y32664257D01*
X10257687Y32556712D01*
X10128288Y32427313D01*
X10020743Y32279287D01*
X9937670Y32116248D01*
X9879619Y31937586D01*
X9877548Y31938259D01*
X9847224Y31885524D01*
X9785177Y31853401D01*
X9715612Y31859922D01*
X9660616Y31903017D01*
X9637650Y31969004D01*
X9637499Y31975119D01*
X9637499Y32463518D01*
X9631677Y32500278D01*
X9622646Y32557304D01*
X9565050Y32670342D01*
X9565046Y32670346D01*
X9565045Y32670348D01*
X9475347Y32760046D01*
X9475344Y32760048D01*
X9475342Y32760050D01*
X9389327Y32803877D01*
X9362301Y32817648D01*
X9268524Y32832500D01*
X7681482Y32832500D01*
X7600519Y32819677D01*
X7587696Y32817646D01*
X7474658Y32760050D01*
X7474657Y32760049D01*
X7474652Y32760046D01*
X7384954Y32670348D01*
X7384951Y32670343D01*
X7384950Y32670342D01*
X7374932Y32650680D01*
X7327352Y32557302D01*
X7312500Y32463525D01*
X7312500Y30876483D01*
X7320771Y30824262D01*
X7327354Y30782696D01*
X7384950Y30669658D01*
X7384952Y30669656D01*
X7384954Y30669653D01*
X7474652Y30579955D01*
X7474654Y30579954D01*
X7474658Y30579950D01*
X7583382Y30524552D01*
X7587698Y30522353D01*
X7681475Y30507501D01*
X7681481Y30507500D01*
X9268518Y30507501D01*
X9362304Y30522354D01*
X9475342Y30579950D01*
X9565050Y30669658D01*
X9622646Y30782696D01*
X9622646Y30782698D01*
X9622647Y30782699D01*
X9637499Y30876476D01*
X9637500Y30876481D01*
X9637499Y31364884D01*
X9657183Y31431920D01*
X9709987Y31477675D01*
X9779146Y31487619D01*
X9842702Y31458594D01*
X9878946Y31402196D01*
X9879619Y31402414D01*
X9880450Y31399857D01*
X9880476Y31399816D01*
X9880535Y31399595D01*
X9881123Y31397784D01*
X9881124Y31397781D01*
X9937669Y31223755D01*
X9951495Y31196619D01*
X10020743Y31060714D01*
X10128288Y30912688D01*
X10257687Y30783289D01*
X10387023Y30689323D01*
X10405717Y30675741D01*
X10568755Y30592669D01*
X10742781Y30536124D01*
X10810554Y30525390D01*
X10923504Y30507500D01*
X10923509Y30507500D01*
X11106496Y30507500D01*
X11214155Y30524552D01*
X11287219Y30536124D01*
X11461245Y30592669D01*
X11624283Y30675741D01*
X11762458Y30776130D01*
X11772312Y30783289D01*
X11772314Y30783292D01*
X11772318Y30783294D01*
X11901706Y30912682D01*
X11901708Y30912686D01*
X11901711Y30912688D01*
X11948873Y30977603D01*
X12009259Y31060717D01*
X12092331Y31223755D01*
X12148876Y31397781D01*
X12162527Y31483969D01*
X12192456Y31547104D01*
X12251768Y31584035D01*
X12321630Y31583037D01*
X12379863Y31544427D01*
X12407473Y31483969D01*
X12421123Y31397785D01*
X12421123Y31397783D01*
X12421124Y31397781D01*
X12477669Y31223755D01*
X12491495Y31196619D01*
X12560743Y31060714D01*
X12668288Y30912688D01*
X12797687Y30783289D01*
X12927023Y30689323D01*
X12945717Y30675741D01*
X13108755Y30592669D01*
X13282781Y30536124D01*
X13350554Y30525390D01*
X13463504Y30507500D01*
X13463509Y30507500D01*
X13646496Y30507500D01*
X13754155Y30524552D01*
X13827219Y30536124D01*
X14001245Y30592669D01*
X14164283Y30675741D01*
X14302458Y30776130D01*
X14312312Y30783289D01*
X14312314Y30783292D01*
X14312318Y30783294D01*
X14441706Y30912682D01*
X14441708Y30912686D01*
X14441711Y30912688D01*
X14488873Y30977603D01*
X14549259Y31060717D01*
X14632331Y31223755D01*
X14688876Y31397781D01*
X14702527Y31483969D01*
X14732456Y31547104D01*
X14791768Y31584035D01*
X14861630Y31583037D01*
X14919863Y31544427D01*
X14947473Y31483969D01*
X14961123Y31397785D01*
X14961123Y31397783D01*
X14961124Y31397781D01*
X15017669Y31223755D01*
X15031495Y31196619D01*
X15100743Y31060714D01*
X15208288Y30912688D01*
X15208294Y30912682D01*
X15337682Y30783294D01*
X15485717Y30675741D01*
X15501795Y30667549D01*
X15552590Y30619578D01*
X15569500Y30557065D01*
X15569500Y27500531D01*
X15549815Y27433492D01*
X15548602Y27431640D01*
X15487286Y27339876D01*
X15487279Y27339863D01*
X15434479Y27212391D01*
X15434476Y27212381D01*
X15407558Y27077054D01*
X15407558Y27077051D01*
X15407558Y26939065D01*
X15407558Y26939063D01*
X15407557Y26939063D01*
X15434476Y26803736D01*
X15434479Y26803726D01*
X15487279Y26676254D01*
X15487286Y26676241D01*
X15563943Y26561517D01*
X15563946Y26561513D01*
X15661512Y26463947D01*
X15661516Y26463944D01*
X15776240Y26387287D01*
X15776253Y26387280D01*
X15903725Y26334480D01*
X15903730Y26334478D01*
X15903734Y26334478D01*
X15903735Y26334477D01*
X16039062Y26307558D01*
X16039065Y26307558D01*
X16177053Y26307558D01*
X16268099Y26325669D01*
X16312386Y26334478D01*
X16439869Y26387283D01*
X16554600Y26463944D01*
X16652172Y26561516D01*
X16728833Y26676247D01*
X16781638Y26803730D01*
X16808558Y26939065D01*
X16808558Y27077051D01*
X16808558Y27077054D01*
X16781639Y27212381D01*
X16781638Y27212382D01*
X16781638Y27212386D01*
X16769601Y27241446D01*
X16728836Y27339863D01*
X16728829Y27339876D01*
X16652168Y27454606D01*
X16648646Y27458898D01*
X16621333Y27523208D01*
X16620500Y27537561D01*
X16620500Y30557065D01*
X16640185Y30624104D01*
X16688204Y30667549D01*
X16704283Y30675741D01*
X16852318Y30783294D01*
X16981706Y30912682D01*
X16981708Y30912686D01*
X16981711Y30912688D01*
X17028873Y30977603D01*
X17089259Y31060717D01*
X17172331Y31223755D01*
X17228876Y31397781D01*
X17242527Y31483969D01*
X17272456Y31547104D01*
X17331768Y31584035D01*
X17401630Y31583037D01*
X17459863Y31544427D01*
X17487473Y31483969D01*
X17501123Y31397785D01*
X17501123Y31397783D01*
X17501124Y31397781D01*
X17557669Y31223755D01*
X17571495Y31196619D01*
X17640743Y31060714D01*
X17748288Y30912688D01*
X17877687Y30783289D01*
X18007023Y30689323D01*
X18025717Y30675741D01*
X18188755Y30592669D01*
X18362781Y30536124D01*
X18430554Y30525390D01*
X18543504Y30507500D01*
X18543509Y30507500D01*
X18726496Y30507500D01*
X18834155Y30524552D01*
X18907219Y30536124D01*
X19081245Y30592669D01*
X19244283Y30675741D01*
X19382458Y30776130D01*
X19392312Y30783289D01*
X19392314Y30783292D01*
X19392318Y30783294D01*
X19521706Y30912682D01*
X19521708Y30912686D01*
X19521711Y30912688D01*
X19568873Y30977603D01*
X19629259Y31060717D01*
X19712331Y31223755D01*
X19768876Y31397781D01*
X19782527Y31483969D01*
X19812456Y31547104D01*
X19871768Y31584035D01*
X19941630Y31583037D01*
X19999863Y31544427D01*
X20027473Y31483969D01*
X20041123Y31397785D01*
X20041123Y31397783D01*
X20041124Y31397781D01*
X20097669Y31223755D01*
X20111495Y31196619D01*
X20180743Y31060714D01*
X20288288Y30912688D01*
X20417687Y30783289D01*
X20547023Y30689323D01*
X20565717Y30675741D01*
X20728755Y30592669D01*
X20902781Y30536124D01*
X20970554Y30525390D01*
X21083504Y30507500D01*
X21083509Y30507500D01*
X21266496Y30507500D01*
X21374155Y30524552D01*
X21447219Y30536124D01*
X21621245Y30592669D01*
X21784283Y30675741D01*
X21922458Y30776130D01*
X21932312Y30783289D01*
X21932314Y30783292D01*
X21932318Y30783294D01*
X22061706Y30912682D01*
X22061708Y30912686D01*
X22061711Y30912688D01*
X22108873Y30977603D01*
X22169259Y31060717D01*
X22252331Y31223755D01*
X22308876Y31397781D01*
X22322527Y31483969D01*
X22352456Y31547104D01*
X22411768Y31584035D01*
X22481630Y31583037D01*
X22539863Y31544427D01*
X22567473Y31483969D01*
X22581123Y31397785D01*
X22581123Y31397783D01*
X22581124Y31397781D01*
X22637669Y31223755D01*
X22651495Y31196619D01*
X22720743Y31060714D01*
X22828288Y30912688D01*
X22957687Y30783289D01*
X23087023Y30689323D01*
X23105717Y30675741D01*
X23268755Y30592669D01*
X23442781Y30536124D01*
X23510554Y30525390D01*
X23623504Y30507500D01*
X23623509Y30507500D01*
X23806496Y30507500D01*
X23914155Y30524552D01*
X23987219Y30536124D01*
X24161245Y30592669D01*
X24324283Y30675741D01*
X24462458Y30776130D01*
X24472312Y30783289D01*
X24472314Y30783292D01*
X24472318Y30783294D01*
X24601706Y30912682D01*
X24601708Y30912686D01*
X24601711Y30912688D01*
X24648873Y30977603D01*
X24709259Y31060717D01*
X24792331Y31223755D01*
X24848876Y31397781D01*
X24862527Y31483969D01*
X24892456Y31547104D01*
X24951768Y31584035D01*
X25021630Y31583037D01*
X25079863Y31544427D01*
X25107473Y31483969D01*
X25121123Y31397785D01*
X25121123Y31397783D01*
X25121124Y31397781D01*
X25177669Y31223755D01*
X25191495Y31196619D01*
X25260743Y31060714D01*
X25368288Y30912688D01*
X25497687Y30783289D01*
X25627023Y30689323D01*
X25645717Y30675741D01*
X25808755Y30592669D01*
X25982781Y30536124D01*
X26050554Y30525390D01*
X26163504Y30507500D01*
X26163509Y30507500D01*
X26346496Y30507500D01*
X26454155Y30524552D01*
X26527219Y30536124D01*
X26544379Y30541701D01*
X26614220Y30543697D01*
X26670380Y30511451D01*
X27100154Y30081677D01*
X27100164Y30081666D01*
X27104494Y30077336D01*
X27104495Y30077335D01*
X27202335Y29979495D01*
X27202337Y29979494D01*
X27202338Y29979493D01*
X27262249Y29944904D01*
X27322164Y29910312D01*
X27455817Y29874500D01*
X29650500Y29874500D01*
X29717539Y29854815D01*
X29763294Y29802011D01*
X29774500Y29750500D01*
X29774500Y25100000D01*
X250500Y25100000D01*
X250500Y36871289D01*
X11549500Y36871289D01*
X11549500Y36628712D01*
X11581161Y36388215D01*
X11643947Y36153896D01*
X11715413Y35981362D01*
X11736776Y35929788D01*
X11858064Y35719711D01*
X11858066Y35719708D01*
X11858067Y35719707D01*
X12005733Y35527264D01*
X12005739Y35527257D01*
X12177256Y35355740D01*
X12177263Y35355734D01*
X12185166Y35349670D01*
X12369711Y35208064D01*
X12579788Y35086776D01*
X12803900Y34993946D01*
X13038211Y34931162D01*
X13218586Y34907416D01*
X13278711Y34899500D01*
X13278712Y34899500D01*
X13521289Y34899500D01*
X13569388Y34905833D01*
X13761789Y34931162D01*
X13996100Y34993946D01*
X14220212Y35086776D01*
X14244726Y35100929D01*
X15230000Y35100929D01*
X15230000Y34849072D01*
X15269397Y34600331D01*
X15347219Y34360816D01*
X15461557Y34136417D01*
X15535748Y34034303D01*
X15535748Y34034302D01*
X16114152Y34612707D01*
X16121049Y34596058D01*
X16208599Y34465030D01*
X16320030Y34353599D01*
X16451058Y34266049D01*
X16467705Y34259154D01*
X15889300Y33680750D01*
X15991416Y33606558D01*
X16215815Y33492220D01*
X16455330Y33414398D01*
X16704072Y33375000D01*
X16955928Y33375000D01*
X17204669Y33414398D01*
X17444184Y33492220D01*
X17668575Y33606554D01*
X17668581Y33606558D01*
X17770697Y33680750D01*
X17770698Y33680750D01*
X17192294Y34259154D01*
X17208942Y34266049D01*
X17339970Y34353599D01*
X17451401Y34465030D01*
X17538951Y34596058D01*
X17545846Y34612706D01*
X18124250Y34034302D01*
X18124250Y34034303D01*
X18198442Y34136419D01*
X18198446Y34136425D01*
X18312780Y34360816D01*
X18390602Y34600331D01*
X18430000Y34849072D01*
X18430000Y35100929D01*
X18390602Y35349670D01*
X18312780Y35589185D01*
X18198442Y35813584D01*
X18124250Y35915699D01*
X18124250Y35915700D01*
X17545846Y35337296D01*
X17538951Y35353942D01*
X17451401Y35484970D01*
X17339970Y35596401D01*
X17208942Y35683951D01*
X17192292Y35690848D01*
X17770697Y36269251D01*
X17770697Y36269252D01*
X17691316Y36326926D01*
X21435500Y36326926D01*
X21435500Y36153075D01*
X21462697Y35981361D01*
X21462697Y35981358D01*
X21516418Y35816022D01*
X21565491Y35719711D01*
X21595347Y35661116D01*
X21697535Y35520467D01*
X21820467Y35397535D01*
X21961116Y35295347D01*
X22116019Y35216420D01*
X22116021Y35216419D01*
X22281358Y35162698D01*
X22281359Y35162698D01*
X22281362Y35162697D01*
X22453074Y35135500D01*
X22453075Y35135500D01*
X22626925Y35135500D01*
X22626926Y35135500D01*
X22798638Y35162697D01*
X22798641Y35162698D01*
X22798642Y35162698D01*
X22963978Y35216419D01*
X22963978Y35216420D01*
X22963981Y35216420D01*
X23118884Y35295347D01*
X23259533Y35397535D01*
X23382465Y35520467D01*
X23484653Y35661116D01*
X23563580Y35816019D01*
X23617303Y35981362D01*
X23644500Y36153074D01*
X23644500Y36326926D01*
X23617303Y36498638D01*
X23617302Y36498642D01*
X23617302Y36498643D01*
X23563581Y36663979D01*
X23484652Y36818885D01*
X23382465Y36959533D01*
X23259533Y37082465D01*
X23118884Y37184653D01*
X22963981Y37263580D01*
X22963980Y37263581D01*
X22963975Y37263583D01*
X22963974Y37263584D01*
X22952430Y37267335D01*
X22894756Y37306775D01*
X22867561Y37371135D01*
X22879478Y37439980D01*
X22926724Y37491454D01*
X22952440Y37503197D01*
X22963794Y37506886D01*
X23118624Y37585776D01*
X23125600Y37590847D01*
X22628585Y38087863D01*
X22713694Y38110667D01*
X22816306Y38169910D01*
X22900090Y38253694D01*
X22959333Y38356306D01*
X22982138Y38441415D01*
X23479153Y37944400D01*
X23484224Y37951376D01*
X23563115Y38106207D01*
X23616816Y38271479D01*
X23644000Y38443108D01*
X23644000Y38616893D01*
X23616816Y38788522D01*
X23563115Y38953794D01*
X23484228Y39108618D01*
X23479153Y39115602D01*
X22982137Y38618586D01*
X22959333Y38703694D01*
X22900090Y38806306D01*
X22816306Y38890090D01*
X22713694Y38949333D01*
X22628585Y38972139D01*
X23125601Y39469154D01*
X23125600Y39469156D01*
X23118626Y39474223D01*
X23118624Y39474224D01*
X22963793Y39553116D01*
X22798521Y39606817D01*
X22626892Y39634000D01*
X22453108Y39634000D01*
X22281478Y39606817D01*
X22116206Y39553116D01*
X21961375Y39474225D01*
X21954398Y39469156D01*
X21954398Y39469155D01*
X22451415Y38972139D01*
X22366306Y38949333D01*
X22263694Y38890090D01*
X22179910Y38806306D01*
X22120667Y38703694D01*
X22097861Y38618586D01*
X21600845Y39115602D01*
X21600844Y39115602D01*
X21595775Y39108625D01*
X21516884Y38953794D01*
X21463183Y38788522D01*
X21436000Y38616893D01*
X21436000Y38443108D01*
X21463183Y38271479D01*
X21516884Y38106207D01*
X21595776Y37951376D01*
X21595777Y37951374D01*
X21600844Y37944400D01*
X21600846Y37944399D01*
X22097861Y38441415D01*
X22120667Y38356306D01*
X22179910Y38253694D01*
X22263694Y38169910D01*
X22366306Y38110667D01*
X22451414Y38087863D01*
X21954398Y37590847D01*
X21961382Y37585772D01*
X22116207Y37506885D01*
X22127561Y37503196D01*
X22185237Y37463760D01*
X22212437Y37399402D01*
X22200525Y37330556D01*
X22153282Y37279078D01*
X22127572Y37267335D01*
X22116020Y37263581D01*
X21961115Y37184653D01*
X21880869Y37126351D01*
X21820467Y37082465D01*
X21820465Y37082463D01*
X21820464Y37082463D01*
X21697537Y36959536D01*
X21697537Y36959535D01*
X21697535Y36959533D01*
X21653649Y36899131D01*
X21595347Y36818885D01*
X21516418Y36663979D01*
X21462697Y36498643D01*
X21462697Y36498640D01*
X21435500Y36326926D01*
X17691316Y36326926D01*
X17668583Y36343443D01*
X17444184Y36457781D01*
X17204669Y36535603D01*
X16955928Y36575000D01*
X16704072Y36575000D01*
X16455330Y36535603D01*
X16215815Y36457781D01*
X15991413Y36343441D01*
X15889301Y36269253D01*
X15889300Y36269252D01*
X16467705Y35690847D01*
X16451058Y35683951D01*
X16320030Y35596401D01*
X16208599Y35484970D01*
X16121049Y35353942D01*
X16114153Y35337295D01*
X15535748Y35915700D01*
X15535747Y35915699D01*
X15461559Y35813587D01*
X15347219Y35589185D01*
X15269397Y35349670D01*
X15230000Y35100929D01*
X14244726Y35100929D01*
X14430289Y35208064D01*
X14622738Y35355735D01*
X14794265Y35527262D01*
X14941936Y35719711D01*
X15063224Y35929788D01*
X15156054Y36153900D01*
X15218838Y36388211D01*
X15250500Y36628712D01*
X15250500Y36871288D01*
X15218838Y37111789D01*
X15156054Y37346100D01*
X15063224Y37570212D01*
X14941936Y37780289D01*
X14816010Y37944399D01*
X14794266Y37972737D01*
X14794260Y37972744D01*
X14622743Y38144261D01*
X14622736Y38144267D01*
X14430293Y38291933D01*
X14430292Y38291934D01*
X14430289Y38291936D01*
X14220212Y38413224D01*
X14189368Y38426000D01*
X13996104Y38506053D01*
X13989364Y38507859D01*
X13761789Y38568838D01*
X13761788Y38568839D01*
X13761785Y38568839D01*
X13521289Y38600500D01*
X13521288Y38600500D01*
X13278712Y38600500D01*
X13278711Y38600500D01*
X13038214Y38568839D01*
X12803895Y38506053D01*
X12579794Y38413227D01*
X12579785Y38413223D01*
X12369706Y38291933D01*
X12177263Y38144267D01*
X12177256Y38144261D01*
X12005739Y37972744D01*
X12005733Y37972737D01*
X11858067Y37780294D01*
X11736777Y37570215D01*
X11736773Y37570206D01*
X11643947Y37346105D01*
X11581161Y37111786D01*
X11549500Y36871289D01*
X250500Y36871289D01*
X250500Y55625500D01*
X270185Y55692539D01*
X322989Y55738294D01*
X374500Y55749500D01*
X7794954Y55749500D01*
X7861993Y55729815D01*
G37*
%TD.AperFunction*%
%TA.AperFunction,Conductor*%
G36*
X35181883Y54444636D02*
G01*
X35240116Y54406027D01*
X35267726Y54345568D01*
X35281611Y54257898D01*
X35338133Y54083943D01*
X35421169Y53920980D01*
X35434320Y53902877D01*
X35434321Y53902877D01*
X35925504Y54394060D01*
X35941619Y54333919D01*
X36008498Y54218080D01*
X36103080Y54123498D01*
X36218919Y54056619D01*
X36279058Y54040505D01*
X35784253Y53545701D01*
X35772733Y53490853D01*
X35723682Y53441096D01*
X35663478Y53425500D01*
X34713431Y53425500D01*
X34646392Y53445185D01*
X34600637Y53497989D01*
X34590693Y53567147D01*
X34619718Y53630703D01*
X34628900Y53639822D01*
X34628873Y53639849D01*
X34673286Y53684262D01*
X34761706Y53772682D01*
X34761708Y53772686D01*
X34761711Y53772688D01*
X34832993Y53870801D01*
X34869259Y53920717D01*
X34952331Y54083755D01*
X35008876Y54257781D01*
X35022780Y54345569D01*
X35052709Y54408702D01*
X35112020Y54445634D01*
X35181883Y54444636D01*
G37*
%TD.AperFunction*%
%TA.AperFunction,Conductor*%
G36*
X37721375Y54444636D02*
G01*
X37779608Y54406027D01*
X37807219Y54345569D01*
X37821123Y54257784D01*
X37821124Y54257781D01*
X37877669Y54083755D01*
X37952380Y53937126D01*
X37960743Y53920714D01*
X38071157Y53768740D01*
X38069401Y53767465D01*
X38094274Y53711945D01*
X38083832Y53642860D01*
X38037697Y53590388D01*
X38001348Y53575863D01*
X38001504Y53575349D01*
X37995667Y53573579D01*
X37868195Y53520779D01*
X37868182Y53520772D01*
X37756876Y53446398D01*
X37690199Y53425520D01*
X37687985Y53425500D01*
X37166521Y53425500D01*
X37099482Y53445185D01*
X37053727Y53497989D01*
X37045197Y53546250D01*
X36550942Y54040505D01*
X36611081Y54056619D01*
X36726920Y54123498D01*
X36821502Y54218080D01*
X36888381Y54333919D01*
X36904495Y54394059D01*
X37395677Y53902877D01*
X37395678Y53902877D01*
X37408830Y53920980D01*
X37491866Y54083945D01*
X37548388Y54257898D01*
X37562273Y54345567D01*
X37592202Y54408702D01*
X37651513Y54445634D01*
X37721375Y54444636D01*
G37*
%TD.AperFunction*%
%TA.AperFunction,Conductor*%
G36*
X10401140Y55729815D02*
G01*
X10446895Y55677011D01*
X10456839Y55607853D01*
X10427814Y55544297D01*
X10406986Y55525182D01*
X10257688Y55416712D01*
X10257683Y55416708D01*
X10128288Y55287313D01*
X10020743Y55139287D01*
X9937670Y54976248D01*
X9881123Y54802217D01*
X9867219Y54714432D01*
X9837289Y54651297D01*
X9777977Y54614367D01*
X9708115Y54615365D01*
X9649882Y54653976D01*
X9622273Y54714434D01*
X9608388Y54802103D01*
X9551866Y54976056D01*
X9468831Y55139020D01*
X9468830Y55139022D01*
X9455677Y55157125D01*
X8964494Y54665943D01*
X8948381Y54726081D01*
X8881502Y54841920D01*
X8786920Y54936502D01*
X8671081Y55003381D01*
X8610941Y55019496D01*
X9102123Y55510679D01*
X9102123Y55510680D01*
X9082164Y55525180D01*
X9039497Y55580509D01*
X9033516Y55650122D01*
X9066120Y55711918D01*
X9126958Y55746277D01*
X9155047Y55749500D01*
X10334101Y55749500D01*
X10401140Y55729815D01*
G37*
%TD.AperFunction*%
%TA.AperFunction,Conductor*%
G36*
X35801993Y55729815D02*
G01*
X35847748Y55677011D01*
X35857692Y55607853D01*
X35828667Y55544297D01*
X35807834Y55525178D01*
X35787875Y55510679D01*
X36279058Y55019496D01*
X36218919Y55003381D01*
X36103080Y54936502D01*
X36008498Y54841920D01*
X35941619Y54726081D01*
X35925504Y54665942D01*
X35434321Y55157125D01*
X35434320Y55157125D01*
X35421167Y55139019D01*
X35338133Y54976056D01*
X35281611Y54802103D01*
X35267726Y54714433D01*
X35237796Y54651298D01*
X35178485Y54614367D01*
X35108622Y54615365D01*
X35050390Y54653975D01*
X35022780Y54714433D01*
X35008876Y54802216D01*
X35008876Y54802217D01*
X35008876Y54802219D01*
X34952331Y54976245D01*
X34869259Y55139283D01*
X34856296Y55157125D01*
X34761711Y55287313D01*
X34632316Y55416708D01*
X34632311Y55416712D01*
X34483014Y55525182D01*
X34440348Y55580511D01*
X34434369Y55650125D01*
X34466974Y55711920D01*
X34527813Y55746277D01*
X34555899Y55749500D01*
X35734954Y55749500D01*
X35801993Y55729815D01*
G37*
%TD.AperFunction*%
%TA.AperFunction,Conductor*%
G36*
X38341140Y55729815D02*
G01*
X38386895Y55677011D01*
X38396839Y55607853D01*
X38367814Y55544297D01*
X38346986Y55525182D01*
X38197688Y55416712D01*
X38197683Y55416708D01*
X38068288Y55287313D01*
X37960743Y55139287D01*
X37877670Y54976248D01*
X37821123Y54802217D01*
X37807219Y54714432D01*
X37777289Y54651297D01*
X37717977Y54614367D01*
X37648115Y54615365D01*
X37589882Y54653976D01*
X37562273Y54714434D01*
X37548388Y54802103D01*
X37491866Y54976056D01*
X37408831Y55139020D01*
X37408830Y55139022D01*
X37395677Y55157125D01*
X36904494Y54665943D01*
X36888381Y54726081D01*
X36821502Y54841920D01*
X36726920Y54936502D01*
X36611081Y55003381D01*
X36550941Y55019496D01*
X37042123Y55510679D01*
X37042123Y55510680D01*
X37022164Y55525180D01*
X36979497Y55580509D01*
X36973516Y55650122D01*
X37006120Y55711918D01*
X37066958Y55746277D01*
X37095047Y55749500D01*
X38274101Y55749500D01*
X38341140Y55729815D01*
G37*
%TD.AperFunction*%
%TA.AperFunction,Conductor*%
G36*
X43421993Y55729815D02*
G01*
X43467748Y55677011D01*
X43477692Y55607853D01*
X43448667Y55544297D01*
X43427834Y55525178D01*
X43407875Y55510679D01*
X43899058Y55019496D01*
X43838919Y55003381D01*
X43723080Y54936502D01*
X43628498Y54841920D01*
X43561619Y54726081D01*
X43545504Y54665942D01*
X43054321Y55157125D01*
X43054320Y55157125D01*
X43041167Y55139019D01*
X42958133Y54976056D01*
X42901611Y54802103D01*
X42887726Y54714433D01*
X42857796Y54651298D01*
X42798485Y54614367D01*
X42728622Y54615365D01*
X42670390Y54653975D01*
X42642780Y54714433D01*
X42628876Y54802216D01*
X42628876Y54802217D01*
X42628876Y54802219D01*
X42572331Y54976245D01*
X42489259Y55139283D01*
X42476296Y55157125D01*
X42381711Y55287313D01*
X42252316Y55416708D01*
X42252311Y55416712D01*
X42103014Y55525182D01*
X42060348Y55580511D01*
X42054369Y55650125D01*
X42086974Y55711920D01*
X42147813Y55746277D01*
X42175899Y55749500D01*
X43354954Y55749500D01*
X43421993Y55729815D01*
G37*
%TD.AperFunction*%
%TA.AperFunction,Conductor*%
G36*
X45961140Y55729815D02*
G01*
X46006895Y55677011D01*
X46016839Y55607853D01*
X45987814Y55544297D01*
X45966986Y55525182D01*
X45817688Y55416712D01*
X45817683Y55416708D01*
X45688288Y55287313D01*
X45580743Y55139287D01*
X45497670Y54976248D01*
X45441123Y54802217D01*
X45427219Y54714432D01*
X45397289Y54651297D01*
X45337977Y54614367D01*
X45268115Y54615365D01*
X45209882Y54653976D01*
X45182273Y54714434D01*
X45168388Y54802103D01*
X45111866Y54976056D01*
X45028831Y55139020D01*
X45028830Y55139022D01*
X45015677Y55157125D01*
X44524494Y54665943D01*
X44508381Y54726081D01*
X44441502Y54841920D01*
X44346920Y54936502D01*
X44231081Y55003381D01*
X44170941Y55019496D01*
X44662123Y55510679D01*
X44662123Y55510680D01*
X44642164Y55525180D01*
X44599497Y55580509D01*
X44593516Y55650122D01*
X44626120Y55711918D01*
X44686958Y55746277D01*
X44715047Y55749500D01*
X45894101Y55749500D01*
X45961140Y55729815D01*
G37*
%TD.AperFunction*%
%TD*%
%TA.AperFunction,Conductor*%
%TO.N,GND*%
G36*
X29774500Y7876796D02*
G01*
X29774499Y7876778D01*
X29774499Y7869183D01*
X29774499Y7730817D01*
X29802743Y7625409D01*
X29809417Y7600502D01*
X29810313Y7597160D01*
X29883558Y7470297D01*
X29881880Y7469329D01*
X29899700Y7429997D01*
X29926418Y7295678D01*
X29926421Y7295668D01*
X29979221Y7168196D01*
X29979228Y7168183D01*
X30000000Y7137096D01*
X30000000Y250500D01*
X374500Y250500D01*
X307461Y270185D01*
X261706Y322989D01*
X250500Y374500D01*
X250500Y25100000D01*
X29774500Y25100000D01*
X29774500Y7876796D01*
G37*
%TD.AperFunction*%
%TD*%
M02*
