%TF.GenerationSoftware,KiCad,Pcbnew,9.0.7*%
%TF.CreationDate,2026-02-14T09:58:14-05:00*%
%TF.ProjectId,satellite-board,73617465-6c6c-4697-9465-2d626f617264,rev?*%
%TF.SameCoordinates,Original*%
%TF.FileFunction,Soldermask,Bot*%
%TF.FilePolarity,Negative*%
%FSLAX46Y46*%
G04 Gerber Fmt 4.6, Leading zero omitted, Abs format (unit mm)*
G04 Created by KiCad (PCBNEW 9.0.7) date 2026-02-14 09:58:14*
%MOMM*%
%LPD*%
G01*
G04 APERTURE LIST*
G04 Aperture macros list*
%AMRoundRect*
0 Rectangle with rounded corners*
0 $1 Rounding radius*
0 $2 $3 $4 $5 $6 $7 $8 $9 X,Y pos of 4 corners*
0 Add a 4 corners polygon primitive as box body*
4,1,4,$2,$3,$4,$5,$6,$7,$8,$9,$2,$3,0*
0 Add four circle primitives for the rounded corners*
1,1,$1+$1,$2,$3*
1,1,$1+$1,$4,$5*
1,1,$1+$1,$6,$7*
1,1,$1+$1,$8,$9*
0 Add four rect primitives between the rounded corners*
20,1,$1+$1,$2,$3,$4,$5,0*
20,1,$1+$1,$4,$5,$6,$7,0*
20,1,$1+$1,$6,$7,$8,$9,0*
20,1,$1+$1,$8,$9,$2,$3,0*%
G04 Aperture macros list end*
%ADD10RoundRect,0.102000X0.762000X-0.762000X0.762000X0.762000X-0.762000X0.762000X-0.762000X-0.762000X0*%
%ADD11C,1.728000*%
%ADD12C,2.500000*%
%ADD13RoundRect,0.250000X-0.350000X-0.625000X0.350000X-0.625000X0.350000X0.625000X-0.350000X0.625000X0*%
%ADD14O,1.200000X1.750000*%
%ADD15O,2.000000X1.100000*%
%ADD16O,1.800000X1.200000*%
%ADD17C,3.200000*%
%ADD18RoundRect,0.102000X0.704000X-0.704000X0.704000X0.704000X-0.704000X0.704000X-0.704000X-0.704000X0*%
%ADD19C,1.612000*%
%ADD20C,2.604000*%
G04 APERTURE END LIST*
D10*
%TO.C,U3*%
X158475000Y-67830000D03*
D11*
X161015000Y-67830000D03*
X163555000Y-67830000D03*
X166095000Y-67830000D03*
X168635000Y-67830000D03*
X171175000Y-67830000D03*
X173715000Y-67830000D03*
X176255000Y-67830000D03*
X178795000Y-67830000D03*
X181335000Y-67830000D03*
X183875000Y-67830000D03*
X186415000Y-67830000D03*
X188955000Y-67830000D03*
X191495000Y-67830000D03*
X194035000Y-67830000D03*
X196575000Y-67830000D03*
X158475000Y-44970000D03*
X161015000Y-44970000D03*
X163555000Y-44970000D03*
X166095000Y-44970000D03*
X168635000Y-44970000D03*
X171175000Y-44970000D03*
X173715000Y-44970000D03*
X176255000Y-44970000D03*
X178795000Y-44970000D03*
X181335000Y-44970000D03*
X183875000Y-44970000D03*
X186415000Y-44970000D03*
X188955000Y-44970000D03*
X191495000Y-44970000D03*
X194035000Y-44970000D03*
X196575000Y-44970000D03*
%TD*%
D12*
%TO.C,U6*%
X213300000Y-71000000D03*
X213340000Y-76040000D03*
X208300000Y-76000000D03*
X208300000Y-71000000D03*
X210800000Y-73500000D03*
%TD*%
D13*
%TO.C,J2*%
X186600000Y-96000000D03*
D14*
X188600000Y-96000000D03*
%TD*%
D15*
%TO.C,USB1*%
X181124250Y-56925000D03*
D16*
X185324250Y-56925000D03*
D15*
X181124250Y-48275000D03*
D16*
X185324250Y-48275000D03*
%TD*%
D17*
%TO.C,J1*%
X163400000Y-62750000D03*
X163400000Y-50050000D03*
D18*
X165940000Y-52830000D03*
D19*
X167720000Y-53850000D03*
X165940000Y-54870000D03*
X167720000Y-55890000D03*
X165940000Y-56910000D03*
X167720000Y-57930000D03*
X165940000Y-58950000D03*
X167720000Y-59970000D03*
X172540000Y-49540000D03*
X172540000Y-51830000D03*
X172540000Y-60970000D03*
X172540000Y-63260000D03*
D20*
X166830000Y-64525000D03*
X166830000Y-48275000D03*
%TD*%
M02*
