M48
; DRILL file {KiCad 9.0.7} date 2026-02-09T21:03:30-0500
; FORMAT={-:-/ absolute / metric / decimal}
; #@! TF.CreationDate,2026-02-09T21:03:30-05:00
; #@! TF.GenerationSoftware,Kicad,Pcbnew,9.0.7
; #@! TF.FileFunction,Plated,1,2,PTH
FMAT,2
METRIC
; #@! TA.AperFunction,Plated,PTH,ViaDrill
T1C0.300
; #@! TA.AperFunction,Plated,PTH,ComponentDrill
T2C0.900
; #@! TA.AperFunction,Plated,PTH,ComponentDrill
T3C1.000
; #@! TA.AperFunction,Plated,PTH,ComponentDrill
T4C1.295
; #@! TA.AperFunction,Plated,PTH,ComponentDrill
T5C1.500
; #@! TA.AperFunction,Plated,PTH,ComponentDrill
T6C1.600
%
G90
G05
T1
X1.2Y8.6
X1.8Y7.6
X2.6Y8.6
X3.4Y7.6
X3.78Y49.02
X4.0Y8.6
X4.38Y49.62
X4.98Y50.22
X5.0Y49.0
X5.35Y26.6
X5.6Y49.6
X6.2Y50.2
X9.55Y18.8
X9.55Y16.4
X9.55Y13.8
X10.0Y12.0
X10.0Y10.0
X10.8Y24.8
X10.8Y22.6
X11.0Y11.0
X12.0Y12.0
X12.0Y10.0
X12.127Y23.75
X13.4Y24.8
X13.4Y22.6
X14.8Y19.2
X14.8Y17.6
X14.8Y16.0
X15.4Y18.4
X15.4Y16.8
X15.499Y42.38
X15.499Y41.18
X15.8Y47.366
X15.8Y46.166
X16.099Y41.78
X16.4Y46.766
X16.699Y42.38
X16.699Y41.18
X17.0Y47.366
X17.0Y46.166
X19.2Y12.6
X22.6Y36.8
X22.6Y35.2
X22.8Y12.6
X23.2Y37.6
X23.2Y36.0
X23.2Y34.4
X24.8Y31.0
X24.8Y28.8
X26.05Y29.95
X26.4Y12.6
X27.2Y31.0
X27.2Y28.8
X27.6Y50.0
X28.6Y37.0
X28.6Y35.4
X29.2Y37.8
X29.2Y36.2
X29.2Y34.6
X29.282Y49.899
X31.254Y28.0
X33.054Y32.8
X34.508Y18.592
X34.6Y15.0
X35.1Y24.3
X35.116Y27.6
X35.5Y22.375
X35.5Y20.5
X36.4Y15.0
X37.8Y9.6
X37.8Y5.8
X37.8Y2.0
X38.2Y15.0
X38.4Y33.0
X39.2Y42.0
X39.6Y39.6
X39.6Y17.4
X40.2Y34.8
X40.4Y39.6
X41.4Y28.2
X41.4Y27.0
X42.0Y27.6
X42.6Y28.2
X42.6Y27.0
X43.0Y23.505
X47.0Y43.6
X47.0Y41.4
X47.0Y39.2
X47.0Y37.0
X47.0Y34.8
X47.0Y32.6
X47.0Y30.4
X47.8Y17.2
X49.2Y43.6
X49.2Y41.4
X49.2Y39.2
X49.2Y37.0
X49.2Y34.8
X49.2Y32.6
X49.2Y30.4
X51.4Y43.6
X51.4Y41.4
X51.4Y39.2
X51.4Y37.0
X51.4Y34.8
X51.4Y32.6
X51.4Y30.4
X53.0Y22.02
X53.0Y21.0
X53.6Y43.6
X53.6Y41.4
X53.6Y39.2
X53.6Y37.0
X53.6Y34.8
X53.6Y32.6
X53.6Y30.4
X55.8Y43.6
X55.8Y41.4
X55.8Y39.2
X55.8Y37.0
X55.8Y34.8
X55.8Y32.6
X55.8Y30.4
X57.6Y24.6
X57.6Y23.2
X58.0Y43.6
X58.0Y41.4
X58.0Y39.2
X58.0Y37.0
X58.0Y34.8
X58.0Y32.6
X58.0Y30.4
X58.2Y29.4
X58.6Y28.4
X58.8Y24.0
X59.0Y30.8
X59.0Y29.8
X59.2Y22.8
X59.4Y28.8
X59.4Y27.8
X59.4Y25.2
X60.0Y22.2
X60.2Y21.2
X61.2Y21.2
X61.4Y22.2
X62.0Y28.8
X62.0Y27.8
X62.0Y25.2
X62.2Y30.8
X62.2Y29.8
X62.2Y22.8
X62.6Y24.0
X62.8Y46.8
X62.8Y45.6
X62.8Y28.4
X63.0Y30.4
X63.0Y29.4
X63.4Y46.2
X63.8Y24.6
X63.8Y23.2
X64.0Y46.8
X64.0Y45.6
T2
X42.49Y15.14
X44.78Y15.14
X45.78Y10.32
X46.8Y8.54
X47.82Y10.32
X48.84Y8.54
X49.86Y10.32
X50.88Y8.54
X51.9Y10.32
X52.92Y8.54
X53.92Y15.14
X56.21Y15.14
T3
X5.46Y46.4
X5.46Y43.86
X5.46Y41.32
X8.0Y46.4
X8.0Y43.86
X8.0Y41.32
X8.447Y53.687
X8.447Y51.147
X10.987Y53.687
X10.987Y51.147
X13.527Y53.687
X13.527Y51.147
X16.067Y53.687
X16.067Y51.147
X18.607Y53.687
X18.607Y51.147
X19.2Y47.34
X19.2Y44.8
X19.2Y42.26
X21.147Y53.687
X21.147Y51.147
X21.74Y47.34
X21.74Y44.8
X21.74Y42.26
X23.688Y53.687
X23.688Y51.147
X26.227Y53.687
X26.227Y51.147
X27.0Y44.4
X28.767Y53.687
X28.767Y51.147
X29.54Y44.4
X30.06Y9.6
X30.06Y5.8
X30.06Y2.0
X31.307Y53.687
X31.307Y51.147
X32.08Y44.4
X32.6Y9.6
X32.6Y5.8
X32.6Y2.0
X33.847Y53.687
X33.847Y51.147
X36.387Y53.687
X36.387Y51.147
X38.927Y53.687
X38.927Y51.147
X41.468Y53.687
X41.468Y51.147
X44.008Y53.687
X44.008Y51.147
X44.04Y48.4
X46.547Y53.687
X46.547Y51.147
X46.58Y48.4
X49.087Y53.687
X49.087Y51.147
X49.12Y48.4
X51.627Y53.687
X51.627Y51.147
X51.66Y48.4
X54.167Y53.687
X54.167Y51.147
X54.2Y48.4
X56.707Y53.687
X56.707Y51.147
X56.74Y48.4
T4
X9.0Y4.6
X14.08Y4.6
X20.06Y4.575
X25.14Y4.575
T5
X58.2Y26.4
X58.2Y21.4
X60.7Y23.9
X63.2Y26.4
X63.24Y21.36
T6
X41.225Y9.43
X57.475Y9.43
M30
