%TF.GenerationSoftware,KiCad,Pcbnew,9.0.7*%
%TF.CreationDate,2026-02-09T21:03:29-05:00*%
%TF.ProjectId,central-board,63656e74-7261-46c2-9d62-6f6172642e6b,rev?*%
%TF.SameCoordinates,PX448a630PY53bb8c0*%
%TF.FileFunction,Soldermask,Bot*%
%TF.FilePolarity,Negative*%
%FSLAX46Y46*%
G04 Gerber Fmt 4.6, Leading zero omitted, Abs format (unit mm)*
G04 Created by KiCad (PCBNEW 9.0.7) date 2026-02-09 21:03:29*
%MOMM*%
%LPD*%
G01*
G04 APERTURE LIST*
G04 Aperture macros list*
%AMRoundRect*
0 Rectangle with rounded corners*
0 $1 Rounding radius*
0 $2 $3 $4 $5 $6 $7 $8 $9 X,Y pos of 4 corners*
0 Add a 4 corners polygon primitive as box body*
4,1,4,$2,$3,$4,$5,$6,$7,$8,$9,$2,$3,0*
0 Add four circle primitives for the rounded corners*
1,1,$1+$1,$2,$3*
1,1,$1+$1,$4,$5*
1,1,$1+$1,$6,$7*
1,1,$1+$1,$8,$9*
0 Add four rect primitives between the rounded corners*
20,1,$1+$1,$2,$3,$4,$5,0*
20,1,$1+$1,$4,$5,$6,$7,0*
20,1,$1+$1,$6,$7,$8,$9,0*
20,1,$1+$1,$8,$9,$2,$3,0*%
G04 Aperture macros list end*
%ADD10C,3.200000*%
%ADD11RoundRect,0.102000X-0.704000X-0.704000X0.704000X-0.704000X0.704000X0.704000X-0.704000X0.704000X0*%
%ADD12C,1.612000*%
%ADD13C,2.604000*%
%ADD14O,1.700000X1.700000*%
%ADD15R,1.700000X1.700000*%
%ADD16C,1.700000*%
%ADD17C,1.803400*%
%ADD18C,2.500000*%
G04 APERTURE END LIST*
D10*
%TO.C,J1*%
X43000000Y6000000D03*
X55700000Y6000000D03*
D11*
X52920000Y8540000D03*
D12*
X51900000Y10320000D03*
X50880000Y8540000D03*
X49860000Y10320000D03*
X48840000Y8540000D03*
X47820000Y10320000D03*
X46800000Y8540000D03*
X45780000Y10320000D03*
X56210000Y15140000D03*
X53920000Y15140000D03*
X44780000Y15140000D03*
X42490000Y15140000D03*
D13*
X41225000Y9430000D03*
X57475000Y9430000D03*
%TD*%
D14*
%TO.C,J4*%
X56707500Y53687000D03*
D15*
X56707500Y51147000D03*
D14*
X54167500Y53687000D03*
X54167500Y51147000D03*
X51627500Y53687000D03*
X51627500Y51147000D03*
D15*
X49087500Y53687000D03*
D14*
X49087500Y51147000D03*
X46547500Y53687000D03*
X46547500Y51147000D03*
D15*
X44007500Y53687000D03*
D14*
X44007500Y51147000D03*
X41467500Y53687000D03*
X41467500Y51147000D03*
X38927500Y53687000D03*
D15*
X38927500Y51147000D03*
D14*
X36387500Y53687000D03*
X36387500Y51147000D03*
X33847500Y53687000D03*
X33847500Y51147000D03*
D15*
X31307500Y53687000D03*
D14*
X31307500Y51147000D03*
X28767500Y53687000D03*
X28767500Y51147000D03*
X26227500Y53687000D03*
X26227500Y51147000D03*
D15*
X23687500Y53687000D03*
D14*
X23687500Y51147000D03*
X21147500Y53687000D03*
X21147500Y51147000D03*
X18607500Y53687000D03*
D15*
X18607500Y51147000D03*
D14*
X16067500Y53687000D03*
X16067500Y51147000D03*
D15*
X13527500Y53687000D03*
D14*
X13527500Y51147000D03*
X10987500Y53687000D03*
X10987500Y51147000D03*
X8447500Y53687000D03*
D16*
X8447500Y51147000D03*
%TD*%
D15*
%TO.C,J12*%
X8000000Y41320000D03*
D16*
X5460000Y41320000D03*
X8000000Y43860000D03*
X5460000Y43860000D03*
X8000000Y46400000D03*
X5460000Y46400000D03*
%TD*%
D15*
%TO.C,J10*%
X30060000Y9600000D03*
D16*
X32600000Y9600000D03*
%TD*%
D15*
%TO.C,J5*%
X27000000Y44400000D03*
D16*
X29540000Y44400000D03*
X32080000Y44400000D03*
%TD*%
D15*
%TO.C,J11*%
X30060000Y2000000D03*
D16*
X32600000Y2000000D03*
%TD*%
D17*
%TO.C,J3*%
X20060000Y4575000D03*
X25140000Y4575000D03*
%TD*%
D15*
%TO.C,J8*%
X30060000Y5800000D03*
D16*
X32600000Y5800000D03*
%TD*%
D15*
%TO.C,J6*%
X21740000Y42260000D03*
D16*
X19200000Y42260000D03*
X21740000Y44800000D03*
X19200000Y44800000D03*
X21740000Y47340000D03*
X19200000Y47340000D03*
%TD*%
D18*
%TO.C,U3*%
X63200000Y26400000D03*
X63240000Y21360000D03*
X58200000Y21400000D03*
X58200000Y26400000D03*
X60700000Y23900000D03*
%TD*%
D17*
%TO.C,J2*%
X9000000Y4600000D03*
X14080000Y4600000D03*
%TD*%
D15*
%TO.C,J7*%
X44040000Y48400000D03*
D16*
X46580000Y48400000D03*
X49120000Y48400000D03*
X51660000Y48400000D03*
X54200000Y48400000D03*
X56740000Y48400000D03*
%TD*%
M02*
