%TF.GenerationSoftware,KiCad,Pcbnew,9.0.7*%
%TF.CreationDate,2026-02-09T21:03:29-05:00*%
%TF.ProjectId,central-board,63656e74-7261-46c2-9d62-6f6172642e6b,rev?*%
%TF.SameCoordinates,PX448a630PY53bb8c0*%
%TF.FileFunction,Legend,Top*%
%TF.FilePolarity,Positive*%
%FSLAX46Y46*%
G04 Gerber Fmt 4.6, Leading zero omitted, Abs format (unit mm)*
G04 Created by KiCad (PCBNEW 9.0.7) date 2026-02-09 21:03:29*
%MOMM*%
%LPD*%
G01*
G04 APERTURE LIST*
%ADD10C,0.100000*%
%ADD11C,0.120000*%
%ADD12C,0.125000*%
%ADD13C,0.150000*%
%ADD14C,0.127000*%
%ADD15C,0.200000*%
%ADD16C,0.152500*%
%ADD17C,0.254000*%
%ADD18C,0.000000*%
%ADD19C,0.152400*%
G04 APERTURE END LIST*
D10*
X59800000Y19000000D02*
X63800000Y19000000D01*
X63800000Y6600000D01*
X59800000Y6600000D01*
X59800000Y19000000D01*
D11*
X60461435Y7307519D02*
X60461435Y7497995D01*
X60461435Y7497995D02*
X60509054Y7593233D01*
X60509054Y7593233D02*
X60604292Y7688471D01*
X60604292Y7688471D02*
X60794768Y7736090D01*
X60794768Y7736090D02*
X61128101Y7736090D01*
X61128101Y7736090D02*
X61318577Y7688471D01*
X61318577Y7688471D02*
X61413816Y7593233D01*
X61413816Y7593233D02*
X61461435Y7497995D01*
X61461435Y7497995D02*
X61461435Y7307519D01*
X61461435Y7307519D02*
X61413816Y7212281D01*
X61413816Y7212281D02*
X61318577Y7117043D01*
X61318577Y7117043D02*
X61128101Y7069424D01*
X61128101Y7069424D02*
X60794768Y7069424D01*
X60794768Y7069424D02*
X60604292Y7117043D01*
X60604292Y7117043D02*
X60509054Y7212281D01*
X60509054Y7212281D02*
X60461435Y7307519D01*
X61461435Y8736090D02*
X60985244Y8402757D01*
X61461435Y8164662D02*
X60461435Y8164662D01*
X60461435Y8164662D02*
X60461435Y8545614D01*
X60461435Y8545614D02*
X60509054Y8640852D01*
X60509054Y8640852D02*
X60556673Y8688471D01*
X60556673Y8688471D02*
X60651911Y8736090D01*
X60651911Y8736090D02*
X60794768Y8736090D01*
X60794768Y8736090D02*
X60890006Y8688471D01*
X60890006Y8688471D02*
X60937625Y8640852D01*
X60937625Y8640852D02*
X60985244Y8545614D01*
X60985244Y8545614D02*
X60985244Y8164662D01*
X61366196Y9736090D02*
X61413816Y9688471D01*
X61413816Y9688471D02*
X61461435Y9545614D01*
X61461435Y9545614D02*
X61461435Y9450376D01*
X61461435Y9450376D02*
X61413816Y9307519D01*
X61413816Y9307519D02*
X61318577Y9212281D01*
X61318577Y9212281D02*
X61223339Y9164662D01*
X61223339Y9164662D02*
X61032863Y9117043D01*
X61032863Y9117043D02*
X60890006Y9117043D01*
X60890006Y9117043D02*
X60699530Y9164662D01*
X60699530Y9164662D02*
X60604292Y9212281D01*
X60604292Y9212281D02*
X60509054Y9307519D01*
X60509054Y9307519D02*
X60461435Y9450376D01*
X60461435Y9450376D02*
X60461435Y9545614D01*
X60461435Y9545614D02*
X60509054Y9688471D01*
X60509054Y9688471D02*
X60556673Y9736090D01*
X61175720Y10117043D02*
X61175720Y10593233D01*
X61461435Y10021805D02*
X60461435Y10355138D01*
X60461435Y10355138D02*
X61461435Y10688471D01*
X61413816Y11736091D02*
X61461435Y11878948D01*
X61461435Y11878948D02*
X61461435Y12117043D01*
X61461435Y12117043D02*
X61413816Y12212281D01*
X61413816Y12212281D02*
X61366196Y12259900D01*
X61366196Y12259900D02*
X61270958Y12307519D01*
X61270958Y12307519D02*
X61175720Y12307519D01*
X61175720Y12307519D02*
X61080482Y12259900D01*
X61080482Y12259900D02*
X61032863Y12212281D01*
X61032863Y12212281D02*
X60985244Y12117043D01*
X60985244Y12117043D02*
X60937625Y11926567D01*
X60937625Y11926567D02*
X60890006Y11831329D01*
X60890006Y11831329D02*
X60842387Y11783710D01*
X60842387Y11783710D02*
X60747149Y11736091D01*
X60747149Y11736091D02*
X60651911Y11736091D01*
X60651911Y11736091D02*
X60556673Y11783710D01*
X60556673Y11783710D02*
X60509054Y11831329D01*
X60509054Y11831329D02*
X60461435Y11926567D01*
X60461435Y11926567D02*
X60461435Y12164662D01*
X60461435Y12164662D02*
X60509054Y12307519D01*
X61175720Y12688472D02*
X61175720Y13164662D01*
X61461435Y12593234D02*
X60461435Y12926567D01*
X60461435Y12926567D02*
X61461435Y13259900D01*
X60461435Y13450377D02*
X60461435Y14021805D01*
X61461435Y13736091D02*
X60461435Y13736091D01*
X60937625Y14355139D02*
X60937625Y14688472D01*
X61461435Y14831329D02*
X61461435Y14355139D01*
X61461435Y14355139D02*
X60461435Y14355139D01*
X60461435Y14355139D02*
X60461435Y14831329D01*
X61461435Y15736091D02*
X61461435Y15259901D01*
X61461435Y15259901D02*
X60461435Y15259901D01*
X61461435Y16545615D02*
X61461435Y16069425D01*
X61461435Y16069425D02*
X60461435Y16069425D01*
X61461435Y16878949D02*
X60461435Y16878949D01*
X60461435Y17212282D02*
X60461435Y17783710D01*
X61461435Y17497996D02*
X60461435Y17497996D01*
X60937625Y18117044D02*
X60937625Y18450377D01*
X61461435Y18593234D02*
X61461435Y18117044D01*
X61461435Y18117044D02*
X60461435Y18117044D01*
X60461435Y18117044D02*
X60461435Y18593234D01*
X62071379Y7307519D02*
X62071379Y7497995D01*
X62071379Y7497995D02*
X62118998Y7593233D01*
X62118998Y7593233D02*
X62214236Y7688471D01*
X62214236Y7688471D02*
X62404712Y7736090D01*
X62404712Y7736090D02*
X62738045Y7736090D01*
X62738045Y7736090D02*
X62928521Y7688471D01*
X62928521Y7688471D02*
X63023760Y7593233D01*
X63023760Y7593233D02*
X63071379Y7497995D01*
X63071379Y7497995D02*
X63071379Y7307519D01*
X63071379Y7307519D02*
X63023760Y7212281D01*
X63023760Y7212281D02*
X62928521Y7117043D01*
X62928521Y7117043D02*
X62738045Y7069424D01*
X62738045Y7069424D02*
X62404712Y7069424D01*
X62404712Y7069424D02*
X62214236Y7117043D01*
X62214236Y7117043D02*
X62118998Y7212281D01*
X62118998Y7212281D02*
X62071379Y7307519D01*
X63071379Y8164662D02*
X62071379Y8164662D01*
X62071379Y8164662D02*
X63071379Y8736090D01*
X63071379Y8736090D02*
X62071379Y8736090D01*
X63071379Y9688471D02*
X63071379Y9212281D01*
X63071379Y9212281D02*
X62071379Y9212281D01*
X62595188Y10212281D02*
X63071379Y10212281D01*
X62071379Y9878948D02*
X62595188Y10212281D01*
X62595188Y10212281D02*
X62071379Y10545614D01*
X62071379Y11497996D02*
X63071379Y11831329D01*
X63071379Y11831329D02*
X62071379Y12164662D01*
X63071379Y12497996D02*
X62071379Y12497996D01*
X62785664Y12926567D02*
X62785664Y13402757D01*
X63071379Y12831329D02*
X62071379Y13164662D01*
X62071379Y13164662D02*
X63071379Y13497995D01*
X63071379Y15164662D02*
X62595188Y14831329D01*
X63071379Y14593234D02*
X62071379Y14593234D01*
X62071379Y14593234D02*
X62071379Y14974186D01*
X62071379Y14974186D02*
X62118998Y15069424D01*
X62118998Y15069424D02*
X62166617Y15117043D01*
X62166617Y15117043D02*
X62261855Y15164662D01*
X62261855Y15164662D02*
X62404712Y15164662D01*
X62404712Y15164662D02*
X62499950Y15117043D01*
X62499950Y15117043D02*
X62547569Y15069424D01*
X62547569Y15069424D02*
X62595188Y14974186D01*
X62595188Y14974186D02*
X62595188Y14593234D01*
X62071379Y15878948D02*
X62785664Y15878948D01*
X62785664Y15878948D02*
X62928521Y15831329D01*
X62928521Y15831329D02*
X63023760Y15736091D01*
X63023760Y15736091D02*
X63071379Y15593234D01*
X63071379Y15593234D02*
X63071379Y15497996D01*
X62404712Y16783710D02*
X63071379Y16783710D01*
X62023760Y16545615D02*
X62738045Y16307520D01*
X62738045Y16307520D02*
X62738045Y16926567D01*
X62071379Y17783710D02*
X62071379Y17307520D01*
X62071379Y17307520D02*
X62547569Y17259901D01*
X62547569Y17259901D02*
X62499950Y17307520D01*
X62499950Y17307520D02*
X62452331Y17402758D01*
X62452331Y17402758D02*
X62452331Y17640853D01*
X62452331Y17640853D02*
X62499950Y17736091D01*
X62499950Y17736091D02*
X62547569Y17783710D01*
X62547569Y17783710D02*
X62642807Y17831329D01*
X62642807Y17831329D02*
X62880902Y17831329D01*
X62880902Y17831329D02*
X62976140Y17783710D01*
X62976140Y17783710D02*
X63023760Y17736091D01*
X63023760Y17736091D02*
X63071379Y17640853D01*
X63071379Y17640853D02*
X63071379Y17402758D01*
X63071379Y17402758D02*
X63023760Y17307520D01*
X63023760Y17307520D02*
X62976140Y17259901D01*
X62976140Y18259901D02*
X63023760Y18307520D01*
X63023760Y18307520D02*
X63071379Y18259901D01*
X63071379Y18259901D02*
X63023760Y18212282D01*
X63023760Y18212282D02*
X62976140Y18259901D01*
X62976140Y18259901D02*
X63071379Y18259901D01*
X62690426Y18259901D02*
X62118998Y18212282D01*
X62118998Y18212282D02*
X62071379Y18259901D01*
X62071379Y18259901D02*
X62118998Y18307520D01*
X62118998Y18307520D02*
X62690426Y18259901D01*
X62690426Y18259901D02*
X62071379Y18259901D01*
D10*
X35900000Y49200000D02*
X41300000Y49200000D01*
X41300000Y24800000D01*
X35900000Y24800000D01*
X35900000Y49200000D01*
X40796895Y25256266D02*
X39996895Y25256266D01*
X39996895Y25256266D02*
X39996895Y25446742D01*
X39996895Y25446742D02*
X40034990Y25561028D01*
X40034990Y25561028D02*
X40111180Y25637218D01*
X40111180Y25637218D02*
X40187371Y25675313D01*
X40187371Y25675313D02*
X40339752Y25713409D01*
X40339752Y25713409D02*
X40454038Y25713409D01*
X40454038Y25713409D02*
X40606419Y25675313D01*
X40606419Y25675313D02*
X40682609Y25637218D01*
X40682609Y25637218D02*
X40758800Y25561028D01*
X40758800Y25561028D02*
X40796895Y25446742D01*
X40796895Y25446742D02*
X40796895Y25256266D01*
X40758800Y26361028D02*
X40796895Y26284837D01*
X40796895Y26284837D02*
X40796895Y26132456D01*
X40796895Y26132456D02*
X40758800Y26056266D01*
X40758800Y26056266D02*
X40682609Y26018170D01*
X40682609Y26018170D02*
X40377847Y26018170D01*
X40377847Y26018170D02*
X40301657Y26056266D01*
X40301657Y26056266D02*
X40263561Y26132456D01*
X40263561Y26132456D02*
X40263561Y26284837D01*
X40263561Y26284837D02*
X40301657Y26361028D01*
X40301657Y26361028D02*
X40377847Y26399123D01*
X40377847Y26399123D02*
X40454038Y26399123D01*
X40454038Y26399123D02*
X40530228Y26018170D01*
X40758800Y26703884D02*
X40796895Y26780075D01*
X40796895Y26780075D02*
X40796895Y26932456D01*
X40796895Y26932456D02*
X40758800Y27008646D01*
X40758800Y27008646D02*
X40682609Y27046742D01*
X40682609Y27046742D02*
X40644514Y27046742D01*
X40644514Y27046742D02*
X40568323Y27008646D01*
X40568323Y27008646D02*
X40530228Y26932456D01*
X40530228Y26932456D02*
X40530228Y26818170D01*
X40530228Y26818170D02*
X40492133Y26741980D01*
X40492133Y26741980D02*
X40415942Y26703884D01*
X40415942Y26703884D02*
X40377847Y26703884D01*
X40377847Y26703884D02*
X40301657Y26741980D01*
X40301657Y26741980D02*
X40263561Y26818170D01*
X40263561Y26818170D02*
X40263561Y26932456D01*
X40263561Y26932456D02*
X40301657Y27008646D01*
X40796895Y27389599D02*
X40263561Y27389599D01*
X39996895Y27389599D02*
X40034990Y27351503D01*
X40034990Y27351503D02*
X40073085Y27389599D01*
X40073085Y27389599D02*
X40034990Y27427694D01*
X40034990Y27427694D02*
X39996895Y27389599D01*
X39996895Y27389599D02*
X40073085Y27389599D01*
X40263561Y28113408D02*
X40911180Y28113408D01*
X40911180Y28113408D02*
X40987371Y28075313D01*
X40987371Y28075313D02*
X41025466Y28037217D01*
X41025466Y28037217D02*
X41063561Y27961027D01*
X41063561Y27961027D02*
X41063561Y27846741D01*
X41063561Y27846741D02*
X41025466Y27770551D01*
X40758800Y28113408D02*
X40796895Y28037217D01*
X40796895Y28037217D02*
X40796895Y27884836D01*
X40796895Y27884836D02*
X40758800Y27808646D01*
X40758800Y27808646D02*
X40720704Y27770551D01*
X40720704Y27770551D02*
X40644514Y27732455D01*
X40644514Y27732455D02*
X40415942Y27732455D01*
X40415942Y27732455D02*
X40339752Y27770551D01*
X40339752Y27770551D02*
X40301657Y27808646D01*
X40301657Y27808646D02*
X40263561Y27884836D01*
X40263561Y27884836D02*
X40263561Y28037217D01*
X40263561Y28037217D02*
X40301657Y28113408D01*
X40263561Y28494361D02*
X40796895Y28494361D01*
X40339752Y28494361D02*
X40301657Y28532456D01*
X40301657Y28532456D02*
X40263561Y28608646D01*
X40263561Y28608646D02*
X40263561Y28722932D01*
X40263561Y28722932D02*
X40301657Y28799123D01*
X40301657Y28799123D02*
X40377847Y28837218D01*
X40377847Y28837218D02*
X40796895Y28837218D01*
X40758800Y29522933D02*
X40796895Y29446742D01*
X40796895Y29446742D02*
X40796895Y29294361D01*
X40796895Y29294361D02*
X40758800Y29218171D01*
X40758800Y29218171D02*
X40682609Y29180075D01*
X40682609Y29180075D02*
X40377847Y29180075D01*
X40377847Y29180075D02*
X40301657Y29218171D01*
X40301657Y29218171D02*
X40263561Y29294361D01*
X40263561Y29294361D02*
X40263561Y29446742D01*
X40263561Y29446742D02*
X40301657Y29522933D01*
X40301657Y29522933D02*
X40377847Y29561028D01*
X40377847Y29561028D02*
X40454038Y29561028D01*
X40454038Y29561028D02*
X40530228Y29180075D01*
X40796895Y30246742D02*
X39996895Y30246742D01*
X40758800Y30246742D02*
X40796895Y30170551D01*
X40796895Y30170551D02*
X40796895Y30018170D01*
X40796895Y30018170D02*
X40758800Y29941980D01*
X40758800Y29941980D02*
X40720704Y29903885D01*
X40720704Y29903885D02*
X40644514Y29865789D01*
X40644514Y29865789D02*
X40415942Y29865789D01*
X40415942Y29865789D02*
X40339752Y29903885D01*
X40339752Y29903885D02*
X40301657Y29941980D01*
X40301657Y29941980D02*
X40263561Y30018170D01*
X40263561Y30018170D02*
X40263561Y30170551D01*
X40263561Y30170551D02*
X40301657Y30246742D01*
X40796895Y31237219D02*
X39996895Y31237219D01*
X40301657Y31237219D02*
X40263561Y31313409D01*
X40263561Y31313409D02*
X40263561Y31465790D01*
X40263561Y31465790D02*
X40301657Y31541981D01*
X40301657Y31541981D02*
X40339752Y31580076D01*
X40339752Y31580076D02*
X40415942Y31618171D01*
X40415942Y31618171D02*
X40644514Y31618171D01*
X40644514Y31618171D02*
X40720704Y31580076D01*
X40720704Y31580076D02*
X40758800Y31541981D01*
X40758800Y31541981D02*
X40796895Y31465790D01*
X40796895Y31465790D02*
X40796895Y31313409D01*
X40796895Y31313409D02*
X40758800Y31237219D01*
X40263561Y31884838D02*
X40796895Y32075314D01*
X40263561Y32265791D02*
X40796895Y32075314D01*
X40796895Y32075314D02*
X40987371Y31999124D01*
X40987371Y31999124D02*
X41025466Y31961029D01*
X41025466Y31961029D02*
X41063561Y31884838D01*
X40796895Y33180077D02*
X39996895Y33180077D01*
X39996895Y33180077D02*
X40568323Y33446743D01*
X40568323Y33446743D02*
X39996895Y33713410D01*
X39996895Y33713410D02*
X40796895Y33713410D01*
X40796895Y34094363D02*
X40263561Y34094363D01*
X39996895Y34094363D02*
X40034990Y34056267D01*
X40034990Y34056267D02*
X40073085Y34094363D01*
X40073085Y34094363D02*
X40034990Y34132458D01*
X40034990Y34132458D02*
X39996895Y34094363D01*
X39996895Y34094363D02*
X40073085Y34094363D01*
X40758800Y34818172D02*
X40796895Y34741981D01*
X40796895Y34741981D02*
X40796895Y34589600D01*
X40796895Y34589600D02*
X40758800Y34513410D01*
X40758800Y34513410D02*
X40720704Y34475315D01*
X40720704Y34475315D02*
X40644514Y34437219D01*
X40644514Y34437219D02*
X40415942Y34437219D01*
X40415942Y34437219D02*
X40339752Y34475315D01*
X40339752Y34475315D02*
X40301657Y34513410D01*
X40301657Y34513410D02*
X40263561Y34589600D01*
X40263561Y34589600D02*
X40263561Y34741981D01*
X40263561Y34741981D02*
X40301657Y34818172D01*
X40796895Y35161029D02*
X39996895Y35161029D01*
X40796895Y35503886D02*
X40377847Y35503886D01*
X40377847Y35503886D02*
X40301657Y35465791D01*
X40301657Y35465791D02*
X40263561Y35389600D01*
X40263561Y35389600D02*
X40263561Y35275314D01*
X40263561Y35275314D02*
X40301657Y35199124D01*
X40301657Y35199124D02*
X40339752Y35161029D01*
X40796895Y36227696D02*
X40377847Y36227696D01*
X40377847Y36227696D02*
X40301657Y36189601D01*
X40301657Y36189601D02*
X40263561Y36113410D01*
X40263561Y36113410D02*
X40263561Y35961029D01*
X40263561Y35961029D02*
X40301657Y35884839D01*
X40758800Y36227696D02*
X40796895Y36151505D01*
X40796895Y36151505D02*
X40796895Y35961029D01*
X40796895Y35961029D02*
X40758800Y35884839D01*
X40758800Y35884839D02*
X40682609Y35846743D01*
X40682609Y35846743D02*
X40606419Y35846743D01*
X40606419Y35846743D02*
X40530228Y35884839D01*
X40530228Y35884839D02*
X40492133Y35961029D01*
X40492133Y35961029D02*
X40492133Y36151505D01*
X40492133Y36151505D02*
X40454038Y36227696D01*
X40758800Y36913411D02*
X40796895Y36837220D01*
X40796895Y36837220D02*
X40796895Y36684839D01*
X40796895Y36684839D02*
X40758800Y36608649D01*
X40758800Y36608649D02*
X40682609Y36570553D01*
X40682609Y36570553D02*
X40377847Y36570553D01*
X40377847Y36570553D02*
X40301657Y36608649D01*
X40301657Y36608649D02*
X40263561Y36684839D01*
X40263561Y36684839D02*
X40263561Y36837220D01*
X40263561Y36837220D02*
X40301657Y36913411D01*
X40301657Y36913411D02*
X40377847Y36951506D01*
X40377847Y36951506D02*
X40454038Y36951506D01*
X40454038Y36951506D02*
X40530228Y36570553D01*
X40796895Y37408648D02*
X40758800Y37332458D01*
X40758800Y37332458D02*
X40682609Y37294363D01*
X40682609Y37294363D02*
X39996895Y37294363D01*
X40796895Y38322935D02*
X39996895Y38322935D01*
X39996895Y38322935D02*
X39996895Y38513411D01*
X39996895Y38513411D02*
X40034990Y38627697D01*
X40034990Y38627697D02*
X40111180Y38703887D01*
X40111180Y38703887D02*
X40187371Y38741982D01*
X40187371Y38741982D02*
X40339752Y38780078D01*
X40339752Y38780078D02*
X40454038Y38780078D01*
X40454038Y38780078D02*
X40606419Y38741982D01*
X40606419Y38741982D02*
X40682609Y38703887D01*
X40682609Y38703887D02*
X40758800Y38627697D01*
X40758800Y38627697D02*
X40796895Y38513411D01*
X40796895Y38513411D02*
X40796895Y38322935D01*
X40796895Y39465792D02*
X40377847Y39465792D01*
X40377847Y39465792D02*
X40301657Y39427697D01*
X40301657Y39427697D02*
X40263561Y39351506D01*
X40263561Y39351506D02*
X40263561Y39199125D01*
X40263561Y39199125D02*
X40301657Y39122935D01*
X40758800Y39465792D02*
X40796895Y39389601D01*
X40796895Y39389601D02*
X40796895Y39199125D01*
X40796895Y39199125D02*
X40758800Y39122935D01*
X40758800Y39122935D02*
X40682609Y39084839D01*
X40682609Y39084839D02*
X40606419Y39084839D01*
X40606419Y39084839D02*
X40530228Y39122935D01*
X40530228Y39122935D02*
X40492133Y39199125D01*
X40492133Y39199125D02*
X40492133Y39389601D01*
X40492133Y39389601D02*
X40454038Y39465792D01*
X40263561Y39846745D02*
X40796895Y39846745D01*
X40339752Y39846745D02*
X40301657Y39884840D01*
X40301657Y39884840D02*
X40263561Y39961030D01*
X40263561Y39961030D02*
X40263561Y40075316D01*
X40263561Y40075316D02*
X40301657Y40151507D01*
X40301657Y40151507D02*
X40377847Y40189602D01*
X40377847Y40189602D02*
X40796895Y40189602D01*
X40796895Y40684840D02*
X40758800Y40608650D01*
X40758800Y40608650D02*
X40682609Y40570555D01*
X40682609Y40570555D02*
X39996895Y40570555D01*
X40758800Y41294365D02*
X40796895Y41218174D01*
X40796895Y41218174D02*
X40796895Y41065793D01*
X40796895Y41065793D02*
X40758800Y40989603D01*
X40758800Y40989603D02*
X40682609Y40951507D01*
X40682609Y40951507D02*
X40377847Y40951507D01*
X40377847Y40951507D02*
X40301657Y40989603D01*
X40301657Y40989603D02*
X40263561Y41065793D01*
X40263561Y41065793D02*
X40263561Y41218174D01*
X40263561Y41218174D02*
X40301657Y41294365D01*
X40301657Y41294365D02*
X40377847Y41332460D01*
X40377847Y41332460D02*
X40454038Y41332460D01*
X40454038Y41332460D02*
X40530228Y40951507D01*
X40263561Y41599126D02*
X40796895Y41789602D01*
X40263561Y41980079D02*
X40796895Y41789602D01*
X40796895Y41789602D02*
X40987371Y41713412D01*
X40987371Y41713412D02*
X41025466Y41675317D01*
X41025466Y41675317D02*
X41063561Y41599126D01*
X39404832Y25254289D02*
X38404832Y25254289D01*
X38404832Y25254289D02*
X38404832Y25635241D01*
X38404832Y25635241D02*
X38452451Y25730479D01*
X38452451Y25730479D02*
X38500070Y25778098D01*
X38500070Y25778098D02*
X38595308Y25825717D01*
X38595308Y25825717D02*
X38738165Y25825717D01*
X38738165Y25825717D02*
X38833403Y25778098D01*
X38833403Y25778098D02*
X38881022Y25730479D01*
X38881022Y25730479D02*
X38928641Y25635241D01*
X38928641Y25635241D02*
X38928641Y25254289D01*
X39404832Y26254289D02*
X38738165Y26254289D01*
X38404832Y26254289D02*
X38452451Y26206670D01*
X38452451Y26206670D02*
X38500070Y26254289D01*
X38500070Y26254289D02*
X38452451Y26301908D01*
X38452451Y26301908D02*
X38404832Y26254289D01*
X38404832Y26254289D02*
X38500070Y26254289D01*
X38404832Y27397146D02*
X38404832Y28016193D01*
X38404832Y28016193D02*
X38785784Y27682860D01*
X38785784Y27682860D02*
X38785784Y27825717D01*
X38785784Y27825717D02*
X38833403Y27920955D01*
X38833403Y27920955D02*
X38881022Y27968574D01*
X38881022Y27968574D02*
X38976260Y28016193D01*
X38976260Y28016193D02*
X39214355Y28016193D01*
X39214355Y28016193D02*
X39309593Y27968574D01*
X39309593Y27968574D02*
X39357213Y27920955D01*
X39357213Y27920955D02*
X39404832Y27825717D01*
X39404832Y27825717D02*
X39404832Y27540003D01*
X39404832Y27540003D02*
X39357213Y27444765D01*
X39357213Y27444765D02*
X39309593Y27397146D01*
X38881022Y28778098D02*
X38928641Y28920955D01*
X38928641Y28920955D02*
X38976260Y28968574D01*
X38976260Y28968574D02*
X39071498Y29016193D01*
X39071498Y29016193D02*
X39214355Y29016193D01*
X39214355Y29016193D02*
X39309593Y28968574D01*
X39309593Y28968574D02*
X39357213Y28920955D01*
X39357213Y28920955D02*
X39404832Y28825717D01*
X39404832Y28825717D02*
X39404832Y28444765D01*
X39404832Y28444765D02*
X38404832Y28444765D01*
X38404832Y28444765D02*
X38404832Y28778098D01*
X38404832Y28778098D02*
X38452451Y28873336D01*
X38452451Y28873336D02*
X38500070Y28920955D01*
X38500070Y28920955D02*
X38595308Y28968574D01*
X38595308Y28968574D02*
X38690546Y28968574D01*
X38690546Y28968574D02*
X38785784Y28920955D01*
X38785784Y28920955D02*
X38833403Y28873336D01*
X38833403Y28873336D02*
X38881022Y28778098D01*
X38881022Y28778098D02*
X38881022Y28444765D01*
X39309593Y30778098D02*
X39357213Y30730479D01*
X39357213Y30730479D02*
X39404832Y30587622D01*
X39404832Y30587622D02*
X39404832Y30492384D01*
X39404832Y30492384D02*
X39357213Y30349527D01*
X39357213Y30349527D02*
X39261974Y30254289D01*
X39261974Y30254289D02*
X39166736Y30206670D01*
X39166736Y30206670D02*
X38976260Y30159051D01*
X38976260Y30159051D02*
X38833403Y30159051D01*
X38833403Y30159051D02*
X38642927Y30206670D01*
X38642927Y30206670D02*
X38547689Y30254289D01*
X38547689Y30254289D02*
X38452451Y30349527D01*
X38452451Y30349527D02*
X38404832Y30492384D01*
X38404832Y30492384D02*
X38404832Y30587622D01*
X38404832Y30587622D02*
X38452451Y30730479D01*
X38452451Y30730479D02*
X38500070Y30778098D01*
X39404832Y31349527D02*
X39357213Y31254289D01*
X39357213Y31254289D02*
X39309593Y31206670D01*
X39309593Y31206670D02*
X39214355Y31159051D01*
X39214355Y31159051D02*
X38928641Y31159051D01*
X38928641Y31159051D02*
X38833403Y31206670D01*
X38833403Y31206670D02*
X38785784Y31254289D01*
X38785784Y31254289D02*
X38738165Y31349527D01*
X38738165Y31349527D02*
X38738165Y31492384D01*
X38738165Y31492384D02*
X38785784Y31587622D01*
X38785784Y31587622D02*
X38833403Y31635241D01*
X38833403Y31635241D02*
X38928641Y31682860D01*
X38928641Y31682860D02*
X39214355Y31682860D01*
X39214355Y31682860D02*
X39309593Y31635241D01*
X39309593Y31635241D02*
X39357213Y31587622D01*
X39357213Y31587622D02*
X39404832Y31492384D01*
X39404832Y31492384D02*
X39404832Y31349527D01*
X38738165Y32111432D02*
X39404832Y32111432D01*
X38833403Y32111432D02*
X38785784Y32159051D01*
X38785784Y32159051D02*
X38738165Y32254289D01*
X38738165Y32254289D02*
X38738165Y32397146D01*
X38738165Y32397146D02*
X38785784Y32492384D01*
X38785784Y32492384D02*
X38881022Y32540003D01*
X38881022Y32540003D02*
X39404832Y32540003D01*
X38738165Y32873337D02*
X38738165Y33254289D01*
X38404832Y33016194D02*
X39261974Y33016194D01*
X39261974Y33016194D02*
X39357213Y33063813D01*
X39357213Y33063813D02*
X39404832Y33159051D01*
X39404832Y33159051D02*
X39404832Y33254289D01*
X39404832Y33587623D02*
X38738165Y33587623D01*
X38928641Y33587623D02*
X38833403Y33635242D01*
X38833403Y33635242D02*
X38785784Y33682861D01*
X38785784Y33682861D02*
X38738165Y33778099D01*
X38738165Y33778099D02*
X38738165Y33873337D01*
X39404832Y34349528D02*
X39357213Y34254290D01*
X39357213Y34254290D02*
X39309593Y34206671D01*
X39309593Y34206671D02*
X39214355Y34159052D01*
X39214355Y34159052D02*
X38928641Y34159052D01*
X38928641Y34159052D02*
X38833403Y34206671D01*
X38833403Y34206671D02*
X38785784Y34254290D01*
X38785784Y34254290D02*
X38738165Y34349528D01*
X38738165Y34349528D02*
X38738165Y34492385D01*
X38738165Y34492385D02*
X38785784Y34587623D01*
X38785784Y34587623D02*
X38833403Y34635242D01*
X38833403Y34635242D02*
X38928641Y34682861D01*
X38928641Y34682861D02*
X39214355Y34682861D01*
X39214355Y34682861D02*
X39309593Y34635242D01*
X39309593Y34635242D02*
X39357213Y34587623D01*
X39357213Y34587623D02*
X39404832Y34492385D01*
X39404832Y34492385D02*
X39404832Y34349528D01*
X39404832Y35254290D02*
X39357213Y35159052D01*
X39357213Y35159052D02*
X39261974Y35111433D01*
X39261974Y35111433D02*
X38404832Y35111433D01*
X39404832Y35778100D02*
X39357213Y35682862D01*
X39357213Y35682862D02*
X39261974Y35635243D01*
X39261974Y35635243D02*
X38404832Y35635243D01*
X39357213Y36540005D02*
X39404832Y36444767D01*
X39404832Y36444767D02*
X39404832Y36254291D01*
X39404832Y36254291D02*
X39357213Y36159053D01*
X39357213Y36159053D02*
X39261974Y36111434D01*
X39261974Y36111434D02*
X38881022Y36111434D01*
X38881022Y36111434D02*
X38785784Y36159053D01*
X38785784Y36159053D02*
X38738165Y36254291D01*
X38738165Y36254291D02*
X38738165Y36444767D01*
X38738165Y36444767D02*
X38785784Y36540005D01*
X38785784Y36540005D02*
X38881022Y36587624D01*
X38881022Y36587624D02*
X38976260Y36587624D01*
X38976260Y36587624D02*
X39071498Y36111434D01*
X39404832Y37016196D02*
X38738165Y37016196D01*
X38928641Y37016196D02*
X38833403Y37063815D01*
X38833403Y37063815D02*
X38785784Y37111434D01*
X38785784Y37111434D02*
X38738165Y37206672D01*
X38738165Y37206672D02*
X38738165Y37301910D01*
X39404832Y38397149D02*
X38404832Y38397149D01*
X38404832Y39063815D02*
X38404832Y39254291D01*
X38404832Y39254291D02*
X38452451Y39349529D01*
X38452451Y39349529D02*
X38547689Y39444767D01*
X38547689Y39444767D02*
X38738165Y39492386D01*
X38738165Y39492386D02*
X39071498Y39492386D01*
X39071498Y39492386D02*
X39261974Y39444767D01*
X39261974Y39444767D02*
X39357213Y39349529D01*
X39357213Y39349529D02*
X39404832Y39254291D01*
X39404832Y39254291D02*
X39404832Y39063815D01*
X39404832Y39063815D02*
X39357213Y38968577D01*
X39357213Y38968577D02*
X39261974Y38873339D01*
X39261974Y38873339D02*
X39071498Y38825720D01*
X39071498Y38825720D02*
X38738165Y38825720D01*
X38738165Y38825720D02*
X38547689Y38873339D01*
X38547689Y38873339D02*
X38452451Y38968577D01*
X38452451Y38968577D02*
X38404832Y39063815D01*
X39404832Y40682863D02*
X38404832Y40682863D01*
X38881022Y40682863D02*
X38881022Y41254291D01*
X39404832Y41254291D02*
X38404832Y41254291D01*
X39404832Y42159053D02*
X38881022Y42159053D01*
X38881022Y42159053D02*
X38785784Y42111434D01*
X38785784Y42111434D02*
X38738165Y42016196D01*
X38738165Y42016196D02*
X38738165Y41825720D01*
X38738165Y41825720D02*
X38785784Y41730482D01*
X39357213Y42159053D02*
X39404832Y42063815D01*
X39404832Y42063815D02*
X39404832Y41825720D01*
X39404832Y41825720D02*
X39357213Y41730482D01*
X39357213Y41730482D02*
X39261974Y41682863D01*
X39261974Y41682863D02*
X39166736Y41682863D01*
X39166736Y41682863D02*
X39071498Y41730482D01*
X39071498Y41730482D02*
X39023879Y41825720D01*
X39023879Y41825720D02*
X39023879Y42063815D01*
X39023879Y42063815D02*
X38976260Y42159053D01*
X38738165Y42492387D02*
X38738165Y42873339D01*
X38404832Y42635244D02*
X39261974Y42635244D01*
X39261974Y42635244D02*
X39357213Y42682863D01*
X39357213Y42682863D02*
X39404832Y42778101D01*
X39404832Y42778101D02*
X39404832Y42873339D01*
D12*
X37630977Y25248319D02*
X36380977Y25248319D01*
X36380977Y25248319D02*
X36380977Y25724509D01*
X36380977Y25724509D02*
X36440501Y25843557D01*
X36440501Y25843557D02*
X36500025Y25903080D01*
X36500025Y25903080D02*
X36619073Y25962604D01*
X36619073Y25962604D02*
X36797644Y25962604D01*
X36797644Y25962604D02*
X36916692Y25903080D01*
X36916692Y25903080D02*
X36976215Y25843557D01*
X36976215Y25843557D02*
X37035739Y25724509D01*
X37035739Y25724509D02*
X37035739Y25248319D01*
X37630977Y26498319D02*
X36797644Y26498319D01*
X37035739Y26498319D02*
X36916692Y26557842D01*
X36916692Y26557842D02*
X36857168Y26617366D01*
X36857168Y26617366D02*
X36797644Y26736414D01*
X36797644Y26736414D02*
X36797644Y26855461D01*
X37630977Y27450700D02*
X37571454Y27331652D01*
X37571454Y27331652D02*
X37511930Y27272129D01*
X37511930Y27272129D02*
X37392882Y27212605D01*
X37392882Y27212605D02*
X37035739Y27212605D01*
X37035739Y27212605D02*
X36916692Y27272129D01*
X36916692Y27272129D02*
X36857168Y27331652D01*
X36857168Y27331652D02*
X36797644Y27450700D01*
X36797644Y27450700D02*
X36797644Y27629271D01*
X36797644Y27629271D02*
X36857168Y27748319D01*
X36857168Y27748319D02*
X36916692Y27807843D01*
X36916692Y27807843D02*
X37035739Y27867367D01*
X37035739Y27867367D02*
X37392882Y27867367D01*
X37392882Y27867367D02*
X37511930Y27807843D01*
X37511930Y27807843D02*
X37571454Y27748319D01*
X37571454Y27748319D02*
X37630977Y27629271D01*
X37630977Y27629271D02*
X37630977Y27450700D01*
X36797644Y28403081D02*
X37869073Y28403081D01*
X37869073Y28403081D02*
X37988120Y28343557D01*
X37988120Y28343557D02*
X38047644Y28224509D01*
X38047644Y28224509D02*
X38047644Y28164985D01*
X36380977Y28403081D02*
X36440501Y28343557D01*
X36440501Y28343557D02*
X36500025Y28403081D01*
X36500025Y28403081D02*
X36440501Y28462604D01*
X36440501Y28462604D02*
X36380977Y28403081D01*
X36380977Y28403081D02*
X36500025Y28403081D01*
X37571454Y29474509D02*
X37630977Y29355461D01*
X37630977Y29355461D02*
X37630977Y29117366D01*
X37630977Y29117366D02*
X37571454Y28998319D01*
X37571454Y28998319D02*
X37452406Y28938795D01*
X37452406Y28938795D02*
X36976215Y28938795D01*
X36976215Y28938795D02*
X36857168Y28998319D01*
X36857168Y28998319D02*
X36797644Y29117366D01*
X36797644Y29117366D02*
X36797644Y29355461D01*
X36797644Y29355461D02*
X36857168Y29474509D01*
X36857168Y29474509D02*
X36976215Y29534033D01*
X36976215Y29534033D02*
X37095263Y29534033D01*
X37095263Y29534033D02*
X37214311Y28938795D01*
X37571454Y30605462D02*
X37630977Y30486414D01*
X37630977Y30486414D02*
X37630977Y30248319D01*
X37630977Y30248319D02*
X37571454Y30129271D01*
X37571454Y30129271D02*
X37511930Y30069748D01*
X37511930Y30069748D02*
X37392882Y30010224D01*
X37392882Y30010224D02*
X37035739Y30010224D01*
X37035739Y30010224D02*
X36916692Y30069748D01*
X36916692Y30069748D02*
X36857168Y30129271D01*
X36857168Y30129271D02*
X36797644Y30248319D01*
X36797644Y30248319D02*
X36797644Y30486414D01*
X36797644Y30486414D02*
X36857168Y30605462D01*
X36797644Y30962605D02*
X36797644Y31438796D01*
X36380977Y31141177D02*
X37452406Y31141177D01*
X37452406Y31141177D02*
X37571454Y31200700D01*
X37571454Y31200700D02*
X37630977Y31319748D01*
X37630977Y31319748D02*
X37630977Y31438796D01*
X36380977Y33045939D02*
X36380977Y33284034D01*
X36380977Y33284034D02*
X36440501Y33403082D01*
X36440501Y33403082D02*
X36559549Y33522129D01*
X36559549Y33522129D02*
X36797644Y33581653D01*
X36797644Y33581653D02*
X37214311Y33581653D01*
X37214311Y33581653D02*
X37452406Y33522129D01*
X37452406Y33522129D02*
X37571454Y33403082D01*
X37571454Y33403082D02*
X37630977Y33284034D01*
X37630977Y33284034D02*
X37630977Y33045939D01*
X37630977Y33045939D02*
X37571454Y32926891D01*
X37571454Y32926891D02*
X37452406Y32807844D01*
X37452406Y32807844D02*
X37214311Y32748320D01*
X37214311Y32748320D02*
X36797644Y32748320D01*
X36797644Y32748320D02*
X36559549Y32807844D01*
X36559549Y32807844D02*
X36440501Y32926891D01*
X36440501Y32926891D02*
X36380977Y33045939D01*
X37630977Y34831653D02*
X37035739Y34414987D01*
X37630977Y34117368D02*
X36380977Y34117368D01*
X36380977Y34117368D02*
X36380977Y34593558D01*
X36380977Y34593558D02*
X36440501Y34712606D01*
X36440501Y34712606D02*
X36500025Y34772129D01*
X36500025Y34772129D02*
X36619073Y34831653D01*
X36619073Y34831653D02*
X36797644Y34831653D01*
X36797644Y34831653D02*
X36916692Y34772129D01*
X36916692Y34772129D02*
X36976215Y34712606D01*
X36976215Y34712606D02*
X37035739Y34593558D01*
X37035739Y34593558D02*
X37035739Y34117368D01*
X37511930Y36081653D02*
X37571454Y36022129D01*
X37571454Y36022129D02*
X37630977Y35843558D01*
X37630977Y35843558D02*
X37630977Y35724510D01*
X37630977Y35724510D02*
X37571454Y35545939D01*
X37571454Y35545939D02*
X37452406Y35426891D01*
X37452406Y35426891D02*
X37333358Y35367368D01*
X37333358Y35367368D02*
X37095263Y35307844D01*
X37095263Y35307844D02*
X36916692Y35307844D01*
X36916692Y35307844D02*
X36678596Y35367368D01*
X36678596Y35367368D02*
X36559549Y35426891D01*
X36559549Y35426891D02*
X36440501Y35545939D01*
X36440501Y35545939D02*
X36380977Y35724510D01*
X36380977Y35724510D02*
X36380977Y35843558D01*
X36380977Y35843558D02*
X36440501Y36022129D01*
X36440501Y36022129D02*
X36500025Y36081653D01*
X37273834Y36557844D02*
X37273834Y37153082D01*
X37630977Y36438796D02*
X36380977Y36855463D01*
X36380977Y36855463D02*
X37630977Y37272129D01*
X37154787Y38641178D02*
X37154787Y39593558D01*
X37511930Y41855463D02*
X37571454Y41795939D01*
X37571454Y41795939D02*
X37630977Y41617368D01*
X37630977Y41617368D02*
X37630977Y41498320D01*
X37630977Y41498320D02*
X37571454Y41319749D01*
X37571454Y41319749D02*
X37452406Y41200701D01*
X37452406Y41200701D02*
X37333358Y41141178D01*
X37333358Y41141178D02*
X37095263Y41081654D01*
X37095263Y41081654D02*
X36916692Y41081654D01*
X36916692Y41081654D02*
X36678596Y41141178D01*
X36678596Y41141178D02*
X36559549Y41200701D01*
X36559549Y41200701D02*
X36440501Y41319749D01*
X36440501Y41319749D02*
X36380977Y41498320D01*
X36380977Y41498320D02*
X36380977Y41617368D01*
X36380977Y41617368D02*
X36440501Y41795939D01*
X36440501Y41795939D02*
X36500025Y41855463D01*
X36976215Y42391178D02*
X36976215Y42807844D01*
X37630977Y42986416D02*
X37630977Y42391178D01*
X37630977Y42391178D02*
X36380977Y42391178D01*
X36380977Y42391178D02*
X36380977Y42986416D01*
X37630977Y43522130D02*
X36380977Y43522130D01*
X36380977Y43522130D02*
X37630977Y44236415D01*
X37630977Y44236415D02*
X36380977Y44236415D01*
X36380977Y44653082D02*
X36380977Y45367368D01*
X37630977Y45010225D02*
X36380977Y45010225D01*
X37630977Y46498320D02*
X37035739Y46081654D01*
X37630977Y45784035D02*
X36380977Y45784035D01*
X36380977Y45784035D02*
X36380977Y46260225D01*
X36380977Y46260225D02*
X36440501Y46379273D01*
X36440501Y46379273D02*
X36500025Y46438796D01*
X36500025Y46438796D02*
X36619073Y46498320D01*
X36619073Y46498320D02*
X36797644Y46498320D01*
X36797644Y46498320D02*
X36916692Y46438796D01*
X36916692Y46438796D02*
X36976215Y46379273D01*
X36976215Y46379273D02*
X37035739Y46260225D01*
X37035739Y46260225D02*
X37035739Y45784035D01*
X37273834Y46974511D02*
X37273834Y47569749D01*
X37630977Y46855463D02*
X36380977Y47272130D01*
X36380977Y47272130D02*
X37630977Y47688796D01*
X37630977Y48700702D02*
X37630977Y48105464D01*
X37630977Y48105464D02*
X36380977Y48105464D01*
D13*
X42266666Y13745181D02*
X42266666Y13030896D01*
X42266666Y13030896D02*
X42219047Y12888039D01*
X42219047Y12888039D02*
X42123809Y12792800D01*
X42123809Y12792800D02*
X41980952Y12745181D01*
X41980952Y12745181D02*
X41885714Y12745181D01*
X43266666Y12745181D02*
X42695238Y12745181D01*
X42980952Y12745181D02*
X42980952Y13745181D01*
X42980952Y13745181D02*
X42885714Y13602324D01*
X42885714Y13602324D02*
X42790476Y13507086D01*
X42790476Y13507086D02*
X42695238Y13459467D01*
X31636637Y33277143D02*
X31684257Y33229524D01*
X31684257Y33229524D02*
X31731876Y33086667D01*
X31731876Y33086667D02*
X31731876Y32991429D01*
X31731876Y32991429D02*
X31684257Y32848572D01*
X31684257Y32848572D02*
X31589018Y32753334D01*
X31589018Y32753334D02*
X31493780Y32705715D01*
X31493780Y32705715D02*
X31303304Y32658096D01*
X31303304Y32658096D02*
X31160447Y32658096D01*
X31160447Y32658096D02*
X30969971Y32705715D01*
X30969971Y32705715D02*
X30874733Y32753334D01*
X30874733Y32753334D02*
X30779495Y32848572D01*
X30779495Y32848572D02*
X30731876Y32991429D01*
X30731876Y32991429D02*
X30731876Y33086667D01*
X30731876Y33086667D02*
X30779495Y33229524D01*
X30779495Y33229524D02*
X30827114Y33277143D01*
X31731876Y34229524D02*
X31731876Y33658096D01*
X31731876Y33943810D02*
X30731876Y33943810D01*
X30731876Y33943810D02*
X30874733Y33848572D01*
X30874733Y33848572D02*
X30969971Y33753334D01*
X30969971Y33753334D02*
X31017590Y33658096D01*
X30731876Y34848572D02*
X30731876Y34943810D01*
X30731876Y34943810D02*
X30779495Y35039048D01*
X30779495Y35039048D02*
X30827114Y35086667D01*
X30827114Y35086667D02*
X30922352Y35134286D01*
X30922352Y35134286D02*
X31112828Y35181905D01*
X31112828Y35181905D02*
X31350923Y35181905D01*
X31350923Y35181905D02*
X31541399Y35134286D01*
X31541399Y35134286D02*
X31636637Y35086667D01*
X31636637Y35086667D02*
X31684257Y35039048D01*
X31684257Y35039048D02*
X31731876Y34943810D01*
X31731876Y34943810D02*
X31731876Y34848572D01*
X31731876Y34848572D02*
X31684257Y34753334D01*
X31684257Y34753334D02*
X31636637Y34705715D01*
X31636637Y34705715D02*
X31541399Y34658096D01*
X31541399Y34658096D02*
X31350923Y34610477D01*
X31350923Y34610477D02*
X31112828Y34610477D01*
X31112828Y34610477D02*
X30922352Y34658096D01*
X30922352Y34658096D02*
X30827114Y34705715D01*
X30827114Y34705715D02*
X30779495Y34753334D01*
X30779495Y34753334D02*
X30731876Y34848572D01*
X32131876Y28233334D02*
X31655685Y27900001D01*
X32131876Y27661906D02*
X31131876Y27661906D01*
X31131876Y27661906D02*
X31131876Y28042858D01*
X31131876Y28042858D02*
X31179495Y28138096D01*
X31179495Y28138096D02*
X31227114Y28185715D01*
X31227114Y28185715D02*
X31322352Y28233334D01*
X31322352Y28233334D02*
X31465209Y28233334D01*
X31465209Y28233334D02*
X31560447Y28185715D01*
X31560447Y28185715D02*
X31608066Y28138096D01*
X31608066Y28138096D02*
X31655685Y28042858D01*
X31655685Y28042858D02*
X31655685Y27661906D01*
X31131876Y29138096D02*
X31131876Y28661906D01*
X31131876Y28661906D02*
X31608066Y28614287D01*
X31608066Y28614287D02*
X31560447Y28661906D01*
X31560447Y28661906D02*
X31512828Y28757144D01*
X31512828Y28757144D02*
X31512828Y28995239D01*
X31512828Y28995239D02*
X31560447Y29090477D01*
X31560447Y29090477D02*
X31608066Y29138096D01*
X31608066Y29138096D02*
X31703304Y29185715D01*
X31703304Y29185715D02*
X31941399Y29185715D01*
X31941399Y29185715D02*
X32036637Y29138096D01*
X32036637Y29138096D02*
X32084257Y29090477D01*
X32084257Y29090477D02*
X32131876Y28995239D01*
X32131876Y28995239D02*
X32131876Y28757144D01*
X32131876Y28757144D02*
X32084257Y28661906D01*
X32084257Y28661906D02*
X32036637Y28614287D01*
X25309199Y36840420D02*
X25261580Y36792800D01*
X25261580Y36792800D02*
X25118723Y36745181D01*
X25118723Y36745181D02*
X25023485Y36745181D01*
X25023485Y36745181D02*
X24880628Y36792800D01*
X24880628Y36792800D02*
X24785390Y36888039D01*
X24785390Y36888039D02*
X24737771Y36983277D01*
X24737771Y36983277D02*
X24690152Y37173753D01*
X24690152Y37173753D02*
X24690152Y37316610D01*
X24690152Y37316610D02*
X24737771Y37507086D01*
X24737771Y37507086D02*
X24785390Y37602324D01*
X24785390Y37602324D02*
X24880628Y37697562D01*
X24880628Y37697562D02*
X25023485Y37745181D01*
X25023485Y37745181D02*
X25118723Y37745181D01*
X25118723Y37745181D02*
X25261580Y37697562D01*
X25261580Y37697562D02*
X25309199Y37649943D01*
X26261580Y36745181D02*
X25690152Y36745181D01*
X25975866Y36745181D02*
X25975866Y37745181D01*
X25975866Y37745181D02*
X25880628Y37602324D01*
X25880628Y37602324D02*
X25785390Y37507086D01*
X25785390Y37507086D02*
X25690152Y37459467D01*
X27166342Y37745181D02*
X26690152Y37745181D01*
X26690152Y37745181D02*
X26642533Y37268991D01*
X26642533Y37268991D02*
X26690152Y37316610D01*
X26690152Y37316610D02*
X26785390Y37364229D01*
X26785390Y37364229D02*
X27023485Y37364229D01*
X27023485Y37364229D02*
X27118723Y37316610D01*
X27118723Y37316610D02*
X27166342Y37268991D01*
X27166342Y37268991D02*
X27213961Y37173753D01*
X27213961Y37173753D02*
X27213961Y36935658D01*
X27213961Y36935658D02*
X27166342Y36840420D01*
X27166342Y36840420D02*
X27118723Y36792800D01*
X27118723Y36792800D02*
X27023485Y36745181D01*
X27023485Y36745181D02*
X26785390Y36745181D01*
X26785390Y36745181D02*
X26690152Y36792800D01*
X26690152Y36792800D02*
X26642533Y36840420D01*
X37087557Y1954762D02*
X37039938Y1859524D01*
X37039938Y1859524D02*
X36944700Y1764286D01*
X36944700Y1764286D02*
X36801842Y1621429D01*
X36801842Y1621429D02*
X36754223Y1526191D01*
X36754223Y1526191D02*
X36754223Y1430953D01*
X36992319Y1478572D02*
X36944700Y1383334D01*
X36944700Y1383334D02*
X36849461Y1288096D01*
X36849461Y1288096D02*
X36658985Y1240477D01*
X36658985Y1240477D02*
X36325652Y1240477D01*
X36325652Y1240477D02*
X36135176Y1288096D01*
X36135176Y1288096D02*
X36039938Y1383334D01*
X36039938Y1383334D02*
X35992319Y1478572D01*
X35992319Y1478572D02*
X35992319Y1669048D01*
X35992319Y1669048D02*
X36039938Y1764286D01*
X36039938Y1764286D02*
X36135176Y1859524D01*
X36135176Y1859524D02*
X36325652Y1907143D01*
X36325652Y1907143D02*
X36658985Y1907143D01*
X36658985Y1907143D02*
X36849461Y1859524D01*
X36849461Y1859524D02*
X36944700Y1764286D01*
X36944700Y1764286D02*
X36992319Y1669048D01*
X36992319Y1669048D02*
X36992319Y1478572D01*
X35992319Y2811905D02*
X35992319Y2335715D01*
X35992319Y2335715D02*
X36468509Y2288096D01*
X36468509Y2288096D02*
X36420890Y2335715D01*
X36420890Y2335715D02*
X36373271Y2430953D01*
X36373271Y2430953D02*
X36373271Y2669048D01*
X36373271Y2669048D02*
X36420890Y2764286D01*
X36420890Y2764286D02*
X36468509Y2811905D01*
X36468509Y2811905D02*
X36563747Y2859524D01*
X36563747Y2859524D02*
X36801842Y2859524D01*
X36801842Y2859524D02*
X36897080Y2811905D01*
X36897080Y2811905D02*
X36944700Y2764286D01*
X36944700Y2764286D02*
X36992319Y2669048D01*
X36992319Y2669048D02*
X36992319Y2430953D01*
X36992319Y2430953D02*
X36944700Y2335715D01*
X36944700Y2335715D02*
X36897080Y2288096D01*
X47833333Y16745181D02*
X47500000Y17221372D01*
X47261905Y16745181D02*
X47261905Y17745181D01*
X47261905Y17745181D02*
X47642857Y17745181D01*
X47642857Y17745181D02*
X47738095Y17697562D01*
X47738095Y17697562D02*
X47785714Y17649943D01*
X47785714Y17649943D02*
X47833333Y17554705D01*
X47833333Y17554705D02*
X47833333Y17411848D01*
X47833333Y17411848D02*
X47785714Y17316610D01*
X47785714Y17316610D02*
X47738095Y17268991D01*
X47738095Y17268991D02*
X47642857Y17221372D01*
X47642857Y17221372D02*
X47261905Y17221372D01*
X48690476Y17411848D02*
X48690476Y16745181D01*
X48452381Y17792800D02*
X48214286Y17078515D01*
X48214286Y17078515D02*
X48833333Y17078515D01*
X25309199Y34440420D02*
X25261580Y34392800D01*
X25261580Y34392800D02*
X25118723Y34345181D01*
X25118723Y34345181D02*
X25023485Y34345181D01*
X25023485Y34345181D02*
X24880628Y34392800D01*
X24880628Y34392800D02*
X24785390Y34488039D01*
X24785390Y34488039D02*
X24737771Y34583277D01*
X24737771Y34583277D02*
X24690152Y34773753D01*
X24690152Y34773753D02*
X24690152Y34916610D01*
X24690152Y34916610D02*
X24737771Y35107086D01*
X24737771Y35107086D02*
X24785390Y35202324D01*
X24785390Y35202324D02*
X24880628Y35297562D01*
X24880628Y35297562D02*
X25023485Y35345181D01*
X25023485Y35345181D02*
X25118723Y35345181D01*
X25118723Y35345181D02*
X25261580Y35297562D01*
X25261580Y35297562D02*
X25309199Y35249943D01*
X26261580Y34345181D02*
X25690152Y34345181D01*
X25975866Y34345181D02*
X25975866Y35345181D01*
X25975866Y35345181D02*
X25880628Y35202324D01*
X25880628Y35202324D02*
X25785390Y35107086D01*
X25785390Y35107086D02*
X25690152Y35059467D01*
X26642533Y35249943D02*
X26690152Y35297562D01*
X26690152Y35297562D02*
X26785390Y35345181D01*
X26785390Y35345181D02*
X27023485Y35345181D01*
X27023485Y35345181D02*
X27118723Y35297562D01*
X27118723Y35297562D02*
X27166342Y35249943D01*
X27166342Y35249943D02*
X27213961Y35154705D01*
X27213961Y35154705D02*
X27213961Y35059467D01*
X27213961Y35059467D02*
X27166342Y34916610D01*
X27166342Y34916610D02*
X26594914Y34345181D01*
X26594914Y34345181D02*
X27213961Y34345181D01*
X11858333Y13490420D02*
X11810714Y13442800D01*
X11810714Y13442800D02*
X11667857Y13395181D01*
X11667857Y13395181D02*
X11572619Y13395181D01*
X11572619Y13395181D02*
X11429762Y13442800D01*
X11429762Y13442800D02*
X11334524Y13538039D01*
X11334524Y13538039D02*
X11286905Y13633277D01*
X11286905Y13633277D02*
X11239286Y13823753D01*
X11239286Y13823753D02*
X11239286Y13966610D01*
X11239286Y13966610D02*
X11286905Y14157086D01*
X11286905Y14157086D02*
X11334524Y14252324D01*
X11334524Y14252324D02*
X11429762Y14347562D01*
X11429762Y14347562D02*
X11572619Y14395181D01*
X11572619Y14395181D02*
X11667857Y14395181D01*
X11667857Y14395181D02*
X11810714Y14347562D01*
X11810714Y14347562D02*
X11858333Y14299943D01*
X12191667Y14395181D02*
X12858333Y14395181D01*
X12858333Y14395181D02*
X12429762Y13395181D01*
X37757142Y22745181D02*
X37423809Y23221372D01*
X37185714Y22745181D02*
X37185714Y23745181D01*
X37185714Y23745181D02*
X37566666Y23745181D01*
X37566666Y23745181D02*
X37661904Y23697562D01*
X37661904Y23697562D02*
X37709523Y23649943D01*
X37709523Y23649943D02*
X37757142Y23554705D01*
X37757142Y23554705D02*
X37757142Y23411848D01*
X37757142Y23411848D02*
X37709523Y23316610D01*
X37709523Y23316610D02*
X37661904Y23268991D01*
X37661904Y23268991D02*
X37566666Y23221372D01*
X37566666Y23221372D02*
X37185714Y23221372D01*
X38709523Y22745181D02*
X38138095Y22745181D01*
X38423809Y22745181D02*
X38423809Y23745181D01*
X38423809Y23745181D02*
X38328571Y23602324D01*
X38328571Y23602324D02*
X38233333Y23507086D01*
X38233333Y23507086D02*
X38138095Y23459467D01*
X39661904Y22745181D02*
X39090476Y22745181D01*
X39376190Y22745181D02*
X39376190Y23745181D01*
X39376190Y23745181D02*
X39280952Y23602324D01*
X39280952Y23602324D02*
X39185714Y23507086D01*
X39185714Y23507086D02*
X39090476Y23459467D01*
X6179819Y43050477D02*
X6894104Y43050477D01*
X6894104Y43050477D02*
X7036961Y43002858D01*
X7036961Y43002858D02*
X7132200Y42907620D01*
X7132200Y42907620D02*
X7179819Y42764763D01*
X7179819Y42764763D02*
X7179819Y42669525D01*
X7179819Y44050477D02*
X7179819Y43479049D01*
X7179819Y43764763D02*
X6179819Y43764763D01*
X6179819Y43764763D02*
X6322676Y43669525D01*
X6322676Y43669525D02*
X6417914Y43574287D01*
X6417914Y43574287D02*
X6465533Y43479049D01*
X6275057Y44431430D02*
X6227438Y44479049D01*
X6227438Y44479049D02*
X6179819Y44574287D01*
X6179819Y44574287D02*
X6179819Y44812382D01*
X6179819Y44812382D02*
X6227438Y44907620D01*
X6227438Y44907620D02*
X6275057Y44955239D01*
X6275057Y44955239D02*
X6370295Y45002858D01*
X6370295Y45002858D02*
X6465533Y45002858D01*
X6465533Y45002858D02*
X6608390Y44955239D01*
X6608390Y44955239D02*
X7179819Y44383811D01*
X7179819Y44383811D02*
X7179819Y45002858D01*
X30590476Y10145181D02*
X30590476Y9430896D01*
X30590476Y9430896D02*
X30542857Y9288039D01*
X30542857Y9288039D02*
X30447619Y9192800D01*
X30447619Y9192800D02*
X30304762Y9145181D01*
X30304762Y9145181D02*
X30209524Y9145181D01*
X31590476Y9145181D02*
X31019048Y9145181D01*
X31304762Y9145181D02*
X31304762Y10145181D01*
X31304762Y10145181D02*
X31209524Y10002324D01*
X31209524Y10002324D02*
X31114286Y9907086D01*
X31114286Y9907086D02*
X31019048Y9859467D01*
X32209524Y10145181D02*
X32304762Y10145181D01*
X32304762Y10145181D02*
X32400000Y10097562D01*
X32400000Y10097562D02*
X32447619Y10049943D01*
X32447619Y10049943D02*
X32495238Y9954705D01*
X32495238Y9954705D02*
X32542857Y9764229D01*
X32542857Y9764229D02*
X32542857Y9526134D01*
X32542857Y9526134D02*
X32495238Y9335658D01*
X32495238Y9335658D02*
X32447619Y9240420D01*
X32447619Y9240420D02*
X32400000Y9192800D01*
X32400000Y9192800D02*
X32304762Y9145181D01*
X32304762Y9145181D02*
X32209524Y9145181D01*
X32209524Y9145181D02*
X32114286Y9192800D01*
X32114286Y9192800D02*
X32066667Y9240420D01*
X32066667Y9240420D02*
X32019048Y9335658D01*
X32019048Y9335658D02*
X31971429Y9526134D01*
X31971429Y9526134D02*
X31971429Y9764229D01*
X31971429Y9764229D02*
X32019048Y9954705D01*
X32019048Y9954705D02*
X32066667Y10049943D01*
X32066667Y10049943D02*
X32114286Y10097562D01*
X32114286Y10097562D02*
X32209524Y10145181D01*
X12672181Y24511906D02*
X11862658Y24511906D01*
X11862658Y24511906D02*
X11767420Y24464287D01*
X11767420Y24464287D02*
X11719801Y24416668D01*
X11719801Y24416668D02*
X11672181Y24321430D01*
X11672181Y24321430D02*
X11672181Y24130954D01*
X11672181Y24130954D02*
X11719801Y24035716D01*
X11719801Y24035716D02*
X11767420Y23988097D01*
X11767420Y23988097D02*
X11862658Y23940478D01*
X11862658Y23940478D02*
X12672181Y23940478D01*
X12338848Y23035716D02*
X11672181Y23035716D01*
X12719801Y23273811D02*
X12005515Y23511906D01*
X12005515Y23511906D02*
X12005515Y22892859D01*
X30590476Y2565181D02*
X30590476Y1850896D01*
X30590476Y1850896D02*
X30542857Y1708039D01*
X30542857Y1708039D02*
X30447619Y1612800D01*
X30447619Y1612800D02*
X30304762Y1565181D01*
X30304762Y1565181D02*
X30209524Y1565181D01*
X31590476Y1565181D02*
X31019048Y1565181D01*
X31304762Y1565181D02*
X31304762Y2565181D01*
X31304762Y2565181D02*
X31209524Y2422324D01*
X31209524Y2422324D02*
X31114286Y2327086D01*
X31114286Y2327086D02*
X31019048Y2279467D01*
X32542857Y1565181D02*
X31971429Y1565181D01*
X32257143Y1565181D02*
X32257143Y2565181D01*
X32257143Y2565181D02*
X32161905Y2422324D01*
X32161905Y2422324D02*
X32066667Y2327086D01*
X32066667Y2327086D02*
X31971429Y2279467D01*
X25481877Y29188095D02*
X26291400Y29188095D01*
X26291400Y29188095D02*
X26386638Y29235714D01*
X26386638Y29235714D02*
X26434258Y29283333D01*
X26434258Y29283333D02*
X26481877Y29378571D01*
X26481877Y29378571D02*
X26481877Y29569047D01*
X26481877Y29569047D02*
X26434258Y29664285D01*
X26434258Y29664285D02*
X26386638Y29711904D01*
X26386638Y29711904D02*
X26291400Y29759523D01*
X26291400Y29759523D02*
X25481877Y29759523D01*
X25481877Y30664285D02*
X25481877Y30473809D01*
X25481877Y30473809D02*
X25529496Y30378571D01*
X25529496Y30378571D02*
X25577115Y30330952D01*
X25577115Y30330952D02*
X25719972Y30235714D01*
X25719972Y30235714D02*
X25910448Y30188095D01*
X25910448Y30188095D02*
X26291400Y30188095D01*
X26291400Y30188095D02*
X26386638Y30235714D01*
X26386638Y30235714D02*
X26434258Y30283333D01*
X26434258Y30283333D02*
X26481877Y30378571D01*
X26481877Y30378571D02*
X26481877Y30569047D01*
X26481877Y30569047D02*
X26434258Y30664285D01*
X26434258Y30664285D02*
X26386638Y30711904D01*
X26386638Y30711904D02*
X26291400Y30759523D01*
X26291400Y30759523D02*
X26053305Y30759523D01*
X26053305Y30759523D02*
X25958067Y30711904D01*
X25958067Y30711904D02*
X25910448Y30664285D01*
X25910448Y30664285D02*
X25862829Y30569047D01*
X25862829Y30569047D02*
X25862829Y30378571D01*
X25862829Y30378571D02*
X25910448Y30283333D01*
X25910448Y30283333D02*
X25958067Y30235714D01*
X25958067Y30235714D02*
X26053305Y30188095D01*
X37757142Y20945181D02*
X37423809Y21421372D01*
X37185714Y20945181D02*
X37185714Y21945181D01*
X37185714Y21945181D02*
X37566666Y21945181D01*
X37566666Y21945181D02*
X37661904Y21897562D01*
X37661904Y21897562D02*
X37709523Y21849943D01*
X37709523Y21849943D02*
X37757142Y21754705D01*
X37757142Y21754705D02*
X37757142Y21611848D01*
X37757142Y21611848D02*
X37709523Y21516610D01*
X37709523Y21516610D02*
X37661904Y21468991D01*
X37661904Y21468991D02*
X37566666Y21421372D01*
X37566666Y21421372D02*
X37185714Y21421372D01*
X38709523Y20945181D02*
X38138095Y20945181D01*
X38423809Y20945181D02*
X38423809Y21945181D01*
X38423809Y21945181D02*
X38328571Y21802324D01*
X38328571Y21802324D02*
X38233333Y21707086D01*
X38233333Y21707086D02*
X38138095Y21659467D01*
X39328571Y21945181D02*
X39423809Y21945181D01*
X39423809Y21945181D02*
X39519047Y21897562D01*
X39519047Y21897562D02*
X39566666Y21849943D01*
X39566666Y21849943D02*
X39614285Y21754705D01*
X39614285Y21754705D02*
X39661904Y21564229D01*
X39661904Y21564229D02*
X39661904Y21326134D01*
X39661904Y21326134D02*
X39614285Y21135658D01*
X39614285Y21135658D02*
X39566666Y21040420D01*
X39566666Y21040420D02*
X39519047Y20992800D01*
X39519047Y20992800D02*
X39423809Y20945181D01*
X39423809Y20945181D02*
X39328571Y20945181D01*
X39328571Y20945181D02*
X39233333Y20992800D01*
X39233333Y20992800D02*
X39185714Y21040420D01*
X39185714Y21040420D02*
X39138095Y21135658D01*
X39138095Y21135658D02*
X39090476Y21326134D01*
X39090476Y21326134D02*
X39090476Y21564229D01*
X39090476Y21564229D02*
X39138095Y21754705D01*
X39138095Y21754705D02*
X39185714Y21849943D01*
X39185714Y21849943D02*
X39233333Y21897562D01*
X39233333Y21897562D02*
X39328571Y21945181D01*
X36854819Y13157143D02*
X36378628Y12823810D01*
X36854819Y12585715D02*
X35854819Y12585715D01*
X35854819Y12585715D02*
X35854819Y12966667D01*
X35854819Y12966667D02*
X35902438Y13061905D01*
X35902438Y13061905D02*
X35950057Y13109524D01*
X35950057Y13109524D02*
X36045295Y13157143D01*
X36045295Y13157143D02*
X36188152Y13157143D01*
X36188152Y13157143D02*
X36283390Y13109524D01*
X36283390Y13109524D02*
X36331009Y13061905D01*
X36331009Y13061905D02*
X36378628Y12966667D01*
X36378628Y12966667D02*
X36378628Y12585715D01*
X36854819Y14109524D02*
X36854819Y13538096D01*
X36854819Y13823810D02*
X35854819Y13823810D01*
X35854819Y13823810D02*
X35997676Y13728572D01*
X35997676Y13728572D02*
X36092914Y13633334D01*
X36092914Y13633334D02*
X36140533Y13538096D01*
X35854819Y14966667D02*
X35854819Y14776191D01*
X35854819Y14776191D02*
X35902438Y14680953D01*
X35902438Y14680953D02*
X35950057Y14633334D01*
X35950057Y14633334D02*
X36092914Y14538096D01*
X36092914Y14538096D02*
X36283390Y14490477D01*
X36283390Y14490477D02*
X36664342Y14490477D01*
X36664342Y14490477D02*
X36759580Y14538096D01*
X36759580Y14538096D02*
X36807200Y14585715D01*
X36807200Y14585715D02*
X36854819Y14680953D01*
X36854819Y14680953D02*
X36854819Y14871429D01*
X36854819Y14871429D02*
X36807200Y14966667D01*
X36807200Y14966667D02*
X36759580Y15014286D01*
X36759580Y15014286D02*
X36664342Y15061905D01*
X36664342Y15061905D02*
X36426247Y15061905D01*
X36426247Y15061905D02*
X36331009Y15014286D01*
X36331009Y15014286D02*
X36283390Y14966667D01*
X36283390Y14966667D02*
X36235771Y14871429D01*
X36235771Y14871429D02*
X36235771Y14680953D01*
X36235771Y14680953D02*
X36283390Y14585715D01*
X36283390Y14585715D02*
X36331009Y14538096D01*
X36331009Y14538096D02*
X36426247Y14490477D01*
X15647142Y25490420D02*
X15599523Y25442800D01*
X15599523Y25442800D02*
X15456666Y25395181D01*
X15456666Y25395181D02*
X15361428Y25395181D01*
X15361428Y25395181D02*
X15218571Y25442800D01*
X15218571Y25442800D02*
X15123333Y25538039D01*
X15123333Y25538039D02*
X15075714Y25633277D01*
X15075714Y25633277D02*
X15028095Y25823753D01*
X15028095Y25823753D02*
X15028095Y25966610D01*
X15028095Y25966610D02*
X15075714Y26157086D01*
X15075714Y26157086D02*
X15123333Y26252324D01*
X15123333Y26252324D02*
X15218571Y26347562D01*
X15218571Y26347562D02*
X15361428Y26395181D01*
X15361428Y26395181D02*
X15456666Y26395181D01*
X15456666Y26395181D02*
X15599523Y26347562D01*
X15599523Y26347562D02*
X15647142Y26299943D01*
X16599523Y25395181D02*
X16028095Y25395181D01*
X16313809Y25395181D02*
X16313809Y26395181D01*
X16313809Y26395181D02*
X16218571Y26252324D01*
X16218571Y26252324D02*
X16123333Y26157086D01*
X16123333Y26157086D02*
X16028095Y26109467D01*
X16932857Y26395181D02*
X17551904Y26395181D01*
X17551904Y26395181D02*
X17218571Y26014229D01*
X17218571Y26014229D02*
X17361428Y26014229D01*
X17361428Y26014229D02*
X17456666Y25966610D01*
X17456666Y25966610D02*
X17504285Y25918991D01*
X17504285Y25918991D02*
X17551904Y25823753D01*
X17551904Y25823753D02*
X17551904Y25585658D01*
X17551904Y25585658D02*
X17504285Y25490420D01*
X17504285Y25490420D02*
X17456666Y25442800D01*
X17456666Y25442800D02*
X17361428Y25395181D01*
X17361428Y25395181D02*
X17075714Y25395181D01*
X17075714Y25395181D02*
X16980476Y25442800D01*
X16980476Y25442800D02*
X16932857Y25490420D01*
X30931876Y28233334D02*
X30455685Y27900001D01*
X30931876Y27661906D02*
X29931876Y27661906D01*
X29931876Y27661906D02*
X29931876Y28042858D01*
X29931876Y28042858D02*
X29979495Y28138096D01*
X29979495Y28138096D02*
X30027114Y28185715D01*
X30027114Y28185715D02*
X30122352Y28233334D01*
X30122352Y28233334D02*
X30265209Y28233334D01*
X30265209Y28233334D02*
X30360447Y28185715D01*
X30360447Y28185715D02*
X30408066Y28138096D01*
X30408066Y28138096D02*
X30455685Y28042858D01*
X30455685Y28042858D02*
X30455685Y27661906D01*
X29931876Y29090477D02*
X29931876Y28900001D01*
X29931876Y28900001D02*
X29979495Y28804763D01*
X29979495Y28804763D02*
X30027114Y28757144D01*
X30027114Y28757144D02*
X30169971Y28661906D01*
X30169971Y28661906D02*
X30360447Y28614287D01*
X30360447Y28614287D02*
X30741399Y28614287D01*
X30741399Y28614287D02*
X30836637Y28661906D01*
X30836637Y28661906D02*
X30884257Y28709525D01*
X30884257Y28709525D02*
X30931876Y28804763D01*
X30931876Y28804763D02*
X30931876Y28995239D01*
X30931876Y28995239D02*
X30884257Y29090477D01*
X30884257Y29090477D02*
X30836637Y29138096D01*
X30836637Y29138096D02*
X30741399Y29185715D01*
X30741399Y29185715D02*
X30503304Y29185715D01*
X30503304Y29185715D02*
X30408066Y29138096D01*
X30408066Y29138096D02*
X30360447Y29090477D01*
X30360447Y29090477D02*
X30312828Y28995239D01*
X30312828Y28995239D02*
X30312828Y28804763D01*
X30312828Y28804763D02*
X30360447Y28709525D01*
X30360447Y28709525D02*
X30408066Y28661906D01*
X30408066Y28661906D02*
X30503304Y28614287D01*
X6204819Y24933334D02*
X5728628Y24600001D01*
X6204819Y24361906D02*
X5204819Y24361906D01*
X5204819Y24361906D02*
X5204819Y24742858D01*
X5204819Y24742858D02*
X5252438Y24838096D01*
X5252438Y24838096D02*
X5300057Y24885715D01*
X5300057Y24885715D02*
X5395295Y24933334D01*
X5395295Y24933334D02*
X5538152Y24933334D01*
X5538152Y24933334D02*
X5633390Y24885715D01*
X5633390Y24885715D02*
X5681009Y24838096D01*
X5681009Y24838096D02*
X5728628Y24742858D01*
X5728628Y24742858D02*
X5728628Y24361906D01*
X5204819Y25266668D02*
X5204819Y25933334D01*
X5204819Y25933334D02*
X6204819Y25504763D01*
X50433333Y24750420D02*
X50385714Y24702800D01*
X50385714Y24702800D02*
X50242857Y24655181D01*
X50242857Y24655181D02*
X50147619Y24655181D01*
X50147619Y24655181D02*
X50004762Y24702800D01*
X50004762Y24702800D02*
X49909524Y24798039D01*
X49909524Y24798039D02*
X49861905Y24893277D01*
X49861905Y24893277D02*
X49814286Y25083753D01*
X49814286Y25083753D02*
X49814286Y25226610D01*
X49814286Y25226610D02*
X49861905Y25417086D01*
X49861905Y25417086D02*
X49909524Y25512324D01*
X49909524Y25512324D02*
X50004762Y25607562D01*
X50004762Y25607562D02*
X50147619Y25655181D01*
X50147619Y25655181D02*
X50242857Y25655181D01*
X50242857Y25655181D02*
X50385714Y25607562D01*
X50385714Y25607562D02*
X50433333Y25559943D01*
X50766667Y25655181D02*
X51385714Y25655181D01*
X51385714Y25655181D02*
X51052381Y25274229D01*
X51052381Y25274229D02*
X51195238Y25274229D01*
X51195238Y25274229D02*
X51290476Y25226610D01*
X51290476Y25226610D02*
X51338095Y25178991D01*
X51338095Y25178991D02*
X51385714Y25083753D01*
X51385714Y25083753D02*
X51385714Y24845658D01*
X51385714Y24845658D02*
X51338095Y24750420D01*
X51338095Y24750420D02*
X51290476Y24702800D01*
X51290476Y24702800D02*
X51195238Y24655181D01*
X51195238Y24655181D02*
X50909524Y24655181D01*
X50909524Y24655181D02*
X50814286Y24702800D01*
X50814286Y24702800D02*
X50766667Y24750420D01*
X12737434Y44462681D02*
X12737434Y43653158D01*
X12737434Y43653158D02*
X12785053Y43557920D01*
X12785053Y43557920D02*
X12832672Y43510300D01*
X12832672Y43510300D02*
X12927910Y43462681D01*
X12927910Y43462681D02*
X13118386Y43462681D01*
X13118386Y43462681D02*
X13213624Y43510300D01*
X13213624Y43510300D02*
X13261243Y43557920D01*
X13261243Y43557920D02*
X13308862Y43653158D01*
X13308862Y43653158D02*
X13308862Y44462681D01*
X14261243Y44462681D02*
X13785053Y44462681D01*
X13785053Y44462681D02*
X13737434Y43986491D01*
X13737434Y43986491D02*
X13785053Y44034110D01*
X13785053Y44034110D02*
X13880291Y44081729D01*
X13880291Y44081729D02*
X14118386Y44081729D01*
X14118386Y44081729D02*
X14213624Y44034110D01*
X14213624Y44034110D02*
X14261243Y43986491D01*
X14261243Y43986491D02*
X14308862Y43891253D01*
X14308862Y43891253D02*
X14308862Y43653158D01*
X14308862Y43653158D02*
X14261243Y43557920D01*
X14261243Y43557920D02*
X14213624Y43510300D01*
X14213624Y43510300D02*
X14118386Y43462681D01*
X14118386Y43462681D02*
X13880291Y43462681D01*
X13880291Y43462681D02*
X13785053Y43510300D01*
X13785053Y43510300D02*
X13737434Y43557920D01*
X46854819Y20838096D02*
X47664342Y20838096D01*
X47664342Y20838096D02*
X47759580Y20885715D01*
X47759580Y20885715D02*
X47807200Y20933334D01*
X47807200Y20933334D02*
X47854819Y21028572D01*
X47854819Y21028572D02*
X47854819Y21219048D01*
X47854819Y21219048D02*
X47807200Y21314286D01*
X47807200Y21314286D02*
X47759580Y21361905D01*
X47759580Y21361905D02*
X47664342Y21409524D01*
X47664342Y21409524D02*
X46854819Y21409524D01*
X47854819Y22409524D02*
X47854819Y21838096D01*
X47854819Y22123810D02*
X46854819Y22123810D01*
X46854819Y22123810D02*
X46997676Y22028572D01*
X46997676Y22028572D02*
X47092914Y21933334D01*
X47092914Y21933334D02*
X47140533Y21838096D01*
X22266666Y5120181D02*
X22266666Y4405896D01*
X22266666Y4405896D02*
X22219047Y4263039D01*
X22219047Y4263039D02*
X22123809Y4167800D01*
X22123809Y4167800D02*
X21980952Y4120181D01*
X21980952Y4120181D02*
X21885714Y4120181D01*
X22647619Y5120181D02*
X23266666Y5120181D01*
X23266666Y5120181D02*
X22933333Y4739229D01*
X22933333Y4739229D02*
X23076190Y4739229D01*
X23076190Y4739229D02*
X23171428Y4691610D01*
X23171428Y4691610D02*
X23219047Y4643991D01*
X23219047Y4643991D02*
X23266666Y4548753D01*
X23266666Y4548753D02*
X23266666Y4310658D01*
X23266666Y4310658D02*
X23219047Y4215420D01*
X23219047Y4215420D02*
X23171428Y4167800D01*
X23171428Y4167800D02*
X23076190Y4120181D01*
X23076190Y4120181D02*
X22790476Y4120181D01*
X22790476Y4120181D02*
X22695238Y4167800D01*
X22695238Y4167800D02*
X22647619Y4215420D01*
X11883333Y15990420D02*
X11835714Y15942800D01*
X11835714Y15942800D02*
X11692857Y15895181D01*
X11692857Y15895181D02*
X11597619Y15895181D01*
X11597619Y15895181D02*
X11454762Y15942800D01*
X11454762Y15942800D02*
X11359524Y16038039D01*
X11359524Y16038039D02*
X11311905Y16133277D01*
X11311905Y16133277D02*
X11264286Y16323753D01*
X11264286Y16323753D02*
X11264286Y16466610D01*
X11264286Y16466610D02*
X11311905Y16657086D01*
X11311905Y16657086D02*
X11359524Y16752324D01*
X11359524Y16752324D02*
X11454762Y16847562D01*
X11454762Y16847562D02*
X11597619Y16895181D01*
X11597619Y16895181D02*
X11692857Y16895181D01*
X11692857Y16895181D02*
X11835714Y16847562D01*
X11835714Y16847562D02*
X11883333Y16799943D01*
X12454762Y16466610D02*
X12359524Y16514229D01*
X12359524Y16514229D02*
X12311905Y16561848D01*
X12311905Y16561848D02*
X12264286Y16657086D01*
X12264286Y16657086D02*
X12264286Y16704705D01*
X12264286Y16704705D02*
X12311905Y16799943D01*
X12311905Y16799943D02*
X12359524Y16847562D01*
X12359524Y16847562D02*
X12454762Y16895181D01*
X12454762Y16895181D02*
X12645238Y16895181D01*
X12645238Y16895181D02*
X12740476Y16847562D01*
X12740476Y16847562D02*
X12788095Y16799943D01*
X12788095Y16799943D02*
X12835714Y16704705D01*
X12835714Y16704705D02*
X12835714Y16657086D01*
X12835714Y16657086D02*
X12788095Y16561848D01*
X12788095Y16561848D02*
X12740476Y16514229D01*
X12740476Y16514229D02*
X12645238Y16466610D01*
X12645238Y16466610D02*
X12454762Y16466610D01*
X12454762Y16466610D02*
X12359524Y16418991D01*
X12359524Y16418991D02*
X12311905Y16371372D01*
X12311905Y16371372D02*
X12264286Y16276134D01*
X12264286Y16276134D02*
X12264286Y16085658D01*
X12264286Y16085658D02*
X12311905Y15990420D01*
X12311905Y15990420D02*
X12359524Y15942800D01*
X12359524Y15942800D02*
X12454762Y15895181D01*
X12454762Y15895181D02*
X12645238Y15895181D01*
X12645238Y15895181D02*
X12740476Y15942800D01*
X12740476Y15942800D02*
X12788095Y15990420D01*
X12788095Y15990420D02*
X12835714Y16085658D01*
X12835714Y16085658D02*
X12835714Y16276134D01*
X12835714Y16276134D02*
X12788095Y16371372D01*
X12788095Y16371372D02*
X12740476Y16418991D01*
X12740476Y16418991D02*
X12645238Y16466610D01*
X43985522Y16716172D02*
X43652189Y17192363D01*
X43414094Y16716172D02*
X43414094Y17716172D01*
X43414094Y17716172D02*
X43795046Y17716172D01*
X43795046Y17716172D02*
X43890284Y17668553D01*
X43890284Y17668553D02*
X43937903Y17620934D01*
X43937903Y17620934D02*
X43985522Y17525696D01*
X43985522Y17525696D02*
X43985522Y17382839D01*
X43985522Y17382839D02*
X43937903Y17287601D01*
X43937903Y17287601D02*
X43890284Y17239982D01*
X43890284Y17239982D02*
X43795046Y17192363D01*
X43795046Y17192363D02*
X43414094Y17192363D01*
X44318856Y17716172D02*
X44937903Y17716172D01*
X44937903Y17716172D02*
X44604570Y17335220D01*
X44604570Y17335220D02*
X44747427Y17335220D01*
X44747427Y17335220D02*
X44842665Y17287601D01*
X44842665Y17287601D02*
X44890284Y17239982D01*
X44890284Y17239982D02*
X44937903Y17144744D01*
X44937903Y17144744D02*
X44937903Y16906649D01*
X44937903Y16906649D02*
X44890284Y16811411D01*
X44890284Y16811411D02*
X44842665Y16763791D01*
X44842665Y16763791D02*
X44747427Y16716172D01*
X44747427Y16716172D02*
X44461713Y16716172D01*
X44461713Y16716172D02*
X44366475Y16763791D01*
X44366475Y16763791D02*
X44318856Y16811411D01*
X37025057Y5554762D02*
X36977438Y5459524D01*
X36977438Y5459524D02*
X36882200Y5364286D01*
X36882200Y5364286D02*
X36739342Y5221429D01*
X36739342Y5221429D02*
X36691723Y5126191D01*
X36691723Y5126191D02*
X36691723Y5030953D01*
X36929819Y5078572D02*
X36882200Y4983334D01*
X36882200Y4983334D02*
X36786961Y4888096D01*
X36786961Y4888096D02*
X36596485Y4840477D01*
X36596485Y4840477D02*
X36263152Y4840477D01*
X36263152Y4840477D02*
X36072676Y4888096D01*
X36072676Y4888096D02*
X35977438Y4983334D01*
X35977438Y4983334D02*
X35929819Y5078572D01*
X35929819Y5078572D02*
X35929819Y5269048D01*
X35929819Y5269048D02*
X35977438Y5364286D01*
X35977438Y5364286D02*
X36072676Y5459524D01*
X36072676Y5459524D02*
X36263152Y5507143D01*
X36263152Y5507143D02*
X36596485Y5507143D01*
X36596485Y5507143D02*
X36786961Y5459524D01*
X36786961Y5459524D02*
X36882200Y5364286D01*
X36882200Y5364286D02*
X36929819Y5269048D01*
X36929819Y5269048D02*
X36929819Y5078572D01*
X35929819Y6364286D02*
X35929819Y6173810D01*
X35929819Y6173810D02*
X35977438Y6078572D01*
X35977438Y6078572D02*
X36025057Y6030953D01*
X36025057Y6030953D02*
X36167914Y5935715D01*
X36167914Y5935715D02*
X36358390Y5888096D01*
X36358390Y5888096D02*
X36739342Y5888096D01*
X36739342Y5888096D02*
X36834580Y5935715D01*
X36834580Y5935715D02*
X36882200Y5983334D01*
X36882200Y5983334D02*
X36929819Y6078572D01*
X36929819Y6078572D02*
X36929819Y6269048D01*
X36929819Y6269048D02*
X36882200Y6364286D01*
X36882200Y6364286D02*
X36834580Y6411905D01*
X36834580Y6411905D02*
X36739342Y6459524D01*
X36739342Y6459524D02*
X36501247Y6459524D01*
X36501247Y6459524D02*
X36406009Y6411905D01*
X36406009Y6411905D02*
X36358390Y6364286D01*
X36358390Y6364286D02*
X36310771Y6269048D01*
X36310771Y6269048D02*
X36310771Y6078572D01*
X36310771Y6078572D02*
X36358390Y5983334D01*
X36358390Y5983334D02*
X36406009Y5935715D01*
X36406009Y5935715D02*
X36501247Y5888096D01*
X55183333Y16745181D02*
X54850000Y17221372D01*
X54611905Y16745181D02*
X54611905Y17745181D01*
X54611905Y17745181D02*
X54992857Y17745181D01*
X54992857Y17745181D02*
X55088095Y17697562D01*
X55088095Y17697562D02*
X55135714Y17649943D01*
X55135714Y17649943D02*
X55183333Y17554705D01*
X55183333Y17554705D02*
X55183333Y17411848D01*
X55183333Y17411848D02*
X55135714Y17316610D01*
X55135714Y17316610D02*
X55088095Y17268991D01*
X55088095Y17268991D02*
X54992857Y17221372D01*
X54992857Y17221372D02*
X54611905Y17221372D01*
X55564286Y17649943D02*
X55611905Y17697562D01*
X55611905Y17697562D02*
X55707143Y17745181D01*
X55707143Y17745181D02*
X55945238Y17745181D01*
X55945238Y17745181D02*
X56040476Y17697562D01*
X56040476Y17697562D02*
X56088095Y17649943D01*
X56088095Y17649943D02*
X56135714Y17554705D01*
X56135714Y17554705D02*
X56135714Y17459467D01*
X56135714Y17459467D02*
X56088095Y17316610D01*
X56088095Y17316610D02*
X55516667Y16745181D01*
X55516667Y16745181D02*
X56135714Y16745181D01*
X38654819Y13157143D02*
X38178628Y12823810D01*
X38654819Y12585715D02*
X37654819Y12585715D01*
X37654819Y12585715D02*
X37654819Y12966667D01*
X37654819Y12966667D02*
X37702438Y13061905D01*
X37702438Y13061905D02*
X37750057Y13109524D01*
X37750057Y13109524D02*
X37845295Y13157143D01*
X37845295Y13157143D02*
X37988152Y13157143D01*
X37988152Y13157143D02*
X38083390Y13109524D01*
X38083390Y13109524D02*
X38131009Y13061905D01*
X38131009Y13061905D02*
X38178628Y12966667D01*
X38178628Y12966667D02*
X38178628Y12585715D01*
X38654819Y14109524D02*
X38654819Y13538096D01*
X38654819Y13823810D02*
X37654819Y13823810D01*
X37654819Y13823810D02*
X37797676Y13728572D01*
X37797676Y13728572D02*
X37892914Y13633334D01*
X37892914Y13633334D02*
X37940533Y13538096D01*
X37654819Y14442858D02*
X37654819Y15109524D01*
X37654819Y15109524D02*
X38654819Y14680953D01*
X9206333Y32545181D02*
X8730143Y32545181D01*
X8730143Y32545181D02*
X8730143Y33545181D01*
X9492048Y33449943D02*
X9539667Y33497562D01*
X9539667Y33497562D02*
X9634905Y33545181D01*
X9634905Y33545181D02*
X9873000Y33545181D01*
X9873000Y33545181D02*
X9968238Y33497562D01*
X9968238Y33497562D02*
X10015857Y33449943D01*
X10015857Y33449943D02*
X10063476Y33354705D01*
X10063476Y33354705D02*
X10063476Y33259467D01*
X10063476Y33259467D02*
X10015857Y33116610D01*
X10015857Y33116610D02*
X9444429Y32545181D01*
X9444429Y32545181D02*
X10063476Y32545181D01*
X22310390Y27440420D02*
X22262771Y27392800D01*
X22262771Y27392800D02*
X22119914Y27345181D01*
X22119914Y27345181D02*
X22024676Y27345181D01*
X22024676Y27345181D02*
X21881819Y27392800D01*
X21881819Y27392800D02*
X21786581Y27488039D01*
X21786581Y27488039D02*
X21738962Y27583277D01*
X21738962Y27583277D02*
X21691343Y27773753D01*
X21691343Y27773753D02*
X21691343Y27916610D01*
X21691343Y27916610D02*
X21738962Y28107086D01*
X21738962Y28107086D02*
X21786581Y28202324D01*
X21786581Y28202324D02*
X21881819Y28297562D01*
X21881819Y28297562D02*
X22024676Y28345181D01*
X22024676Y28345181D02*
X22119914Y28345181D01*
X22119914Y28345181D02*
X22262771Y28297562D01*
X22262771Y28297562D02*
X22310390Y28249943D01*
X22786581Y27345181D02*
X22977057Y27345181D01*
X22977057Y27345181D02*
X23072295Y27392800D01*
X23072295Y27392800D02*
X23119914Y27440420D01*
X23119914Y27440420D02*
X23215152Y27583277D01*
X23215152Y27583277D02*
X23262771Y27773753D01*
X23262771Y27773753D02*
X23262771Y28154705D01*
X23262771Y28154705D02*
X23215152Y28249943D01*
X23215152Y28249943D02*
X23167533Y28297562D01*
X23167533Y28297562D02*
X23072295Y28345181D01*
X23072295Y28345181D02*
X22881819Y28345181D01*
X22881819Y28345181D02*
X22786581Y28297562D01*
X22786581Y28297562D02*
X22738962Y28249943D01*
X22738962Y28249943D02*
X22691343Y28154705D01*
X22691343Y28154705D02*
X22691343Y27916610D01*
X22691343Y27916610D02*
X22738962Y27821372D01*
X22738962Y27821372D02*
X22786581Y27773753D01*
X22786581Y27773753D02*
X22881819Y27726134D01*
X22881819Y27726134D02*
X23072295Y27726134D01*
X23072295Y27726134D02*
X23167533Y27773753D01*
X23167533Y27773753D02*
X23215152Y27821372D01*
X23215152Y27821372D02*
X23262771Y27916610D01*
X37025057Y9354762D02*
X36977438Y9259524D01*
X36977438Y9259524D02*
X36882200Y9164286D01*
X36882200Y9164286D02*
X36739342Y9021429D01*
X36739342Y9021429D02*
X36691723Y8926191D01*
X36691723Y8926191D02*
X36691723Y8830953D01*
X36929819Y8878572D02*
X36882200Y8783334D01*
X36882200Y8783334D02*
X36786961Y8688096D01*
X36786961Y8688096D02*
X36596485Y8640477D01*
X36596485Y8640477D02*
X36263152Y8640477D01*
X36263152Y8640477D02*
X36072676Y8688096D01*
X36072676Y8688096D02*
X35977438Y8783334D01*
X35977438Y8783334D02*
X35929819Y8878572D01*
X35929819Y8878572D02*
X35929819Y9069048D01*
X35929819Y9069048D02*
X35977438Y9164286D01*
X35977438Y9164286D02*
X36072676Y9259524D01*
X36072676Y9259524D02*
X36263152Y9307143D01*
X36263152Y9307143D02*
X36596485Y9307143D01*
X36596485Y9307143D02*
X36786961Y9259524D01*
X36786961Y9259524D02*
X36882200Y9164286D01*
X36882200Y9164286D02*
X36929819Y9069048D01*
X36929819Y9069048D02*
X36929819Y8878572D01*
X36263152Y10164286D02*
X36929819Y10164286D01*
X35882200Y9926191D02*
X36596485Y9688096D01*
X36596485Y9688096D02*
X36596485Y10307143D01*
X35054819Y13157143D02*
X34578628Y12823810D01*
X35054819Y12585715D02*
X34054819Y12585715D01*
X34054819Y12585715D02*
X34054819Y12966667D01*
X34054819Y12966667D02*
X34102438Y13061905D01*
X34102438Y13061905D02*
X34150057Y13109524D01*
X34150057Y13109524D02*
X34245295Y13157143D01*
X34245295Y13157143D02*
X34388152Y13157143D01*
X34388152Y13157143D02*
X34483390Y13109524D01*
X34483390Y13109524D02*
X34531009Y13061905D01*
X34531009Y13061905D02*
X34578628Y12966667D01*
X34578628Y12966667D02*
X34578628Y12585715D01*
X35054819Y14109524D02*
X35054819Y13538096D01*
X35054819Y13823810D02*
X34054819Y13823810D01*
X34054819Y13823810D02*
X34197676Y13728572D01*
X34197676Y13728572D02*
X34292914Y13633334D01*
X34292914Y13633334D02*
X34340533Y13538096D01*
X34483390Y14680953D02*
X34435771Y14585715D01*
X34435771Y14585715D02*
X34388152Y14538096D01*
X34388152Y14538096D02*
X34292914Y14490477D01*
X34292914Y14490477D02*
X34245295Y14490477D01*
X34245295Y14490477D02*
X34150057Y14538096D01*
X34150057Y14538096D02*
X34102438Y14585715D01*
X34102438Y14585715D02*
X34054819Y14680953D01*
X34054819Y14680953D02*
X34054819Y14871429D01*
X34054819Y14871429D02*
X34102438Y14966667D01*
X34102438Y14966667D02*
X34150057Y15014286D01*
X34150057Y15014286D02*
X34245295Y15061905D01*
X34245295Y15061905D02*
X34292914Y15061905D01*
X34292914Y15061905D02*
X34388152Y15014286D01*
X34388152Y15014286D02*
X34435771Y14966667D01*
X34435771Y14966667D02*
X34483390Y14871429D01*
X34483390Y14871429D02*
X34483390Y14680953D01*
X34483390Y14680953D02*
X34531009Y14585715D01*
X34531009Y14585715D02*
X34578628Y14538096D01*
X34578628Y14538096D02*
X34673866Y14490477D01*
X34673866Y14490477D02*
X34864342Y14490477D01*
X34864342Y14490477D02*
X34959580Y14538096D01*
X34959580Y14538096D02*
X35007200Y14585715D01*
X35007200Y14585715D02*
X35054819Y14680953D01*
X35054819Y14680953D02*
X35054819Y14871429D01*
X35054819Y14871429D02*
X35007200Y14966667D01*
X35007200Y14966667D02*
X34959580Y15014286D01*
X34959580Y15014286D02*
X34864342Y15061905D01*
X34864342Y15061905D02*
X34673866Y15061905D01*
X34673866Y15061905D02*
X34578628Y15014286D01*
X34578628Y15014286D02*
X34531009Y14966667D01*
X34531009Y14966667D02*
X34483390Y14871429D01*
X31001666Y6345181D02*
X31001666Y5630896D01*
X31001666Y5630896D02*
X30954047Y5488039D01*
X30954047Y5488039D02*
X30858809Y5392800D01*
X30858809Y5392800D02*
X30715952Y5345181D01*
X30715952Y5345181D02*
X30620714Y5345181D01*
X31620714Y5916610D02*
X31525476Y5964229D01*
X31525476Y5964229D02*
X31477857Y6011848D01*
X31477857Y6011848D02*
X31430238Y6107086D01*
X31430238Y6107086D02*
X31430238Y6154705D01*
X31430238Y6154705D02*
X31477857Y6249943D01*
X31477857Y6249943D02*
X31525476Y6297562D01*
X31525476Y6297562D02*
X31620714Y6345181D01*
X31620714Y6345181D02*
X31811190Y6345181D01*
X31811190Y6345181D02*
X31906428Y6297562D01*
X31906428Y6297562D02*
X31954047Y6249943D01*
X31954047Y6249943D02*
X32001666Y6154705D01*
X32001666Y6154705D02*
X32001666Y6107086D01*
X32001666Y6107086D02*
X31954047Y6011848D01*
X31954047Y6011848D02*
X31906428Y5964229D01*
X31906428Y5964229D02*
X31811190Y5916610D01*
X31811190Y5916610D02*
X31620714Y5916610D01*
X31620714Y5916610D02*
X31525476Y5868991D01*
X31525476Y5868991D02*
X31477857Y5821372D01*
X31477857Y5821372D02*
X31430238Y5726134D01*
X31430238Y5726134D02*
X31430238Y5535658D01*
X31430238Y5535658D02*
X31477857Y5440420D01*
X31477857Y5440420D02*
X31525476Y5392800D01*
X31525476Y5392800D02*
X31620714Y5345181D01*
X31620714Y5345181D02*
X31811190Y5345181D01*
X31811190Y5345181D02*
X31906428Y5392800D01*
X31906428Y5392800D02*
X31954047Y5440420D01*
X31954047Y5440420D02*
X32001666Y5535658D01*
X32001666Y5535658D02*
X32001666Y5726134D01*
X32001666Y5726134D02*
X31954047Y5821372D01*
X31954047Y5821372D02*
X31906428Y5868991D01*
X31906428Y5868991D02*
X31811190Y5916610D01*
X19154761Y13249943D02*
X19059523Y13297562D01*
X19059523Y13297562D02*
X18964285Y13392800D01*
X18964285Y13392800D02*
X18821428Y13535658D01*
X18821428Y13535658D02*
X18726190Y13583277D01*
X18726190Y13583277D02*
X18630952Y13583277D01*
X18678571Y13345181D02*
X18583333Y13392800D01*
X18583333Y13392800D02*
X18488095Y13488039D01*
X18488095Y13488039D02*
X18440476Y13678515D01*
X18440476Y13678515D02*
X18440476Y14011848D01*
X18440476Y14011848D02*
X18488095Y14202324D01*
X18488095Y14202324D02*
X18583333Y14297562D01*
X18583333Y14297562D02*
X18678571Y14345181D01*
X18678571Y14345181D02*
X18869047Y14345181D01*
X18869047Y14345181D02*
X18964285Y14297562D01*
X18964285Y14297562D02*
X19059523Y14202324D01*
X19059523Y14202324D02*
X19107142Y14011848D01*
X19107142Y14011848D02*
X19107142Y13678515D01*
X19107142Y13678515D02*
X19059523Y13488039D01*
X19059523Y13488039D02*
X18964285Y13392800D01*
X18964285Y13392800D02*
X18869047Y13345181D01*
X18869047Y13345181D02*
X18678571Y13345181D01*
X19440476Y14345181D02*
X20059523Y14345181D01*
X20059523Y14345181D02*
X19726190Y13964229D01*
X19726190Y13964229D02*
X19869047Y13964229D01*
X19869047Y13964229D02*
X19964285Y13916610D01*
X19964285Y13916610D02*
X20011904Y13868991D01*
X20011904Y13868991D02*
X20059523Y13773753D01*
X20059523Y13773753D02*
X20059523Y13535658D01*
X20059523Y13535658D02*
X20011904Y13440420D01*
X20011904Y13440420D02*
X19964285Y13392800D01*
X19964285Y13392800D02*
X19869047Y13345181D01*
X19869047Y13345181D02*
X19583333Y13345181D01*
X19583333Y13345181D02*
X19488095Y13392800D01*
X19488095Y13392800D02*
X19440476Y13440420D01*
X11382142Y18490420D02*
X11334523Y18442800D01*
X11334523Y18442800D02*
X11191666Y18395181D01*
X11191666Y18395181D02*
X11096428Y18395181D01*
X11096428Y18395181D02*
X10953571Y18442800D01*
X10953571Y18442800D02*
X10858333Y18538039D01*
X10858333Y18538039D02*
X10810714Y18633277D01*
X10810714Y18633277D02*
X10763095Y18823753D01*
X10763095Y18823753D02*
X10763095Y18966610D01*
X10763095Y18966610D02*
X10810714Y19157086D01*
X10810714Y19157086D02*
X10858333Y19252324D01*
X10858333Y19252324D02*
X10953571Y19347562D01*
X10953571Y19347562D02*
X11096428Y19395181D01*
X11096428Y19395181D02*
X11191666Y19395181D01*
X11191666Y19395181D02*
X11334523Y19347562D01*
X11334523Y19347562D02*
X11382142Y19299943D01*
X12334523Y18395181D02*
X11763095Y18395181D01*
X12048809Y18395181D02*
X12048809Y19395181D01*
X12048809Y19395181D02*
X11953571Y19252324D01*
X11953571Y19252324D02*
X11858333Y19157086D01*
X11858333Y19157086D02*
X11763095Y19109467D01*
X13286904Y18395181D02*
X12715476Y18395181D01*
X13001190Y18395181D02*
X13001190Y19395181D01*
X13001190Y19395181D02*
X12905952Y19252324D01*
X12905952Y19252324D02*
X12810714Y19157086D01*
X12810714Y19157086D02*
X12715476Y19109467D01*
X11206666Y5145181D02*
X11206666Y4430896D01*
X11206666Y4430896D02*
X11159047Y4288039D01*
X11159047Y4288039D02*
X11063809Y4192800D01*
X11063809Y4192800D02*
X10920952Y4145181D01*
X10920952Y4145181D02*
X10825714Y4145181D01*
X11635238Y5049943D02*
X11682857Y5097562D01*
X11682857Y5097562D02*
X11778095Y5145181D01*
X11778095Y5145181D02*
X12016190Y5145181D01*
X12016190Y5145181D02*
X12111428Y5097562D01*
X12111428Y5097562D02*
X12159047Y5049943D01*
X12159047Y5049943D02*
X12206666Y4954705D01*
X12206666Y4954705D02*
X12206666Y4859467D01*
X12206666Y4859467D02*
X12159047Y4716610D01*
X12159047Y4716610D02*
X11587619Y4145181D01*
X11587619Y4145181D02*
X12206666Y4145181D01*
X51838095Y37445181D02*
X51838095Y36635658D01*
X51838095Y36635658D02*
X51885714Y36540420D01*
X51885714Y36540420D02*
X51933333Y36492800D01*
X51933333Y36492800D02*
X52028571Y36445181D01*
X52028571Y36445181D02*
X52219047Y36445181D01*
X52219047Y36445181D02*
X52314285Y36492800D01*
X52314285Y36492800D02*
X52361904Y36540420D01*
X52361904Y36540420D02*
X52409523Y36635658D01*
X52409523Y36635658D02*
X52409523Y37445181D01*
X52838095Y37349943D02*
X52885714Y37397562D01*
X52885714Y37397562D02*
X52980952Y37445181D01*
X52980952Y37445181D02*
X53219047Y37445181D01*
X53219047Y37445181D02*
X53314285Y37397562D01*
X53314285Y37397562D02*
X53361904Y37349943D01*
X53361904Y37349943D02*
X53409523Y37254705D01*
X53409523Y37254705D02*
X53409523Y37159467D01*
X53409523Y37159467D02*
X53361904Y37016610D01*
X53361904Y37016610D02*
X52790476Y36445181D01*
X52790476Y36445181D02*
X53409523Y36445181D01*
X59266666Y48945181D02*
X59266666Y48230896D01*
X59266666Y48230896D02*
X59219047Y48088039D01*
X59219047Y48088039D02*
X59123809Y47992800D01*
X59123809Y47992800D02*
X58980952Y47945181D01*
X58980952Y47945181D02*
X58885714Y47945181D01*
X59647619Y48945181D02*
X60314285Y48945181D01*
X60314285Y48945181D02*
X59885714Y47945181D01*
X50433333Y26040420D02*
X50385714Y25992800D01*
X50385714Y25992800D02*
X50242857Y25945181D01*
X50242857Y25945181D02*
X50147619Y25945181D01*
X50147619Y25945181D02*
X50004762Y25992800D01*
X50004762Y25992800D02*
X49909524Y26088039D01*
X49909524Y26088039D02*
X49861905Y26183277D01*
X49861905Y26183277D02*
X49814286Y26373753D01*
X49814286Y26373753D02*
X49814286Y26516610D01*
X49814286Y26516610D02*
X49861905Y26707086D01*
X49861905Y26707086D02*
X49909524Y26802324D01*
X49909524Y26802324D02*
X50004762Y26897562D01*
X50004762Y26897562D02*
X50147619Y26945181D01*
X50147619Y26945181D02*
X50242857Y26945181D01*
X50242857Y26945181D02*
X50385714Y26897562D01*
X50385714Y26897562D02*
X50433333Y26849943D01*
X51290476Y26611848D02*
X51290476Y25945181D01*
X51052381Y26992800D02*
X50814286Y26278515D01*
X50814286Y26278515D02*
X51433333Y26278515D01*
X22754761Y13249943D02*
X22659523Y13297562D01*
X22659523Y13297562D02*
X22564285Y13392800D01*
X22564285Y13392800D02*
X22421428Y13535658D01*
X22421428Y13535658D02*
X22326190Y13583277D01*
X22326190Y13583277D02*
X22230952Y13583277D01*
X22278571Y13345181D02*
X22183333Y13392800D01*
X22183333Y13392800D02*
X22088095Y13488039D01*
X22088095Y13488039D02*
X22040476Y13678515D01*
X22040476Y13678515D02*
X22040476Y14011848D01*
X22040476Y14011848D02*
X22088095Y14202324D01*
X22088095Y14202324D02*
X22183333Y14297562D01*
X22183333Y14297562D02*
X22278571Y14345181D01*
X22278571Y14345181D02*
X22469047Y14345181D01*
X22469047Y14345181D02*
X22564285Y14297562D01*
X22564285Y14297562D02*
X22659523Y14202324D01*
X22659523Y14202324D02*
X22707142Y14011848D01*
X22707142Y14011848D02*
X22707142Y13678515D01*
X22707142Y13678515D02*
X22659523Y13488039D01*
X22659523Y13488039D02*
X22564285Y13392800D01*
X22564285Y13392800D02*
X22469047Y13345181D01*
X22469047Y13345181D02*
X22278571Y13345181D01*
X23088095Y14249943D02*
X23135714Y14297562D01*
X23135714Y14297562D02*
X23230952Y14345181D01*
X23230952Y14345181D02*
X23469047Y14345181D01*
X23469047Y14345181D02*
X23564285Y14297562D01*
X23564285Y14297562D02*
X23611904Y14249943D01*
X23611904Y14249943D02*
X23659523Y14154705D01*
X23659523Y14154705D02*
X23659523Y14059467D01*
X23659523Y14059467D02*
X23611904Y13916610D01*
X23611904Y13916610D02*
X23040476Y13345181D01*
X23040476Y13345181D02*
X23659523Y13345181D01*
X7454819Y24933334D02*
X6978628Y24600001D01*
X7454819Y24361906D02*
X6454819Y24361906D01*
X6454819Y24361906D02*
X6454819Y24742858D01*
X6454819Y24742858D02*
X6502438Y24838096D01*
X6502438Y24838096D02*
X6550057Y24885715D01*
X6550057Y24885715D02*
X6645295Y24933334D01*
X6645295Y24933334D02*
X6788152Y24933334D01*
X6788152Y24933334D02*
X6883390Y24885715D01*
X6883390Y24885715D02*
X6931009Y24838096D01*
X6931009Y24838096D02*
X6978628Y24742858D01*
X6978628Y24742858D02*
X6978628Y24361906D01*
X6883390Y25504763D02*
X6835771Y25409525D01*
X6835771Y25409525D02*
X6788152Y25361906D01*
X6788152Y25361906D02*
X6692914Y25314287D01*
X6692914Y25314287D02*
X6645295Y25314287D01*
X6645295Y25314287D02*
X6550057Y25361906D01*
X6550057Y25361906D02*
X6502438Y25409525D01*
X6502438Y25409525D02*
X6454819Y25504763D01*
X6454819Y25504763D02*
X6454819Y25695239D01*
X6454819Y25695239D02*
X6502438Y25790477D01*
X6502438Y25790477D02*
X6550057Y25838096D01*
X6550057Y25838096D02*
X6645295Y25885715D01*
X6645295Y25885715D02*
X6692914Y25885715D01*
X6692914Y25885715D02*
X6788152Y25838096D01*
X6788152Y25838096D02*
X6835771Y25790477D01*
X6835771Y25790477D02*
X6883390Y25695239D01*
X6883390Y25695239D02*
X6883390Y25504763D01*
X6883390Y25504763D02*
X6931009Y25409525D01*
X6931009Y25409525D02*
X6978628Y25361906D01*
X6978628Y25361906D02*
X7073866Y25314287D01*
X7073866Y25314287D02*
X7264342Y25314287D01*
X7264342Y25314287D02*
X7359580Y25361906D01*
X7359580Y25361906D02*
X7407200Y25409525D01*
X7407200Y25409525D02*
X7454819Y25504763D01*
X7454819Y25504763D02*
X7454819Y25695239D01*
X7454819Y25695239D02*
X7407200Y25790477D01*
X7407200Y25790477D02*
X7359580Y25838096D01*
X7359580Y25838096D02*
X7264342Y25885715D01*
X7264342Y25885715D02*
X7073866Y25885715D01*
X7073866Y25885715D02*
X6978628Y25838096D01*
X6978628Y25838096D02*
X6931009Y25790477D01*
X6931009Y25790477D02*
X6883390Y25695239D01*
X37833333Y19145181D02*
X37500000Y19621372D01*
X37261905Y19145181D02*
X37261905Y20145181D01*
X37261905Y20145181D02*
X37642857Y20145181D01*
X37642857Y20145181D02*
X37738095Y20097562D01*
X37738095Y20097562D02*
X37785714Y20049943D01*
X37785714Y20049943D02*
X37833333Y19954705D01*
X37833333Y19954705D02*
X37833333Y19811848D01*
X37833333Y19811848D02*
X37785714Y19716610D01*
X37785714Y19716610D02*
X37738095Y19668991D01*
X37738095Y19668991D02*
X37642857Y19621372D01*
X37642857Y19621372D02*
X37261905Y19621372D01*
X38309524Y19145181D02*
X38500000Y19145181D01*
X38500000Y19145181D02*
X38595238Y19192800D01*
X38595238Y19192800D02*
X38642857Y19240420D01*
X38642857Y19240420D02*
X38738095Y19383277D01*
X38738095Y19383277D02*
X38785714Y19573753D01*
X38785714Y19573753D02*
X38785714Y19954705D01*
X38785714Y19954705D02*
X38738095Y20049943D01*
X38738095Y20049943D02*
X38690476Y20097562D01*
X38690476Y20097562D02*
X38595238Y20145181D01*
X38595238Y20145181D02*
X38404762Y20145181D01*
X38404762Y20145181D02*
X38309524Y20097562D01*
X38309524Y20097562D02*
X38261905Y20049943D01*
X38261905Y20049943D02*
X38214286Y19954705D01*
X38214286Y19954705D02*
X38214286Y19716610D01*
X38214286Y19716610D02*
X38261905Y19621372D01*
X38261905Y19621372D02*
X38309524Y19573753D01*
X38309524Y19573753D02*
X38404762Y19526134D01*
X38404762Y19526134D02*
X38595238Y19526134D01*
X38595238Y19526134D02*
X38690476Y19573753D01*
X38690476Y19573753D02*
X38738095Y19621372D01*
X38738095Y19621372D02*
X38785714Y19716610D01*
X26242261Y13312443D02*
X26147023Y13360062D01*
X26147023Y13360062D02*
X26051785Y13455300D01*
X26051785Y13455300D02*
X25908928Y13598158D01*
X25908928Y13598158D02*
X25813690Y13645777D01*
X25813690Y13645777D02*
X25718452Y13645777D01*
X25766071Y13407681D02*
X25670833Y13455300D01*
X25670833Y13455300D02*
X25575595Y13550539D01*
X25575595Y13550539D02*
X25527976Y13741015D01*
X25527976Y13741015D02*
X25527976Y14074348D01*
X25527976Y14074348D02*
X25575595Y14264824D01*
X25575595Y14264824D02*
X25670833Y14360062D01*
X25670833Y14360062D02*
X25766071Y14407681D01*
X25766071Y14407681D02*
X25956547Y14407681D01*
X25956547Y14407681D02*
X26051785Y14360062D01*
X26051785Y14360062D02*
X26147023Y14264824D01*
X26147023Y14264824D02*
X26194642Y14074348D01*
X26194642Y14074348D02*
X26194642Y13741015D01*
X26194642Y13741015D02*
X26147023Y13550539D01*
X26147023Y13550539D02*
X26051785Y13455300D01*
X26051785Y13455300D02*
X25956547Y13407681D01*
X25956547Y13407681D02*
X25766071Y13407681D01*
X27147023Y13407681D02*
X26575595Y13407681D01*
X26861309Y13407681D02*
X26861309Y14407681D01*
X26861309Y14407681D02*
X26766071Y14264824D01*
X26766071Y14264824D02*
X26670833Y14169586D01*
X26670833Y14169586D02*
X26575595Y14121967D01*
X26087390Y20145181D02*
X25611200Y20145181D01*
X25611200Y20145181D02*
X25611200Y21145181D01*
X26944533Y20145181D02*
X26373105Y20145181D01*
X26658819Y20145181D02*
X26658819Y21145181D01*
X26658819Y21145181D02*
X26563581Y21002324D01*
X26563581Y21002324D02*
X26468343Y20907086D01*
X26468343Y20907086D02*
X26373105Y20859467D01*
X53233333Y20945181D02*
X52900000Y21421372D01*
X52661905Y20945181D02*
X52661905Y21945181D01*
X52661905Y21945181D02*
X53042857Y21945181D01*
X53042857Y21945181D02*
X53138095Y21897562D01*
X53138095Y21897562D02*
X53185714Y21849943D01*
X53185714Y21849943D02*
X53233333Y21754705D01*
X53233333Y21754705D02*
X53233333Y21611848D01*
X53233333Y21611848D02*
X53185714Y21516610D01*
X53185714Y21516610D02*
X53138095Y21468991D01*
X53138095Y21468991D02*
X53042857Y21421372D01*
X53042857Y21421372D02*
X52661905Y21421372D01*
X54185714Y20945181D02*
X53614286Y20945181D01*
X53900000Y20945181D02*
X53900000Y21945181D01*
X53900000Y21945181D02*
X53804762Y21802324D01*
X53804762Y21802324D02*
X53709524Y21707086D01*
X53709524Y21707086D02*
X53614286Y21659467D01*
X4258642Y19409987D02*
X4211023Y19362367D01*
X4211023Y19362367D02*
X4068166Y19314748D01*
X4068166Y19314748D02*
X3972928Y19314748D01*
X3972928Y19314748D02*
X3830071Y19362367D01*
X3830071Y19362367D02*
X3734833Y19457606D01*
X3734833Y19457606D02*
X3687214Y19552844D01*
X3687214Y19552844D02*
X3639595Y19743320D01*
X3639595Y19743320D02*
X3639595Y19886177D01*
X3639595Y19886177D02*
X3687214Y20076653D01*
X3687214Y20076653D02*
X3734833Y20171891D01*
X3734833Y20171891D02*
X3830071Y20267129D01*
X3830071Y20267129D02*
X3972928Y20314748D01*
X3972928Y20314748D02*
X4068166Y20314748D01*
X4068166Y20314748D02*
X4211023Y20267129D01*
X4211023Y20267129D02*
X4258642Y20219510D01*
X5211023Y19314748D02*
X4639595Y19314748D01*
X4925309Y19314748D02*
X4925309Y20314748D01*
X4925309Y20314748D02*
X4830071Y20171891D01*
X4830071Y20171891D02*
X4734833Y20076653D01*
X4734833Y20076653D02*
X4639595Y20029034D01*
X6068166Y19981415D02*
X6068166Y19314748D01*
X5830071Y20362367D02*
X5591976Y19648082D01*
X5591976Y19648082D02*
X6211023Y19648082D01*
X4258642Y9409987D02*
X4211023Y9362367D01*
X4211023Y9362367D02*
X4068166Y9314748D01*
X4068166Y9314748D02*
X3972928Y9314748D01*
X3972928Y9314748D02*
X3830071Y9362367D01*
X3830071Y9362367D02*
X3734833Y9457606D01*
X3734833Y9457606D02*
X3687214Y9552844D01*
X3687214Y9552844D02*
X3639595Y9743320D01*
X3639595Y9743320D02*
X3639595Y9886177D01*
X3639595Y9886177D02*
X3687214Y10076653D01*
X3687214Y10076653D02*
X3734833Y10171891D01*
X3734833Y10171891D02*
X3830071Y10267129D01*
X3830071Y10267129D02*
X3972928Y10314748D01*
X3972928Y10314748D02*
X4068166Y10314748D01*
X4068166Y10314748D02*
X4211023Y10267129D01*
X4211023Y10267129D02*
X4258642Y10219510D01*
X5211023Y9314748D02*
X4639595Y9314748D01*
X4925309Y9314748D02*
X4925309Y10314748D01*
X4925309Y10314748D02*
X4830071Y10171891D01*
X4830071Y10171891D02*
X4734833Y10076653D01*
X4734833Y10076653D02*
X4639595Y10029034D01*
X6068166Y10314748D02*
X5877690Y10314748D01*
X5877690Y10314748D02*
X5782452Y10267129D01*
X5782452Y10267129D02*
X5734833Y10219510D01*
X5734833Y10219510D02*
X5639595Y10076653D01*
X5639595Y10076653D02*
X5591976Y9886177D01*
X5591976Y9886177D02*
X5591976Y9505225D01*
X5591976Y9505225D02*
X5639595Y9409987D01*
X5639595Y9409987D02*
X5687214Y9362367D01*
X5687214Y9362367D02*
X5782452Y9314748D01*
X5782452Y9314748D02*
X5972928Y9314748D01*
X5972928Y9314748D02*
X6068166Y9362367D01*
X6068166Y9362367D02*
X6115785Y9409987D01*
X6115785Y9409987D02*
X6163404Y9505225D01*
X6163404Y9505225D02*
X6163404Y9743320D01*
X6163404Y9743320D02*
X6115785Y9838558D01*
X6115785Y9838558D02*
X6068166Y9886177D01*
X6068166Y9886177D02*
X5972928Y9933796D01*
X5972928Y9933796D02*
X5782452Y9933796D01*
X5782452Y9933796D02*
X5687214Y9886177D01*
X5687214Y9886177D02*
X5639595Y9838558D01*
X5639595Y9838558D02*
X5591976Y9743320D01*
X4258642Y14409987D02*
X4211023Y14362367D01*
X4211023Y14362367D02*
X4068166Y14314748D01*
X4068166Y14314748D02*
X3972928Y14314748D01*
X3972928Y14314748D02*
X3830071Y14362367D01*
X3830071Y14362367D02*
X3734833Y14457606D01*
X3734833Y14457606D02*
X3687214Y14552844D01*
X3687214Y14552844D02*
X3639595Y14743320D01*
X3639595Y14743320D02*
X3639595Y14886177D01*
X3639595Y14886177D02*
X3687214Y15076653D01*
X3687214Y15076653D02*
X3734833Y15171891D01*
X3734833Y15171891D02*
X3830071Y15267129D01*
X3830071Y15267129D02*
X3972928Y15314748D01*
X3972928Y15314748D02*
X4068166Y15314748D01*
X4068166Y15314748D02*
X4211023Y15267129D01*
X4211023Y15267129D02*
X4258642Y15219510D01*
X5211023Y14314748D02*
X4639595Y14314748D01*
X4925309Y14314748D02*
X4925309Y15314748D01*
X4925309Y15314748D02*
X4830071Y15171891D01*
X4830071Y15171891D02*
X4734833Y15076653D01*
X4734833Y15076653D02*
X4639595Y15029034D01*
X5544357Y15314748D02*
X6211023Y15314748D01*
X6211023Y15314748D02*
X5782452Y14314748D01*
D14*
%TO.C,J1*%
X41100000Y16290000D02*
X57600000Y16290000D01*
X41100000Y10950000D02*
X41100000Y16290000D01*
X41100000Y540000D02*
X41100000Y4080000D01*
X57600000Y16290000D02*
X57600000Y10950000D01*
X57600000Y540000D02*
X41100000Y540000D01*
X57600000Y540000D02*
X57600000Y4080000D01*
D15*
X59525000Y7270000D02*
G75*
G02*
X59325000Y7270000I-100000J0D01*
G01*
X59325000Y7270000D02*
G75*
G02*
X59525000Y7270000I100000J0D01*
G01*
D11*
%TO.C,C10*%
X29017057Y37570000D02*
X29017057Y29505000D01*
X29017057Y29505000D02*
X33537057Y29505000D01*
X33537057Y29505000D02*
X33537057Y37570000D01*
%TO.C,R5*%
X30940698Y27380000D02*
X30633416Y27380000D01*
X30940698Y26620000D02*
X30633416Y26620000D01*
%TO.C,C19*%
X27012164Y49360000D02*
X27227836Y49360000D01*
X27012164Y48640000D02*
X27227836Y48640000D01*
%TO.C,C15*%
X25240805Y38110000D02*
X26663309Y38110000D01*
X25240805Y36290000D02*
X26663309Y36290000D01*
%TO.C,Q5*%
X35777500Y3560000D02*
X37297500Y3560000D01*
X35777500Y2560000D02*
X35777500Y3560000D01*
X35777500Y440000D02*
X35777500Y1440000D01*
X37297500Y3560000D02*
X37297500Y3510000D01*
X37297500Y2390000D02*
X37297500Y1610000D01*
X37297500Y490000D02*
X37297500Y440000D01*
X37297500Y440000D02*
X35777500Y440000D01*
X37837500Y1620000D02*
X37597500Y1950000D01*
X38077500Y1950000D01*
X37837500Y1620000D01*
G36*
X37837500Y1620000D02*
G01*
X37597500Y1950000D01*
X38077500Y1950000D01*
X37837500Y1620000D01*
G37*
%TO.C,R4*%
X45856359Y17580000D02*
X46163641Y17580000D01*
X45856359Y16820000D02*
X46163641Y16820000D01*
%TO.C,R12*%
X27420000Y47463641D02*
X27420000Y47156359D01*
X28180000Y47463641D02*
X28180000Y47156359D01*
%TO.C,C12*%
X25240805Y35710000D02*
X26663309Y35710000D01*
X25240805Y33890000D02*
X26663309Y33890000D01*
%TO.C,C7*%
X12736252Y14760000D02*
X11313748Y14760000D01*
X12736252Y12940000D02*
X11313748Y12940000D01*
%TO.C,R11*%
X35612258Y23722500D02*
X35137742Y23722500D01*
X35612258Y22677500D02*
X35137742Y22677500D01*
%TO.C,J12*%
X4080000Y39940000D02*
X4080000Y47780000D01*
X6730000Y42590000D02*
X6730000Y39940000D01*
X6730000Y39940000D02*
X4080000Y39940000D01*
X9380000Y47780000D02*
X4080000Y47780000D01*
X9380000Y42590000D02*
X6730000Y42590000D01*
X9380000Y42590000D02*
X9380000Y47780000D01*
X9380000Y41320000D02*
X9380000Y39940000D01*
X9380000Y39940000D02*
X8000000Y39940000D01*
%TO.C,J10*%
X28680000Y8220000D02*
X28680000Y9600000D01*
X30060000Y8220000D02*
X28680000Y8220000D01*
X31330000Y10980000D02*
X33980000Y10980000D01*
X31330000Y8220000D02*
X31330000Y10980000D01*
X31330000Y8220000D02*
X33980000Y8220000D01*
X33980000Y8220000D02*
X33980000Y10980000D01*
%TO.C,C6*%
X14087175Y41540000D02*
X13871503Y41540000D01*
X14087175Y40820000D02*
X13871503Y40820000D01*
%TO.C,R13*%
X28620000Y47463641D02*
X28620000Y47156359D01*
X29380000Y47463641D02*
X29380000Y47156359D01*
D15*
%TO.C,U4*%
X9577001Y24825000D02*
X9577001Y22750000D01*
X14677001Y27225000D02*
X14677001Y22171297D01*
D11*
%TO.C,C5*%
X14014919Y47490000D02*
X13733759Y47490000D01*
X14014919Y46470000D02*
X13733759Y46470000D01*
%TO.C,J5*%
X25620000Y43020000D02*
X25620000Y44400000D01*
X27000000Y43020000D02*
X25620000Y43020000D01*
X28270000Y45780000D02*
X33460000Y45780000D01*
X28270000Y43020000D02*
X28270000Y45780000D01*
X28270000Y43020000D02*
X33460000Y43020000D01*
X33460000Y43020000D02*
X33460000Y45780000D01*
%TO.C,J11*%
X28680000Y620000D02*
X28680000Y2000000D01*
X30060000Y620000D02*
X28680000Y620000D01*
X31330000Y3380000D02*
X33980000Y3380000D01*
X31330000Y620000D02*
X31330000Y3380000D01*
X31330000Y620000D02*
X33980000Y620000D01*
X33980000Y620000D02*
X33980000Y3380000D01*
D16*
%TO.C,D2*%
X15134000Y24198500D02*
X15302000Y24198500D01*
X15134000Y21743000D02*
X16866000Y21743000D01*
X15134000Y21386500D02*
X15134000Y24198500D01*
D17*
X15492000Y22372500D02*
X16508000Y22372500D01*
X15593500Y23388500D02*
X16406500Y23388500D01*
X16000000Y22372500D02*
X15593500Y23388500D01*
X16000000Y22118500D02*
X16000000Y23642500D01*
X16406500Y23388500D02*
X16000000Y22372500D01*
D16*
X16866000Y24198500D02*
X16698000Y24198500D01*
X16866000Y21386500D02*
X16866000Y24198500D01*
D18*
G36*
X15352500Y21157500D02*
G01*
X15057500Y21157500D01*
X15057500Y21462500D01*
X15352500Y21462500D01*
X15352500Y21157500D01*
G37*
G36*
X16942500Y21157500D02*
G01*
X16647500Y21157500D01*
X16647500Y21462500D01*
X16942500Y21462500D01*
X16942500Y21157500D01*
G37*
D15*
%TO.C,U6*%
X23477058Y26475000D02*
X23477058Y31528703D01*
X28577058Y28875000D02*
X28577058Y30950000D01*
D11*
%TO.C,R10*%
X35612258Y21922500D02*
X35137742Y21922500D01*
X35612258Y20877500D02*
X35137742Y20877500D01*
%TO.C,R16*%
X35877500Y17062258D02*
X35877500Y16587742D01*
X36922500Y17062258D02*
X36922500Y16587742D01*
%TO.C,R14*%
X26220000Y47483641D02*
X26220000Y47176359D01*
X26980000Y47483641D02*
X26980000Y47176359D01*
%TO.C,C13*%
X15662164Y27460000D02*
X15877836Y27460000D01*
X15662164Y26740000D02*
X15877836Y26740000D01*
%TO.C,R6*%
X28897057Y27336359D02*
X28897057Y27643641D01*
X29657057Y27336359D02*
X29657057Y27643641D01*
%TO.C,R7*%
X6586359Y26980000D02*
X6893641Y26980000D01*
X6586359Y26220000D02*
X6893641Y26220000D01*
%TO.C,C3*%
X48827836Y25470000D02*
X48612164Y25470000D01*
X48827836Y24750000D02*
X48612164Y24750000D01*
%TO.C,U5*%
X11989339Y44827500D02*
X12039339Y44827500D01*
X11989339Y43007500D02*
X11989339Y44827500D01*
X12039339Y43007500D02*
X11989339Y43007500D01*
X13939339Y43007500D02*
X13159339Y43007500D01*
X15059339Y44827500D02*
X15109339Y44827500D01*
X15109339Y44827500D02*
X15109339Y43007500D01*
X15109339Y43007500D02*
X15059339Y43007500D01*
X15389339Y45127500D02*
X15059339Y45367500D01*
X15389339Y45607500D01*
X15389339Y45127500D01*
G36*
X15389339Y45127500D02*
G01*
X15059339Y45367500D01*
X15389339Y45607500D01*
X15389339Y45127500D01*
G37*
%TO.C,U1*%
X45340000Y24160000D02*
X49460000Y24160000D01*
X45340000Y24065000D02*
X45340000Y24160000D01*
X45340000Y19040000D02*
X45340000Y19135000D01*
X49460000Y24160000D02*
X49460000Y24065000D01*
X49460000Y19135000D02*
X49460000Y19040000D01*
X49460000Y19040000D02*
X45340000Y19040000D01*
X44800000Y24070000D02*
X44560000Y24400000D01*
X45040000Y24400000D01*
X44800000Y24070000D01*
G36*
X44800000Y24070000D02*
G01*
X44560000Y24400000D01*
X45040000Y24400000D01*
X44800000Y24070000D01*
G37*
D19*
%TO.C,J3*%
X17393000Y8801999D02*
X17393000Y398000D01*
X17393000Y398000D02*
X27807000Y398000D01*
X27807000Y8801999D02*
X17393000Y8801999D01*
X27807000Y398000D02*
X27807000Y8801999D01*
D11*
%TO.C,C8*%
X12736252Y17260000D02*
X11313748Y17260000D01*
X12736252Y15440000D02*
X11313748Y15440000D01*
%TO.C,R3*%
X41537742Y17922500D02*
X42012258Y17922500D01*
X41537742Y16877500D02*
X42012258Y16877500D01*
%TO.C,Q6*%
X35777500Y7360000D02*
X37297500Y7360000D01*
X35777500Y6360000D02*
X35777500Y7360000D01*
X35777500Y4240000D02*
X35777500Y5240000D01*
X37297500Y7360000D02*
X37297500Y7310000D01*
X37297500Y6190000D02*
X37297500Y5410000D01*
X37297500Y4290000D02*
X37297500Y4240000D01*
X37297500Y4240000D02*
X35777500Y4240000D01*
X37837500Y5420000D02*
X37597500Y5750000D01*
X38077500Y5750000D01*
X37837500Y5420000D01*
G36*
X37837500Y5420000D02*
G01*
X37597500Y5750000D01*
X38077500Y5750000D01*
X37837500Y5420000D01*
G37*
%TO.C,R2*%
X53212258Y17922500D02*
X52737742Y17922500D01*
X53212258Y16877500D02*
X52737742Y16877500D01*
%TO.C,R17*%
X37677500Y17062258D02*
X37677500Y16587742D01*
X38722500Y17062258D02*
X38722500Y16587742D01*
D17*
%TO.C,L2*%
X3531000Y38080000D02*
X3531000Y34981000D01*
X3531000Y31019000D02*
X3531000Y27920000D01*
X3531000Y27920000D02*
X15215000Y27920000D01*
X15215000Y38080000D02*
X3531000Y38080000D01*
X15215000Y34981000D02*
X15215000Y38080000D01*
X15215000Y27920000D02*
X15215000Y31019000D01*
D11*
%TO.C,C9*%
X22504893Y26960000D02*
X22289221Y26960000D01*
X22504893Y26240000D02*
X22289221Y26240000D01*
%TO.C,Q4*%
X35777500Y11160000D02*
X37297500Y11160000D01*
X35777500Y10160000D02*
X35777500Y11160000D01*
X35777500Y8040000D02*
X35777500Y9040000D01*
X37297500Y11160000D02*
X37297500Y11110000D01*
X37297500Y9990000D02*
X37297500Y9210000D01*
X37297500Y8090000D02*
X37297500Y8040000D01*
X37297500Y8040000D02*
X35777500Y8040000D01*
X37837500Y9220000D02*
X37597500Y9550000D01*
X38077500Y9550000D01*
X37837500Y9220000D01*
G36*
X37837500Y9220000D02*
G01*
X37597500Y9550000D01*
X38077500Y9550000D01*
X37837500Y9220000D01*
G37*
%TO.C,R18*%
X34077500Y17062258D02*
X34077500Y16587742D01*
X35122500Y17062258D02*
X35122500Y16587742D01*
%TO.C,J8*%
X28680000Y4420000D02*
X28680000Y5800000D01*
X30060000Y4420000D02*
X28680000Y4420000D01*
X31330000Y7180000D02*
X33980000Y7180000D01*
X31330000Y4420000D02*
X31330000Y7180000D01*
X31330000Y4420000D02*
X33980000Y4420000D01*
X33980000Y4420000D02*
X33980000Y7180000D01*
%TO.C,J6*%
X17820000Y40880000D02*
X17820000Y48720000D01*
X20470000Y43530000D02*
X20470000Y40880000D01*
X20470000Y40880000D02*
X17820000Y40880000D01*
X23120000Y48720000D02*
X17820000Y48720000D01*
X23120000Y43530000D02*
X20470000Y43530000D01*
X23120000Y43530000D02*
X23120000Y48720000D01*
X23120000Y42260000D02*
X23120000Y40880000D01*
X23120000Y40880000D02*
X21740000Y40880000D01*
D17*
%TO.C,U3*%
X57652000Y22776000D02*
X57652000Y25024000D01*
X59576000Y26948000D02*
X61824000Y26948000D01*
X61824000Y20852000D02*
X59576000Y20852000D01*
X63875000Y22718000D02*
X63875000Y25082000D01*
X64576000Y26948000D02*
X72384000Y26948000D01*
X65244500Y20852000D02*
X65971000Y26948000D01*
X66061000Y20852000D02*
X66787500Y26948000D01*
X66895500Y20852000D02*
X67622000Y26948000D01*
X67748500Y20852000D02*
X68475000Y26948000D01*
X68565000Y20852000D02*
X69291000Y26948000D01*
X69381000Y20852000D02*
X70107500Y26948000D01*
X70216000Y20852000D02*
X70942000Y26948000D01*
X71067500Y20851000D02*
X71794000Y26947000D01*
X72384000Y26948000D02*
X72384000Y20852000D01*
X72384000Y20852000D02*
X64576000Y20852000D01*
D11*
%TO.C,R15*%
X29820000Y47483641D02*
X29820000Y47176359D01*
X30580000Y47483641D02*
X30580000Y47176359D01*
%TO.C,Q3*%
X17640000Y11897500D02*
X17690000Y11897500D01*
X17640000Y10377500D02*
X17640000Y11897500D01*
X18640000Y10377500D02*
X17640000Y10377500D01*
X18810000Y11897500D02*
X19590000Y11897500D01*
X20710000Y11897500D02*
X20760000Y11897500D01*
X20760000Y11897500D02*
X20760000Y10377500D01*
X20760000Y10377500D02*
X19760000Y10377500D01*
X19580000Y12437500D02*
X19250000Y12197500D01*
X19250000Y12677500D01*
X19580000Y12437500D01*
G36*
X19580000Y12437500D02*
G01*
X19250000Y12197500D01*
X19250000Y12677500D01*
X19580000Y12437500D01*
G37*
%TO.C,C11*%
X12736252Y19760000D02*
X11313748Y19760000D01*
X12736252Y17940000D02*
X11313748Y17940000D01*
D19*
%TO.C,J2*%
X6333000Y8826999D02*
X6333000Y423000D01*
X6333000Y423000D02*
X16747000Y423000D01*
X16747000Y8826999D02*
X6333000Y8826999D01*
X16747000Y423000D02*
X16747000Y8826999D01*
D17*
%TO.C,U2*%
X44218000Y45155000D02*
X60855000Y45155000D01*
X44218000Y44901000D02*
X44218000Y45155000D01*
X44218000Y44731000D02*
X44218000Y44901000D01*
X44218000Y42731000D02*
X44218000Y43069000D01*
X44218000Y40731000D02*
X44218000Y41069000D01*
X44218000Y38731000D02*
X44218000Y39069000D01*
X44218000Y36731000D02*
X44218000Y37069000D01*
X44218000Y34731000D02*
X44218000Y35069000D01*
X44218000Y32731000D02*
X44218000Y33069000D01*
X44218000Y30731000D02*
X44218000Y31069000D01*
X44218000Y28645000D02*
X44218000Y29069000D01*
X46504000Y44139000D02*
X58569000Y44139000D01*
X46504000Y29661000D02*
X46504000Y44139000D01*
X58569000Y44139000D02*
X58569000Y29661000D01*
X58569000Y29661000D02*
X46504000Y29661000D01*
X60855000Y45155000D02*
X60855000Y44774000D01*
X60855000Y44774000D02*
X60898500Y44730500D01*
X60855000Y43069000D02*
X60855000Y42731000D01*
X60855000Y41069000D02*
X60855000Y40731000D01*
X60855000Y39069000D02*
X60855000Y38731000D01*
X60855000Y37069000D02*
X60855000Y36731000D01*
X60855000Y35069000D02*
X60855000Y34731000D01*
X60855000Y33069000D02*
X60855000Y32731000D01*
X60855000Y31069000D02*
X60855000Y30731000D01*
X60855000Y29069000D02*
X60855000Y28645000D01*
X60855000Y28645000D02*
X44218000Y28645000D01*
D11*
%TO.C,J7*%
X42660000Y47020000D02*
X42660000Y48400000D01*
X44040000Y47020000D02*
X42660000Y47020000D01*
X45310000Y49780000D02*
X58120000Y49780000D01*
X45310000Y47020000D02*
X45310000Y49780000D01*
X45310000Y47020000D02*
X58120000Y47020000D01*
X58120000Y47020000D02*
X58120000Y49780000D01*
%TO.C,C4*%
X48827836Y26870000D02*
X48612164Y26870000D01*
X48827836Y26150000D02*
X48612164Y26150000D01*
%TO.C,Q2*%
X21240000Y11897500D02*
X21290000Y11897500D01*
X21240000Y10377500D02*
X21240000Y11897500D01*
X22240000Y10377500D02*
X21240000Y10377500D01*
X22410000Y11897500D02*
X23190000Y11897500D01*
X24310000Y11897500D02*
X24360000Y11897500D01*
X24360000Y11897500D02*
X24360000Y10377500D01*
X24360000Y10377500D02*
X23360000Y10377500D01*
X23180000Y12437500D02*
X22850000Y12197500D01*
X22850000Y12677500D01*
X23180000Y12437500D01*
G36*
X23180000Y12437500D02*
G01*
X22850000Y12197500D01*
X22850000Y12677500D01*
X23180000Y12437500D01*
G37*
%TO.C,R8*%
X7977500Y25912258D02*
X7977500Y25437742D01*
X9022500Y25912258D02*
X9022500Y25437742D01*
%TO.C,R9*%
X35612258Y20122500D02*
X35137742Y20122500D01*
X35612258Y19077500D02*
X35137742Y19077500D01*
%TO.C,C2*%
X63440000Y37587836D02*
X63440000Y37372164D01*
X64160000Y37587836D02*
X64160000Y37372164D01*
%TO.C,Q1*%
X24840000Y11897500D02*
X24890000Y11897500D01*
X24840000Y10377500D02*
X24840000Y11897500D01*
X25840000Y10377500D02*
X24840000Y10377500D01*
X26010000Y11897500D02*
X26790000Y11897500D01*
X27910000Y11897500D02*
X27960000Y11897500D01*
X27960000Y11897500D02*
X27960000Y10377500D01*
X27960000Y10377500D02*
X26960000Y10377500D01*
X26780000Y12437500D02*
X26450000Y12197500D01*
X26450000Y12677500D01*
X26780000Y12437500D01*
G36*
X26780000Y12437500D02*
G01*
X26450000Y12197500D01*
X26450000Y12677500D01*
X26780000Y12437500D01*
G37*
%TO.C,C1*%
X62240000Y37587836D02*
X62240000Y37372164D01*
X62960000Y37587836D02*
X62960000Y37372164D01*
%TO.C,C18*%
X29827836Y49360000D02*
X29612164Y49360000D01*
X29827836Y48640000D02*
X29612164Y48640000D01*
D17*
%TO.C,L1*%
X20412057Y25680000D02*
X20412057Y22581000D01*
X20412057Y18619000D02*
X20412057Y15520000D01*
X20412057Y15520000D02*
X32096057Y15520000D01*
X32096057Y25680000D02*
X20412057Y25680000D01*
X32096057Y22581000D02*
X32096057Y25680000D01*
X32096057Y15520000D02*
X32096057Y18619000D01*
D16*
%TO.C,D1*%
X21211057Y32298500D02*
X21211057Y29486500D01*
X21211057Y29486500D02*
X21379057Y29486500D01*
D17*
X21670557Y30296500D02*
X22077057Y31312500D01*
X22077057Y31566500D02*
X22077057Y30042500D01*
X22077057Y31312500D02*
X22483557Y30296500D01*
X22483557Y30296500D02*
X21670557Y30296500D01*
X22585057Y31312500D02*
X21569057Y31312500D01*
D16*
X22943057Y32298500D02*
X22943057Y29486500D01*
X22943057Y31942000D02*
X21211057Y31942000D01*
X22943057Y29486500D02*
X22775057Y29486500D01*
D18*
G36*
X21429557Y32222500D02*
G01*
X21134557Y32222500D01*
X21134557Y32527500D01*
X21429557Y32527500D01*
X21429557Y32222500D01*
G37*
G36*
X23019557Y32222500D02*
G01*
X22724557Y32222500D01*
X22724557Y32527500D01*
X23019557Y32527500D01*
X23019557Y32222500D01*
G37*
D11*
%TO.C,R1*%
X51420000Y21356359D02*
X51420000Y21663641D01*
X52180000Y21356359D02*
X52180000Y21663641D01*
D16*
%TO.C,C14*%
X6727500Y20724000D02*
X6727500Y20809000D01*
X6727500Y20724000D02*
X3075500Y20724000D01*
X6727500Y23676000D02*
X6727500Y23591000D01*
X6727500Y23676000D02*
X3075500Y23676000D01*
X4266500Y20724000D02*
X4266500Y23676000D01*
D18*
G36*
X3151500Y20647500D02*
G01*
X2694500Y20647500D01*
X2694500Y20859500D01*
X3151500Y20859500D01*
X3151500Y20647500D01*
G37*
G36*
X3151500Y23540500D02*
G01*
X2694500Y23540500D01*
X2694500Y23752500D01*
X3151500Y23752500D01*
X3151500Y23540500D01*
G37*
D16*
%TO.C,C16*%
X6727500Y10724000D02*
X6727500Y10809000D01*
X6727500Y10724000D02*
X3075500Y10724000D01*
X6727500Y13676000D02*
X6727500Y13591000D01*
X6727500Y13676000D02*
X3075500Y13676000D01*
X4266500Y10724000D02*
X4266500Y13676000D01*
D18*
G36*
X3151500Y10647500D02*
G01*
X2694500Y10647500D01*
X2694500Y10859500D01*
X3151500Y10859500D01*
X3151500Y10647500D01*
G37*
G36*
X3151500Y13540500D02*
G01*
X2694500Y13540500D01*
X2694500Y13752500D01*
X3151500Y13752500D01*
X3151500Y13540500D01*
G37*
D16*
%TO.C,C17*%
X6727500Y15724000D02*
X6727500Y15809000D01*
X6727500Y15724000D02*
X3075500Y15724000D01*
X6727500Y18676000D02*
X6727500Y18591000D01*
X6727500Y18676000D02*
X3075500Y18676000D01*
X4266500Y15724000D02*
X4266500Y18676000D01*
D18*
G36*
X3151500Y15647500D02*
G01*
X2694500Y15647500D01*
X2694500Y15859500D01*
X3151500Y15859500D01*
X3151500Y15647500D01*
G37*
G36*
X3151500Y18540500D02*
G01*
X2694500Y18540500D01*
X2694500Y18752500D01*
X3151500Y18752500D01*
X3151500Y18540500D01*
G37*
%TD*%
M02*
